<svg width="44" height="45" viewBox="0 0 44 45" fill="none" xmlns="http://www.w3.org/2000/svg">
<path d="M25.7737 43.7756C24.5264 43.7756 23.0443 43.5066 21.6014 43.0223C21.0878 42.8511 20.8138 42.2935 20.985 41.7848C21.1562 41.2712 21.7139 40.9973 22.2226 41.1685C23.4699 41.5892 24.7318 41.819 25.7688 41.819C30.2053 41.819 37.0435 35.6853 37.0435 27.5313C37.0435 19.7883 31.8782 13.2436 25.7688 13.2436C24.6047 13.2436 23.4552 13.4686 22.3546 13.9137C21.8557 14.1143 21.2834 13.8746 21.0829 13.3708C20.8823 12.8718 21.122 12.2996 21.6258 12.099C22.9563 11.561 24.3552 11.2919 25.7688 11.2919C33.0668 11.2919 39 18.5801 39 27.5362C39.0049 36.2771 31.7265 43.7756 25.7737 43.7756Z" fill="#826489"/>
<path d="M18.2312 43.7755C12.2735 43.7755 5 36.277 5 27.5312C5 17.9686 10.4392 11.287 18.2312 11.287C21.5916 11.287 24.7856 12.8278 27.2362 15.6207C27.5933 16.0267 27.5493 16.643 27.1433 17.0001C26.7373 17.3572 26.121 17.3132 25.7639 16.9072C23.69 14.5397 21.0144 13.2386 18.2312 13.2386C11.5936 13.2386 6.95655 19.1132 6.95655 27.5264C6.95655 35.6803 13.7947 41.8141 18.2312 41.8141C23.7242 41.8141 28.3955 36.8396 29.3395 29.9867C29.4129 29.4536 29.9069 29.0769 30.4401 29.1503C30.9732 29.2237 31.3499 29.7177 31.2765 30.2509C30.2004 38.0917 24.7123 43.7755 18.2312 43.7755Z" fill="#826489"/>
<path d="M12.2001 22.0431C12.161 22.0431 12.1219 22.0382 12.0827 22.0284C11.8186 21.9648 11.6572 21.7007 11.7208 21.4365C12.3371 18.8881 13.5942 17.2446 15.4578 16.55C15.7121 16.4571 15.9909 16.5843 16.0888 16.8386C16.1817 17.093 16.0545 17.3718 15.8002 17.4696C14.2594 18.0419 13.2077 19.4555 12.6746 21.6664C12.6208 21.8914 12.4202 22.0431 12.2001 22.0431Z" fill="#826489"/>
<path d="M22.0954 9.7951C21.9193 9.7951 21.8068 9.79021 21.7823 9.79021C21.2736 9.76086 20.8677 9.34509 20.8579 8.83639C20.8481 8.34236 20.8285 3.94011 23.3133 2.13519C25.0645 0.863433 29.1781 0.100378 29.6428 0.0172242C29.9656 -0.0414724 30.2933 0.066138 30.5184 0.300924C30.7434 0.535711 30.8412 0.868325 30.7678 1.18626C30.6749 1.62649 29.7993 5.52492 28.3759 7.32495C26.5563 9.61412 23.1519 9.7951 22.0954 9.7951ZM28.4689 2.26237C27.065 2.59498 25.2748 3.12325 24.4579 3.71511C23.3672 4.50751 22.9661 6.46407 22.8487 7.80431C23.9835 7.71137 25.8422 7.35919 26.8351 6.107C27.5004 5.27057 28.0922 3.58793 28.4689 2.26237Z" fill="#826489"/>
<path d="M21.4204 13.762C21.2345 13.762 21.0437 13.7082 20.8774 13.5957C20.4274 13.2973 20.31 12.6859 20.6084 12.2407C21.4595 10.9739 20.9753 9.34505 20.9166 9.15918C19.5616 5.92597 17.6638 5.06998 17.5855 5.03085C17.0964 4.81563 16.8616 4.24334 17.0719 3.74931C17.2823 3.25528 17.8399 3.02049 18.3388 3.22104C18.4464 3.26506 21.0535 4.37051 22.741 8.43525C22.7997 8.58689 23.6949 11.15 22.2372 13.3266C22.0465 13.6103 21.7383 13.762 21.4204 13.762Z" fill="#826489"/>
</svg>
