<svg width="44" height="45" viewBox="0 0 44 45" fill="none" xmlns="http://www.w3.org/2000/svg">
<path d="M40.1006 30.4303C39.8312 30.3606 39.5461 30.4123 39.3166 30.5715L30.892 36.4293C30.5433 36.6346 28.8634 37.7088 28.788 39.3965C28.7391 40.5016 29.3707 41.5134 30.6653 42.4037C31.9189 43.2669 33.2754 43.705 34.6949 43.705C36.368 43.705 38.0439 43.069 39.4145 41.9144C42.3057 39.4781 42.8181 35.1673 40.7192 30.9314C40.5955 30.6828 40.37 30.4995 40.1006 30.4303ZM38.1817 40.4533C37.1565 41.3177 35.9181 41.7935 34.6954 41.7935C33.6696 41.7935 32.6787 41.4689 31.7496 40.8289C31.3475 40.5528 30.6777 40.0107 30.6985 39.4854C30.7216 38.9134 31.5038 38.2836 31.8756 38.0693C31.902 38.0552 31.9273 38.0384 31.9521 38.0215L39.4544 32.8053C40.6163 35.8653 40.1568 38.7891 38.1817 40.4533Z" fill="#826489"/>
<path d="M36.7054 27.7961C37.4933 21.9281 32.8564 18.1471 32.2788 17.7017L26.1617 11.868C25.7489 11.4321 24.619 10.007 24.3508 8.66684C24.2473 8.14944 23.7451 7.81369 23.226 7.91717C22.708 8.02065 22.3717 8.52456 22.4757 9.04196C22.9054 11.1909 24.6966 13.1024 24.8074 13.2172L30.9983 19.1217C31.0264 19.1487 31.0567 19.174 31.0877 19.1977C31.1321 19.2303 35.4839 22.5248 34.8107 27.5408C34.3338 31.0805 31.2795 32.4561 28.5018 32.9662C28.6491 32.7542 28.7948 32.541 28.9191 32.311C31.3717 27.7714 28.3095 21.5502 28.1779 21.2875C27.9416 20.8151 27.368 20.6256 26.8962 20.8607C26.4243 21.0969 26.2325 21.6705 26.4682 22.1424C26.4957 22.1986 29.2172 27.746 27.2342 31.4067C26.2601 33.2058 24.24 34.3013 21.2295 34.6635C20.6935 34.6466 16.5082 34.371 14.8368 29.9939C14.6484 29.5002 14.0944 29.255 13.6029 29.4422C13.1096 29.6306 12.8628 30.1829 13.0512 30.6761C13.3779 31.5315 13.7823 32.2604 14.2327 32.8863C12.7278 33.0421 11.211 32.6957 9.91187 31.874C8.31692 30.864 7.31699 29.3078 7.0954 27.4907C6.48577 22.4837 10.7796 19.1634 10.8213 19.1319C10.8511 19.1094 10.8798 19.0852 10.9067 19.0593L17.0846 13.1654C17.1926 13.0659 18.1717 12.107 19.2341 9.18031C19.4141 8.68428 19.1582 8.13594 18.6616 7.95542C18.1661 7.77545 17.6172 8.0319 17.4367 8.52793C16.5453 10.9828 15.7816 11.7656 15.7759 11.7713L9.62336 17.6415C9.0621 18.0796 4.48196 21.851 5.19733 27.7224C5.48527 30.085 6.83052 32.1873 8.88888 33.4909C10.296 34.3812 11.9005 34.8373 13.5269 34.8373C14.2805 34.8373 15.0375 34.7344 15.7821 34.5364C18.2499 36.543 21.1069 36.5784 21.2773 36.5784C21.3138 36.5784 21.351 36.5762 21.3875 36.5717C23.2682 36.3529 24.844 35.8732 26.1122 35.1427C32.339 34.8963 36.1009 32.2913 36.7054 27.7961Z" fill="#826489"/>
<path d="M16.5605 16.8424C16.3203 17.15 14.2001 19.9029 13.6895 21.747C13.5489 22.256 13.8469 22.783 14.3565 22.9241C14.4414 22.9477 14.5274 22.959 14.6118 22.959C15.0308 22.959 15.4154 22.6817 15.533 22.2577C15.8794 21.0047 17.4811 18.7725 18.0694 18.0184C18.3939 17.6016 18.3191 17.001 17.9029 16.6765C17.4856 16.3509 16.8855 16.4257 16.5605 16.8424Z" fill="#826489"/>
<path d="M21.1412 6.76425C21.6687 6.76425 22.0973 6.33627 22.0973 5.80818V0.957534C22.0973 0.429447 21.6687 0.00146484 21.1412 0.00146484C20.6137 0.00146484 20.1851 0.429447 20.1851 0.957534V5.80818C20.1846 6.33627 20.6131 6.76425 21.1412 6.76425Z" fill="#826489"/>
<path d="M23.4678 6.63714C23.618 6.72319 23.7816 6.76425 23.9425 6.76425C24.2743 6.76425 24.596 6.59159 24.7731 6.28396L25.8602 4.38926C26.1229 3.93147 25.9648 3.34658 25.5065 3.08394C25.0476 2.8213 24.4638 2.9799 24.2017 3.43712L23.1146 5.33183C22.852 5.79018 23.01 6.37451 23.4678 6.63714Z" fill="#826489"/>
<path d="M17.6858 6.50897C17.8697 6.67937 18.1031 6.76429 18.336 6.76429C18.5924 6.76429 18.8483 6.66137 19.0367 6.45835C19.3961 6.07142 19.3736 5.46629 18.9861 5.10692L16.9435 3.21221C16.5571 2.85453 15.952 2.8759 15.5926 3.26283C15.2332 3.64976 15.2557 4.25489 15.6432 4.61426L17.6858 6.50897Z" fill="#826489"/>
<path d="M36.3763 11.5711C36.1078 11.5711 35.8908 11.3541 35.8908 11.0856V9.19224C35.8908 8.92376 36.1078 8.70675 36.3763 8.70675C36.6447 8.70675 36.8617 8.92376 36.8617 9.19224V11.0856C36.8617 11.3541 36.6447 11.5711 36.3763 11.5711ZM40.114 7.8086H38.2449C37.9764 7.8086 37.7594 7.59158 37.7594 7.32311C37.7594 7.05463 37.9764 6.83762 38.2449 6.83762H40.114C40.3825 6.83762 40.5995 7.05463 40.5995 7.32311C40.5995 7.59158 40.3825 7.8086 40.114 7.8086ZM34.5309 7.8086H32.6618C32.3933 7.8086 32.1763 7.59158 32.1763 7.32311C32.1763 7.05463 32.3933 6.83762 32.6618 6.83762H34.5309C34.7994 6.83762 35.0164 7.05463 35.0164 7.32311C35.0164 7.59158 34.7994 7.8086 34.5309 7.8086ZM36.3763 5.96326C36.1078 5.96326 35.8908 5.74624 35.8908 5.47777V3.60864C35.8908 3.34016 36.1078 3.12315 36.3763 3.12315C36.6447 3.12315 36.8617 3.34016 36.8617 3.60864V5.47777C36.8617 5.74624 36.6447 5.96326 36.3763 5.96326Z" fill="#826489"/>
<path d="M8.76928 15.7557C8.65349 15.7375 8.54316 15.6812 8.45815 15.5875C8.26055 15.3697 8.27642 15.033 8.4948 14.8349C9.17955 14.2136 9.83512 13.5894 10.4432 12.9792C10.6508 12.7708 10.9876 12.7689 11.1964 12.9776C11.4047 13.1852 11.4055 13.5224 11.1979 13.7308C10.5771 14.3535 9.90869 14.9909 9.21134 15.6237C9.08611 15.7372 8.92295 15.7799 8.76928 15.7557Z" fill="#826489"/>
<path d="M3.41561 32.633C3.50938 32.8184 3.69692 32.9255 3.89192 32.9255C3.97291 32.9255 4.05442 32.9074 4.13168 32.868C4.39434 32.7358 4.49983 32.4151 4.36717 32.1519C3.50352 30.4422 3.06557 28.5338 3.06557 26.4788C3.06557 23.0013 4.3043 19.9905 6.74606 17.5317C7.10249 17.1753 7.47065 16.8498 7.8404 16.5642C8.07323 16.3846 8.11585 16.0506 7.9363 15.8172C7.75569 15.5839 7.42163 15.5412 7.1888 15.7213C6.78335 16.0341 6.3811 16.39 5.9911 16.7794C3.34262 19.446 2 22.7099 2 26.4788C2 28.7027 2.47631 30.7725 3.41561 32.633Z" fill="#826489"/>
</svg>
