<svg width="44" height="45" viewBox="0 0 44 45" fill="none" xmlns="http://www.w3.org/2000/svg">
<path d="M36 18.1855C36 17.9027 35.8292 17.6472 35.5681 17.5387C35.3049 17.4295 35.0053 17.4897 34.8051 17.6906C34.5188 17.9769 34.2171 18.2429 33.9063 18.4942C34.8044 16.9255 35.3 15.1398 35.3 13.2855V11.8855C35.3 11.4991 34.9864 11.1855 34.6 11.1855H33.2C33.1804 11.1855 33.1608 11.1876 33.1405 11.1876C33.1741 10.9559 33.2 10.7228 33.2 10.4855C33.2 9.43204 32.8521 8.38764 32.22 7.54554L28.86 3.06554C28.5961 2.71344 28.0039 2.71274 27.74 3.06554L26.1755 5.15154C26.0929 5.01434 26.0159 4.87364 25.92 4.74554L22.56 0.26554C22.2961 -0.0865602 21.7039 -0.0865602 21.44 0.26554L18.08 4.74554C17.9834 4.87364 17.9071 5.01504 17.8245 5.15154L16.26 3.06554C15.9961 2.71274 15.4039 2.71344 15.14 3.06554L11.78 7.54554C11.1479 8.38764 10.8 9.43204 10.8 10.4855C10.8 10.7228 10.8259 10.9559 10.8595 11.1883C10.8392 11.1876 10.8196 11.1855 10.8 11.1855H9.4C9.0136 11.1855 8.7 11.4991 8.7 11.8855V13.2855C8.7 15.1363 9.1942 16.9185 10.0888 18.4844C9.7794 18.2345 9.4784 17.9734 9.1949 17.6906C8.994 17.4897 8.693 17.4295 8.4319 17.5387C8.1708 17.6472 8 17.9027 8 18.1855C8 22.9161 11.3691 26.8739 15.8337 27.7867C16.5414 29.7229 17.0566 31.7081 17.3821 33.7269C17.1182 33.3741 16.8368 33.0325 16.5197 32.7154L15.4949 31.6906C15.2212 31.4169 14.7788 31.4169 14.5051 31.6906C14.2314 31.9643 14.2314 32.4067 14.5051 32.6804L15.5299 33.7052C16.9936 35.1696 17.8 37.1156 17.8 39.1855V42.6855C17.8 43.0719 18.1136 43.3855 18.5 43.3855H25.5C25.8864 43.3855 26.2 43.0719 26.2 42.6855V41.2855C26.2 39.2156 27.0064 37.2696 28.4701 35.8052L29.4949 34.7804C29.7686 34.5067 29.7686 34.0643 29.4949 33.7906C29.2212 33.5169 28.7788 33.5169 28.5051 33.7906L27.4803 34.8154C27.0379 35.2578 26.6487 35.738 26.3106 36.2476C26.5444 33.3587 27.1653 30.5237 28.1663 27.7867C32.6309 26.8739 36 22.9161 36 18.1855ZM26.2 26.5855H25.423C26.333 25.6951 26.9 24.4561 26.9 23.0855C26.9 22.851 26.8769 22.6172 26.8426 22.3855H26.8496C29.6202 22.3855 32.255 21.5007 34.4306 19.8648C33.6515 23.6952 30.2565 26.5855 26.2 26.5855ZM18.5 23.0855C18.5 22.333 18.7485 21.5868 19.2 20.9855L22 17.2524L24.8 20.9855C25.2515 21.5868 25.5 22.333 25.5 23.0855C25.5 25.0154 23.9299 26.5855 22 26.5855C20.0701 26.5855 18.5 25.0154 18.5 23.0855ZM18.5 15.3855C18.5 14.633 18.7485 13.8868 19.2 13.2855L22 9.55244L24.8 13.2855C25.2515 13.8868 25.5 14.633 25.5 15.3855C25.5 16.3977 25.0632 17.3462 24.3156 18.007L22.56 15.6655C22.2961 15.3134 21.7039 15.3134 21.44 15.6655L19.6837 18.007C18.9368 17.3462 18.5 16.3977 18.5 15.3855ZM28.3 4.65244L31.1 8.38554C31.5515 8.98684 31.8 9.73304 31.8 10.4855C31.8 10.7585 31.758 11.0245 31.6964 11.2863C31.0363 11.3696 30.3839 11.5019 29.7483 11.6944C29.3787 11.8064 29.1694 12.197 29.2814 12.5673C29.3934 12.9369 29.7854 13.1469 30.1543 13.0342C31.1364 12.736 32.1619 12.5855 33.2 12.5855H33.9V13.2855C33.9 15.9805 32.7156 18.5208 30.6499 20.2561C30.6212 20.2799 30.6065 20.3128 30.5834 20.3401C29.3983 20.7566 28.1432 20.9855 26.8503 20.9855H26.4135C26.2742 20.6915 26.116 20.4066 25.92 20.1455L25.1577 19.1291C26.2567 18.203 26.9 16.8415 26.9 15.3855C26.9 15.1671 26.8762 14.9494 26.8468 14.7331C27.2003 14.4643 27.5678 14.2109 27.9507 13.9897C28.2853 13.7958 28.3994 13.3674 28.2062 13.0328C28.0123 12.6982 27.5846 12.5841 27.2493 12.7773C26.9672 12.9404 26.6914 13.1189 26.4219 13.3058C26.2805 13.0041 26.1202 12.7115 25.9193 12.4448L25.157 11.4284C26.2567 10.503 26.9 9.14154 26.9 7.68554C26.9 7.34534 26.851 7.00934 26.781 6.67754L28.3 4.65244ZM19.2 5.58554L22 1.85244L24.8 5.58554C25.2515 6.18684 25.5 6.93304 25.5 7.68554C25.5 8.69774 25.0632 9.64624 24.3156 10.307L22.56 7.96554C22.2961 7.61344 21.7039 7.61344 21.44 7.96554L19.6837 10.307C18.9368 9.64624 18.5 8.69774 18.5 7.68554C18.5 6.93304 18.7485 6.18684 19.2 5.58554ZM12.2 10.4855C12.2 9.73304 12.4485 8.98684 12.9 8.38554L15.7 4.65244L17.219 6.67824C17.149 7.00934 17.1 7.34534 17.1 7.68554C17.1 9.14154 17.7433 10.503 18.8423 11.4291L18.08 12.4455C17.8784 12.7136 17.7174 13.0076 17.576 13.3107C16.0087 12.225 14.195 11.5355 12.3057 11.2926C12.2427 11.0287 12.2 10.7606 12.2 10.4855ZM9.568 19.8627C11.0373 20.9638 12.7306 21.7331 14.5457 22.1146C14.9251 22.193 15.2954 21.9522 15.3752 21.5742C15.455 21.1955 15.2128 20.8245 14.8348 20.7447C14.3525 20.6432 13.8821 20.5067 13.4215 20.345C13.3963 20.3156 13.3809 20.2813 13.3508 20.2561C11.2844 18.5208 10.1 15.9805 10.1 13.2855V12.5855H10.8C13.1268 12.5855 15.315 13.3324 17.1532 14.7345C17.1238 14.9501 17.1 15.1671 17.1 15.3855C17.1 16.8415 17.7433 18.203 18.8423 19.1291L18.08 20.1455C17.884 20.4066 17.7258 20.6915 17.5865 20.9855H17.1497C16.7633 20.9855 16.4497 21.2991 16.4497 21.6855C16.4497 22.0719 16.7633 22.3855 17.1497 22.3855H17.1567C17.1231 22.6172 17.1 22.851 17.1 23.0855C17.1 24.4561 17.667 25.6951 18.577 26.5855H17.8C13.7428 26.5855 10.3478 23.6938 9.568 19.8627ZM24.8 38.8663V41.9855H19.2V38.8663C19.2 35.1402 18.5826 31.4792 17.3786 27.9645C17.5193 27.9701 17.6579 27.9855 17.8 27.9855H26.2C26.3421 27.9855 26.4807 27.9701 26.6214 27.9645C25.4174 31.4792 24.8 35.1402 24.8 38.8663Z" fill="#826489"/>
<path d="M22.9051 30.9907C21.8698 32.0253 21.3 33.4015 21.3 34.8659V36.3856C21.3 36.772 21.6136 37.0856 22 37.0856C22.3864 37.0856 22.7 36.772 22.7 36.3856V34.8659C22.7 33.776 23.1242 32.7512 23.8949 31.9805C24.1686 31.7068 24.1686 31.2644 23.8949 30.9907C23.6212 30.717 23.1788 30.717 22.9051 30.9907Z" fill="#826489"/>
</svg>
