<svg width="44" height="45" viewBox="0 0 44 45" fill="none" xmlns="http://www.w3.org/2000/svg">
<path d="M32.4614 12.6767C32.5083 12.4893 32.5511 12.3031 32.5868 12.1198C33.0411 9.82381 33.2557 6.93075 31.7028 6.18357C31.6253 6.1459 31.5458 6.12452 31.4668 6.1006C30.933 4.77521 29.8349 2.5423 28.4758 2.47156C27.3843 2.40641 26.3301 3.73231 25.598 4.94114C24.5866 2.26949 23.0628 0.00146484 21.7164 0.00146484C20.2584 0.00146484 18.9242 2.4741 18.3421 3.72773C18.2488 3.7491 18.1555 3.77048 18.0622 3.80967C17.948 3.85752 17.844 3.91859 17.7456 3.98731C16.9549 2.94796 16.2086 2.42982 15.528 2.47257C14.1653 2.53976 13.0692 4.77267 12.536 6.10009C12.4559 6.12401 12.3759 6.1459 12.2964 6.18407C10.744 6.9333 10.9592 9.82584 11.4134 12.1208C11.4496 12.3036 11.4919 12.4899 11.5388 12.6772C10.561 13.7333 11.0576 16.1245 11.8901 18.0887C11.9548 18.2398 12.0359 18.4129 12.1266 18.6083C12.5727 19.5612 13.2461 21.0016 13.344 22.8685C13.3792 23.5567 13.4867 25.3926 13.6213 27.6535C13.5958 27.7807 13.606 27.91 13.6438 28.0311C13.9746 33.5668 14.4513 41.341 14.4584 41.4535C14.4615 41.5024 14.4691 41.5507 14.4814 41.5986C14.5007 41.6729 14.9703 43.3698 17.3597 43.3698C17.4479 43.3698 17.5391 43.3678 17.6324 43.3622C18.1799 43.3337 18.6602 43.2217 19.0782 43.0364C19.5396 43.5266 20.34 44.0015 21.7154 44.0015C23.2825 44.0015 24.1053 43.3871 24.529 42.8344C24.9531 43.1006 25.5455 43.3194 26.3663 43.3617C26.4601 43.3673 26.5503 43.3693 26.6385 43.3693C29.0269 43.3693 29.5 41.6744 29.5194 41.5986C29.5311 41.5502 29.5398 41.5024 29.5428 41.452C29.5505 41.339 30.0266 33.5521 30.358 28.0164C30.3906 27.9029 30.4008 27.7838 30.3789 27.6662C30.5145 25.3982 30.6231 23.5567 30.6578 22.8665C30.7536 21.0072 31.4235 19.5688 31.8675 18.6175C31.9618 18.4175 32.0439 18.2398 32.1102 18.0846C32.9427 16.1235 33.4387 13.7323 32.4614 12.6767ZM28.3968 4.00716C28.6644 4.14713 29.2915 4.91365 29.9124 6.34644C28.9408 6.88698 28.0634 7.98994 27.55 8.73153C27.3675 8.24036 27.0657 7.87491 26.637 7.64791C26.5523 7.60312 26.4672 7.57614 26.3826 7.54916C26.3387 7.35626 26.2934 7.16285 26.2434 6.96842C27.1488 5.08925 28.0532 4.13898 28.3968 4.00716ZM21.7169 1.5335C22.3236 1.73506 24.0508 4.21228 24.8705 7.80009C23.6256 8.55542 22.5464 10.3857 22.1513 11.1176C21.9509 11.4887 22.0896 11.9524 22.4607 12.1524C22.8324 12.3524 23.2963 12.2135 23.4976 11.8434C24.3572 10.2534 25.5557 8.94327 25.9182 8.99518C26.3199 9.20794 26.6411 10.7115 24.9806 14.8775L24.8695 15.1498C24.4637 16.1362 23.6185 18.1889 23.6185 20.7053C23.6185 21.6826 23.593 24.9156 23.5614 28.5671C23.0725 28.5991 22.555 28.62 22.0004 28.62C21.2245 28.62 20.5204 28.5808 19.8735 28.5197C19.8465 25.3732 19.8256 22.6649 19.8256 21.7696C19.8256 19.4497 19.0838 17.6229 18.6408 16.5312C18.5603 16.3317 18.4884 16.1555 18.4323 16.0034C17.5712 13.6366 17.7033 12.2155 17.9271 11.8837C18.4491 12.0445 19.7613 13.4366 20.7769 14.9228C21.0149 15.2709 21.4906 15.3615 21.8393 15.1233C22.188 14.8856 22.2782 14.4118 22.0401 14.0626C21.5303 13.3159 19.8444 10.9761 18.4313 10.4519C18.393 10.2615 18.3584 10.0676 18.3293 9.8686C17.9903 7.53135 18.1657 6.18916 18.3997 5.5906C18.4043 5.57991 18.4073 5.56871 18.4114 5.55803C18.493 5.36003 18.5801 5.25009 18.6551 5.21803C18.6693 5.21192 18.6877 5.21192 18.7045 5.20937C18.7514 5.21853 18.7988 5.22362 18.8452 5.22413C19.3647 5.3865 20.4496 6.53833 21.2851 8.02303C21.4916 8.39051 21.9575 8.52132 22.3261 8.31467C22.6952 8.10905 22.8252 7.64384 22.6193 7.27584C22.2262 6.57548 21.1505 4.81847 19.8806 4.0494C20.6667 2.44254 21.4233 1.63733 21.7169 1.5335ZM15.6039 4.00716C15.7681 4.0779 16.2269 4.42758 16.8601 5.37581C16.5547 6.41312 16.5624 7.78279 16.6944 9.09545C16.2585 8.418 15.2425 6.98827 14.0898 6.34746C14.7087 4.91213 15.3358 4.14662 15.6039 4.00716ZM13.2976 17.4906C12.4381 15.4633 12.4468 14.143 12.6073 13.7883C13.1187 13.9659 14.3544 15.16 15.3271 16.4355C15.583 16.7714 16.0628 16.8361 16.3987 16.5805C16.7347 16.325 16.7999 15.8466 16.5445 15.5107C16.0388 14.8464 14.3876 12.7907 13.0412 12.3351C12.9978 12.1641 12.9464 11.99 12.9132 11.8241C12.329 8.86896 12.744 7.66369 12.9611 7.55884C12.9769 7.55018 12.9968 7.54815 13.0172 7.54713C13.0402 7.54917 13.0631 7.55934 13.086 7.55934C13.0942 7.55934 13.1018 7.55578 13.1095 7.55578C13.5688 7.66776 14.6358 8.69896 15.4648 10.0106C15.6901 10.3669 16.1627 10.4748 16.519 10.2498C16.6434 10.1714 16.7352 10.0625 16.7953 9.93986C16.802 9.98821 16.8081 10.0376 16.8152 10.0859C16.8468 10.3033 16.8835 10.517 16.9253 10.7257C15.8089 11.7747 16.2096 14.37 16.9942 16.5261C17.0558 16.6935 17.1338 16.8864 17.222 17.1043C17.6492 18.1564 18.2946 19.7474 18.2946 21.7696C18.2946 22.6476 18.3145 25.2572 18.3405 28.3146C16.6918 28.0225 15.6355 27.5919 15.1344 27.3491C15.0059 25.1915 14.904 23.4538 14.8703 22.7901C14.7572 20.6249 13.9772 18.9585 13.5112 17.9624C13.4296 17.7838 13.3557 17.6255 13.2976 17.4906ZM17.5544 41.8383C16.3849 41.8989 16.052 41.4021 15.9786 41.253C15.9241 40.3582 15.5407 34.1002 15.2379 29.0562C15.9603 29.3346 16.9926 29.6487 18.3548 29.8691C18.3992 34.9294 18.4537 40.5831 18.4639 41.6464C18.2192 41.7538 17.9159 41.8195 17.5544 41.8383ZM21.7164 42.4755C20.4006 42.4755 20.0647 41.881 19.9948 41.7095C19.9867 40.8672 19.9316 35.1869 19.8867 30.0553C20.5372 30.1118 21.2372 30.1475 22.0004 30.1475C22.5484 30.1475 23.0587 30.1271 23.5486 30.0961C23.5027 35.3101 23.4497 40.8473 23.4411 41.7034C23.361 41.8984 23.0149 42.4755 21.7164 42.4755ZM26.4453 41.8383C25.7295 41.8016 25.2299 41.5848 25.0005 41.2122C24.9924 41.2005 24.9837 41.1904 24.9755 41.1797C24.9913 39.4568 25.0388 34.5629 25.079 29.9505C26.7252 29.7327 27.9456 29.3718 28.7644 29.0557C28.4615 34.0977 28.0787 40.3526 28.0236 41.2535C27.9502 41.396 27.6092 41.8973 26.4453 41.8383ZM30.7016 17.4901C30.6419 17.6306 30.566 17.7924 30.4809 17.9741C30.0174 18.9687 29.2395 20.6331 29.1304 22.7896C29.0973 23.4533 28.9948 25.1895 28.8663 27.346C28.3117 27.6153 27.0718 28.1197 25.0918 28.4057C25.1234 24.821 25.1473 21.6688 25.1473 20.7033C25.1473 18.4887 25.8866 16.693 26.2837 15.729L26.4009 15.4404C27.2396 13.3378 27.6856 11.6419 27.7483 10.3537C28.0461 10.4081 28.3616 10.2829 28.5329 10.0111C29.3562 8.70812 30.413 7.68048 30.88 7.55782C30.9193 7.55985 30.959 7.55629 30.9998 7.5512C31.0115 7.55375 31.0263 7.55375 31.0365 7.55934C31.2547 7.6642 31.6687 8.86845 31.0845 11.8236C31.0523 11.99 31.0126 12.16 30.9687 12.3311C29.6203 12.7785 27.9609 14.8449 27.4532 15.5117C27.1983 15.8471 27.263 16.3266 27.5995 16.5816C27.9349 16.8366 28.4146 16.7714 28.6716 16.436C29.6427 15.1605 30.8795 13.9654 31.3913 13.7883C31.5519 14.142 31.5621 15.4618 30.7016 17.4901Z" fill="#826489"/>
</svg>
