<svg width="44" height="45" viewBox="0 0 44 45" fill="none" xmlns="http://www.w3.org/2000/svg">
<path d="M13.9069 43.8623C11.3302 43.8623 8.71145 43.0104 6.11199 41.3285C4.98678 40.5974 4.11914 39.6783 3.53132 38.5981C2.59694 36.9681 2.26422 34.9327 2.55344 32.5681C2.98206 28.6566 4.71833 25.7931 7.71329 24.0687C8.88053 23.3894 10.5238 22.6919 12.7327 21.9384C14.0359 21.493 16.2789 20.7583 19.399 19.7572C21.639 18.9899 23.6131 17.8084 25.2485 16.2501C26.2511 15.3103 27.4238 13.88 28.7408 11.9935C28.7462 11.985 28.7522 11.9766 28.7581 11.9682L28.8402 11.8446C30.2447 9.8157 31.3249 8.48631 32.1535 7.766C33.6263 6.51966 35.3799 5.8918 37.3752 5.8918C38.0678 5.8918 38.7006 5.98919 39.2667 6.18348L40.0676 4.8798C40.3533 4.41508 40.9624 4.26973 41.4276 4.55499C41.8928 4.84074 42.0382 5.44982 41.7524 5.91503L40.9431 7.23256C41.2131 7.502 41.4538 7.80555 41.6624 8.14173C42.8559 9.85229 43.4427 11.7957 43.4066 13.9181C43.4066 15.3454 43.1431 16.8804 42.623 18.4649C42.6176 18.4822 42.6122 18.499 42.6057 18.5163C42.0204 20.2452 41.1162 22.0783 39.9163 23.9718C37.9333 27.1215 35.3833 30.3731 32.3389 33.6335C29.6673 36.4732 26.92 38.7588 24.1698 40.4283C23.7382 40.6705 23.3535 40.8955 22.9842 41.1204C22.9684 41.1303 22.9526 41.1387 22.9358 41.1476C19.6996 42.877 16.7402 43.7896 14.1412 43.8598C14.0636 43.8613 13.985 43.8623 13.9069 43.8623ZM29.9777 13.6684C28.7289 15.4106 27.5993 16.7563 26.6066 17.6872C24.7689 19.4383 22.5516 20.7677 20.0214 21.6339C16.8954 22.6375 14.6643 23.3677 13.3715 23.8092C11.3158 24.5102 9.74619 25.1732 8.70403 25.7793C6.24844 27.1932 4.88049 29.4871 4.51811 32.794C4.2808 34.7389 4.52997 36.363 5.2582 37.6335C5.6977 38.4419 6.34336 39.1197 7.18826 39.6689C9.52718 41.1832 11.8523 41.9342 14.0948 41.8823C16.3709 41.8214 19.0257 40.9919 21.9796 39.4163C22.3608 39.1844 22.7588 38.9526 23.1731 38.7212C25.7404 37.1609 28.3488 34.9881 30.8958 32.2819C33.8527 29.1149 36.3261 25.9622 38.2443 22.9153C39.2212 21.3743 39.9825 19.8892 40.5145 18.4886C39.7433 17.7703 39.1203 16.8933 38.6561 15.8714C37.4429 17.6259 36.0369 18.5732 34.4593 18.6933C34.0193 18.7284 33.6105 18.4654 33.4572 18.0511C32.9846 16.7776 33.1181 15.2213 33.8685 13.3342C32.4155 13.7796 31.1267 13.8904 29.9777 13.6684ZM35.892 10.4648C36.1595 10.4648 36.422 10.5731 36.6133 10.7773C36.9105 11.0947 36.9658 11.5683 36.7498 11.945C35.6824 13.8078 35.1445 15.3562 35.1623 16.4963C36.1817 16.0301 37.1379 14.8614 38.0139 13.0084C38.1954 12.6248 38.6027 12.4028 39.0234 12.4488C39.4451 12.4987 39.7882 12.8117 39.8758 13.2269C39.9949 13.793 40.1521 14.3185 40.3434 14.7887C40.5699 15.3439 40.8442 15.8363 41.1705 16.2723C41.3426 15.4526 41.4296 14.6587 41.4296 13.9003C41.4593 12.1541 41.0005 10.6388 40.027 9.25309C40.0152 9.23629 40.0038 9.21898 39.9934 9.20168C39.7576 8.81754 39.4713 8.51647 39.1179 8.28312C38.6709 8.00824 38.0851 7.86932 37.3757 7.86932C35.8401 7.86932 34.5532 8.32662 33.4414 9.26694C32.9129 9.72671 32.1936 10.5761 31.3007 11.7957C32.4581 11.765 33.8492 11.3542 35.457 10.5657C35.5954 10.4975 35.7442 10.4648 35.892 10.4648Z" fill="#826489"/>
<path d="M14.6831 39.7109C13.5708 39.7109 12.4371 39.5092 11.305 39.1103C11.0474 39.0193 10.9125 38.7375 11.0029 38.4799C11.0939 38.2224 11.3767 38.0889 11.6338 38.1779C12.7402 38.5679 13.8461 38.7523 14.916 38.7187C15.3743 38.7034 15.8489 38.6639 16.323 38.6001C17.9228 38.3173 19.7189 37.6439 21.6405 36.6033C22.785 36.0066 23.932 35.2581 25.0562 34.3756C26.436 33.3201 27.8302 32.0564 29.2066 30.6158C31.674 27.9373 33.7514 25.2666 35.375 22.685C36.2134 21.362 37.4227 18.769 38.9696 14.9746C39.0724 14.7215 39.3607 14.5994 39.6138 14.7037C39.8669 14.8065 39.988 15.0952 39.8847 15.3483C38.316 19.1961 37.0801 21.8425 36.211 23.2125C34.5563 25.8436 32.4418 28.5627 29.9279 31.2921C28.5105 32.7763 27.0778 34.074 25.6623 35.1562C24.4951 36.0733 23.2967 36.8549 22.1048 37.4754C20.0961 38.5635 18.1997 39.2714 16.4748 39.5755C15.9477 39.6472 15.441 39.6892 14.9471 39.707C14.8596 39.71 14.7711 39.7109 14.6831 39.7109ZM1.75555 39.3367C1.5746 39.3367 1.40058 39.2373 1.31357 39.0653C0.441976 37.3389 0 35.4182 0 33.3547C0 29.8574 1.24584 26.8289 3.70341 24.3545C4.0653 23.9931 4.43855 23.6628 4.81478 23.3726C5.03082 23.2055 5.3408 23.2451 5.5084 23.4616C5.675 23.6782 5.63545 23.9881 5.41941 24.1548C5.07631 24.4197 4.73469 24.7218 4.40395 25.0525C2.1382 27.3341 0.988762 30.1279 0.988762 33.3547C0.988762 35.2615 1.39514 37.0324 2.19654 38.6189C2.31964 38.8631 2.22175 39.1607 1.97802 39.2833C1.90633 39.3199 1.83069 39.3367 1.75555 39.3367ZM36.8067 31.6244C36.6979 31.6244 36.5887 31.5888 36.4972 31.5151C36.2846 31.344 36.2505 31.0331 36.422 30.82C36.9599 30.1516 37.4706 29.4847 37.9398 28.8375C38.1 28.6165 38.4085 28.5661 38.63 28.7273C38.8509 28.8875 38.9004 29.1965 38.7402 29.4174C38.2611 30.0779 37.7406 30.7587 37.1928 31.4395C37.0944 31.5616 36.951 31.6244 36.8067 31.6244ZM7.41572 30.734C7.35689 30.734 7.29756 30.7241 7.23972 30.7023C6.98462 30.6049 6.85657 30.3192 6.95397 30.0641C7.09388 29.6973 7.25356 29.3517 7.42907 29.0358C7.67428 28.5973 7.95904 28.1879 8.27643 27.8176C8.45392 27.6095 8.76637 27.5863 8.97351 27.7637C9.18066 27.9412 9.20488 28.2532 9.0274 28.4608C8.75252 28.7822 8.50533 29.1376 8.29275 29.5183C8.14048 29.7917 8.00106 30.0947 7.87796 30.4171C7.80232 30.6133 7.61495 30.734 7.41572 30.734ZM11.3465 26.8041C11.1513 26.8041 10.9669 26.6885 10.8887 26.4966C10.7854 26.244 10.907 25.9553 11.1597 25.852C11.9868 25.5138 13.1001 25.1737 14.4676 24.8405C15.4445 24.6086 17.0883 24.2358 19.4954 23.7004C20.1356 23.5447 20.8125 23.3267 21.4972 23.0562C22.6115 22.594 23.7837 21.9755 24.9737 21.2201C25.9595 20.5779 26.9695 19.6307 27.9706 18.4076C28.1436 18.1955 28.4546 18.1653 28.6662 18.3379C28.8773 18.5109 28.9084 18.8219 28.7359 19.033C27.67 20.3357 26.5844 21.3511 25.5086 22.0512C24.2657 22.8407 23.0426 23.4854 21.8685 23.9723C21.1343 24.2625 20.414 24.4944 19.7199 24.663C17.3078 25.1994 15.6684 25.5712 14.6989 25.801C13.3814 26.1219 12.3155 26.4472 11.5334 26.7666C11.4721 26.7928 11.4088 26.8041 11.3465 26.8041ZM40.7365 26.1862C40.6446 26.1862 40.5521 26.1605 40.4691 26.1076C40.2397 25.9597 40.1734 25.6537 40.3212 25.4243C41.5468 23.521 42.4614 21.7179 43.0388 20.0652C43.1293 19.8077 43.4106 19.6717 43.6687 19.7617C43.9263 19.8522 44.0622 20.1339 43.9722 20.3915C43.3691 22.1174 42.4209 23.9906 41.1528 25.9592C41.0584 26.1061 40.8992 26.1862 40.7365 26.1862ZM7.86066 22.7008C7.58776 22.7008 7.36628 22.4798 7.36628 22.2064V20.3277C7.36628 20.0544 7.58776 19.8334 7.86066 19.8334C8.13356 19.8334 8.35504 20.0544 8.35504 20.3277V22.2064C8.35504 22.4793 8.13405 22.7008 7.86066 22.7008ZM11.5932 18.9682H9.73931C9.46641 18.9682 9.24493 18.7472 9.24493 18.4738C9.24493 18.2004 9.46641 17.9794 9.73931 17.9794H11.5932C11.8661 17.9794 12.0876 18.2004 12.0876 18.4738C12.0876 18.7472 11.8661 18.9682 11.5932 18.9682ZM6.03145 18.9682H4.1528C3.8799 18.9682 3.65842 18.7472 3.65842 18.4738C3.65842 18.2004 3.8799 17.9794 4.1528 17.9794H6.03145C6.30435 17.9794 6.52583 18.2004 6.52583 18.4738C6.52583 18.7472 6.30435 18.9682 6.03145 18.9682ZM29.7118 17.3367C29.6377 17.3367 29.562 17.3199 29.4913 17.2848C29.2471 17.1627 29.1482 16.8656 29.2703 16.6214C29.3287 16.5047 29.3969 16.3875 29.475 16.2713C29.6268 16.0439 29.9333 15.9836 30.1607 16.1354C30.3876 16.2872 30.4484 16.5942 30.2967 16.8211C30.2428 16.9017 30.1953 16.9828 30.1548 17.0638C30.0678 17.2369 29.8933 17.3367 29.7118 17.3367ZM7.86066 17.1143C7.58776 17.1143 7.36628 16.8933 7.36628 16.6199V14.766C7.36628 14.4926 7.58776 14.2716 7.86066 14.2716C8.13356 14.2716 8.35504 14.4926 8.35504 14.766V16.6199C8.35504 16.8933 8.13405 17.1143 7.86066 17.1143Z" fill="#826489"/>
</svg>
