<svg width="44" height="45" viewBox="0 0 44 45" fill="none" xmlns="http://www.w3.org/2000/svg">
<path d="M21.0541 26.5933C21.14 26.6797 23.1841 28.7423 24.4431 31.6529C24.5954 32.0053 24.4333 32.4138 24.0814 32.5661C23.9914 32.6047 23.8982 32.6232 23.8061 32.6232C23.5376 32.6232 23.2813 32.4663 23.1682 32.2044C22.0136 29.5347 20.0914 27.595 20.0714 27.5755C19.8007 27.3043 19.8007 26.8644 20.0714 26.5933C20.343 26.3216 20.7829 26.3216 21.0541 26.5933ZM10.2536 22.6923C9.90687 22.5308 9.49321 22.6805 9.33114 23.0283C9.16908 23.3756 9.31931 23.7887 9.66608 23.9513C9.68872 23.9621 11.9669 25.0426 13.6653 27.0182C13.8027 27.1783 13.9972 27.2601 14.1922 27.2601C14.3527 27.2601 14.5132 27.205 14.6444 27.0923C14.9351 26.8423 14.9685 26.4039 14.7185 26.1127C12.8189 23.9024 10.3571 22.7407 10.2536 22.6923ZM16.6484 34.7543C16.3772 34.4826 15.9373 34.4832 15.6662 34.7538C15.3951 35.0249 15.3945 35.4648 15.6657 35.736C15.6796 35.7499 17.0538 37.138 17.8796 39.0519C17.9928 39.3143 18.2485 39.4718 18.5176 39.4718C18.6092 39.4718 18.7023 39.4532 18.7918 39.4147C19.1442 39.2629 19.3068 38.8544 19.1545 38.5019C18.2253 36.3467 16.7122 34.8181 16.6484 34.7543ZM19.7832 25.3219C19.5209 25.0647 19.0578 25.0647 18.8005 25.3219C18.6719 25.4506 18.5953 25.6306 18.5953 25.8107C18.5953 25.9959 18.6673 26.1709 18.8005 26.3046C18.9343 26.4333 19.1098 26.5053 19.2893 26.5053C19.4745 26.5053 19.6495 26.4333 19.7832 26.3046C19.9119 26.1709 19.9839 25.9959 19.9839 25.8107C19.9834 25.6306 19.9119 25.4506 19.7832 25.3219ZM6.94128 28.8617C6.81266 28.9955 6.73548 29.1704 6.73548 29.3556C6.73548 29.5409 6.80803 29.7158 6.94128 29.8496C7.07505 29.9782 7.24484 30.0502 7.43006 30.0502C7.61476 30.0502 7.79021 29.9782 7.92398 29.8444C8.05261 29.7158 8.12463 29.5409 8.12463 29.3556C8.12463 29.1704 8.05261 28.9955 7.92398 28.8617C7.66158 28.6045 7.20368 28.6045 6.94128 28.8617ZM43.2955 17.164C42.7172 18.158 41.8332 18.8799 40.7456 19.2657C40.9329 19.9011 40.9838 20.66 40.7914 21.4092C40.5316 22.4186 39.7475 23.7861 37.4867 24.5692C36.8822 24.7786 36.2483 24.8712 35.6011 24.8712C31.5525 24.8717 26.9528 21.2502 25.3594 19.8816L24.0984 21.1432C26.4677 23.7465 27.9077 26.8284 28.1732 29.9056C28.4819 33.484 27.243 36.7773 24.5907 39.4296C23.7362 40.2842 22.6588 41.1038 21.5572 41.7376C17.7391 43.9361 12.8051 43.9845 8.68235 41.8627C7.20368 41.1007 6.29661 41.1053 5.09113 41.8812C4.97588 41.9553 4.79838 42.0859 4.58178 42.2444C3.39482 43.1119 2.17751 44.0009 1.23186 44.0014C0.904633 44.0014 0.609823 43.8949 0.36029 43.6449C-0.557582 42.727 0.411225 41.1063 1.77311 39.0833C1.85955 38.9547 1.93158 38.8482 1.98097 38.771C2.78102 37.5269 2.80314 36.6718 2.07255 35.2518C-0.051312 31.1332 -0.00346279 26.1997 2.19809 22.3774C2.8335 21.2733 3.6531 20.196 4.50563 19.3434C7.15686 16.6917 10.445 15.4512 14.0291 15.7615C17.1351 16.0295 20.2468 17.4933 22.8656 19.9027L24.12 18.6478C22.5626 16.8414 17.8708 10.8994 19.3989 6.48242C20.1815 4.22119 21.55 3.43709 22.56 3.17727C23.3081 2.98433 24.0675 3.03526 24.7034 3.22357C25.0893 2.13694 25.8106 1.25303 26.8036 0.675244C28.0852 -0.0702695 29.6668 -0.209185 30.9304 0.312005C31.9517 0.734411 32.7158 1.37754 33.2112 2.23058C34.3565 1.75776 35.6134 1.73563 36.7232 2.19405C37.9261 2.69055 38.7123 3.81782 38.8584 5.11076C40.1503 5.25843 41.2781 6.04355 41.7751 7.24543C42.2335 8.35573 42.2109 9.61265 41.7381 10.7569C42.5911 11.2524 43.2342 12.0159 43.6566 13.0372C44.1794 14.3018 44.0405 15.8829 43.2955 17.164ZM36.4063 11.2241C36.413 10.9838 36.5179 10.7569 36.6965 10.5969C37.0561 10.2702 38.0012 9.18407 38.027 8.11905C38.0393 7.58397 37.8222 7.10034 37.3612 6.63986C36.9017 6.1799 36.433 5.96586 35.8871 5.97718C34.8268 6.00548 33.7479 6.95525 33.4211 7.319C33.2606 7.49754 33.0327 7.60352 32.7924 7.6097C32.5681 7.61639 32.3201 7.52481 32.1498 7.35502C31.4017 6.60642 30.6403 6.37335 30.0105 6.69749C29.4394 6.99127 29.087 7.68379 29.1909 8.30891C29.2532 8.68398 29.0664 9.05648 28.7284 9.23038C28.3898 9.40428 27.9782 9.33945 27.7102 9.07088C26.6755 8.03571 25.9377 8.49876 25.736 8.66546C25.7088 8.68758 25.6671 8.71999 25.6378 8.73903C23.8514 9.88688 25.0348 15.1775 25.9959 17.9507C26.0061 17.9599 26.0175 17.9666 26.0272 17.9764C26.0401 17.9898 26.0499 18.0052 26.0617 18.0191C28.8323 18.9807 34.1281 20.1666 35.2764 18.3803C35.3016 18.3412 35.3294 18.3046 35.3598 18.2702C35.5167 18.0798 35.9808 17.341 34.9456 16.3063C34.677 16.0378 34.6127 15.6256 34.7861 15.2876C34.9605 14.9491 35.3361 14.7638 35.7076 14.8251C36.3327 14.9285 37.0247 14.5776 37.3185 14.0065C37.6437 13.3752 37.4106 12.6148 36.662 11.8667C36.4922 11.6964 36.4001 11.4638 36.4063 11.2241ZM23.303 14.6862C22.7684 11.9253 22.6516 8.63922 24.6376 7.30305C25.1994 6.83537 26.3478 6.35946 27.6464 6.91872C27.934 6.16755 28.486 5.51465 29.211 5.14112C30.3208 4.57054 31.5967 4.73466 32.741 5.56301C33.4031 5.01043 34.5299 4.26647 35.83 4.22788C36.1362 4.21862 36.4341 4.25257 36.7248 4.32049C36.5334 4.08485 36.2972 3.90992 36.0554 3.8101C35.1854 3.45098 34.1481 3.58475 33.2807 4.16871C33.0517 4.32306 32.7631 4.36062 32.5017 4.26852C32.2409 4.17694 32.0392 3.96754 31.9564 3.7036C31.697 2.87268 31.1429 2.29181 30.2621 1.92754C29.5027 1.61421 28.4907 1.71557 27.6829 2.18582C27.0856 2.53362 26.3375 3.2354 26.1656 4.60192C26.125 4.92503 25.9084 5.19926 25.6028 5.31245C25.2966 5.42615 24.954 5.3603 24.7122 5.14215C24.4971 4.9487 23.7717 4.67035 22.9948 4.87049C22.1422 5.08967 21.4698 5.84496 21.0515 7.05352C20.2941 9.24324 21.7234 12.2886 23.303 14.6862ZM26.4306 30.0559C26.1785 27.135 24.6973 24.1833 22.259 21.7456C22.2472 21.7338 22.2354 21.7209 22.224 21.7086C22.2127 21.6978 22.2009 21.687 22.1896 21.6757C19.7519 19.2374 16.7996 17.7557 13.8793 17.5041C13.5763 17.4778 13.2748 17.465 12.9769 17.465C10.2773 17.465 7.79227 18.5315 5.74301 20.5803C4.99595 21.3273 4.27513 22.2756 3.71433 23.2506C3.30478 23.9611 2.98734 24.7189 2.75066 25.503C3.48537 25.7906 4.99286 26.4739 6.39591 27.6917C6.68557 27.9433 6.71644 28.3822 6.46537 28.6719C6.32799 28.8298 6.13454 28.9111 5.94006 28.9111C5.77902 28.9111 5.61644 28.855 5.48524 28.7408C4.35282 27.7576 3.11905 27.1603 2.4291 26.8726C2.00412 29.3793 2.39875 32.0671 3.62789 34.4502C4.64197 36.4208 4.59104 37.9463 3.45245 39.7167C3.39791 39.8016 3.31919 39.9189 3.22452 40.0593C2.6987 40.8409 2.35295 41.4053 2.12966 41.8122C2.66989 41.4747 3.27597 41.0317 3.5502 40.8316C3.80179 40.6474 4.01068 40.4967 4.14445 40.4097C5.87112 39.2994 7.46865 39.2696 9.48395 40.3068C13.0829 42.16 17.3754 42.1271 20.6852 40.2209C21.6576 39.6616 22.6048 38.9413 23.3544 38.1922C25.629 35.9171 26.6925 33.1033 26.4306 30.0559ZM42.0401 13.706C41.6753 12.8247 41.0944 12.2701 40.264 12.0118C40.0001 11.9295 39.7907 11.7273 39.6991 11.4664C39.607 11.2056 39.6446 10.9169 39.7989 10.6874C40.3829 9.82051 40.5172 8.78379 40.1575 7.91325C40.0623 7.68379 39.8998 7.45843 39.6806 7.27218C39.7485 7.56288 39.7835 7.86232 39.7752 8.17205C39.7397 9.47631 38.9994 10.6082 38.4504 11.273C39.2808 12.4187 39.4454 13.6963 38.8733 14.8071C38.5003 15.532 37.8474 16.0835 37.0967 16.3711C37.6555 17.6677 37.1796 18.8181 36.7119 19.38C35.8671 20.6364 34.2418 21.0516 32.4626 21.0516C31.4413 21.0516 30.3707 20.9142 29.3664 20.7213C31.7506 22.2776 34.7491 23.6647 36.9136 22.9166C38.1221 22.4984 38.8764 21.8264 39.0961 20.9739C39.2968 20.1954 39.0189 19.4715 38.8255 19.257C38.6073 19.0152 38.5415 18.672 38.6552 18.3664C38.7689 18.0613 39.0431 17.8442 39.3662 17.8035C40.7332 17.6317 41.435 16.8831 41.7828 16.2852C42.2536 15.4769 42.3539 14.4649 42.0401 13.706Z" fill="#826489"/>
</svg>
