<svg width="44" height="45" viewBox="0 0 44 45" fill="none" xmlns="http://www.w3.org/2000/svg">
<path d="M32.7208 44.1348H29.9625C29.7796 44.1348 29.6042 44.0621 29.4749 43.9328C29.3455 43.8035 29.2729 43.6281 29.2729 43.4452V39.1698C29.2776 37.5984 28.9221 36.0469 28.2337 34.6344C27.5453 33.2219 26.5422 31.986 25.3016 31.0217L21.8764 28.3433C21.8365 28.3115 21.8002 28.2755 21.7682 28.2357C20.973 27.2642 20.4784 26.0819 20.3449 24.8336C20.2114 23.5853 20.4448 22.3252 21.0165 21.2075L21.493 20.2766C21.5109 20.2418 21.5317 20.2086 21.5551 20.1773C21.7499 19.9169 21.8593 19.6025 21.8684 19.2774C21.8774 18.9523 21.7855 18.6324 21.6054 18.3616C21.2086 17.7677 20.9971 17.0692 20.9979 16.3549V15.8619C20.9979 12.4395 24.0914 9.65562 27.8937 9.65562C28.5439 9.59685 29.1985 9.69902 29.7998 9.95314C30.4012 10.2073 30.9307 10.6055 31.3416 11.1127C31.7526 10.6055 32.2821 10.2073 32.8835 9.95314C33.4848 9.69902 34.1394 9.59685 34.7896 9.65562C38.5919 9.65562 41.6854 12.4395 41.6854 15.8619V16.3549C41.686 17.069 41.4746 17.7672 41.0779 18.3609C40.8978 18.6317 40.8059 18.9516 40.8149 19.2767C40.824 19.6018 40.9334 19.9162 41.1282 20.1766C41.1516 20.2079 41.1724 20.2411 41.1903 20.2759L41.6668 21.2068C42.2385 22.3245 42.4719 23.5847 42.3384 24.833C42.2049 26.0813 41.7103 27.2635 40.9151 28.2351C40.8831 28.2748 40.8468 28.3109 40.8069 28.3426L37.3817 31.021C36.141 31.9854 35.1379 33.2214 34.4494 34.634C33.761 36.0467 33.4055 37.5983 33.4104 39.1698V39.9973H32.0312V39.1698C32.0259 37.3889 32.4288 35.6306 33.2089 34.0297C33.989 32.4288 35.1256 31.028 36.5314 29.9349L39.8925 27.3048C40.4987 26.5414 40.8723 25.6196 40.9688 24.6496C41.0653 23.6795 40.8805 22.7022 40.4366 21.8343L39.9856 20.9531C39.6366 20.4654 39.4442 19.8831 39.434 19.2835C39.4238 18.684 39.5962 18.0954 39.9283 17.5962C40.1737 17.2287 40.3045 16.7968 40.3042 16.3549V15.8619C40.3042 13.2008 37.8292 11.0348 34.7875 11.0348C33.1077 11.0348 32.516 11.603 31.9602 12.7222C31.8965 12.8291 31.8061 12.9176 31.6979 12.979C31.5897 13.0405 31.4674 13.0728 31.343 13.0728C31.2186 13.0728 31.0963 13.0405 30.9881 12.979C30.8799 12.9176 30.7896 12.8291 30.7258 12.7222C30.1652 11.603 29.5736 11.0348 27.8937 11.0348C24.852 11.0348 22.3771 13.2008 22.3771 15.8619V16.3549C22.3767 16.7968 22.5075 17.2287 22.7529 17.5962C23.085 18.0954 23.2574 18.684 23.2472 19.2835C23.237 19.8831 23.0446 20.4654 22.6957 20.9531L22.2447 21.8343C21.8007 22.7022 21.6159 23.6795 21.7124 24.6496C21.8089 25.6196 22.1826 26.5414 22.7887 27.3048L26.1518 29.9342C27.5578 31.0274 28.6945 32.4283 29.4746 34.0293C30.2547 35.6303 30.6575 37.3888 30.6521 39.1698V42.7556H32.0312V41.3764H33.4104V43.4452C33.4104 43.6281 33.3377 43.8035 33.2084 43.9328C33.0791 44.0621 32.9037 44.1348 32.7208 44.1348Z" fill="#826489"/>
<path d="M32.0312 12.414H30.6521V34.4806H32.0312V12.414Z" fill="#826489"/>
<path d="M32.0312 19.9994H30.652C30.652 18.3237 29.2991 17.241 27.2041 17.241C24.17 17.241 23.0666 13.9421 23.0666 11.7244H24.4458C24.4458 12.8753 24.9416 15.8619 27.2041 15.8619C30.0466 15.8619 32.0312 17.5638 32.0312 19.9994Z" fill="#826489"/>
<path d="M32.0312 19.9994H30.652C30.652 17.5638 32.6367 15.8619 35.4791 15.8619C37.7417 15.8619 38.2375 12.8753 38.2375 11.7244H39.6166C39.6166 13.9421 38.5133 17.241 35.4791 17.241C33.3842 17.241 32.0312 18.3237 32.0312 19.9994Z" fill="#826489"/>
<path d="M32.0312 24.8265H30.6521C30.6521 22.3909 32.6367 20.689 35.4791 20.689C37.8789 20.689 39.6166 19.0409 39.6166 17.9306H40.9958C40.9958 19.8435 38.5857 22.0681 35.4791 22.0681C33.3842 22.0681 32.0312 23.1508 32.0312 24.8265Z" fill="#826489"/>
<path d="M32.0312 24.8265H30.6521C30.6521 23.1508 29.2991 22.0682 27.2042 22.0682C26.1314 22.07 25.0752 21.8038 24.1314 21.2938L24.7913 20.0829C25.5325 20.4828 26.3619 20.6911 27.2042 20.689C30.0466 20.689 32.0312 22.3909 32.0312 24.8265Z" fill="#826489"/>
<path d="M32.0312 31.0327H30.6521C30.6521 28.5971 32.6367 26.8952 35.4791 26.8952C35.8977 26.8924 36.315 26.849 36.7252 26.7655L36.9914 28.1192C36.4935 28.2198 35.9871 28.2718 35.4791 28.2743C33.3842 28.2743 32.0312 29.357 32.0312 31.0327Z" fill="#826489"/>
<path d="M38.4726 27.7062L38.003 26.4125C39.9559 25.7029 40.9958 24.6355 40.9958 24.1369H42.375C42.375 25.6271 40.4152 27.0028 38.4726 27.7062Z" fill="#826489"/>
<path d="M32.0312 31.0327H30.6521C30.6521 29.357 29.2991 28.2744 27.2042 28.2744C24.2569 28.2744 20.3083 26.2284 20.3083 24.1369H21.6875C21.6875 25.0961 24.61 26.8952 27.2042 26.8952C30.0466 26.8952 32.0312 28.5971 32.0312 31.0327Z" fill="#826489"/>
<path d="M31.3416 35.1703C31.2129 35.171 31.0865 35.1356 30.9769 35.0682C30.8672 35.0008 30.7785 34.9041 30.721 34.7889C29.9142 33.1705 28.795 32.4119 27.2041 32.4119V31.0328C28.0154 31.012 28.8189 31.1945 29.5415 31.5637C30.2642 31.9328 30.883 32.4769 31.3416 33.1463C31.8003 32.4769 32.4191 31.9328 33.1417 31.5637C33.8644 31.1945 34.6679 31.012 35.4791 31.0328V32.4119C33.8883 32.4119 32.7691 33.1705 31.9623 34.7889C31.9047 34.9041 31.8161 35.0008 31.7064 35.0682C31.5967 35.1356 31.4704 35.171 31.3416 35.1703Z" fill="#826489"/>
<path d="M25.825 44.1349H23.0666C22.9788 44.1349 22.8918 44.1183 22.8101 44.0859C19.8787 42.9136 17.3238 40.2525 15.2178 36.1792L16.4425 35.5461C17.7665 38.1059 20.0083 41.4186 23.2004 42.7557H23.89C20.0559 39.6416 16.1708 36.3592 16.1708 29.6537C16.169 28.977 16.3134 28.3079 16.5942 27.6922C16.8749 27.0765 17.2854 26.5288 17.7975 26.0864C18.0044 25.9092 18.2258 25.7417 18.4547 25.5748C18.6837 25.4079 18.9285 25.2258 19.1629 25.0231L20.0745 26.0575C19.8091 26.2912 19.5381 26.4933 19.2746 26.6871C19.0733 26.836 18.8774 26.9801 18.6974 27.136C18.3362 27.4482 18.0466 27.8349 17.8485 28.2694C17.6505 28.7039 17.5487 29.1761 17.55 29.6537C17.55 35.8351 21.1641 38.7672 24.9899 41.871C25.4188 42.2158 25.8464 42.5654 26.2663 42.915C26.3754 43.0057 26.4538 43.1278 26.491 43.2647C26.5281 43.4015 26.5222 43.5465 26.4739 43.6799C26.4257 43.8133 26.3375 43.9285 26.2214 44.0099C26.1052 44.0914 25.9668 44.135 25.825 44.1349Z" fill="#826489"/>
<path d="M14.5331 34.7661C14.3117 34.2779 14.1117 33.8062 13.9331 33.3601L15.2144 32.8484C15.3854 33.2759 15.5764 33.7283 15.7895 34.1965L14.5331 34.7661Z" fill="#826489"/>
<path d="M13.4035 31.9485C13.1629 31.2589 12.9898 30.7017 12.8829 30.3287C6.04637 29.9611 1 22.5267 1 15.8619C1 6.67183 5.06026 0.00149993 10.6542 0.00149993H11.1762C13.1361 -0.00441627 15.0245 0.737989 16.4556 2.07714C20.3331 2.2523 23.3094 5.97811 24.1672 9.48947L22.8281 9.81633C22.073 6.73045 19.4808 3.44941 16.1708 3.44941C15.9879 3.44937 15.8126 3.3767 15.6833 3.24737C15.0928 2.65364 14.3904 2.18294 13.6167 1.86252C12.8431 1.5421 12.0135 1.37832 11.1762 1.38067H10.6542C5.93672 1.38067 2.37917 7.60622 2.37917 15.8619C2.37917 22.0468 7.09798 28.964 13.4125 28.964C13.5662 28.964 13.7155 29.0153 13.8367 29.1099C13.9579 29.2045 14.044 29.3369 14.0814 29.486C14.0814 29.4943 14.2883 30.2942 14.7055 31.492L13.4035 31.9485Z" fill="#826489"/>
<path d="M9.275 11.7243C9.10796 11.7241 8.9466 11.6636 8.82056 11.554L3.3039 6.72693L4.21277 5.68842L9.09019 9.95763C10.2708 7.9137 13.4815 2.72046 16.0033 2.09087L16.3384 3.42866C14.5455 3.87758 11.4244 8.53502 9.88045 11.3651C9.83111 11.4555 9.76214 11.5337 9.67861 11.5939C9.59508 11.6542 9.49911 11.695 9.39775 11.7133C9.35727 11.7209 9.31617 11.7246 9.275 11.7243Z" fill="#826489"/>
<path d="M9.96458 17.9305C9.92646 17.9304 9.88841 17.9271 9.8508 17.9209C7.3621 17.5071 4.91546 15.7218 3.29977 14.2971L4.21277 13.2628C5.5878 14.4764 7.60138 15.9728 9.61979 16.4666C10.8017 14.5212 15.8033 6.80826 21.5358 5.53391L21.8351 6.88135C15.9964 8.17846 10.6169 17.4892 10.5631 17.5857C10.5025 17.6908 10.4152 17.778 10.3101 17.8385C10.2051 17.899 10.0859 17.9308 9.96458 17.9305Z" fill="#826489"/>
<path d="M20.3366 14.3642L19.5642 13.2223C19.9228 12.9795 20.2963 12.7426 20.6848 12.5113L21.3903 13.696C21.0248 13.9139 20.6735 14.1367 20.3366 14.3642Z" fill="#826489"/>
<path d="M12.0333 24.8264C6.29739 24.8264 2.06886 20.6641 1.89164 20.4869L2.86671 19.5111C2.90464 19.5497 6.62011 23.1935 11.5244 23.4342C12.8851 19.641 15.3368 16.3348 18.5713 13.931L19.405 15.0344C16.2597 17.3514 13.9165 20.5927 12.7022 24.3058C12.6646 24.4547 12.5784 24.5867 12.4572 24.681C12.3361 24.7753 12.1869 24.8265 12.0333 24.8264Z" fill="#826489"/>
<path d="M12.9836 28.4157C10.4331 28.3388 7.91719 27.8049 5.55537 26.8393L6.09877 25.5719C8.23249 26.4295 10.4949 26.9234 12.7919 27.0331C10.2825 23.8424 7.51793 13.5283 9.28119 0.597924L10.6479 0.784111C8.97708 13.0345 11.5244 23.4955 14.0055 26.338C14.3641 26.7517 14.6468 26.8952 14.7916 26.8952C14.9644 26.8955 15.1308 26.9606 15.2579 27.0778C15.3849 27.1949 15.4634 27.3554 15.4777 27.5276C15.492 27.6999 15.4411 27.8712 15.3351 28.0076C15.2292 28.1441 15.0758 28.2359 14.9054 28.2647C14.2701 28.368 13.6273 28.4185 12.9836 28.4157Z" fill="#826489"/>
<path d="M15.4812 27.5848H14.1021C14.1021 25.2478 19.1781 19.3098 22.3771 19.3098V20.689C19.9594 20.689 15.4812 25.9105 15.4812 27.5848Z" fill="#826489"/>
</svg>
