<svg width="44" height="45" viewBox="0 0 44 45" fill="none" xmlns="http://www.w3.org/2000/svg">
<path d="M18.5289 13.9233C18.3591 12.8598 18.6179 11.7723 19.2485 10.8993C19.8791 10.0262 20.8301 9.43877 21.8931 9.26571C22.9561 9.09266 24.0444 9.3481 24.9194 9.97605C25.7943 10.604 26.3847 11.5532 26.561 12.6157C26.6052 12.8856 26.5405 13.1621 26.3809 13.3843C26.2213 13.6065 25.98 13.7562 25.7101 13.8005C25.4401 13.8447 25.1637 13.78 24.9415 13.6204C24.7193 13.4608 24.5696 13.2195 24.5253 12.9496C24.4402 12.4244 24.1499 11.9545 23.7183 11.6433C23.2867 11.3321 22.7491 11.2051 22.2239 11.2903C21.6987 11.3754 21.2288 11.6657 20.9176 12.0973C20.6064 12.5289 20.4794 13.0665 20.5646 13.5917C20.587 13.7256 20.5827 13.8627 20.552 13.9949C20.5213 14.1272 20.4648 14.2521 20.3857 14.3625C20.3066 14.4729 20.2065 14.5666 20.0911 14.6382C19.9757 14.7097 19.8473 14.7578 19.7133 14.7797C19.5793 14.8015 19.4422 14.7967 19.3101 14.7654C19.1779 14.7341 19.0533 14.6771 18.9432 14.5975C18.8332 14.518 18.7399 14.4174 18.6688 14.3017C18.5977 14.186 18.5502 14.0574 18.5289 13.9233V13.9233ZM10.3335 25.0308C9.80278 25.0312 9.29356 24.821 8.91756 24.4464C8.54156 24.0719 8.3295 23.5634 8.3279 23.0327C8.3279 22.7592 8.21925 22.4969 8.02585 22.3035C7.83246 22.1101 7.57015 22.0015 7.29665 22.0015C7.02315 22.0015 6.76084 22.1101 6.56745 22.3035C6.37405 22.4969 6.2654 22.7592 6.2654 23.0327C6.2676 24.1103 6.69715 25.143 7.45983 25.9042C8.2225 26.6655 9.25599 27.0931 10.3336 27.0933C10.6071 27.0933 10.8694 26.9846 11.0628 26.7912C11.2562 26.5978 11.3648 26.3355 11.3648 26.062C11.3648 25.7885 11.2562 25.5262 11.0628 25.3328C10.8694 25.1394 10.6071 25.0308 10.3336 25.0308H10.3335ZM44 24.3016C43.9948 26.5968 43.0794 28.7961 41.4546 30.4171C39.8298 32.0382 37.6284 32.9485 35.3333 32.9484C33.8532 32.9499 32.3982 32.5672 31.1103 31.8379C29.0912 34.4575 28.7689 38.0604 28.7689 40.0705C28.7689 42.4846 26.8841 43.9526 23.7263 43.9967C23.5106 43.9999 22.9739 44.0013 22.423 44.0013C21.8304 44.0013 21.2212 43.9995 20.9792 43.9967C17.8062 43.9616 15.9114 42.4936 15.9114 40.0705C15.9114 37.946 15.5762 34.1634 13.4944 31.4734C12.4156 32.2026 11.186 32.6788 9.89743 32.8665C8.60886 33.0542 7.29454 32.9486 6.05248 32.5575C4.81042 32.1664 3.67268 31.5 2.7241 30.6079C1.77552 29.7158 1.04059 28.621 0.57411 27.4053C0.107629 26.1895 -0.0783608 24.8842 0.0300103 23.5865C0.138381 22.2889 0.538317 21.0324 1.19999 19.9109C1.86166 18.7894 2.768 17.8317 3.85141 17.1093C4.93482 16.3869 6.16735 15.9184 7.45707 15.7387C7.32891 15.2251 7.26426 14.6977 7.26457 14.1684C7.26909 12.5228 7.88127 10.9369 8.98358 9.71514C10.0859 8.49335 11.6006 7.72176 13.2371 7.5485C13.9493 6.09877 15.0563 4.87952 16.4308 4.03096C17.8052 3.1824 19.3912 2.73899 21.0064 2.75173C22.6216 2.76447 24.2004 3.23284 25.5613 4.10298C26.9221 4.97311 28.0098 6.20968 28.6991 7.67047C29.1707 7.56484 29.6526 7.51155 30.1359 7.51156C31.9028 7.51152 33.5976 8.21238 34.8485 9.46038C36.0994 10.7084 36.8041 12.4016 36.8081 14.1685C36.8083 14.7013 36.743 15.2321 36.6134 15.749C38.6641 16.0553 40.537 17.0867 41.8923 18.6559C43.2476 20.2251 43.9954 22.2282 44 24.3016V24.3016ZM14.8887 8.91145C14.6039 9.68026 14.4463 10.4904 14.4223 11.3099C14.4193 12.6934 14.8598 14.0414 15.6791 15.1563C16.4984 16.2711 17.6534 17.094 18.9747 17.5043C19.139 17.5559 19.2877 17.6479 19.4073 17.7718C19.5268 17.8957 19.6135 18.0475 19.6594 18.2135C19.7052 18.3795 19.7087 18.5543 19.6697 18.722C19.6306 18.8897 19.5502 19.0449 19.4358 19.1735C18.3771 20.3581 17.7908 21.8905 17.7886 23.4791C17.802 24.8285 18.2255 26.1418 19.0029 27.2448C19.6069 28.0875 20.4025 28.7745 21.3243 29.2492C22.246 29.724 23.2674 29.9727 24.3042 29.9751C24.8401 29.9722 25.3736 29.9042 25.8931 29.7725C25.9485 29.7588 26.005 29.7496 26.0619 29.745C27.1916 29.6563 28.2804 29.2829 29.2268 28.6597C29.2349 28.6543 29.2438 28.6529 29.2519 28.6478C29.3196 28.6063 29.3919 28.5726 29.4673 28.5475C29.4874 28.5408 29.5071 28.5332 29.5277 28.5276C29.6106 28.505 29.696 28.4927 29.7819 28.491C29.786 28.491 29.79 28.4892 29.7945 28.4892C29.8195 28.4892 29.8437 28.4948 29.8683 28.4965C29.906 28.4983 29.9435 28.502 29.9807 28.5077C30.0116 28.5133 30.0407 28.5234 30.0706 28.5317C30.1064 28.5406 30.1416 28.5515 30.1761 28.5643C30.2078 28.5769 30.2374 28.5939 30.2677 28.6096C30.2928 28.6225 30.3187 28.6317 30.3434 28.6472C30.6644 28.8582 31.0392 28.973 31.4234 28.9779C31.97 28.9786 32.4946 28.7623 32.882 28.3767C33.2694 27.991 33.488 27.4674 33.4899 26.9208C33.4878 26.4811 33.3432 26.054 33.0777 25.7036C32.9619 25.548 32.8923 25.3629 32.877 25.1696C32.8616 24.9763 32.901 24.7826 32.9908 24.6107C33.0805 24.4388 33.2169 24.2957 33.3843 24.1977C33.5516 24.0998 33.7432 24.0511 33.9371 24.0571C33.95 24.0575 33.9756 24.0591 33.9966 24.0605C34.7832 24.062 35.5436 23.778 36.1366 23.2612C36.7296 22.7445 37.1149 22.0301 37.221 21.2507C37.3271 20.4714 37.1467 19.68 36.7134 19.0235C36.2801 18.3671 35.6233 17.8902 34.865 17.6814C34.7958 17.6603 34.7291 17.6321 34.6658 17.5972C34.6591 17.5932 34.6532 17.5881 34.6461 17.5838C34.5847 17.5481 34.5272 17.5059 34.4747 17.458C34.4577 17.4428 34.4429 17.4263 34.4268 17.4097C34.3857 17.3673 34.3482 17.3215 34.3149 17.2727C34.3068 17.2606 34.2952 17.2517 34.2876 17.2392C34.2826 17.2316 34.2809 17.2228 34.2764 17.215C34.2352 17.1467 34.202 17.0738 34.1775 16.9979L34.1766 16.993C34.1549 16.9184 34.1417 16.8416 34.1372 16.7641C34.1354 16.7408 34.1368 16.7182 34.1368 16.6949C34.1366 16.6375 34.1414 16.5803 34.1511 16.5237C34.1551 16.498 34.1596 16.4724 34.1658 16.447C34.1698 16.4299 34.1708 16.4129 34.1757 16.3961C34.1907 16.3519 34.2086 16.3088 34.2294 16.267C34.2352 16.2542 34.237 16.2404 34.2431 16.2278C34.5717 15.591 34.7439 14.8851 34.7456 14.1685C34.7449 13.4201 34.5615 12.6831 34.2113 12.0216C33.8612 11.3601 33.3549 10.7941 32.7364 10.3726C32.1179 9.95116 31.4059 9.68703 30.6621 9.60315C29.9184 9.51928 29.1654 9.6182 28.4686 9.89132C28.3385 9.94197 28.1994 9.96568 28.0599 9.961C27.9203 9.95631 27.7832 9.92334 27.6568 9.86408C27.5303 9.80482 27.4173 9.7205 27.3244 9.61624C27.2315 9.51198 27.1608 9.38995 27.1165 9.25754C26.6923 7.99284 25.8901 6.88882 24.8183 6.09463C23.7465 5.30043 22.4568 4.85434 21.1234 4.8166C19.79 4.77886 18.4771 5.15129 17.3621 5.88359C16.2471 6.61589 15.3838 7.67277 14.8887 8.91145V8.91145ZM8.66707 30.8859C9.60205 30.8846 10.5261 30.6851 11.3784 30.3007C12.2307 29.9162 12.9918 29.3554 13.6116 28.6554C13.7078 28.547 13.8257 28.46 13.9578 28.4003C14.0898 28.3405 14.2329 28.3092 14.3779 28.3084C15.2378 28.3034 16.0788 28.0557 16.8043 27.5939C16.1079 26.3335 15.7372 24.9191 15.726 23.4792C15.7266 21.8714 16.1825 20.2968 17.041 18.9374C15.6299 18.2255 14.4447 17.135 13.618 15.7879C12.7912 14.4407 12.3556 12.8902 12.3598 11.3096C12.3652 10.803 12.417 10.298 12.5146 9.8008C11.5906 10.0997 10.7847 10.683 10.2122 11.4675C9.63969 12.252 9.32988 13.1974 9.32707 14.1685C9.32898 14.8864 9.5018 15.5935 9.83123 16.2313C9.91242 16.391 9.95056 16.5692 9.9419 16.7482C9.93324 16.9273 9.87807 17.1009 9.78184 17.2521C9.6856 17.4033 9.55163 17.5268 9.39311 17.6105C9.2346 17.6941 9.05703 17.735 8.8779 17.7291C8.83207 17.7275 8.7866 17.7245 8.74095 17.7215C8.7168 17.7199 8.69218 17.7175 8.66762 17.7175C7.80149 17.7152 6.94343 17.8838 6.14257 18.2137C5.34172 18.5435 4.61382 19.0282 4.00057 19.6398C3.38732 20.2514 2.90076 20.9781 2.56878 21.778C2.2368 22.578 2.06592 23.4356 2.06592 24.3018C2.06592 25.1679 2.2368 26.0255 2.56878 26.8255C2.90076 27.6255 3.38732 28.3521 4.00057 28.9637C4.61382 29.5754 5.34172 30.06 6.14257 30.3899C6.94343 30.7197 7.80149 30.8884 8.66762 30.8861L8.66707 30.8859ZM29.1317 31.0463C28.2387 31.4519 27.284 31.7046 26.3074 31.794C25.6514 31.9532 24.979 32.0349 24.3039 32.0373C23.3605 32.0348 22.4239 31.8759 21.5325 31.5669C21.9766 33.0181 22.3138 34.5 22.5414 36.0005C22.565 36.135 22.5616 36.2728 22.5316 36.406C22.5015 36.5392 22.4453 36.665 22.3662 36.7763C22.2871 36.8876 22.1867 36.982 22.0708 37.0542C21.9549 37.1264 21.8258 37.1748 21.691 37.1967C21.5563 37.2186 21.4185 37.2135 21.2857 37.1818C21.1529 37.15 21.0278 37.0922 20.9175 37.0117C20.8073 36.9312 20.7141 36.8296 20.6434 36.7128C20.5727 36.596 20.5259 36.4663 20.5057 36.3313C19.9572 32.9556 19.2225 30.6928 18.3221 29.6045C18.3084 29.5879 18.2992 29.5691 18.2868 29.5519C18.1928 29.4592 18.0934 29.3728 18.0035 29.2757C17.1609 29.8308 16.2027 30.1861 15.202 30.3148C17.5853 33.479 17.9739 37.6963 17.9739 40.0705C17.9739 41.583 19.6211 41.919 21.0032 41.9342C21.4472 41.9401 23.2685 41.9408 23.6964 41.9345C25.07 41.9152 26.7064 41.5762 26.7064 40.0705C26.7064 37.9001 27.0479 34.0831 29.1319 31.0464L29.1317 31.0463ZM41.9375 24.3016C41.9359 23.1969 41.6559 22.1104 41.1235 21.1424C40.5911 20.1744 39.8233 19.3561 38.8912 18.7631C39.1681 19.4034 39.3117 20.0934 39.3133 20.7909C39.311 21.9521 38.9305 23.0809 38.2294 24.0065C37.5284 24.9322 36.5449 25.6042 35.4277 25.921C35.5109 26.2477 35.5528 26.5836 35.5526 26.9207C35.5513 27.6749 35.3431 28.4142 34.9506 29.0582C34.5581 29.7022 33.9965 30.2261 33.3267 30.5728C34.3151 30.8886 35.364 30.9669 36.3883 30.8015C37.4126 30.636 38.3835 30.2315 39.2223 29.6206C40.061 29.0098 40.7439 28.2099 41.2157 27.2857C41.6875 26.3616 41.9347 25.3392 41.9375 24.3016V24.3016Z" fill="#826489"/>
</svg>
