<svg width="44" height="45" viewBox="0 0 44 45" fill="none" xmlns="http://www.w3.org/2000/svg">
<path d="M4.0985 41.801C3.20751 41.801 2.50226 41.5533 1.96388 41.0594C0.889559 40.0732 0.715422 38.2941 1.43083 35.6191C1.44051 35.5838 1.45163 35.549 1.46469 35.5151C1.85698 34.5182 2.44324 33.1957 3.20799 31.585C4.78102 28.3412 6.63461 24.9538 8.72038 21.5097C16.2987 8.84324 19.586 7.37808 21.3994 7.37808C22.2271 7.37808 23.1519 7.62138 24.2267 8.12154C24.2616 8.13799 24.2964 8.15637 24.3293 8.17717C25.0766 8.64202 25.8186 9.1562 26.5355 9.70618C26.9205 10.0075 27.2978 10.3108 27.6751 10.6228C28.4452 11.2279 29.209 11.9158 29.9278 12.652C30.4768 13.1841 31.0364 13.7858 31.5719 14.4219C31.9081 14.8161 32.2423 15.2297 32.5674 15.6554C40.5665 13.4366 41.0493 11.9032 41.0633 11.612C41.0817 11.2802 40.389 10.8908 39.2997 10.6131C38.2118 10.3519 37.2589 10.2542 36.4816 10.3249C36.0598 10.3669 35.654 10.1173 35.4953 9.71924C35.3371 9.32115 35.459 8.86646 35.7957 8.60138C36.2388 8.25214 36.6291 7.81342 36.9547 7.2973C37.3943 6.63026 37.6033 6.01352 37.6033 5.39486C37.6033 4.767 37.5438 4.56626 37.5356 4.54256C37.539 4.55175 37.4384 4.49999 37.1922 4.49999C36.5628 4.49999 35.8934 4.88889 35.2022 5.65558C34.6362 6.29359 34.1375 7.03077 33.7249 7.84147C33.4976 8.28746 32.9689 8.48675 32.5021 8.30003C32.0372 8.11332 31.792 7.60252 31.9366 7.12268C32.1954 6.26457 32.1882 5.12785 31.9139 3.74443C31.658 2.4979 31.2826 1.93631 31.0253 1.93631C29.8257 1.93631 28.6696 3.64672 27.7704 6.75215C27.6219 7.26586 27.0855 7.5614 26.5718 7.41242C26.0586 7.26392 25.763 6.72748 25.912 6.21426C27.1222 2.03354 28.7949 0.00146484 31.0253 0.00146484C32.415 0.00146484 33.3524 1.1319 33.811 3.36181C33.8652 3.63608 33.9107 3.90406 33.9469 4.16526C34.9719 3.10158 36.0612 2.56514 37.1926 2.56514C38.5122 2.56514 39.0583 3.26362 39.2668 3.67961C39.4535 4.02498 39.5386 4.54546 39.5386 5.39437C39.5386 6.38985 39.2165 7.38243 38.5809 8.34598C38.5514 8.3929 38.5214 8.43934 38.4904 8.48578C38.8982 8.54624 39.3234 8.62896 39.7645 8.73489C41.9901 9.30132 43.0726 10.3016 42.9962 11.7112C42.8956 13.7786 40.0257 15.532 33.7355 17.3358C34.4964 18.7327 34.8844 19.9222 34.9187 20.9622C34.939 22.7195 33.4666 24.7433 30.2847 27.3535C28.4133 28.8999 25.9226 30.665 22.8864 32.5974C22.2459 32.9916 21.5934 33.3941 20.9172 33.813C19.1816 34.8834 17.4407 35.8934 15.7424 36.8154C14.1012 37.7325 12.4609 38.6017 10.8763 39.394C9.28003 40.1917 7.96965 40.7968 6.98143 41.1925C5.86067 41.5988 4.90389 41.801 4.0985 41.801ZM3.28635 36.1715C2.62028 38.6946 3.05417 39.4332 3.27281 39.6339C3.47016 39.8153 4.1609 40.1554 6.29359 39.3853C7.202 39.0211 8.46304 38.4382 10.0114 37.6638C11.5694 36.885 13.1841 36.0293 14.8093 35.1209C16.4873 34.2101 18.1963 33.2185 19.9004 32.1674C20.5771 31.7485 21.2306 31.3446 21.8604 30.9576C24.8173 29.0755 27.2427 27.3578 29.0556 25.8598C32.4914 23.0421 32.9921 21.6089 32.9848 21.0057C32.9587 20.2337 32.5795 19.1956 31.8568 17.9404C31.7112 17.7382 31.5666 17.5433 31.422 17.3546C31.4181 17.3493 31.4137 17.344 31.4099 17.3382L31.4084 17.3367L31.4074 17.3353L31.406 17.3338C30.9861 16.7587 30.5455 16.2005 30.0966 15.6742C29.5988 15.0826 29.0837 14.5293 28.5627 14.0238C27.8841 13.3292 27.1827 12.6984 26.4615 12.1306C26.0794 11.8152 25.7151 11.522 25.3509 11.2371C24.7071 10.7437 24.0347 10.2765 23.358 9.85323C22.5792 9.49577 21.9204 9.31486 21.3999 9.31486C20.2322 9.31486 17.2477 11.0287 10.379 22.5091C8.3218 25.9062 6.49772 29.2404 4.95371 32.4232C4.22379 33.9576 3.6622 35.221 3.28635 36.1715Z" fill="#826489"/>
<path d="M7.6388 43.5356C7.45886 43.5356 7.28617 43.435 7.20249 43.2618C7.08688 43.0209 7.18798 42.7321 7.42887 42.616C7.86711 42.4046 8.33824 42.1855 8.84179 41.9582C9.0851 41.8474 9.37194 41.9562 9.48174 42.2C9.59154 42.4438 9.48368 42.7302 9.24037 42.84C8.74456 43.0639 8.2802 43.2802 7.84824 43.4882C7.78052 43.5201 7.70894 43.5356 7.6388 43.5356ZM10.9276 41.9393C10.751 41.9393 10.5807 41.8426 10.4956 41.6742C10.3747 41.4358 10.47 41.1451 10.708 41.0241C14.181 39.2634 17.8238 37.227 21.5349 34.9714C27.3138 31.4273 31.5177 28.4133 34.0287 26.0136C34.2212 25.8288 34.5279 25.836 34.7122 26.0291C34.8969 26.2221 34.8897 26.5282 34.6967 26.713C32.1369 29.1601 27.8783 32.2167 22.0394 35.7971C18.3056 38.0662 14.641 40.1152 11.1457 41.8871C11.0761 41.9229 11.0016 41.9393 10.9276 41.9393ZM15.281 36.4492C15.1015 36.4492 14.9288 36.3491 14.8456 36.1769C14.345 35.1456 13.6044 34.2052 12.6438 33.382C12.4411 33.2078 12.4179 32.9026 12.592 32.6999C12.7657 32.4977 13.0709 32.474 13.274 32.6477C14.3348 33.5575 15.1571 34.6029 15.7158 35.7541C15.8324 35.9945 15.7323 36.2838 15.4919 36.4003C15.4237 36.4337 15.3521 36.4492 15.281 36.4492ZM22.3669 32.2656C22.1753 32.2656 21.9939 32.1509 21.918 31.9623C21.2282 30.2456 19.9618 28.6701 18.1542 27.2794C17.9423 27.1169 17.9027 26.8131 18.0652 26.6013C18.2282 26.3894 18.5315 26.3493 18.7434 26.5128C20.6903 28.0103 22.0602 29.7222 22.8153 31.6014C22.9149 31.8496 22.795 32.1311 22.5468 32.2307C22.4883 32.2539 22.4268 32.2656 22.3669 32.2656ZM7.68572 31.7088C7.60929 31.7088 7.53141 31.6904 7.45886 31.6522C7.22329 31.5264 7.13332 31.2338 7.25908 30.9977C10.0477 25.7587 13.2595 20.7247 16.8051 16.0346C16.9667 15.8213 17.2695 15.7792 17.4828 15.9403C17.6957 16.1013 17.7377 16.4046 17.5767 16.6179C14.061 21.2674 10.8773 26.2583 8.11284 31.4519C8.02625 31.6159 7.85889 31.7088 7.68572 31.7088ZM29.6714 27.0893C29.4866 27.0893 29.3106 26.9829 29.2298 26.804C28.0471 24.173 25.9947 21.8227 23.1297 19.8187C22.911 19.6658 22.8573 19.364 23.0107 19.1449C23.164 18.9257 23.4649 18.8725 23.6845 19.0259C26.6942 21.1315 28.8568 23.6148 30.1125 26.4068C30.2224 26.6506 30.1135 26.937 29.8697 27.0463C29.8054 27.0758 29.7377 27.0893 29.6714 27.0893ZM30.8323 15.5286C30.6509 15.5286 30.4768 15.4261 30.3946 15.251C30.2809 15.0091 30.3844 14.7213 30.6258 14.6072L34.0118 13.0109C34.2531 12.8972 34.5424 13.0007 34.6556 13.2421C34.7692 13.484 34.6657 13.7718 34.4244 13.8859L31.0384 15.4822C30.9716 15.5136 30.901 15.5286 30.8323 15.5286ZM18.9804 14.5128C18.8769 14.5128 18.7719 14.4795 18.6839 14.4113C18.473 14.2473 18.4353 13.943 18.5992 13.7326L19.2764 12.8619C19.4409 12.6515 19.7442 12.6128 19.9551 12.7768C20.166 12.9408 20.2037 13.245 20.0397 13.4554L19.3625 14.3261C19.2672 14.4485 19.1245 14.5128 18.9804 14.5128ZM29.2356 13.8114C29.1098 13.8114 28.984 13.7626 28.8892 13.6659C28.7025 13.4748 28.7064 13.1686 28.8975 12.9819L32.0174 9.9345C32.2094 9.74827 32.5151 9.75165 32.7019 9.94272C32.8886 10.1338 32.8847 10.44 32.6936 10.6267L29.5737 13.6741C29.4794 13.766 29.3575 13.8114 29.2356 13.8114ZM27.0584 11.8524C26.9844 11.8524 26.9084 11.8355 26.8383 11.7992C26.6008 11.6773 26.5065 11.3861 26.6284 11.1481L28.0795 8.31841C28.2014 8.08091 28.4936 7.98659 28.7306 8.10897C28.9681 8.23086 29.0624 8.52206 28.9405 8.76004L27.4894 11.5898C27.4038 11.7566 27.234 11.8524 27.0584 11.8524ZM23.6487 5.3223H21.7864C21.5189 5.3223 21.3027 5.1056 21.3027 4.83859C21.3027 4.57158 21.5189 4.35488 21.7864 4.35488H23.6487C23.9162 4.35488 24.1324 4.57158 24.1324 4.83859C24.1324 5.1056 23.9162 5.3223 23.6487 5.3223ZM18.0381 5.3223H16.1516C15.8842 5.3223 15.6679 5.1056 15.6679 4.83859C15.6679 4.57158 15.8842 4.35488 16.1516 4.35488H18.0381C18.3056 4.35488 18.5218 4.57158 18.5218 4.83859C18.5218 5.1056 18.3051 5.3223 18.0381 5.3223ZM19.8999 3.46001C19.6324 3.46001 19.4162 3.24331 19.4162 2.9763V1.08982C19.4162 0.82281 19.6324 0.606106 19.8999 0.606106C20.1674 0.606106 20.3836 0.82281 20.3836 1.08982V2.9763C20.3836 3.24331 20.1674 3.46001 19.8999 3.46001Z" fill="#826489"/>
</svg>
