<svg width="44" height="45" viewBox="0 0 44 45" fill="none" xmlns="http://www.w3.org/2000/svg">
<path d="M31.1091 41.6406C30.7022 41.6406 30.2934 41.609 29.8825 41.5447C26.4411 41.0231 23.7838 39.4114 21.9838 36.7531C20.995 38.0677 19.543 39.2117 17.649 40.1654C14.7074 41.5907 12.0279 41.7237 9.6736 40.5648C6.689 39.1089 4.74311 36.8372 3.89326 33.815C3.15366 31.1088 3.42508 28.4213 4.69861 25.8203C5.42882 24.3209 6.6015 23.3089 8.18402 22.8145C9.81895 22.2756 11.5003 22.418 13.1684 23.2426C13.2618 23.2896 13.3577 23.3405 13.4546 23.3954C15.8054 15.4368 20.4353 10.0075 27.2321 7.24684C27.9198 6.95515 28.6411 6.69461 29.3768 6.47214C29.8993 6.31591 30.4516 6.60958 30.6093 7.13214C30.7675 7.6547 30.4723 8.20693 29.9493 8.36513C29.4272 8.52284 28.914 8.70181 28.4172 8.89808C26.808 14.2483 27.2237 18.8555 29.6887 22.9371C29.8993 22.81 30.1109 22.6874 30.322 22.5708C32.0227 21.6735 33.5682 21.3318 34.9327 21.5454C37.3803 21.9246 39.2481 23.3593 40.4826 25.81C41.5129 27.9057 41.8674 30.0641 41.5416 32.2355C41.1935 34.3994 39.9299 36.5257 37.7843 38.5651C35.6648 40.6088 33.4228 41.6406 31.1091 41.6406ZM22.8529 34.3519C23.0561 34.7262 23.2756 35.1024 23.506 35.4712C24.9995 37.7849 27.1852 39.1366 30.1821 39.5904C32.3184 39.9221 34.3597 39.1203 36.4173 37.1373C38.2465 35.3985 39.3114 33.6489 39.5878 31.9324C39.8547 30.1526 39.569 28.4351 38.7122 26.6919C37.7734 24.8276 36.4361 23.7805 34.6276 23.5002C33.6937 23.3539 32.5606 23.6268 31.2609 24.3125C30.8327 24.5488 30.3873 24.8222 29.9532 25.1158C29.9399 25.1252 29.926 25.1341 29.9122 25.1425C29.7906 25.2182 29.6576 25.2647 29.5236 25.2829C29.3931 25.3003 29.2591 25.2923 29.1251 25.2553C29.1029 25.2493 29.0811 25.2424 29.0594 25.2345C28.4493 25.0269 27.9396 24.8929 27.5451 24.8365C26.0866 24.6101 24.87 24.8691 23.81 25.6265C23.1777 26.0532 22.7407 26.5426 22.4529 27.1379C22.4425 27.1591 22.4322 27.1804 22.4213 27.2012C22.2225 27.5991 22.0876 28.0189 22.0095 28.4747C21.8023 29.8382 21.8468 31.175 22.1449 32.4293C22.3066 33.0848 22.5449 33.7334 22.8529 34.3519ZM10.1457 24.4741C9.69238 24.4741 9.24101 24.5488 8.78816 24.6981C7.71683 25.0328 6.96487 25.6824 6.47494 26.6885C5.4041 28.8766 5.18311 31.0346 5.79862 33.287C6.49718 35.7703 8.05004 37.5728 10.5437 38.7895C12.3512 39.6794 14.3875 39.5484 16.7734 38.393C18.7485 37.3983 20.1348 36.1945 20.8857 34.8181C20.6069 34.1952 20.3844 33.55 20.2237 32.8935C19.8643 31.3841 19.8095 29.7932 20.0581 28.1588C20.1367 27.701 20.2539 27.2719 20.4082 26.8699C20.0265 26.4507 19.5553 26.111 18.9819 25.8401C18.1948 25.453 17.1294 25.3813 15.798 25.6226C15.3373 25.7121 14.8735 25.8278 14.432 25.9647C14.1621 26.0487 13.8684 26.0122 13.6094 25.8856C13.5941 25.8782 13.5782 25.8703 13.5629 25.8619C13.5085 25.8317 13.4571 25.7971 13.4102 25.7585C12.9939 25.4298 12.6167 25.1796 12.2874 25.0155C11.5592 24.6536 10.8497 24.4741 10.1457 24.4741ZM17.2159 23.5071C18.2166 23.5071 19.0941 23.6915 19.8406 24.0584C20.4368 24.3402 20.9703 24.6917 21.435 25.1079C21.7845 24.6976 22.2028 24.3263 22.6838 24.0025C24.0236 23.0449 25.6031 22.6459 27.3656 22.8209C25.4202 18.987 24.9931 14.6754 26.0911 9.95408C20.9767 12.6356 17.4008 17.2398 15.4351 23.6777C16.066 23.564 16.6602 23.5071 17.2159 23.5071ZM19.3591 10.4979C18.8311 10.4979 18.2571 10.4415 17.6307 10.3175C17.6104 10.3135 17.5902 10.3086 17.5699 10.3036C16.6592 10.0633 15.67 9.72518 14.6293 9.29853C14.5804 9.27826 14.5329 9.25453 14.4879 9.22635L13.7216 8.75669C13.4576 8.59502 13.2846 8.31916 13.2544 8.01165C13.2243 7.70414 13.339 7.3996 13.5659 7.18899L14.258 6.5463C14.2699 6.53492 14.2832 6.52355 14.2956 6.51268C15.1642 5.78593 16.068 5.1991 16.9816 4.76948C20.7305 2.89478 23.0981 4.41698 24.4201 6.02521C24.6579 6.31492 24.7123 6.71488 24.5585 7.05699C23.8214 8.70527 22.3343 10.4979 19.3591 10.4979ZM18.0445 8.38343C20.1506 8.79327 21.5709 8.29345 22.4598 6.81573C21.2427 5.67124 19.76 5.59016 17.8448 6.54877C17.206 6.84935 16.5816 7.23497 15.9716 7.70315C16.7027 7.98347 17.3974 8.21138 18.0445 8.38343Z" fill="#826489"/>
<path d="M13.0364 43.8767C11.5542 43.8767 10.1457 43.5558 8.83068 42.9161C4.9913 41.0473 2.49219 38.1314 1.40257 34.25C0.739104 31.8009 0.705486 29.371 1.30023 27.0241C1.36747 26.7586 1.63592 26.599 1.9014 26.6662C2.1659 26.7334 2.32608 27.0024 2.25933 27.2669C1.70661 29.4476 1.73875 31.7079 2.35574 33.987C3.36478 37.5807 5.68937 40.287 9.26376 42.0272C10.9867 42.8652 12.8965 43.0926 14.9373 42.7025C15.2053 42.6531 15.4638 42.8271 15.5157 43.0956C15.5672 43.3635 15.3907 43.6226 15.1227 43.674C14.4123 43.8094 13.7167 43.8767 13.0364 43.8767ZM34.1125 43.5346C33.9009 43.5346 33.7056 43.3981 33.6398 43.185C33.5598 42.924 33.7061 42.6476 33.9671 42.5671C35.5971 42.0653 37.2187 41.0404 38.7864 39.5207C40.9221 37.512 42.2807 35.4608 42.8304 33.419C42.9021 33.1555 43.174 33.0002 43.4366 33.0699C43.7001 33.1411 43.8568 33.4121 43.7856 33.6761C43.1879 35.8978 41.7359 38.1047 39.4701 40.236C37.7942 41.8606 36.0396 42.9645 34.2583 43.5123C34.2094 43.5272 34.1604 43.5346 34.1125 43.5346ZM31.69 38.6402C31.4794 38.6402 31.2846 38.5047 31.2184 38.2936C31.1368 38.0331 31.2816 37.7557 31.5417 37.6741C33.9241 36.9266 35.691 35.5097 36.7915 33.462C36.9211 33.2212 37.2212 33.1317 37.4609 33.2608C37.7012 33.3903 37.7917 33.6899 37.6622 33.9302C36.4346 36.2127 34.4749 37.7898 31.8378 38.6169C31.7889 38.6328 31.7384 38.6402 31.69 38.6402ZM15.3753 38.1705C15.1657 38.1705 14.9714 38.0365 14.9042 37.8264C14.8216 37.5664 14.965 37.288 15.225 37.205C17.8463 36.368 19.6488 34.8131 20.7354 32.4515C20.8487 32.2038 21.1413 32.095 21.391 32.2087C21.6392 32.3229 21.7479 32.6166 21.6332 32.8648C20.4413 35.4568 18.3866 37.2336 15.5256 38.1473C15.4757 38.1626 15.4248 38.1705 15.3753 38.1705ZM8.45446 35.1543C8.30762 35.1543 8.16228 35.0895 8.06488 34.9649C7.54825 34.3054 7.16906 33.5391 6.93917 32.6883C6.51548 31.1339 6.63166 29.5855 7.28425 28.0851C7.39301 27.8349 7.68421 27.7187 7.93486 27.829C8.18502 27.9382 8.29971 28.2294 8.19095 28.4796C7.62241 29.7862 7.52452 31.0781 7.89284 32.4287C8.08861 33.1525 8.40848 33.8001 8.84304 34.3548C9.01163 34.5699 8.97405 34.8804 8.7585 35.049C8.66803 35.1202 8.56075 35.1543 8.45446 35.1543ZM24.8433 35.0801C24.6964 35.0801 24.5511 35.0153 24.4537 34.8908C23.9371 34.2317 23.5584 33.4748 23.3285 32.6408C22.9038 31.085 23.0195 29.5361 23.6726 28.0356C23.7818 27.7855 24.072 27.6698 24.3232 27.7795C24.5733 27.8888 24.688 28.18 24.5793 28.4302C24.0107 29.7373 23.9128 31.0286 24.2817 32.3793C24.4769 33.0853 24.7963 33.7255 25.2319 34.2812C25.4004 34.4962 25.3629 34.8067 25.1478 34.9753C25.0573 35.046 24.9501 35.0801 24.8433 35.0801ZM43.5053 29.1228C43.2699 29.1228 43.0618 28.9547 43.0193 28.7149C42.8136 27.5615 42.4285 26.3893 41.8738 25.233C40.5884 22.6948 38.779 21.2364 36.3461 20.784C36.0777 20.7341 35.9007 20.476 35.9501 20.2076C36 19.9391 36.2571 19.7611 36.5266 19.8121C39.2447 20.3173 41.3419 21.9943 42.7602 24.7959C43.3579 26.0428 43.7713 27.3 43.9922 28.5419C44.0402 28.8103 43.8607 29.0674 43.5923 29.1154C43.5631 29.1208 43.5339 29.1228 43.5053 29.1228ZM9.31963 26.9475C9.13819 26.9475 8.96367 26.8476 8.87666 26.6741C8.75455 26.4299 8.85342 26.1328 9.09765 26.0106C9.24992 25.9345 9.41307 25.8673 9.58313 25.8109C10.0657 25.6754 10.5314 25.6171 10.9946 25.6379C11.2675 25.6487 11.4796 25.8786 11.4687 26.1515C11.4578 26.4244 11.224 26.6336 10.955 26.6257C10.5981 26.6113 10.2323 26.6553 9.87235 26.7562C9.77001 26.7908 9.65136 26.8392 9.53963 26.8951C9.46893 26.9307 9.39379 26.9475 9.31963 26.9475ZM25.7084 26.8981C25.5438 26.8981 25.3831 26.816 25.2887 26.6662C25.1439 26.4348 25.2141 26.1298 25.4449 25.9849C25.6239 25.8727 25.8182 25.7931 26.0209 25.7481C26.449 25.6092 26.9286 25.5523 27.4027 25.5894C27.6751 25.6112 27.8783 25.8495 27.8565 26.1219C27.8348 26.3938 27.594 26.596 27.3246 26.5752C26.98 26.547 26.627 26.5901 26.2785 26.7018C26.1415 26.7339 26.0545 26.77 25.9705 26.8229C25.8889 26.8738 25.7984 26.8981 25.7084 26.8981ZM3.70788 24.9205C3.43448 24.9205 3.21349 24.699 3.21349 24.4261V22.8194C3.21349 22.5465 3.43448 22.325 3.70788 22.325C3.98127 22.325 4.20226 22.5465 4.20226 22.8194V24.4261C4.20226 24.6995 3.98127 24.9205 3.70788 24.9205ZM17.8225 22.0783C17.7761 22.0783 17.7296 22.0714 17.6826 22.0575C17.4206 21.9799 17.2713 21.705 17.3484 21.443C17.5704 20.6916 17.8651 19.9559 18.2235 19.2569C18.3481 19.0141 18.6457 18.9182 18.8889 19.0423C19.1317 19.1669 19.2281 19.4645 19.1035 19.7077C18.7732 20.3524 18.5018 21.0307 18.2971 21.7238C18.2329 21.9389 18.0356 22.0783 17.8225 22.0783ZM6.89665 21.707H5.31463C5.04123 21.707 4.82024 21.4855 4.82024 21.2126C4.82024 20.9397 5.04123 20.7183 5.31463 20.7183H6.89665C7.17005 20.7183 7.39104 20.9397 7.39104 21.2126C7.39104 21.4855 7.17005 21.707 6.89665 21.707ZM2.10113 21.707H0.494384C0.22099 21.707 0 21.4855 0 21.2126C0 20.9397 0.22099 20.7183 0.494384 20.7183H2.10113C2.37453 20.7183 2.59551 20.9397 2.59551 21.2126C2.59551 21.4855 2.37453 21.707 2.10113 21.707ZM3.70788 20.125C3.43448 20.125 3.21349 19.9035 3.21349 19.6306V18.0239C3.21349 17.751 3.43448 17.5295 3.70788 17.5295C3.98127 17.5295 4.20226 17.751 4.20226 18.0239V19.6306C4.20226 19.904 3.98127 20.125 3.70788 20.125ZM20.294 17.2329C20.1946 17.2329 20.0942 17.2027 20.0072 17.1409C19.7852 16.9822 19.7333 16.6732 19.8925 16.4512C20.6484 15.3923 21.568 14.3457 22.6235 13.3401C22.8208 13.1522 23.1327 13.1591 23.3226 13.3574C23.5109 13.5551 23.503 13.8681 23.3053 14.0564C22.2947 15.019 21.4172 16.0182 20.6969 17.0262C20.6 17.1612 20.4482 17.2329 20.294 17.2329Z" fill="#826489"/>
</svg>
