<svg width="44" height="45" viewBox="0 0 44 45" fill="none" xmlns="http://www.w3.org/2000/svg">
<path d="M22.0017 0.00146484C14.1157 0.00146484 5.74911 4.15489 2.27093 11.4943C0.784995 14.6302 0.510235 18.1676 1.93792 21.3803C3.70055 25.3468 7.42728 28.1279 11.3496 29.7468C11.2943 29.6968 11.2385 29.6473 11.1831 29.5973C11.8695 30.2837 12.6972 30.96 13.7157 30.8454H13.7152C13.4395 33.7639 13.0914 36.6668 12.4885 39.5367L12.5763 39.6455C12.371 43.0838 18.2429 43.6479 20.5565 43.6882C22.9599 43.7304 29.1041 43.346 29.2143 39.8527C30.9843 37.0848 31.8915 33.3173 31.9537 30.0638C31.7663 30.0449 31.5852 29.9998 31.4105 29.9294C32.4304 30.3546 33.4187 29.8396 34.0503 29.025C33.9984 29.0813 33.9464 29.1376 33.8945 29.1939C37.5125 27.4459 40.861 24.6284 42.3101 20.7827C43.5251 17.5594 43.0581 14.0894 41.513 11.0681C37.893 3.98985 29.7493 0.00146484 22.0017 0.00146484ZM20.8924 41.6513C19.4618 41.6513 18.0055 41.5018 16.6375 41.0659C15.9938 40.861 15.139 40.578 14.7055 40.0173C14.1754 39.3319 16.189 38.645 16.6045 38.5139C17.9827 38.0804 19.4492 37.9124 20.891 37.9124C21.5133 37.9124 27.9483 38.6056 27.1245 39.9527C26.7857 40.5066 25.9362 40.7955 25.3643 40.994C23.9361 41.4887 22.3958 41.6513 20.8924 41.6513ZM28.0663 37.6945C26.4915 36.4396 24.2085 36.0653 22.2638 35.9241C19.8691 35.7503 17.2769 35.9415 15.0535 36.9168C15.4201 34.511 15.6992 31.6886 15.8827 29.5488C18.0541 28.1245 20.7021 27.8284 23.2361 27.8478C25.3648 27.8643 27.9595 27.7905 29.8925 28.8162C30.1415 31.3313 29.1619 35.3323 28.0663 37.6945C29.1619 35.3323 28.058 37.6882 28.0663 37.6945ZM32.4692 27.7366C32.3833 27.8468 32.2877 27.9395 32.1464 28.0269C30.2309 25.7429 26.1915 25.8526 23.5138 25.8133C19.9982 25.7619 16.1332 26.2813 13.4929 28.842C13.2535 28.842 12.7569 28.2866 12.5938 28.1245C10.7924 26.4725 11.2089 24.4191 13.1458 23.2007C15.5846 21.6667 18.788 21.3322 21.5992 21.2657C24.6386 21.1939 27.9706 21.4327 30.7527 22.773C32.793 23.7555 34.2212 25.6648 32.4692 27.7366C33.0304 27.073 32.3828 27.8468 32.4692 27.7366ZM35.3154 26.0454C35.6998 20.0424 26.4279 19.2171 22.3386 19.2171C18.2458 19.2171 8.35738 20.1871 9.40254 26.4958C9.40254 26.3691 8.13845 25.6614 7.97777 25.542C7.45349 25.1521 6.95203 24.7313 6.48115 24.2788C5.54037 23.3745 4.71755 22.338 4.10686 21.1817C3.10346 19.2812 2.77336 17.1298 3.21171 15.0244C4.0622 10.9394 7.17485 7.54521 10.6016 5.35733C18.9953 -0.000961952 30.8061 1.28254 37.4833 8.82629C39.4018 10.9938 40.9096 13.7618 40.9809 16.7132C41.0761 20.6458 38.4464 23.9575 35.3154 26.0454C38.9052 23.6512 35.3212 25.9483 35.3154 26.0454Z" fill="#826489"/>
</svg>
