<svg width="44" height="45" viewBox="0 0 44 45" fill="none" xmlns="http://www.w3.org/2000/svg">
<path d="M24.2826 19.9617C19.8146 22.1957 17.8234 27.295 19.8631 31.326C20.883 33.3171 22.4371 34.337 24.6225 34.337C26.2737 34.337 28.2649 33.7542 30.596 32.5886C35.9382 29.9176 37.7837 26.7608 36.0353 23.2641C35.064 21.3215 33.2671 19.8646 31.0331 19.2818C28.7991 18.6505 26.4194 18.8933 24.2826 19.9617ZM34.6755 23.8469C35.5497 25.5467 35.9868 28.2178 29.9161 31.2288C23.8455 34.2884 22 32.3458 21.1258 30.5975C19.4746 27.295 21.1744 23.0699 24.9139 21.2244C26.0795 20.6416 27.3907 20.3502 28.6049 20.3502C29.2848 20.3502 29.9647 20.4474 30.596 20.5931C32.4415 21.1273 33.8985 22.2928 34.6755 23.8469Z" fill="#826489"/>
<path d="M43.4658 27.7322L41.1832 26.6638C41.1832 26.5181 41.1832 26.3724 41.1832 26.2267C41.2318 24.8183 41.2804 23.3613 40.7947 21.273C40.7947 20.7874 40.7461 20.2532 40.649 19.8161C40.4547 18.8448 40.6004 17.7278 40.989 16.7079L41.2803 15.9309C41.3775 15.6395 41.3289 15.3481 41.0861 15.1538C40.8918 14.9596 40.5519 14.911 40.309 15.0081C39.0949 15.5909 37.638 15.6881 36.2296 15.3967C35.6954 15.251 35.1612 15.2024 34.5784 15.1538C35.0155 12.8227 34.9183 10.8315 34.287 9.27746C35.5497 8.50042 38.4636 6.46068 40.309 2.52691C40.5033 2.13839 40.309 1.74987 39.9691 1.55561C39.5806 1.36135 39.1921 1.55561 38.9978 1.89556C37.3466 5.44082 34.6755 7.33486 33.5585 8.01477C32.4415 6.60638 30.3532 5.39225 27.6336 4.51808L27.9249 1.26422C27.9735 0.972824 27.7792 0.681434 27.5364 0.535738C27.245 0.390043 26.9051 0.390043 26.6622 0.584303L23.6026 3.10969C21.7086 2.76973 20.5916 2.91543 19.0375 3.15825C18.5519 3.20682 18.0177 3.30395 17.3863 3.40108L15.5894 0.924259C15.4437 0.729999 15.2009 0.584303 14.9581 0.632868C14.7152 0.681434 14.4724 0.827129 14.3753 1.06995L13.2583 3.88673C12.3841 4.03243 11.947 4.17812 11.0728 4.46951L10.8786 4.51808C6.65342 5.82934 4.41943 7.91764 3.35099 11.6086L0.582781 12.2399C0.339956 12.2885 0.145695 12.4828 0.0485652 12.7256C-0.0485651 12.9684 0.048565 13.2598 0.19426 13.4541L2.33113 15.8338C1.9426 18.3591 1.9426 19.9132 2.81678 22.0987L0.19426 24.9154C-1.04308e-07 25.1097 -0.0485651 25.4011 0.0485652 25.6925C0.145695 25.9839 0.388521 26.1296 0.679912 26.1781L4.07947 26.4695C5.87638 29.5777 7.91611 30.3062 10.83 31.2775L11.8499 34.7742C11.947 35.0655 12.1413 35.2598 12.4327 35.3084C12.4812 35.3084 12.4812 35.3084 12.5298 35.3084C12.7726 35.3084 13.0155 35.1627 13.1611 34.9684L14.8124 32.2973C14.8124 32.3459 14.8609 32.3459 14.8609 32.3945C15.0066 32.6373 15.6865 33.9485 17.0464 35.5026L15.298 37.7366C15.1038 37.9794 15.1038 38.3194 15.2494 38.5622C15.3951 38.8051 15.638 38.9022 15.8808 38.9022C15.9294 38.9022 15.9779 38.9022 16.0265 38.9022L19.0861 38.368C20.9801 40.0192 22.777 41.039 26.4194 41.5247C26.7108 41.5733 27.0022 41.5733 27.245 41.6218L28.9934 43.7587C29.1391 43.9044 29.3333 44.0015 29.5762 44.0015C29.6247 44.0015 29.6733 44.0015 29.7219 44.0015C29.9647 43.953 30.2075 43.7587 30.3046 43.5159L31.0331 41.5247C34.4327 41.0876 36.0353 39.3878 37.5408 37.6395L40.0177 37.9309C40.0662 37.9309 40.0662 37.9309 40.1148 37.9309C40.3576 37.9309 40.5519 37.8337 40.6976 37.6395C40.8433 37.3967 40.8918 37.1538 40.7461 36.911L39.7263 34.9198C40.3576 34.0457 40.6004 33.6086 40.649 33.4143C40.7947 33.1229 41.0375 32.3459 41.2318 30.4033L43.6115 29.1892C43.8543 29.0435 44 28.8006 44 28.5093C43.8543 28.1207 43.7086 27.8293 43.4658 27.7322ZM39.3863 16.8051C39.0949 17.9221 38.9978 18.9905 39.1921 20.0589C39.532 21.953 39.1921 24.4298 38.2208 26.9066C37.298 29.3834 35.7925 31.666 33.947 33.5115C28.7991 38.5622 24.7196 38.6594 18.309 33.9C17.3377 33.1715 16.6093 32.3945 16.0751 31.6174C16.0751 31.6174 16.0751 31.6174 16.0751 31.5688C15.2009 30.209 15.0066 28.7521 15.3951 27.2466C16.1236 24.4298 19.0861 21.3702 23.0684 19.2819C27.4393 16.9993 32.4415 16.028 35.8411 16.8051C37.0066 17.0479 38.2693 17.0479 39.3863 16.8051ZM13.8411 30.9375L12.7241 32.783L12.0441 30.5004C11.9956 30.2576 11.8013 30.0633 11.5585 30.0148C8.2075 28.8978 6.75055 28.3636 5.19647 25.6925C5.19647 25.6439 5.1479 25.5953 5.1479 25.5953C5.1479 25.5468 5.09934 25.4982 5.05077 25.4496C4.95364 25.2554 4.71082 25.1097 4.46799 25.0611L2.18543 24.8669L4.07947 22.8271C4.27373 22.6329 4.3223 22.2929 4.22517 22.0501C3.25386 19.7675 3.30243 18.4077 3.73951 15.7852C3.78808 15.5909 3.69095 15.3481 3.54525 15.2024L1.99117 13.5026L3.98234 13.0655C4.22517 13.017 4.46799 12.8227 4.51656 12.5313C5.43929 9.03463 7.33333 7.18916 11.2185 6.0236L11.4128 5.97503C12.3841 5.68364 12.7726 5.53795 13.7925 5.39225C14.0353 5.34369 14.2781 5.19799 14.3753 4.95516L15.1523 2.96399L16.415 4.71234C16.5607 4.9066 16.8035 5.05229 17.0949 5.00373C17.9205 4.9066 18.6004 4.80947 19.2318 4.71234C20.8344 4.46951 21.8057 4.32382 23.6512 4.71234C23.8455 4.7609 24.0883 4.71234 24.2826 4.56664L26.2252 2.96399L26.0309 5.0523C25.9823 5.39225 26.2252 5.73221 26.5651 5.82934C29.5762 6.65494 31.7616 7.9662 32.6358 9.42316C33.4128 10.7344 33.5585 12.7741 33.0243 15.2024C29.7219 15.251 25.8366 16.2708 22.3885 18.1163C18.0177 20.4474 14.8609 23.7499 13.9868 27.0037C13.6468 28.3636 13.6468 29.6262 14.0839 30.8889C13.9868 30.7432 13.9382 30.8404 13.8411 30.9375ZM40.0662 29.1406C39.9205 29.1892 39.8234 29.3349 39.7748 29.432C39.7748 29.432 39.7748 29.432 39.7748 29.4806C39.7748 29.5291 39.7263 29.5291 39.7263 29.5777V29.6262C39.7263 29.6748 39.7263 29.6748 39.7263 29.7234C39.5806 31.7631 39.3377 32.443 39.2892 32.5887C39.2406 32.6373 39.2406 32.6373 39.2406 32.7344C39.2406 32.7344 39.0949 33.1229 38.2208 34.3371V34.3856L38.1722 34.4342C38.1722 34.4342 38.1722 34.4828 38.1236 34.4828V34.8227C38.1236 34.8713 38.1236 34.8713 38.1722 34.9198V34.9684L38.755 36.134L37.2495 35.9397C37.2009 35.9397 37.2009 35.9397 37.1523 35.9397H37.1038C36.9581 35.9397 36.8124 35.9883 36.7152 36.0854C36.7152 36.0854 36.7152 36.0854 36.6667 36.134C36.6181 36.134 36.6181 36.1825 36.5695 36.2311C35.0155 38.0766 33.6556 39.6792 30.3532 39.9706H30.3046C30.2561 39.9706 30.2561 39.9706 30.2075 39.9706H30.1589C30.1589 39.9706 30.1104 39.9706 30.1104 40.0192C30.1104 40.0192 30.0618 40.0192 30.0618 40.0677C30.0618 40.0677 30.0132 40.0677 30.0132 40.1163L29.819 40.3106C29.819 40.3106 29.7704 40.3591 29.7704 40.4077V40.4563L29.3333 41.6704L28.0706 40.3591L27.9249 40.2134C27.9249 40.2134 27.8764 40.2134 27.8764 40.1649C27.8764 40.1649 27.8278 40.1649 27.8278 40.1163H27.7307C27.6821 40.1163 27.6821 40.1163 27.6336 40.1163C27.2936 40.1163 26.9536 40.0677 26.6137 40.0192C23.117 39.5821 21.6115 38.6594 19.8146 37.0081C19.766 36.9596 19.6689 36.911 19.5717 36.8624C19.5717 36.8624 19.5717 36.8624 19.5232 36.8624C19.426 36.8139 19.3775 36.8139 19.2804 36.8139C19.2804 36.8139 19.2804 36.8139 19.2318 36.8139C19.1832 36.8139 19.1832 36.8139 19.1347 36.8139L17.6291 37.0567L18.6004 35.8911C18.6004 35.8911 18.6004 35.8426 18.649 35.8426C21.5629 37.8338 24.1369 38.8536 26.5651 38.8536C29.479 38.8536 32.1987 37.4452 35.1126 34.5799C37.1038 32.5887 38.7064 30.1119 39.7263 27.4408C39.7748 27.3437 39.7748 27.2951 39.8234 27.198V27.3437C39.8234 27.3437 39.8234 27.3923 39.872 27.3923C39.872 27.3923 39.872 27.4408 39.9205 27.4408L40.1634 27.6836C40.1634 27.6836 40.2119 27.6836 40.2119 27.7322L41.6203 28.3636L40.0662 29.1406Z" fill="#826489"/>
<path d="M13.4525 10.103L10.4901 8.25757C10.2472 8.11187 10.0044 8.11187 9.76159 8.25757C9.51877 8.40327 9.37307 8.64609 9.37307 8.88892V12.4342C9.37307 12.8227 9.71303 13.1626 10.1016 13.1626C10.4901 13.1626 10.83 12.8227 10.83 12.4342V10.2002L12.6755 11.3657C13.0155 11.56 13.4525 11.4629 13.6954 11.1229C13.8896 10.783 13.7925 10.3459 13.4525 10.103Z" fill="#826489"/>
<path d="M12.4812 16.1737L9.51877 14.3282C9.27594 14.1825 9.03312 14.1825 8.79029 14.3282C8.54747 14.4739 8.40177 14.7167 8.40177 14.9595V18.5048C8.40177 18.8933 8.74173 19.2333 9.13025 19.2333C9.51877 19.2333 9.85873 18.8933 9.85873 18.5048V16.2708L11.7042 17.4364C12.0442 17.6306 12.4812 17.5335 12.7241 17.1935C12.9669 16.805 12.8212 16.3679 12.4812 16.1737Z" fill="#826489"/>
<path d="M16.1722 14.5224C16.5607 14.5224 16.9007 14.1825 16.9007 13.7939V11.56L18.7461 12.7255C19.0861 12.9198 19.5232 12.8226 19.766 12.4827C19.9603 12.1427 19.8631 11.7056 19.5232 11.4628L16.6093 9.61735C16.3665 9.47165 16.1236 9.47165 15.8808 9.61735C15.638 9.76304 15.4923 10.0059 15.4923 10.2487V13.7939C15.4437 14.1825 15.7837 14.5224 16.1722 14.5224Z" fill="#826489"/>
</svg>
