<svg width="44" height="45" viewBox="0 0 44 45" fill="none" xmlns="http://www.w3.org/2000/svg">
<path d="M43.9927 25.4954C43.9207 24.107 43.3156 22.948 42.3035 22.2168C42.9394 20.0202 43.0486 16.9545 41.8493 14.7322C41.0704 13.2887 39.8141 12.3321 38.2157 11.9658C37.903 11.8938 37.5729 11.8456 37.2318 11.8293C37.1926 9.95984 36.3736 8.24084 34.9276 7.10261C33.6548 6.10089 32.0962 5.70923 30.6169 5.99218C29.9508 4.34217 28.7276 3.19997 27.1079 2.73882C25.3934 2.24987 23.4485 2.6316 21.9727 3.70778C20.496 2.6321 18.5506 2.24987 16.8366 2.73882C15.2173 3.20047 13.9942 4.34217 13.3286 5.99218C11.8503 5.70923 10.2901 6.10089 9.01738 7.1031C7.55749 8.25225 6.73398 9.9936 6.71065 11.8839C6.54882 11.9032 6.38501 11.927 6.21624 11.9603C4.62778 12.276 3.33617 13.2524 2.48089 14.7833C1.2131 17.0523 1.13368 20.0833 1.70304 22.2118C0.686923 22.9425 0.0793382 24.1036 0.0073613 25.4949C-0.0948956 27.476 0.876048 29.5678 2.43025 30.8515C2.10661 31.6989 2.19496 32.8286 2.70575 34.0954C3.83852 36.905 6.68434 39.8402 10.9791 41.7791C11.0298 41.8084 11.0824 41.8327 11.139 41.8516C14.1074 43.1635 17.7554 44.0014 22 44.0014C32.5126 44.0014 39.3708 38.8668 41.2938 34.0959C41.8046 32.8291 41.893 31.6994 41.5693 30.852C43.124 29.5683 44.0945 27.477 43.9927 25.4954ZM10.0618 8.42897C11.1102 7.60347 12.4236 7.37165 13.5738 7.80897C13.7967 7.89286 14.0448 7.87946 14.2568 7.77174C14.4693 7.66353 14.6256 7.47043 14.6882 7.2406C15.2054 5.329 16.3938 4.62015 17.2997 4.36202C18.6792 3.96789 20.2775 4.37443 21.3716 5.39551C21.528 5.54145 21.7335 5.62286 21.9474 5.62286H21.999C22.213 5.62286 22.4185 5.54145 22.5749 5.39551C23.6684 4.37493 25.2668 3.96838 26.6458 4.36153C27.5517 4.61965 28.7405 5.3285 29.2583 7.2406C29.3203 7.47043 29.4772 7.66353 29.6896 7.77174C29.9021 7.87946 30.1503 7.89336 30.3727 7.80848C31.5223 7.37165 32.8353 7.60297 33.8837 8.42847C34.9688 9.28227 35.5679 10.6007 35.5501 12.0333C33.7884 12.5679 31.906 14.2214 30.3702 18.1275C29.3591 17.7279 27.6768 17.3303 26.1797 18.2362C24.417 19.3039 23.6793 21.5734 23.385 22.9559C22.9069 22.7946 22.4046 22.6839 21.9519 22.6481C21.5741 22.6183 21.2108 22.6397 20.8613 22.6998C20.4905 21.4771 19.6134 19.3228 17.8194 18.2362C16.3283 17.3333 14.6534 17.7244 13.6413 18.1225C12.7776 15.7617 11.3321 12.547 8.39639 11.9419C8.40434 10.5456 9.00001 9.26489 10.0618 8.42897ZM4.27137 33.4645C3.7998 32.2945 3.8693 31.5003 4.14777 31.2322C4.3364 31.0506 4.43022 30.7914 4.40093 30.5308C4.37214 30.2707 4.22372 30.0384 3.99935 29.9024C2.57818 29.0412 1.60773 27.2239 1.69261 25.5818C1.73034 24.8467 1.99988 23.8638 3.06911 23.3585C3.46523 23.1713 3.65188 22.7122 3.49948 22.3016C2.86311 20.5886 2.80652 17.6599 3.95418 15.6063C4.56971 14.5048 5.44137 13.8352 6.54535 13.6158C6.85857 13.5537 7.15244 13.5329 7.43439 13.5388C7.51381 13.5542 7.59571 13.5602 7.6796 13.5517C9.86026 13.7533 11.1275 16.0372 12.3636 19.5675C12.4475 19.8078 12.6371 19.9969 12.8773 20.0828C13.1166 20.1682 13.3841 20.1409 13.6016 20.0083C13.6204 19.9964 15.5524 18.8368 16.9453 19.6807C18.3302 20.5196 19.0187 22.3935 19.2892 23.3391C19.0624 23.4955 18.8465 23.6747 18.6459 23.8827C17.4015 25.1703 16.7884 27.3867 17.0465 29.6661C17.3538 32.3779 17.2635 34.6246 16.7929 36.3297C14.5616 34.4325 12.7637 32.1625 11.3891 29.9223C13.0014 28.4202 14.0141 26.0544 14.0597 25.9452C14.2037 25.6037 14.0434 25.211 13.7023 25.0671C13.3613 24.9236 12.9682 25.0834 12.8242 25.4245C12.8148 25.4473 11.9724 27.4175 10.6932 28.7304C9.68156 26.8948 8.9603 25.1291 8.53737 23.6642C8.43462 23.3083 8.06232 23.1038 7.7079 23.2066C7.35248 23.3093 7.14747 23.6806 7.25022 24.036C7.6667 25.4796 8.35867 27.2005 9.31869 28.9995C8.55673 28.9062 7.5838 28.7458 6.80943 28.4788C6.45798 28.3566 6.07775 28.5433 5.95762 28.8932C5.8365 29.2432 6.02215 29.6244 6.37211 29.7451C7.67812 30.1958 9.40209 30.372 10.1338 30.4296C11.413 32.5482 13.0536 34.7 15.0629 36.5794C14.0602 36.5709 12.5815 36.4513 10.6738 36.0056C10.3125 35.9202 9.95308 36.1455 9.8687 36.5054C9.78431 36.8658 10.0082 37.2262 10.3686 37.3106C12.4633 37.8 14.0826 37.9226 15.1801 37.9226C15.5832 37.9226 15.9143 37.9062 16.1739 37.8849C15.9704 38.2537 15.7395 38.5808 15.4779 38.8593C14.5566 39.8382 13.2705 40.278 11.5609 40.2125C7.31873 38.2478 5.02887 35.3434 4.27137 33.4645ZM40.0002 29.9029C39.7759 30.0384 39.6279 30.2707 39.5986 30.5313C39.5694 30.7919 39.6632 31.0511 39.8523 31.2327C40.1308 31.5008 40.2003 32.295 39.7287 33.465C38.4947 36.5253 33.2021 42.3132 22 42.3132C20.7769 42.3132 19.6283 42.2407 18.5436 42.1137C22.0258 41.3547 24.9843 39.7985 27.4479 37.8457C27.7239 37.8804 28.1816 37.9216 28.819 37.9216C29.916 37.9216 31.5357 37.799 33.6305 37.3096C33.9909 37.2257 34.2148 36.8648 34.1304 36.5044C34.0465 36.1441 33.6861 35.9192 33.3252 36.0046C31.4067 36.4528 29.922 36.5714 28.9197 36.5789C30.9624 34.6817 32.6099 32.5333 33.8807 30.4276C34.6213 30.3685 36.3299 30.1918 37.627 29.7441C37.9769 29.6234 38.1626 29.2417 38.0415 28.8923C37.9208 28.5423 37.5396 28.3561 37.1896 28.4778C36.4207 28.7433 35.4523 28.9032 34.6908 28.997C35.6523 27.1906 36.3344 25.4701 36.7488 24.0351C36.8516 23.6796 36.6466 23.3083 36.2912 23.2056C35.9363 23.1023 35.5645 23.3078 35.4617 23.6633C35.0403 25.1212 34.3279 26.8898 33.3128 28.7364C32.0326 27.4249 31.1838 25.4463 31.1744 25.4235C31.0299 25.0824 30.6368 24.9236 30.2962 25.0671C29.9552 25.211 29.7959 25.6037 29.9393 25.9442C29.9855 26.0534 31.0011 28.4286 32.6189 29.9302C31.2935 32.0915 29.5556 34.2895 27.3755 36.1699C25.8823 34.1024 24.7927 31.192 24.7808 31.1603C24.6518 30.8138 24.2666 30.6356 23.9196 30.7651C23.5726 30.8937 23.3954 31.2789 23.524 31.6259C23.5756 31.7644 24.7083 34.7924 26.333 37.0137C23.3348 39.3086 19.5945 40.9779 15.0461 41.242C15.6705 40.9367 16.225 40.5277 16.7075 40.0149C18.6077 37.9956 19.2858 34.4499 18.7228 29.4755C18.5233 27.7103 18.9691 25.975 19.8591 25.0546C20.3828 24.5131 21.044 24.2674 21.8184 24.3309C22.3872 24.3761 23.1258 24.6089 23.6143 24.8973C23.864 25.0452 24.1722 25.0537 24.4299 24.9206C24.6875 24.7881 24.8593 24.5319 24.8846 24.243C24.967 23.2895 25.518 20.6104 27.0543 19.6797C28.4467 18.8378 30.3791 19.9959 30.396 20.0058C30.6139 20.1404 30.881 20.1696 31.1212 20.0838C31.3625 19.9984 31.5516 19.8083 31.6365 19.567C32.7276 16.4507 34.6913 12.8876 37.8389 13.6103C38.9657 13.8684 39.8151 14.5152 40.3641 15.5333C41.3946 17.443 41.2124 20.3836 40.5001 22.3016C40.3477 22.7122 40.5343 23.1708 40.9305 23.358C41.9992 23.8638 42.2687 24.8467 42.307 25.5818C42.3918 27.2249 41.4214 29.0422 40.0002 29.9029ZM14.8063 11.8566C14.9403 11.1085 15.4318 10.4691 16.154 10.1028C16.9299 9.70966 17.8353 9.6908 18.5759 10.0527C18.9085 10.2155 19.046 10.6166 18.8837 10.9492C18.7209 11.2817 18.3193 11.4187 17.9872 11.2569C17.6268 11.0802 17.1572 11.0966 16.7601 11.2981C16.5581 11.4009 16.2066 11.6401 16.1257 12.0928C16.0676 12.4175 15.7852 12.6448 15.4665 12.6448C15.4273 12.6448 15.3876 12.6414 15.3479 12.6344C14.9835 12.5689 14.7408 12.2209 14.8063 11.8566ZM24.9134 9.74888C24.7505 9.41679 24.888 9.01471 25.2206 8.85239C25.9607 8.48953 26.8662 8.50789 27.643 8.90153C28.3658 9.26787 28.8567 9.90673 28.9907 10.6553C29.0558 11.0196 28.8135 11.3676 28.4492 11.4331C28.4095 11.4401 28.3697 11.4436 28.3305 11.4436C28.0118 11.4436 27.7299 11.2162 27.6713 10.8916C27.5904 10.4389 27.239 10.1996 27.0369 10.0968C26.6398 9.89581 26.1697 9.87992 25.8098 10.0556C25.4783 10.2195 25.0762 10.0815 24.9134 9.74888ZM20.7228 14.8528C21.1274 14.21 21.8218 13.8014 22.6285 13.7334C23.4996 13.6595 24.3435 13.9826 24.894 14.5971C25.1412 14.8726 25.1179 15.2966 24.8424 15.5433C24.5669 15.7905 24.1435 15.7671 23.8963 15.4916C23.6287 15.1933 23.1859 15.03 22.7421 15.0687C22.5168 15.0881 22.1018 15.1779 21.8576 15.5666C21.7305 15.7691 21.5126 15.8798 21.2897 15.8798C21.1676 15.8798 21.0445 15.8466 20.9338 15.7771C20.6201 15.58 20.5257 15.1665 20.7228 14.8528Z" fill="#826489"/>
</svg>
