<svg width="44" height="45" viewBox="0 0 44 45" fill="none" xmlns="http://www.w3.org/2000/svg">
<path d="M32.1061 19.7537C31.9958 19.7537 31.8903 19.7346 31.7799 19.6962C31.2811 19.5187 31.022 18.9671 31.2043 18.4682C31.8855 16.5831 31.6168 14.1895 31.612 14.1655C31.6072 14.1367 31.6072 14.1079 31.6072 14.0839C31.4969 10.3664 27.7842 10.2801 27.3333 10.2848C23.8508 10.3568 22.2055 11.3929 21.4428 12.2515C20.872 12.8943 20.3251 13.7386 20.2964 14.0216C20.3347 14.5492 19.9366 14.9953 19.409 15.0337C18.8861 15.0865 18.4208 14.6595 18.3824 14.1319C18.3009 13.0334 19.4905 11.5608 20.0038 10.9756C21.0255 9.82915 23.1121 8.44767 27.2997 8.36133C27.3237 8.36133 27.3525 8.36133 27.3765 8.36133C29.4871 8.36133 33.3677 9.52695 33.5164 13.9832C33.5547 14.3621 33.785 16.9428 33.0031 19.1158C32.864 19.5091 32.4947 19.7537 32.1061 19.7537Z" fill="#826489"/>
<path d="M37.0036 21.9409C36.9748 21.9409 36.9508 21.9409 36.922 21.9361C36.3944 21.8929 36.001 21.4276 36.0442 20.9C36.5575 14.7649 31.9477 12.8749 31.7511 12.7934C31.2618 12.6015 31.0172 12.0451 31.209 11.551C31.4009 11.0569 31.9525 10.8171 32.4466 11.0042C32.509 11.0281 38.5913 13.4553 37.9581 21.0583C37.915 21.5619 37.4977 21.9409 37.0036 21.9409Z" fill="#826489"/>
<path d="M13.2211 35.8184C5.94433 35.8184 0.025063 29.9039 0.0106725 22.632C-0.0181083 22.0276 -0.277135 14.8516 4.82187 14.1896C4.88903 14.18 6.81734 13.921 8.31395 15.1969C9.37404 16.1035 9.93047 17.4946 9.95925 19.3414C9.95925 19.658 10.0504 21.0634 12.0363 21.2409C12.3385 21.2409 13.365 21.3081 14.1085 22.0995C14.5114 22.5264 14.9623 23.3179 14.8232 24.6562C14.8232 24.6754 14.8184 24.6946 14.8136 24.7138C14.8088 24.7378 14.3819 27.5055 15.6435 29.5298C15.8114 29.7456 16.363 30.3309 17.2504 29.9327C17.7349 29.7169 18.3009 29.9327 18.5168 30.4172C18.7326 30.9017 18.5168 31.4677 18.0323 31.6836C16.0896 32.5518 14.5882 31.367 14.0653 30.6235C12.4296 28.0476 12.8565 24.8289 12.9141 24.4356C12.9477 24.0998 12.9333 23.6585 12.7126 23.4187C12.4824 23.174 12.0555 23.1644 12.0459 23.1644C12.0075 23.1644 11.9643 23.1644 11.9259 23.1644C8.76485 22.915 8.00215 20.5502 8.04053 19.3366C8.01655 18.123 7.69516 17.2116 7.08117 16.6791C6.25132 15.9596 5.0857 16.1035 5.07131 16.1035C1.61281 16.54 1.9246 22.4929 1.9246 22.5504C1.9246 22.5696 1.9246 22.5888 1.9246 22.608C1.9246 28.8342 6.99003 33.8997 13.2163 33.8997C13.9262 33.8997 14.6409 33.8325 15.3317 33.703C15.3269 33.703 16.5117 33.42 17.543 32.7772C17.9939 32.499 18.5839 32.6333 18.8669 33.0794C19.1499 33.5303 19.0108 34.1203 18.5647 34.4033C17.2456 35.2284 15.7874 35.569 15.7298 35.5786C14.8856 35.7417 14.0509 35.8184 13.2211 35.8184Z" fill="#826489"/>
<path d="M19.4666 26.7858C19.4138 26.7858 19.3563 26.781 19.3035 26.7714C17.9796 26.5411 17.3512 25.8888 17.0634 25.3803C16.507 24.4065 16.7756 23.356 16.8763 23.049C17.0586 22.2432 17.2649 21.658 17.2744 21.634C17.2888 21.5956 17.3032 21.5572 17.3272 21.5189C18.2146 19.8016 18.1427 17.1202 18.0371 16.228C18.0323 16.18 18.0275 16.1272 18.0323 16.0793C18.0899 14.6546 17.7541 13.5945 17.025 12.9278C15.7539 11.767 13.6289 12.0356 13.6049 12.0404C13.5905 12.0404 13.5713 12.0452 13.5569 12.0452C8.27563 12.4913 5.74292 15.7003 5.71414 15.7339C5.38796 16.156 4.78835 16.2328 4.36624 15.9066C3.94891 15.5804 3.86737 14.9808 4.19355 14.5587C4.31827 14.4004 7.2731 10.6589 13.3698 10.1312C13.7104 10.0881 16.4446 9.80985 18.301 11.4983C19.4618 12.5536 20.0182 14.0934 19.9511 16.0889C20.0086 16.6501 20.2725 19.9359 19.0637 22.3391C19.0157 22.4878 18.867 22.9435 18.7423 23.5191C18.7327 23.5623 18.7183 23.6103 18.7039 23.6486C18.6655 23.759 18.5792 24.1715 18.7375 24.4353C18.8958 24.7039 19.3179 24.8287 19.6393 24.8862C20.1621 24.9774 20.5123 25.4714 20.4212 25.9943C20.33 26.4596 19.9223 26.7858 19.4666 26.7858Z" fill="#826489"/>
<path d="M23.5486 22.8477C23.3807 22.8477 23.2128 22.8045 23.0641 22.7134C22.6084 22.4447 22.4549 21.8547 22.7236 21.399C23.2176 20.5596 22.8483 19.2069 22.6612 18.756C21.3805 15.7388 18.5455 14.7602 18.5168 14.7507C18.0179 14.5828 17.7397 14.0407 17.9076 13.5419C18.0707 13.0382 18.6079 12.7648 19.1116 12.9279C19.2603 12.9758 22.7955 14.1606 24.4264 18.0173C24.5368 18.2763 25.4386 20.5692 24.3689 22.3776C24.1962 22.6798 23.8796 22.8477 23.5486 22.8477Z" fill="#826489"/>
<path d="M25.1411 36.3072C24.8677 36.3072 24.599 36.192 24.4072 35.9666C24.0666 35.5636 24.1146 34.9593 24.5175 34.6139C25.2994 33.9519 24.9252 31.5631 24.4215 30.1193C23.1744 27.6441 23.4478 24.2576 23.5054 23.6868C23.4334 21.6433 24.0042 20.0604 25.1938 18.9811C27.103 17.2494 29.9091 17.5372 30.2545 17.5804C36.6006 18.1225 38.9367 22.0319 39.0326 22.1949C39.2965 22.6554 39.143 23.2406 38.6825 23.5045C38.222 23.7683 37.6416 23.6148 37.3729 23.1591C37.2866 23.02 35.3775 19.9309 30.0674 19.4847C30.0482 19.4847 30.0338 19.4799 30.0146 19.4799C29.9954 19.4752 27.7937 19.1969 26.4698 20.4057C25.7119 21.0965 25.3569 22.1997 25.4193 23.6772C25.4193 23.7251 25.4193 23.7779 25.4145 23.8259C25.4097 23.8594 25.0499 27.1644 26.1484 29.2942C26.1676 29.3326 26.1868 29.371 26.2012 29.4093C26.3786 29.9034 27.8705 34.2685 25.7551 36.0673C25.5824 36.2304 25.3617 36.3072 25.1411 36.3072Z" fill="#826489"/>
<path d="M19.2361 28.6132C19.169 28.6132 19.097 28.6036 19.0251 28.5893C18.507 28.4741 18.1808 27.9609 18.3008 27.4428C19.4904 22.1232 24.1433 20.5354 24.3399 20.4683C24.8436 20.3004 25.3856 20.5786 25.5535 21.0775C25.7166 21.5811 25.448 22.1232 24.9443 22.2862C24.7812 22.3438 21.1213 23.6294 20.1763 27.8553C20.0756 28.3062 19.6774 28.6132 19.2361 28.6132Z" fill="#826489"/>
<path d="M30.4079 44.0013C23.6205 44.0013 17.6245 38.7296 16.7562 32.0045C16.171 26.8623 19.2074 24.7709 19.3369 24.6846C19.7782 24.392 20.373 24.5071 20.6656 24.9484C20.9582 25.3849 20.8431 25.9797 20.4066 26.2723C20.3059 26.3443 18.2145 27.8697 18.6558 31.7743C19.0779 35.0601 20.9343 37.9478 23.5293 39.8233C25.3425 39.7226 26.7096 39.123 27.5922 38.0341C29.3047 35.9283 28.7914 32.6137 28.7866 32.5801C28.7818 32.5609 28.7818 32.537 28.777 32.5178C28.6475 31.1699 29.1032 30.3688 29.5062 29.9371C30.2688 29.1168 31.3193 29.0449 31.6167 29.0401C33.7849 28.853 33.7993 27.2796 33.7897 27.1022C33.8233 25.1643 34.3893 23.7348 35.4782 22.8042C37.0132 21.4947 38.9846 21.7585 39.0662 21.7729C44.2851 22.4493 44.0213 29.8268 43.9877 30.4407C43.9829 37.919 37.891 44.0013 30.4079 44.0013ZM26.1628 41.2623C27.4963 41.79 28.9305 42.0826 30.4079 42.0826C36.8405 42.0826 42.0786 36.8493 42.0786 30.412C42.0786 30.3928 42.0786 30.3736 42.0786 30.3544C42.0834 30.292 42.3856 24.1329 38.812 23.6677C38.7928 23.6677 37.5792 23.519 36.7158 24.2673C36.073 24.8237 35.7372 25.7687 35.7132 27.0782C35.7516 28.2726 34.9697 30.6902 31.7367 30.9492C31.7031 30.9492 31.6695 30.954 31.6311 30.9492C31.6407 30.9492 31.1658 30.9588 30.9068 31.2418C30.6718 31.5008 30.6574 31.9517 30.6862 32.2923C30.7533 32.7432 31.257 36.5471 29.0888 39.2237C28.3357 40.1687 27.3572 40.845 26.1628 41.2623Z" fill="#826489"/>
<path d="M28.7338 38.7298C28.5899 38.7298 28.446 38.6962 28.3069 38.629C17.3654 33.2039 18.1281 26.4739 18.1665 26.1861C18.2384 25.6633 18.7229 25.2939 19.2457 25.3611C19.7686 25.433 20.138 25.9079 20.0708 26.4308C20.042 26.685 19.5671 32.1486 29.1655 36.9118C29.6404 37.1468 29.8323 37.7225 29.5973 38.1973C29.4294 38.5379 29.0888 38.7298 28.7338 38.7298Z" fill="#826489"/>
<path d="M5.4982 27.4047C5.36869 27.4047 5.23917 27.352 5.14803 27.2512C2.76402 24.6754 3.75696 21.1881 3.80013 21.0442C3.87688 20.7899 4.1407 20.646 4.39493 20.718C4.64916 20.7947 4.79307 21.0586 4.72112 21.3128C4.71152 21.3416 3.8433 24.4259 5.85316 26.5989C6.03544 26.7955 6.02105 27.0977 5.82918 27.2752C5.73324 27.3616 5.61812 27.4047 5.4982 27.4047Z" fill="#826489"/>
<path d="M38.2076 35.8278C38.0781 35.8278 37.9486 35.775 37.8527 35.6743C37.6752 35.4776 37.6848 35.1754 37.8815 34.9979C37.963 34.9212 39.8338 33.1224 39.1238 29.5152C39.0711 29.2562 39.2438 29.0019 39.5028 28.954C39.7618 28.9012 40.0161 29.0739 40.064 29.3329C40.8795 33.4966 38.625 35.6167 38.529 35.7079C38.4427 35.7846 38.3228 35.8278 38.2076 35.8278Z" fill="#826489"/>
</svg>
