<svg width="44" height="45" viewBox="0 0 44 45" fill="none" xmlns="http://www.w3.org/2000/svg">
<path d="M12.7119 41.7243C15.6358 43.2146 18.9347 44.0015 22.2514 44.0015C24.3615 44.0015 26.3977 43.6899 28.3163 43.1118C28.3365 43.107 28.3557 43.1022 28.3763 43.0955C36.7679 40.5451 42.8769 32.8944 42.8769 23.8767C42.8769 23.4571 42.8592 19.7246 42.2499 17.9007C42.0353 17.2554 42.2926 16.7325 42.8467 15.7036C43.1722 15.1011 43.5395 14.4179 43.8204 13.5772C44.3365 12.0297 43.7099 10.261 42.3325 9.37034C41.2445 8.6684 39.9847 8.69529 38.938 9.41163C38.8367 8.67128 38.5856 7.88581 38.0565 7.17859C37.5836 6.54915 37.2139 6.21883 36.9868 6.0191C37.0175 5.79632 37.0905 5.43143 37.1443 5.16784C37.344 4.16823 36.9287 3.05819 36.1346 2.46764C35.3251 1.86461 34.2448 1.84588 33.1737 2.41579C32.8112 2.60832 32.8122 2.61024 32.6196 2.74131C32.4645 2.84646 32.1568 3.05627 31.2484 3.63097C30.6343 4.01795 29.9996 4.21048 29.3279 4.41357C28.4608 4.67572 27.5212 4.96811 26.6853 5.69405C26.415 5.77952 26.2446 5.6518 25.6617 4.51872C25.1461 3.51574 24.2809 1.83388 22.4079 2.3961C21.3877 2.70002 20.9786 3.55559 20.7073 4.12262C20.6118 4.32187 20.4678 4.62242 20.3833 4.67812C19.9819 4.93978 19.0807 4.84376 18.0878 4.4347C17.8569 4.34059 17.6432 4.22488 17.4315 4.11206C16.7286 3.73756 15.8538 3.27376 14.6449 3.47782C13.121 3.7366 12.6821 4.74245 12.3916 5.4079C12.2529 5.72334 12.1444 5.973 11.9456 6.16409C11.7387 6.3619 11.3503 6.38639 10.7357 6.40415C9.86957 6.42768 8.68463 6.45985 7.93852 7.57565C7.42671 8.34192 7.24763 9.03954 7.24235 9.66418C5.78086 8.75675 4.17053 8.04281 2.45938 8.99729C0.540337 10.0656 1.08239 11.7537 1.4396 12.8709C1.6763 13.6117 1.92165 14.378 1.78337 15.2072C1.62541 16.1569 1.35702 16.7724 1.12128 17.3154C0.74871 18.1676 0.364613 19.0491 0.824569 20.4304C1.30085 21.8583 1.57452 23.593 1.62829 23.9545C1.6571 31.4458 5.89849 38.2501 12.7119 41.7243ZM30.9488 39.7543C31.2854 39.3337 32.4717 37.9659 33.2083 35.8773C35.0217 34.9152 35.9286 33.2535 36.7251 31.7656C37.0478 31.164 37.3531 30.5965 37.6959 30.1087C38.2025 29.3919 38.4963 29.3837 39.2784 29.3626C39.4623 29.3573 39.6668 29.3472 39.8781 29.3309C38.4046 33.8263 35.1623 37.5602 30.9488 39.7543ZM29.9454 6.45121C30.6876 6.22747 31.5278 5.97252 32.3863 5.42999C33.3336 4.83032 33.6567 4.61186 33.8175 4.50191C33.9395 4.41837 33.9404 4.42029 34.1728 4.2969C34.288 4.23449 34.6827 4.041 34.8632 4.17543C35.014 4.28826 35.0903 4.57681 35.0558 4.75014C34.7658 6.19866 34.6462 6.79737 35.5652 7.60398C35.7587 7.77394 36.0006 7.98663 36.3526 8.45619C37.0708 9.41259 36.8773 10.767 36.7491 11.347C36.6963 11.3859 36.6421 11.4277 36.5902 11.4593C36.2465 11.6788 35.8412 11.8281 34.8877 11.8915C32.1222 12.0763 30.3765 13.1302 29.5497 15.114C29.4787 15.2864 29.4244 15.3478 29.4263 15.3536C29.2962 15.3858 28.8622 15.3037 28.5458 15.2437C27.9178 15.1232 27.1318 14.9729 26.1826 15.0324C24.2372 15.1548 23.7244 15.8544 23.4959 17.0211C23.4455 17.276 23.4023 17.4829 23.2505 17.7345C22.8156 16.6077 21.9677 15.9581 21.21 15.3867C20.3189 14.715 19.5498 14.1346 19.2996 12.7638C19.1412 11.8847 19.3015 11.1257 19.7797 10.5077C20.4322 9.6637 21.5596 9.22294 22.3873 9.16149C22.7915 9.12884 23.1651 9.33097 23.5962 9.56143C24.1628 9.86535 24.8666 10.2418 25.7016 9.97721C26.5519 9.70739 27.0459 8.88542 27.3445 8.29055C27.9639 7.05088 28.7523 6.81274 29.9454 6.45121ZM9.70921 8.75819C9.82348 8.58726 10.0803 8.55125 10.7948 8.53109C11.5582 8.51044 12.6048 8.48164 13.4186 7.70096C13.9252 7.21604 14.1571 6.6855 14.3419 6.26012C14.5853 5.70318 14.6247 5.64028 15.0011 5.57642C15.4735 5.49912 15.8163 5.66381 16.4323 5.99173C16.7041 6.13577 16.9821 6.28172 17.2793 6.40415C18.2775 6.81466 20.16 7.3644 21.548 6.46033C22.1309 6.07911 22.4065 5.50345 22.6269 5.04157C22.756 4.7751 22.901 4.47119 23.0162 4.43662C23.058 4.42461 23.0815 4.42173 23.0835 4.41981C23.2654 4.51056 23.5929 5.14864 23.7686 5.49144C24.0653 6.06951 24.5507 7.00478 25.3501 7.50747C25.2219 7.73841 25.1269 7.86084 25.0731 7.91701C24.9516 7.8714 24.7476 7.76242 24.6035 7.6856C24.0341 7.38024 23.2582 6.96541 22.2298 7.03743C20.9685 7.13202 19.2209 7.75137 18.0964 9.20518C17.5722 9.88455 17.2558 10.6628 17.1525 11.5059C16.1707 11.371 15.0189 11.4133 13.8234 11.4617C12.4094 11.5184 10.8293 11.5794 9.92238 11.2807C9.87197 11.1665 9.82828 11.0536 9.77451 10.9394C9.33664 10.0147 9.16571 9.57199 9.70921 8.75819ZM3.07202 18.1662C3.32984 17.5761 3.68225 16.7661 3.88438 15.5562C4.10668 14.2196 3.75235 13.1114 3.46716 12.2218C3.09938 11.0767 3.13779 11.0556 3.495 10.8573C4.37794 10.3594 5.38044 10.9701 6.93795 12.0014C7.47617 12.3577 8.03215 12.7254 8.61597 13.037C9.94495 13.7462 11.9586 13.6645 13.9074 13.5887C15.1259 13.5402 16.5917 13.484 17.3446 13.7049C17.8458 15.4991 18.9885 16.3758 19.9276 17.0859C20.1254 17.2342 20.2983 17.3687 20.4553 17.4988C20.2656 17.5775 20.0741 17.6764 19.8844 17.8238C18.7235 18.7274 17.275 20.2556 18.0873 23.097L18.143 23.2939C18.7196 25.306 18.7725 25.7943 18.0158 26.3988C17.7023 26.6499 17.3595 26.8405 16.9955 27.0431C15.9321 27.6332 14.4759 28.4403 14.7682 30.9249C14.8806 31.8813 14.7923 32.1098 14.798 32.1098C14.7644 32.142 14.6333 32.2198 14.5373 32.2755C14.3208 32.4018 14.0255 32.5736 13.7057 32.8468C13.5977 32.9404 13.4844 33.0269 13.3721 33.1147C12.1276 34.0774 11.03 35.2959 12.4161 38.6328C12.6413 39.1758 13.2631 39.4331 13.807 39.2079C14.3496 38.9813 14.6074 38.3591 14.3827 37.8166C13.5046 35.704 13.9199 35.3823 14.6751 34.798C14.8148 34.689 14.9565 34.5796 15.0923 34.4634C15.2633 34.316 15.4308 34.2185 15.608 34.1153C16.6734 33.4959 17.1367 32.8223 16.8837 30.6757C16.7583 29.6103 17.0531 29.4456 18.0297 28.9041C18.434 28.6798 18.892 28.4254 19.3467 28.0619C21.2801 26.5135 20.7506 24.6651 20.1898 22.7086L20.1341 22.5132C19.7049 21.0099 20.1744 20.296 21.1923 19.5047C21.3344 19.3943 21.4952 19.4154 22.0949 19.6214C22.7455 19.8456 24.0994 20.3109 24.9939 18.9708C25.4039 18.3548 25.5134 17.7989 25.5859 17.4306C25.5969 17.3696 25.6055 17.3111 25.618 17.2573C25.714 17.228 25.9186 17.1824 26.3147 17.1574C27.0022 17.1113 27.5817 17.2266 28.1435 17.3341C29.1709 17.5305 30.7241 17.8306 31.5149 15.9331C31.851 15.1275 32.5534 14.1812 35.0289 14.0155C36.2282 13.9358 37.0127 13.7154 37.7339 13.2555C37.9365 13.1263 38.13 12.9761 38.3254 12.8147C38.3398 12.8042 38.3547 12.7912 38.3686 12.7797C38.6595 12.5358 38.9539 12.2597 39.2919 11.9399C39.493 11.7493 39.7134 11.54 39.9636 11.3091C40.3582 10.9432 40.7673 10.8938 41.1773 11.1588C41.6574 11.469 42.0396 12.1863 41.801 12.9031C41.5782 13.569 41.2704 14.1399 40.9728 14.693C40.3544 15.8405 39.7149 17.0259 40.2305 18.5733C40.6535 19.8418 40.7466 22.832 40.7476 23.8762C40.7476 24.9575 40.6434 26.0147 40.4552 27.0441C40.0442 27.2059 39.6601 27.2208 39.2203 27.2328C38.3163 27.2592 37.079 27.2923 35.9574 28.8796C35.5373 29.4744 35.1868 30.1284 34.8483 30.7597C34.4604 31.4852 34.0811 32.1891 33.6135 32.7887C33.6332 32.3638 33.6524 31.9384 33.6663 31.5188C33.8098 27.4824 33.9352 23.9948 37.1985 21.3484C37.6556 20.9777 37.7257 20.307 37.3555 19.8509C36.9839 19.3933 36.3132 19.3252 35.8576 19.6949C31.8423 22.9515 31.6882 27.2683 31.5384 31.4439C31.523 31.8991 31.5038 32.3581 31.4813 32.8195C30.9944 32.0753 30.3515 31.3714 29.5565 30.6056C27.8876 28.9962 27.1943 27.2688 27.3109 25.0021C27.3417 24.4149 26.8889 23.9142 26.3022 23.8834C25.7164 23.8503 25.2142 24.3064 25.1845 24.8927C25.0352 27.7907 25.9551 30.0928 28.0796 32.1382C29.8028 33.8003 30.4581 34.8216 30.4639 36.8198C30.3875 36.9413 30.3126 37.0623 30.2253 37.1876C30.0942 37.3768 29.9574 37.5534 29.8229 37.7325C28.9342 36.259 27.4108 35.8385 25.2997 35.7347C23.3922 35.6421 23.144 35.2282 22.7215 33.1589C22.6043 32.5842 22.045 32.2097 21.4664 32.3288C20.8898 32.4469 20.5182 33.0091 20.6348 33.5843C21.1087 35.9042 21.7449 37.6936 25.196 37.8617C27.3152 37.9659 27.9961 38.2794 28.3345 39.6381C27.9773 40.113 27.6379 40.62 27.3359 41.1774C25.7184 41.6278 24.0139 41.8741 22.2495 41.8741C19.2679 41.8741 16.3032 41.1664 13.6774 39.8287C11.5308 38.7345 9.67848 37.2668 8.1661 35.5398C8.15266 35.4145 8.12289 35.2887 8.06239 35.1701C7.2097 33.5094 7.09495 31.5135 7.17129 29.5541C7.77864 29.0735 8.91941 28.5469 10.0309 28.036C12.9207 26.7056 16.5164 25.0521 16.1846 21.8799C16.1227 21.2961 15.6075 20.874 15.015 20.9321C14.4307 20.9936 14.0063 21.5174 14.0668 22.1012C14.2396 23.7562 11.4132 25.0573 9.14171 26.1016C8.50555 26.394 7.90683 26.6715 7.36286 26.9519C7.52274 25.597 7.96253 24.2882 8.67023 23.1503C9.98192 21.0397 11.6614 19.3141 12.4152 19.3016C13.0033 19.292 13.4719 18.809 13.4623 18.2204C13.4537 17.639 12.9793 17.1733 12.3988 17.1733C12.3931 17.1733 12.3883 17.1733 12.3811 17.1733C10.0991 17.2083 7.76088 20.5797 6.86257 22.0259C5.91145 23.5541 5.33291 25.3267 5.18935 27.1492C5.11061 28.1671 5.02467 29.2776 5.02275 30.4169C4.2027 28.3673 3.75427 26.1587 3.75427 23.8767C3.75427 23.8282 3.75139 23.7793 3.74467 23.7312C3.73218 23.6424 3.43739 21.5429 2.843 19.7563C2.64279 19.1509 2.75033 18.9027 3.07202 18.1662Z" fill="#826489"/>
</svg>
