<svg width="44" height="45" viewBox="0 0 44 45" fill="none" xmlns="http://www.w3.org/2000/svg">
<path d="M24.0044 41.6284H22.9415C22.5317 41.6284 22.1258 41.5844 21.7322 41.4969C21.4905 41.4791 21.2482 41.4544 21.0065 41.4223C19.9811 41.2631 19.0008 41.0352 18.0709 40.742C16.1274 40.1127 14.3486 39.1476 12.777 37.8731C10.5004 36.078 9.01674 33.9714 8.36959 31.6137L8.11103 31.4743C6.19283 30.4549 5.2179 29.2135 5.2179 27.7857C5.2179 26.399 6.53395 25.5017 7.59588 24.9841C5.79139 24.906 4.58213 24.3087 3.99826 23.2053C3.13458 21.5961 4.82981 19.6457 5.38649 19.0045L5.46954 18.9106C5.29058 17.0443 5.6406 15.0925 6.5122 13.1016C7.03773 11.9106 7.70267 10.7928 8.49071 9.77737C9.49283 8.46429 10.7619 7.28618 12.2574 6.28209C12.5427 6.04083 12.8566 5.82429 13.1923 5.63791C13.217 5.62407 13.2427 5.61121 13.2689 5.59984L13.6422 5.43373C13.7984 5.33288 13.9507 5.24537 14.0945 5.17369C14.407 4.99868 14.7689 4.85036 15.1392 4.74704C16.739 4.10335 18.3833 3.71032 19.9999 3.5887C21.3308 3.4829 22.6726 3.55508 23.9871 3.80029C26.1466 4.19629 27.9797 4.99373 29.4426 6.17333L29.5761 6.16097C30.3805 6.05863 32.9409 5.73135 33.8041 7.37962C34.427 8.55674 34.1773 10.0102 33.0605 11.6966C33.0422 11.7247 33.0224 11.7509 33.0012 11.7767C32.975 11.8088 32.9498 11.8414 32.9255 11.8731C33.3532 13.8491 33.1535 15.9532 32.3313 18.1448C32.9676 18.5225 33.588 18.9501 34.1852 19.4223C36.0515 20.9089 37.3908 22.613 38.1724 24.4946C38.2006 24.505 38.2293 24.5144 38.2584 24.5243C39.1469 24.862 41.729 25.8443 41.729 27.7867C41.729 29.2145 40.7541 30.4559 38.8309 31.4783C38.7543 31.5193 38.6777 31.5613 38.6025 31.6029C37.944 33.9645 36.4604 36.075 34.1867 37.8805C32.9166 38.8891 31.522 39.7092 30.0423 40.3193C28.577 40.9126 27.0014 41.3091 25.3551 41.4994C25.317 41.5038 25.2794 41.5063 25.2414 41.5063H25.1989C24.8024 41.5869 24.4014 41.6284 24.0044 41.6284ZM22.0131 39.5367C22.4926 39.5965 22.9875 39.6346 23.4853 39.6504C23.9837 39.6346 24.479 39.5965 24.9586 39.5367C25.0105 39.5293 25.0624 39.5288 25.1133 39.5273H25.1825C26.6321 39.3548 28.0148 39.0047 29.2938 38.4871C30.597 37.9502 31.8305 37.224 32.9557 36.3306C35.0074 34.7011 36.2957 32.8151 36.7852 30.7243C36.847 30.4603 37.0151 30.2329 37.2494 30.096C37.4566 29.9754 37.6726 29.8542 37.8971 29.7336C38.7454 29.2832 39.7505 28.5817 39.7505 27.7862C39.7505 27.6256 39.3629 27.06 37.594 26.3866C37.3948 26.3214 37.1683 26.2289 36.9612 26.1256C36.7353 26.0129 36.5612 25.8191 36.4747 25.5823C35.8488 23.8841 34.6648 22.3332 32.9547 20.9712C32.2186 20.3883 31.4404 19.8825 30.645 19.4697C30.6425 19.4682 30.64 19.4668 30.6375 19.4658C28.9453 18.5729 27.0449 18.0113 24.9897 17.7943C24.9882 17.7943 24.9863 17.7938 24.9843 17.7938C24.9843 17.7938 24.9833 17.7938 24.9828 17.7938C24.9779 17.7928 24.9724 17.7923 24.968 17.7918C24.0005 17.6717 22.9707 17.6717 22.0017 17.7918C21.9948 17.7928 21.9883 17.7933 21.9809 17.7943C21.9804 17.7943 21.9799 17.7943 21.9794 17.7943C21.9784 17.7943 21.9775 17.7948 21.9765 17.7948C18.938 18.1033 16.2604 19.1716 14.0174 20.9692C12.3682 22.2556 11.2207 23.7199 10.5958 25.3316C10.5775 25.3816 10.5553 25.4305 10.5286 25.478C10.5281 25.4789 10.5276 25.4799 10.5271 25.4809C10.4539 25.7731 10.2512 26.0163 9.97584 26.1414C9.76127 26.2383 9.53781 26.3258 9.31139 26.401C7.58253 27.0595 7.19543 27.6251 7.19543 27.7862C7.19543 28.5817 8.20051 29.2832 9.04343 29.7311L9.69107 30.0802C9.94271 30.2151 10.1237 30.4534 10.1864 30.7318C10.6601 32.8176 11.9469 34.7007 14.012 36.3292C15.4046 37.4583 16.9694 38.3067 18.6735 38.8589C19.5011 39.1194 20.3836 39.3246 21.2893 39.4655C21.4875 39.4917 21.7065 39.514 21.9265 39.5288C21.9547 39.5298 21.9839 39.5327 22.0131 39.5367ZM13.3797 7.91009C12.0424 8.80838 10.9325 9.83719 10.0574 10.9837C9.36379 11.878 8.78141 12.8559 8.32213 13.8976C7.52914 15.7085 7.24586 17.4571 7.48168 19.0925C7.52271 19.3778 7.43719 19.6675 7.24685 19.885L6.87112 20.3107C5.60105 21.7721 5.74047 22.2719 5.74244 22.2758C6.06676 22.8884 7.1544 23.0159 8.01067 23.0159C8.03588 23.0159 8.0611 23.0169 8.08631 23.0189C8.27714 23.0332 8.4828 23.0407 8.7028 23.0407C8.95148 23.0407 9.18977 23.1341 9.37121 23.3007C10.1652 21.8739 11.3107 20.5722 12.7913 19.4178C15.3112 17.3983 18.3171 16.19 21.7159 15.8336C22.2909 15.7045 22.8896 15.6739 23.4848 15.7198C24.1142 15.6699 24.6699 15.7085 25.2513 15.8336C27.1433 16.0382 28.9235 16.5074 30.5584 17.2312C31.2239 15.3515 31.342 13.5782 30.909 11.9477C30.8442 11.703 30.8753 11.4429 30.9965 11.2205C31.1161 11.0005 31.2644 10.78 31.4365 10.5654C31.9007 9.85647 32.3723 8.90232 32.054 8.30016C32.05 8.29175 31.7415 7.87746 29.7897 8.12614L29.2132 8.17904C28.9428 8.20573 28.6724 8.11674 28.4677 7.93679C27.2263 6.84272 25.5978 6.1056 23.6287 5.7442C23.6277 5.7442 23.6267 5.7442 23.6252 5.74371C22.4817 5.53014 21.3135 5.46784 20.1517 5.5598C18.7294 5.66659 17.2788 6.01562 15.8362 6.59751C15.816 6.60641 15.7952 6.61382 15.7744 6.62124C15.371 6.774 14.9864 6.95297 14.6077 7.16357C14.6028 7.16605 14.5978 7.16901 14.5929 7.17148C14.5785 7.17989 14.5637 7.1873 14.5489 7.19472C14.143 7.4078 13.7762 7.63175 13.4365 7.87252C13.4172 7.88537 13.3989 7.89872 13.3797 7.91009Z" fill="#826489"/>
<path d="M23.9797 44.0015H22.6943C22.2197 44.0015 21.7564 43.957 21.3169 43.869C21.315 43.8685 21.3135 43.8685 21.3115 43.868C19.814 43.7073 18.3447 43.4097 16.9866 42.9905C15.2291 42.4165 13.5813 41.6052 12.0819 40.5779C11.8564 40.4231 11.7991 40.1156 11.9538 39.8902C12.1086 39.6657 12.4161 39.6084 12.641 39.7616C14.0629 40.7366 15.6256 41.5053 17.2862 42.0482C18.5756 42.4466 19.9831 42.7309 21.4608 42.8916C22.0674 42.9554 22.7086 42.9964 23.3676 43.0122H23.379C23.9826 42.9964 24.6253 42.9554 25.2651 42.8911C25.2769 42.8901 25.2888 42.8891 25.3002 42.8886C27.2466 42.6716 29.0436 42.2128 30.6835 41.5187C31.7988 41.0816 32.8682 40.5393 33.8742 39.9006C34.1051 39.7542 34.4106 39.8234 34.5565 40.0533C34.7028 40.2842 34.6346 40.5892 34.4042 40.7361C33.3448 41.4079 32.2186 41.9799 31.0568 42.4353C29.318 43.1709 27.3998 43.6574 25.3674 43.8749C24.9516 43.957 24.4711 44.0015 23.9797 44.0015ZM23.6583 38.4397H22.8426C22.5371 38.4397 22.2276 38.4051 21.9231 38.3358C21.7421 38.3185 21.5458 38.2933 21.3342 38.2612C21.0208 38.2291 20.6861 38.1658 20.3628 38.0763C20.0998 38.0036 19.9455 37.7312 20.0182 37.4682C20.0909 37.2052 20.3638 37.0514 20.6263 37.1236C20.8972 37.1983 21.178 37.2517 21.4608 37.2813C21.6872 37.3149 21.8746 37.3387 22.0466 37.3545C22.0526 37.356 22.057 37.356 22.062 37.356C22.4555 37.4034 22.8629 37.4351 23.2727 37.4509H23.29C23.646 37.4351 24.0449 37.4029 24.439 37.3565C24.4424 37.356 24.4464 37.3555 24.4503 37.355C24.4662 37.3535 24.483 37.3525 24.4988 37.3525C24.5319 37.3416 24.5591 37.3342 24.5937 37.3303C25.7624 37.2037 26.8748 36.9318 27.8996 36.5225C28.9522 36.0983 29.933 35.5238 30.814 34.8163C32.4638 33.4934 33.4951 31.9642 33.8797 30.272C33.9405 30.006 34.2045 29.8394 34.4715 29.8992C34.7379 29.96 34.9045 30.2245 34.8437 30.491C34.4087 32.4067 33.2607 34.1217 31.433 35.5876C30.4769 36.3558 29.412 36.9793 28.2684 37.4405C27.1719 37.879 25.9874 38.1707 24.745 38.3087C24.6866 38.324 24.6278 38.3344 24.569 38.3388C24.2813 38.406 23.9752 38.4397 23.6583 38.4397ZM37.7724 37.7233C37.6558 37.7233 37.5381 37.6823 37.4437 37.5982C37.2395 37.4168 37.2217 37.1038 37.4031 36.9002C38.1808 36.0266 38.8319 35.1026 39.3382 34.1534C39.4667 33.9126 39.7653 33.8207 40.0071 33.9502C40.2478 34.0787 40.3388 34.3778 40.2107 34.6191C39.6674 35.6375 38.9713 36.6263 38.1413 37.5577C38.0444 37.6674 37.9089 37.7233 37.7724 37.7233ZM17.6017 37.1053C17.5275 37.1053 17.4519 37.0885 17.3807 37.0534C16.7647 36.7449 16.1828 36.3885 15.6513 35.9945C15.4323 35.8318 15.3858 35.5218 15.5485 35.3028C15.7111 35.0838 16.0211 35.0388 16.2401 35.2C16.7256 35.5604 17.2586 35.8867 17.8231 36.169C18.0674 36.2911 18.1662 36.5887 18.0436 36.8324C17.9571 37.0055 17.7826 37.1053 17.6017 37.1053ZM33.323 25.5121C33.2044 25.5121 33.0852 25.4696 32.9903 25.383L32.1498 24.6167C31.9481 24.4328 31.9333 24.1199 32.1177 23.9182C32.3026 23.7175 32.6146 23.7021 32.8163 23.886L33.6567 24.6523C33.8584 24.8363 33.8733 25.1492 33.6888 25.3509C33.591 25.4572 33.4575 25.5121 33.323 25.5121ZM30.4314 25.3138C30.3097 25.3138 30.1881 25.2693 30.0927 25.1798L29.2523 24.3888C29.0535 24.2015 29.0436 23.8885 29.231 23.6898C29.4184 23.491 29.7313 23.4816 29.9301 23.6685L30.7705 24.4595C30.9693 24.6469 30.9791 24.9598 30.7918 25.1586C30.6944 25.2619 30.5629 25.3138 30.4314 25.3138ZM13.0781 24.7705C12.9723 24.7705 12.8655 24.7369 12.7755 24.6672C12.5595 24.5001 12.5199 24.1891 12.6875 23.9736C13.0998 23.4411 13.5532 22.9532 14.0347 22.523C14.2379 22.3411 14.5508 22.3594 14.7328 22.5626C14.9147 22.7663 14.8969 23.0792 14.6927 23.2607C14.2562 23.6502 13.8448 24.0937 13.4691 24.5787C13.3722 24.7043 13.2259 24.7705 13.0781 24.7705ZM29.8623 22.2487C29.7462 22.2487 29.6295 22.2081 29.5355 22.1251L28.6951 21.3835C28.4904 21.203 28.4706 20.8906 28.6516 20.6859C28.8325 20.4807 29.145 20.461 29.3497 20.6419L30.1901 21.3835C30.3948 21.5639 30.4146 21.8764 30.2336 22.0811C30.1357 22.1923 29.9993 22.2487 29.8623 22.2487ZM16.8611 21.6307C16.6826 21.6307 16.5106 21.5343 16.4226 21.3652C16.296 21.1234 16.3899 20.8243 16.6317 20.6978C19.2692 19.3199 22.5638 18.9111 26.4254 19.4856C26.6953 19.5256 26.8817 19.7772 26.8417 20.0472C26.8016 20.3181 26.5485 20.5005 26.28 20.4639C22.63 19.9211 19.5377 20.2954 17.0895 21.5748C17.0163 21.6129 16.9377 21.6307 16.8611 21.6307ZM10.0129 20.6918C9.91105 20.6918 9.80871 20.6607 9.72022 20.5959C9.50022 20.4338 9.45325 20.1243 9.61541 19.9048C10.2813 19.0001 11.1267 18.1369 12.1284 17.3394C13.651 16.1213 15.368 15.2027 17.2304 14.61C17.4889 14.5269 17.7683 14.6713 17.8513 14.9308C17.9339 15.1909 17.79 15.4692 17.53 15.5523C15.7833 16.1079 14.1736 16.9692 12.7448 18.1127C11.811 18.8567 11.0259 19.6566 10.4114 20.4916C10.3145 20.6221 10.1647 20.6918 10.0129 20.6918ZM3.61015 19.3565C3.36988 19.3565 3.15927 19.1815 3.1222 18.9358C2.77959 16.676 3.15828 14.2955 4.24741 11.8622C4.66566 10.8586 5.18871 9.88911 5.79779 8.99279C5.95154 8.76686 6.25855 8.70803 6.48449 8.86129C6.71042 9.01504 6.76925 9.32254 6.6155 9.54798C6.04399 10.3894 5.55258 11.3001 5.1546 12.2542C4.13914 14.5239 3.78566 16.7175 4.09959 18.788C4.14062 19.0579 3.95473 19.31 3.6848 19.3506C3.66008 19.3545 3.63487 19.3565 3.61015 19.3565ZM26.7477 9.37C26.6587 9.37 26.5688 9.34627 26.4882 9.29634C24.7148 8.19733 22.8273 7.66785 20.869 7.66439C20.5853 7.67526 20.3732 7.44686 20.3707 7.17396C20.3682 6.90106 20.5882 6.67809 20.8611 6.67562C20.8908 6.67562 20.9204 6.67513 20.9501 6.67513C23.0631 6.67513 25.1009 7.27382 27.0083 8.4554C27.2406 8.59926 27.3123 8.9038 27.1684 9.13616C27.075 9.28695 26.9133 9.37 26.7477 9.37ZM16.5392 8.50484C16.341 8.50484 16.1541 8.3847 16.078 8.18843C15.9796 7.93382 16.1062 7.64758 16.3608 7.5492C16.8942 7.34304 17.4425 7.17742 17.9902 7.05778C18.2577 6.99994 18.5202 7.16803 18.5791 7.43499C18.6374 7.70196 18.4683 7.96497 18.2018 8.02331C17.703 8.13257 17.2037 8.28286 16.7172 8.47122C16.6589 8.49445 16.5986 8.50484 16.5392 8.50484ZM9.42013 7.4172C9.14723 7.4172 8.92575 7.19621 8.92575 6.92281V5.31607C8.92575 5.04268 9.14723 4.82169 9.42013 4.82169C9.69303 4.82169 9.91451 5.04268 9.91451 5.31607V6.92281C9.91451 7.19621 9.69303 7.4172 9.42013 7.4172ZM12.6336 4.17899H11.0269C10.754 4.17899 10.5325 3.958 10.5325 3.68461C10.5325 3.41122 10.754 3.19023 11.0269 3.19023H12.6336C12.9065 3.19023 13.128 3.41122 13.128 3.68461C13.128 3.958 12.9065 4.17899 12.6336 4.17899ZM7.81339 4.17899H6.20665C5.93375 4.17899 5.71226 3.958 5.71226 3.68461C5.71226 3.41122 5.93375 3.19023 6.20665 3.19023H7.81339C8.08629 3.19023 8.30777 3.41122 8.30777 3.68461C8.30777 3.958 8.08629 4.17899 7.81339 4.17899ZM15.0066 2.96776C14.8025 2.96776 14.6116 2.8407 14.5404 2.63702C14.45 2.37944 14.5854 2.09715 14.843 2.00717C16.4265 1.45149 18.0412 1.10987 19.6425 0.991712C20.7301 0.874543 21.8494 0.883442 22.9529 1.0194C23.2238 1.05252 23.4166 1.29922 23.383 1.57014C23.3493 1.84155 23.1036 2.0398 22.8317 2.00025C21.8034 1.8732 20.7608 1.86578 19.7315 1.97603C18.2008 2.08924 16.6717 2.41306 15.1703 2.93958C15.1159 2.95886 15.061 2.96776 15.0066 2.96776ZM9.42013 2.59697C9.14723 2.59697 8.92575 2.37598 8.92575 2.10259V0.495847C8.92575 0.222454 9.14723 0.00146484 9.42013 0.00146484C9.69303 0.00146484 9.91451 0.222454 9.91451 0.495847V2.10259C9.91451 2.37598 9.69303 2.59697 9.42013 2.59697Z" fill="#826489"/>
</svg>
