<svg width="44" height="45" viewBox="0 0 44 45" fill="none" xmlns="http://www.w3.org/2000/svg">
<path d="M43 22.3455C43 11.7747 36.3708 5.05596 25.6208 4.56325C26.1135 3.57783 26.7854 2.682 27.6365 1.96534L26.4719 0.621587C25.8448 1.15909 25.2625 1.83095 24.7698 2.50283L24.725 2.45803C24.5906 2.32366 21.2313 -1.21488 14.0646 0.442409C7.12188 2.05491 3.18021 7.07158 3.00105 7.29554L2.32917 8.14658L3.31459 8.63929C3.49375 8.72888 6.09167 9.93824 9.85417 10.2966C8.46562 11.9091 7.43542 13.8351 6.80834 15.9851C2.55313 18.9414 0 23.5549 0 28.6612C0 30.7216 0.403125 32.782 1.11979 34.6185C1.11979 34.6632 1.11979 34.6632 1.11979 34.708C1.88125 36.6341 3.00104 38.381 4.38958 39.7247C6.45 41.6507 8.95833 42.681 11.6458 42.6362C12.9 43.6216 14.5573 44.0695 16.8865 44.0695C19.6188 44.0695 21.0073 43.3976 21.8583 42.681C24.6354 42.7705 27.2333 41.7851 29.2938 39.8591C29.9208 39.2768 30.5031 38.6049 30.9958 37.8435C38.8792 35.9622 43 30.632 43 22.3455ZM14.4677 2.1445C19.2604 1.02471 21.9927 2.54763 22.9781 3.30909C22.4406 4.42888 20.649 6.98199 15.8563 8.10179C11.2875 9.17679 7.16667 8.10179 5.24063 7.42991C6.67396 5.99658 9.89896 3.2195 14.4677 2.1445ZM24.2323 16.3882C28.1292 18.4039 30.9063 21.9424 31.7573 25.9289C31.3542 25.1674 30.9063 24.406 30.3688 23.6445C27.6365 20.0164 23.5156 17.5528 19.1708 16.9257C20.7833 16.1643 22.5302 15.9851 24.2323 16.3882ZM16.9313 16.1643C16.125 15.6268 15.274 15.1789 14.4229 14.9101C15.1844 14.731 15.9906 14.6414 16.9313 14.6414C17.8719 14.6414 18.6781 14.731 19.4396 14.8653C18.5885 15.1789 17.7375 15.6268 16.9313 16.1643ZM9.63021 16.3882C11.3323 15.9851 13.0344 16.1643 14.6469 16.9257C10.2125 17.508 6.09167 19.7476 3.53855 23.0174C3.13542 23.5549 2.77708 24.0924 2.46354 24.6299C3.53854 21.1362 6.09167 18.1799 9.63021 16.3882ZM2.82188 33.9914C1.74688 29.4226 3.35937 26.0633 4.92708 24.0924C7.03229 21.4049 10.3469 19.4789 13.975 18.807C10.9292 22.4351 9.04792 27.8101 9.1375 33.0955C9.1823 36.3205 9.675 38.8737 10.5708 40.7101C8.77917 40.4862 7.07709 39.7247 5.68855 38.381C4.47917 37.2164 3.49375 35.6935 2.82188 33.9914ZM16.9313 42.233C15.274 42.233 14.199 41.9643 13.5271 41.606C11.8698 40.3966 10.974 37.4403 10.9292 33.0508C10.8396 27.4966 13.2135 21.6289 16.7521 18.4935C16.7969 18.4935 16.8865 18.4935 16.9313 18.4935C16.976 18.4935 17.0208 18.4935 17.1104 18.4935C20.6042 21.6289 22.9781 27.4518 22.9781 33.0508C22.9781 36.858 22.6646 39.6351 21.0969 40.9789L21.0521 41.0237C20.3802 41.6507 19.3948 42.233 16.9313 42.233ZM28.1292 38.5153C26.7854 39.7695 25.2177 40.531 23.5156 40.7997C24.501 38.9185 24.7698 36.3205 24.7698 33.1403C24.7698 27.8549 22.8885 22.5247 19.8875 18.9414C23.3813 19.7476 26.7406 21.8528 28.9354 24.7643C31.175 27.7205 31.8917 31.0799 31.0406 34.1705C30.324 35.8278 29.3385 37.3955 28.1292 38.5153ZM32.3396 35.6039C33.325 33.4987 33.8625 31.0799 33.8625 28.6164C33.8625 22.8383 30.4135 17.4633 24.9938 14.731V14.6862C24.949 14.6862 24.9042 14.6862 24.8594 14.6414C24.6354 14.5518 24.4563 14.4174 24.2323 14.3278C24.0531 14.2382 23.8292 14.2382 23.3813 14.1487C23.2469 14.1487 23.0677 14.1039 22.9781 14.1039C20.8281 13.208 19.3052 12.7601 16.976 12.7601C14.6021 12.7601 13.0792 13.208 10.9292 14.1039C10.8396 14.1039 10.6156 14.1487 10.4813 14.1487C9.98855 14.1935 9.76458 14.2382 9.54063 14.3278C9.45104 14.3726 9.36146 14.4174 9.27188 14.4622C10.0333 12.8049 11.0635 11.4164 12.3177 10.2518C13.5719 10.207 14.9156 10.0726 16.2594 9.75908C19.574 8.99763 21.6344 7.56428 22.9333 6.26533C22.9781 6.26533 23.0677 6.26533 23.1125 6.26533C22.8885 7.42991 22.8885 8.46012 22.9781 9.22158L24.7698 9.04241C24.6802 8.32575 24.6802 7.34034 24.949 6.22055C35.1167 6.4893 41.1635 12.4466 41.1635 22.256C41.2083 29.1987 38.2073 33.633 32.3396 35.6039Z" fill="#826489"/>
<path d="M32.2948 12.5809C33.0369 12.5809 33.6385 11.9792 33.6385 11.2371C33.6385 10.495 33.0369 9.89337 32.2948 9.89337C31.5526 9.89337 30.951 10.495 30.951 11.2371C30.951 11.9792 31.5526 12.5809 32.2948 12.5809Z" fill="#826489"/>
<path d="M33.0562 13.6559C32.3396 13.6559 31.7125 14.2382 31.7125 14.9996C31.7125 15.7163 32.2948 16.3434 33.0562 16.3434C33.7729 16.3434 34.4 15.7611 34.4 14.9996C34.4 14.283 33.7729 13.6559 33.0562 13.6559Z" fill="#826489"/>
<path d="M36.8635 15.9403C37.5802 15.9403 38.2073 15.358 38.2073 14.5966C38.2073 13.8799 37.625 13.2528 36.8635 13.2528C36.1021 13.2528 35.5198 13.8351 35.5198 14.5966C35.5198 15.358 36.1021 15.9403 36.8635 15.9403Z" fill="#826489"/>
<path d="M37.2218 17.105C36.5052 17.105 35.8781 17.6873 35.8781 18.4487C35.8781 19.1654 36.4604 19.7925 37.2218 19.7925C37.9385 19.7925 38.5656 19.2102 38.5656 18.4487C38.5656 17.6873 37.9385 17.105 37.2218 17.105Z" fill="#826489"/>
</svg>
