<svg width="44" height="45" viewBox="0 0 44 45" fill="none" xmlns="http://www.w3.org/2000/svg">
<path d="M44 20.8806C44 14.9417 41.5066 10.3628 36.9277 7.82405C36.3837 4.87726 33.8449 2.70117 30.7621 2.70117C29.6287 2.70117 28.5407 3.01852 27.5433 3.60788C26.5913 3.01852 25.4579 2.70117 24.3245 2.70117C21.3324 2.70117 18.7483 4.83192 18.2042 7.73337C13.6707 10.1815 11.1319 14.579 10.9959 20.2912C3.28895 23.1474 -1.0179 28.5423 0.206156 33.7105H0.160818C0.251488 33.8918 0.296824 34.0731 0.387494 34.2998C0.432829 34.4358 0.47817 34.5265 0.47817 34.6625C0.659511 35.1159 0.840847 35.5239 1.06752 35.9319C2.69959 39.196 5.01169 41.5988 7.86781 42.8682C9.54521 43.6389 11.3586 44.0016 13.308 44.0016C15.2575 44.0016 17.2975 43.6389 19.4283 42.8682C23.3725 41.4628 26.3193 39.1054 27.9967 36.0679C37.8797 35.9319 44 30.129 44 20.8806ZM11.8573 21.9686C14.3054 21.0619 16.7082 20.6539 18.7936 20.6539C22.7378 20.6539 25.7752 22.15 26.9086 24.8701C27.0446 25.3688 27.1806 25.8221 27.3166 26.2755C27.5886 28.0436 26.9539 29.8116 25.4579 31.5797C23.6898 33.6198 20.743 35.4785 17.2069 36.7479C11.4946 38.788 5.05703 38.9694 2.69959 35.1159C2.47292 34.6625 2.29158 34.2545 2.11023 33.7558C0.795513 29.4036 4.83035 24.4621 11.8573 21.9686ZM18.7936 41.1908C15.0308 42.5508 11.54 42.5508 8.63851 41.2361C7.68647 40.7828 6.77976 40.2387 5.96373 39.5134C7.09711 39.8307 8.3665 40.0121 9.77189 40.0121C12.1747 40.0121 14.8948 39.5134 17.7962 38.4707C21.6951 37.0653 24.8232 35.0705 26.8179 32.7584C27.09 32.4411 27.362 32.1237 27.5886 31.761C27.4073 32.8038 27.09 33.8011 26.6366 34.7532C25.2765 37.6093 22.5564 39.8307 18.7936 41.1908ZM28.858 34.2545C29.7647 31.761 29.8554 28.9049 29.13 25.9128C29.0394 25.4595 28.9487 24.9608 28.7674 24.5074C28.722 24.3714 28.6767 24.2807 28.6313 24.1901C28.586 24.0087 28.4953 23.782 28.45 23.6007H28.4047C26.1379 19.1579 20.063 17.6165 12.9454 19.7019C13.2627 14.7603 15.5295 11.1335 19.5643 9.13877L20.0177 8.91209L20.063 8.4134C20.335 6.19197 22.1937 4.46924 24.4605 4.46924C25.4125 4.46924 26.3646 4.78659 27.1353 5.37595L27.6793 5.78396L28.2233 5.37595C28.994 4.78659 29.9007 4.46924 30.8981 4.46924C33.1649 4.46924 35.069 6.19198 35.2956 8.45874L35.341 8.95743L35.7943 9.18411C40.0558 11.3602 42.3226 15.395 42.3226 20.8353C42.1866 28.8596 37.245 33.8011 28.858 34.2545Z" fill="#826489"/>
<path d="M27.5886 6.69074C26.1833 6.69074 24.8685 7.28011 23.8712 8.36815C23.2818 8.09614 22.6924 7.96012 22.0577 7.96012V9.77353C22.6018 9.77353 23.1005 9.95488 23.5538 10.2722L24.3245 10.8163L24.8685 10.0455C25.5486 9.04817 26.5459 8.50415 27.5886 8.50415C28.6314 8.50415 29.6287 9.09351 30.3088 10.0455L30.8528 10.8163L31.6235 10.2722C32.0768 9.95488 32.5755 9.77353 33.1195 9.77353V7.96012C32.4849 7.96012 31.8955 8.09614 31.3061 8.36815C30.3088 7.32544 28.994 6.69074 27.5886 6.69074Z" fill="#826489"/>
<path d="M10.2252 32.1692C10.1799 32.7132 10.3159 33.2572 10.5879 33.7106C10.9959 34.3453 11.6306 34.7533 12.4013 34.7986C12.492 34.7986 12.5827 34.7986 12.6733 34.7986C13.9881 34.7986 15.3481 33.9372 16.0281 32.6678C17.4789 33.2572 19.2016 32.9852 20.199 31.9878C20.743 31.4438 20.9697 30.7184 20.879 29.9931C20.7884 29.4944 20.5617 28.9957 20.1537 28.5877C20.9697 27.953 21.5137 27.1369 21.6044 26.3209C21.6951 25.7315 21.5137 25.1422 21.1057 24.7342C20.1537 23.6915 18.1589 23.7368 16.4362 24.8702C16.3908 24.9155 16.3002 24.9609 16.2548 25.0062C15.4388 24.0995 14.1241 23.7368 12.8547 24.1448C11.6306 24.5982 10.8146 25.7316 10.7693 26.9556C10.6786 26.9556 10.6333 26.9556 10.5426 26.9556C8.54784 27.1823 6.96111 28.4517 6.91577 29.8571C6.87043 30.4464 7.09711 30.9904 7.55046 31.3985C8.23049 31.8971 9.18253 32.1692 10.2252 32.1692ZM16.7535 26.9556C16.9349 26.7289 17.1615 26.5476 17.4789 26.3662C18.5216 25.6862 19.6096 25.7316 19.791 25.9582C19.791 25.9582 19.8363 26.0036 19.791 26.0942C19.7456 26.4116 19.4283 26.9103 18.7483 27.3636C18.5216 27.4996 18.2949 27.5903 18.0682 27.7263L17.0255 28.1343L16.5268 27.8623C16.4815 27.817 16.4362 27.817 16.4362 27.817L16.3002 27.5903L16.7535 26.9556ZM15.8921 29.9931C15.9375 29.8571 15.9828 29.7664 16.0735 29.6757C16.1642 29.5851 16.3002 29.4944 16.4815 29.4037L17.2522 29.041L18.1136 29.3584C18.2496 29.4037 18.3402 29.449 18.4763 29.4944C18.8389 29.6757 19.0656 29.9477 19.0656 30.2197C19.1109 30.4011 19.0203 30.5371 18.8843 30.6731C18.3856 31.1718 17.2522 31.2625 16.4815 30.8091C16.3908 30.7638 16.2548 30.6731 16.1642 30.5824L15.8468 30.2651L15.8921 29.9931ZM14.6228 31.1718C14.6228 31.3078 14.5774 31.4438 14.5321 31.5798C14.2147 32.3958 13.308 33.0759 12.5827 32.9852C12.356 32.9852 12.22 32.8945 12.1293 32.7585C11.9933 32.5318 11.9933 32.2145 12.1293 31.8065C12.1747 31.7158 12.22 31.5798 12.3107 31.4438L12.8094 30.6731L13.6254 30.4464C13.8067 30.4011 13.9427 30.4011 14.1241 30.4011C14.2601 30.4011 14.3507 30.4464 14.4414 30.5371L14.6681 30.7184L14.6228 31.1718ZM13.5347 25.8222C14.2147 25.5956 14.9401 25.9129 15.1668 26.5023C15.1668 26.5476 15.1668 26.5476 15.2121 26.5929L15.3481 27.1823L14.9401 27.681C14.8041 27.8623 14.5774 28.0437 14.3507 28.089C14.1241 28.1797 13.8521 28.1797 13.6254 28.1343L13.036 27.9983L12.8094 27.4543C12.8094 27.409 12.764 27.409 12.764 27.3636C12.5373 26.7743 12.9 26.0489 13.5347 25.8222ZM10.8599 28.7237C10.9959 28.7237 11.1319 28.6783 11.2679 28.6783C11.4493 28.6783 11.6306 28.6783 11.7666 28.7237L12.492 28.8597L12.5373 29.1317C12.5373 29.1317 12.5373 29.177 12.492 29.2224L12.2653 29.7664L11.2226 30.1291C10.9506 30.2198 10.7239 30.2651 10.4519 30.3104C9.63589 30.4011 9.09186 30.2197 8.81985 30.0384C8.72918 29.9931 8.72918 29.9477 8.77451 29.9477C8.81985 29.585 9.63588 28.905 10.8599 28.7237Z" fill="#826489"/>
</svg>
