<svg width="44" height="45" viewBox="0 0 44 45" fill="none" xmlns="http://www.w3.org/2000/svg">
<path d="M34 34.5C34 31.916 33.1835 29.4548 31.6371 27.3705C31.6024 27.2926 31.5525 27.2223 31.4919 27.1637C30.8695 26.3268 30.542 25.3473 30.542 24.324L30.5374 23.7286C30.5211 21.6198 30.4701 15.2029 30.542 11.3929C30.542 7.85795 27.6748 4.97753 24.1174 4.88533V1.66109C24.1174 1.29689 23.822 1.00146 23.4573 1.00146H19.549C19.3396 1.00146 19.143 1.10028 19.0187 1.26837C18.8944 1.43646 18.8567 1.65345 18.9179 1.85362L19.8474 4.90774C16.3787 5.21998 13.4575 8.11518 13.4575 11.4051C13.5283 15.2034 13.4784 21.6203 13.4616 23.7286L13.4575 24.324C13.4575 25.3769 13.1101 26.3844 12.4526 27.237C12.4302 27.2666 12.4103 27.2972 12.3935 27.3298C10.8272 29.4227 10 31.9002 10 34.5005C10 40.5364 14.4859 44.1407 22 44.1422C22.4268 44.1422 22.841 44.1269 23.2479 44.104C23.3162 44.1269 23.386 44.1422 23.4578 44.1422C23.5581 44.1422 23.6564 44.1101 23.7497 44.0637C30.2002 43.5345 34 40.049 34 34.5ZM22.7966 2.32122V4.87667H21.2166L20.4388 2.32122H22.7966ZM25.0979 42.5632C25.9903 41.22 27.0141 38.8886 26.8654 35.3359C26.8501 34.9712 26.5384 34.7043 26.1778 34.7043C25.8136 34.7195 25.5309 35.0277 25.5462 35.3919C25.7362 39.914 23.8714 42.1582 23.2454 42.7807C22.7875 42.8107 22.3647 42.8219 21.9995 42.8219C18.7885 42.8214 11.3192 42.0095 11.3192 34.5005C11.3192 32.1544 12.0767 29.9204 13.51 28.0398C13.5314 28.0113 13.5507 27.9817 13.567 27.9507C14.3586 26.8846 14.7768 25.6331 14.7768 24.324L14.7808 23.7393C14.7977 21.6265 14.8476 15.1963 14.7768 11.3929C14.7768 9.65599 15.8235 8.05355 17.3516 7.10003C17.0745 7.90532 16.9624 8.97549 16.9624 10.3991C16.9624 10.8071 16.9696 11.2447 16.9767 11.7036C16.9828 12.0816 16.9889 12.4743 16.992 12.8767C16.994 13.2393 17.2889 13.5322 17.6516 13.5322C17.6531 13.5322 17.6547 13.5322 17.6562 13.5322C18.0204 13.5297 18.3143 13.2327 18.3117 12.868C18.3092 12.461 18.3026 12.0642 18.2964 11.6827C18.2893 11.2314 18.2822 10.801 18.2822 10.3991C18.2822 6.61868 19.1242 6.43073 20.5208 6.19642H20.7261C20.7266 6.19642 20.7271 6.19642 20.7276 6.19642C20.7281 6.19642 20.7286 6.19642 20.7291 6.19642H23.9427C26.8537 6.19642 29.2212 8.52776 29.2217 11.3807C29.1499 15.1963 29.2003 21.6265 29.2171 23.7393L29.2212 24.324C29.2212 25.6326 29.6389 26.8836 30.4304 27.9496C30.4472 27.9812 30.4666 28.0113 30.4885 28.0398C31.9213 29.9193 32.6792 32.1534 32.6792 34.5005C32.6797 40.0912 28.5386 41.9687 25.0979 42.5632Z" fill="#826489"/>
<path d="M17.6516 16.9311C17.6511 16.9311 17.6511 16.9311 17.6506 16.9311C17.2864 16.9316 16.9915 17.2281 16.992 17.5923C16.994 18.6528 16.9956 23.6384 16.992 24.6683C16.991 25.0325 17.2854 25.329 17.6496 25.3305C17.6501 25.3305 17.6511 25.3305 17.6516 25.3305C18.0148 25.3305 18.3102 25.0366 18.3112 24.6724C18.3148 23.642 18.3133 18.6512 18.3112 17.5903C18.3107 17.2256 18.0153 16.9311 17.6516 16.9311Z" fill="#826489"/>
<path d="M24.2804 7.73517C24.011 7.97151 23.985 8.38562 24.2147 8.66067C24.23 8.67901 25.7341 10.5596 25.5258 17.5714C25.5151 17.9356 25.8014 18.2402 26.1661 18.2504C26.1727 18.2504 26.1788 18.2504 26.1859 18.2504C26.541 18.2504 26.8343 17.9677 26.845 17.6101C27.0702 10.037 25.3888 7.98628 25.1962 7.77744C24.9528 7.5136 24.5483 7.49933 24.2804 7.73517Z" fill="#826489"/>
<path d="M21.9995 22.9778C21.6353 22.9778 21.3399 23.2733 21.3399 23.638V33.7411C21.3399 34.1058 21.6353 34.4012 21.9995 34.4012C22.3642 34.4012 22.6597 34.1058 22.6597 33.7411V23.638C22.6597 23.2733 22.3642 22.9778 21.9995 22.9778Z" fill="#826489"/>
</svg>
