<svg width="44" height="45" viewBox="0 0 44 45" fill="none" xmlns="http://www.w3.org/2000/svg">
<path d="M8.52195 44.1203C5.23768 44.1203 3.33348 42.3747 3.01611 42.0574C1.58796 40.8167 1.24174 38.7971 1.19365 38.4605C-0.340287 30.887 7.72372 26.0688 8.32961 25.7178C17.9179 19.5676 26.8427 7.98849 27.2658 7.44031C27.7082 6.79115 29.045 5.35819 29.1989 5.1947C30.0596 4.29549 31.1416 3.77136 32.4207 3.63191C32.4832 3.6271 32.5409 3.62229 32.6034 3.63191C34.1325 3.75693 36.0511 4.12238 36.532 5.17547C36.7532 5.66113 36.5368 6.22855 36.0511 6.44974C35.6039 6.6517 35.0846 6.4834 34.8346 6.07467C34.5461 5.88233 33.5026 5.64671 32.5457 5.56015C31.7571 5.66113 31.1223 5.9785 30.5982 6.52187C30.0596 7.09409 29.1027 8.15679 28.8479 8.53667C28.8383 8.5511 28.8238 8.57033 28.8142 8.58476C28.4343 9.08485 19.423 20.8948 9.34422 27.3527C9.32979 27.3623 9.31537 27.3719 9.30094 27.3767C9.22881 27.42 1.7803 31.7622 3.08343 38.1047C3.08824 38.1287 3.09305 38.1528 3.09786 38.1816C3.09786 38.1961 3.31905 39.7925 4.2952 40.6196C4.32405 40.6436 4.34809 40.6677 4.37213 40.6917C4.48273 40.8071 7.25729 43.5673 12.4025 41.288C13.1719 40.8745 30.9588 31.2188 39.7778 14.1002C39.797 14.0666 41.5185 10.6525 39.8547 8.97425L39.4941 8.63765C39.1094 8.2722 39.0902 7.66632 39.4556 7.27682C39.8211 6.89213 40.427 6.8729 40.8165 7.23835L41.2011 7.599C43.8747 10.2966 41.5906 14.7975 41.4945 14.985C32.2331 32.9499 14.0422 42.6055 13.2728 43.0095C13.2536 43.0191 13.2392 43.0287 13.2199 43.0335C11.4311 43.8317 9.85874 44.1203 8.52195 44.1203Z" fill="#826489"/>
<path d="M39.4893 9.06081C38.9122 9.06081 38.0755 8.96464 37.0706 8.55591C35.0221 7.71922 34.5701 5.31011 34.5508 5.20913C34.5124 4.98313 34.5508 4.75232 34.6663 4.55516C34.6855 4.52631 36.3589 1.64596 36.7339 0.939102C37.2773 -0.0803197 38.5083 -0.166874 39.4797 0.198579C39.5181 0.213004 39.5566 0.22743 39.5903 0.246664L42.033 1.53537C42.1148 1.57864 42.4754 1.78061 42.7351 2.19895C42.937 2.53075 43.2111 3.2328 42.7399 4.18009C42.2783 5.10815 40.9896 8.36357 40.9751 8.39723C40.8597 8.68574 40.6145 8.90213 40.3067 8.97907C40.2538 8.99349 39.9605 9.06081 39.4893 9.06081ZM36.532 5.17547C36.6811 5.63228 37.0417 6.46417 37.7966 6.77192C38.4891 7.05563 39.0517 7.12776 39.4123 7.13738C39.8114 6.13719 40.6433 4.08392 41.0232 3.32416C41.0521 3.27127 41.0665 3.22799 41.0713 3.20395L38.768 1.98737C38.643 1.94891 38.4891 1.92486 38.3881 1.92967C38.0227 2.60287 36.9744 4.41571 36.532 5.17547ZM41.129 3.22799C41.1386 3.2328 41.1482 3.23761 41.1627 3.24723L41.129 3.22799Z" fill="#826489"/>
<path d="M9.26248 39.1097C9.09418 39.1097 8.93068 39.0183 8.83932 38.8596C8.70949 38.6288 8.79604 38.3355 9.02686 38.2057C27.3764 28.0355 36.181 12.0037 36.2675 11.8402C36.3926 11.6045 36.6859 11.518 36.9167 11.643C37.1523 11.768 37.2389 12.0614 37.1138 12.2922C37.0273 12.4557 28.0977 28.7279 9.49329 39.0424C9.42116 39.0905 9.34422 39.1097 9.26248 39.1097Z" fill="#826489"/>
<path d="M5.58391 37.0949C5.5214 37.0949 5.45889 37.0805 5.39637 37.0564C5.15114 36.9506 5.03573 36.6717 5.14152 36.4265C6.48792 33.2528 10.4694 30.661 13.6672 28.5789L14.1384 28.2711C24.0056 21.818 32.1802 9.1714 32.262 9.04638C32.4062 8.82518 32.7044 8.75786 32.9256 8.90212C33.1468 9.04638 33.2141 9.34451 33.0698 9.56571C32.9881 9.69554 24.7029 22.5104 14.6625 29.079L14.1913 29.3867C11.2677 31.2909 7.2573 33.902 6.0263 36.8064C5.94936 36.9843 5.77144 37.0949 5.58391 37.0949Z" fill="#826489"/>
</svg>
