<svg width="44" height="45" viewBox="0 0 44 45" fill="none" xmlns="http://www.w3.org/2000/svg">
<path d="M42.8662 17.6183L43 17.0385L42.554 16.6817C41.7512 16.1019 40.993 15.6113 40.1902 15.2545C40.993 13.9611 41.3498 12.5339 41.6174 11.4189L41.7512 10.8391L41.3052 10.4824C39.5658 9.18896 37.8265 8.47538 36.1317 8.34158C35.4627 7.53879 34.7491 6.82519 33.9909 6.20079C33.7233 4.37221 32.8313 2.85583 32.0731 1.69624L31.7609 1.20566L31.1811 1.29485C29.9323 1.47325 28.8174 1.83005 27.8362 2.27604C27.0334 1.47325 26.0968 0.581253 25.294 0.135258L25.0264 0.00146484L24.7142 0.0460671C23.8668 0.179866 22.841 0.938052 21.28 2.63283C20.4326 1.96384 19.0947 1.29486 16.5971 2.09765C15.9727 1.47325 15.3037 0.982651 14.6347 0.625855L14.1441 0.358256L13.6981 0.71506C12.8061 1.38405 11.8695 2.36524 11.1113 3.52482C8.74757 2.49903 6.3392 2.76663 4.46602 3.12343L3.93082 3.21264L3.75243 3.70322C3.26183 5.2642 3.08343 9.09976 4.68901 11.7757C3.30643 12.8461 2.45904 14.2733 2.01304 14.9869L1.70085 15.4775L2.01304 15.9681C2.94963 17.3061 3.97542 18.3319 5.13501 19.0009C5.13501 19.7145 5.22421 20.3834 5.40261 20.9632C3.93082 22.0782 3.08343 23.55 2.50364 24.7542L2.23604 25.334L2.72664 25.78C3.61863 26.6274 4.59981 27.2518 5.581 27.6532C2.14684 33.6295 1.07645 39.2936 1.03185 39.695C0.853457 40.7654 1.43325 41.8804 2.54824 42.4602C3.30643 42.8616 4.15382 42.9508 4.86742 42.7278C5.17961 43.0846 5.6256 43.3968 6.1608 43.5306C6.82979 43.709 7.67718 43.6644 8.34617 43.3968C8.79217 43.932 9.50576 44.2442 10.3532 44.2442C11.7357 44.2442 12.8061 43.3968 12.9845 42.2372C13.2075 40.81 14.0103 38.4462 15.1699 36.1271C15.7051 37.2867 16.4633 38.2232 17.1769 38.9368L17.6229 39.4274L18.5149 39.026C19.4515 38.58 20.7894 37.9556 21.7706 37.0191C22.7072 38.1786 24.0006 39.1598 25.6954 39.918L26.2306 40.141L26.6766 39.7396C27.524 38.9814 28.5498 38.0002 29.3079 36.7515C29.9323 36.8853 30.5121 36.9745 31.1365 36.9299C32.8313 36.9299 34.3031 36.4393 35.1059 36.2163L35.6411 36.0379L35.6857 35.4581C35.8641 33.9417 35.7749 32.6037 35.4627 31.3995C35.9533 31.5779 36.4439 31.6671 36.8899 31.6671C38.0494 31.6671 39.1644 31.1319 40.0118 30.1507C41.7066 28.1438 41.0822 25.5124 39.5212 23.8622C39.5658 23.7284 39.5658 23.6392 39.6104 23.5054C41.662 21.9444 42.4202 19.5361 42.8662 17.6183ZM11.2897 41.9696C11.2451 42.2818 10.7992 42.4602 10.4424 42.4602C10.3086 42.4602 9.81796 42.4156 9.68416 42.0588C10.1748 39.0706 12.7615 31.1319 18.2027 26.7612C18.5149 27.118 18.8717 27.4302 19.2731 27.7424C15.1253 30.4183 11.6911 39.2044 11.2897 41.9696ZM37.9156 24.8434C38.8522 25.6462 39.878 27.4748 38.6292 29.0357C37.9157 29.8831 36.9791 30.1507 35.9087 29.7493C36.3547 29.348 36.8007 28.902 37.2467 28.4114L37.6481 27.9654L37.3805 27.4302C36.7115 26.1368 34.9275 22.7472 30.9135 22.2566L30.6905 24.0406C33.1435 24.3528 34.5707 26.0922 35.5073 27.7424C33.7233 29.6155 31.8055 30.3737 29.6647 30.1061L29.4417 31.8901C29.7985 31.9347 30.1107 31.9347 30.4675 31.9347C31.5379 31.9347 32.5637 31.7117 33.5449 31.3103C33.9463 32.2915 34.0801 33.4511 33.9909 34.7891C32.0285 35.3689 29.6647 35.6811 27.6578 34.1201C26.409 33.1389 26.3644 32.3361 26.4982 31.8009L24.7588 31.4887C24.4912 33.0051 25.1156 34.3877 26.5874 35.5473C26.9442 35.8149 27.2564 36.0379 27.6132 36.2163C27.1226 36.9299 26.5428 37.5543 25.963 38.0894C23.5992 36.8853 22.3058 35.2351 22.0382 33.0943C21.949 32.4699 21.9936 31.9347 22.172 31.5333L20.5218 30.9089C20.2542 31.5779 20.2096 32.4253 20.2988 33.3173C20.388 34.0755 20.5664 34.7891 20.8786 35.4581C20.2096 36.2609 19.0947 36.8407 18.1581 37.2867C17.4445 36.4393 16.6863 35.3243 16.4187 33.9863C18.0689 31.1319 20.0758 28.7235 21.7706 28.7235C21.8152 28.7235 21.8598 28.7235 21.8598 28.7235C22.1274 28.7681 22.395 28.7682 22.6626 28.7682C25.6508 28.7682 28.3714 27.2072 29.5755 25.557L29.8431 25.2002L29.7093 24.7988C29.0849 22.658 27.524 20.6956 25.6954 19.759C24.3128 19.0455 22.841 18.9563 21.4138 19.4915L22.0382 21.1416C22.9748 20.7848 23.9114 20.8294 24.8926 21.32C26.186 21.9444 27.301 23.2824 27.8362 24.7988C26.6766 26.0476 24.402 27.1626 21.949 26.895C20.6556 26.7612 19.3623 25.557 19.1393 24.9772H19.0947L18.6041 24.219C11.6911 28.5451 8.56917 37.9556 7.90018 41.6574C7.67718 41.7912 7.05279 41.925 6.56219 41.7912C6.29459 41.702 6.25 41.6128 6.2054 41.5236C6.2946 38.9814 10.7546 26.5382 17.1323 23.1486L16.2849 21.5876C9.41656 25.2894 4.95661 37.3759 4.46602 41.033C4.15382 41.1668 3.70783 41.1222 3.39563 40.9438C3.03883 40.7654 2.72663 40.4086 2.77123 40.0964C2.86043 39.472 5.49181 25.4678 16.2849 18.8671C17.0431 19.5806 18.0243 19.982 19.0501 19.982V18.1981C18.2473 18.1981 17.4445 17.7075 16.9985 16.9939C16.7309 16.5479 16.3295 15.5667 16.9985 14.3625L15.4375 13.5151C14.7685 14.8085 14.6793 16.1911 15.2591 17.4399C11.4681 19.8037 8.65837 22.9702 6.56219 26.226C5.8486 25.9584 5.13501 25.557 4.46602 25.0218C5.00121 23.996 5.804 22.8364 7.05279 22.1228L7.94478 21.5876L7.27579 20.7848C7.14199 20.6064 7.05279 20.2942 7.00819 19.8036C7.54338 19.9374 8.07858 19.982 8.65837 19.982C8.79217 19.982 8.97057 19.982 9.10437 19.982C11.9141 19.8036 13.2521 18.1089 13.0737 14.9423L11.2897 15.0315C11.3789 16.9493 11.0667 18.0643 9.01517 18.1981C7.05279 18.2873 5.358 17.4399 3.88622 15.5221C4.91201 13.9611 6.3392 12.3555 8.65837 12.2217L8.56917 10.4377C7.72178 10.4823 6.96359 10.7054 6.2946 10.9729C5.22421 9.09977 5.13501 6.33459 5.40261 4.86281C6.87439 4.63981 8.65837 4.50602 10.3532 5.21961C9.99635 6.1562 9.77336 7.22659 9.81796 8.29698L11.6019 8.25237C11.5127 5.7548 13.1183 3.70322 14.3225 2.58823C15.9727 3.70322 17.5337 5.7102 17.6229 8.02938C17.6675 9.41196 17.1769 9.90256 16.8201 10.1256C16.2403 10.4824 15.3929 10.5715 14.7239 10.6161L14.7685 12.4001C15.6605 12.3555 16.8201 12.2663 17.7567 11.6419C18.9163 10.9283 19.4515 9.67956 19.4069 7.98477C19.3623 6.42379 18.7825 4.99661 17.9351 3.74782C19.4961 3.43562 20.1204 4.06001 20.7002 4.59521L21.503 5.35341L22.172 4.59521C23.6438 2.85583 24.402 2.27605 24.7588 2.09765C25.3832 2.54364 26.0968 3.25722 26.7658 3.92622L27.5686 4.72902L28.1484 4.37221C28.9066 3.92622 29.8431 3.56943 30.8689 3.39103C31.4933 4.37222 32.0731 5.62101 32.2515 7.00359L32.2961 7.36038L32.5637 7.58338C33.4557 8.29697 34.2585 9.09976 34.9721 9.99175L35.2397 10.304H35.6857C36.9791 10.304 38.3616 10.7945 39.7442 11.7757C39.432 12.9353 38.986 14.2287 38.0941 15.2991L37.8265 15.6559L38.0494 16.5925L38.54 16.7263C39.3428 16.9493 40.1456 17.3507 40.993 17.9305C40.5916 19.5361 39.878 21.32 38.3171 22.435L38.0494 22.6134L37.9603 22.9702C37.8711 23.3716 37.7819 23.7284 37.6927 24.0406L37.5143 24.6204L37.9156 24.8434Z" fill="#826489"/>
<path d="M29.6202 9.63491C29.4418 8.47532 29.085 7.53873 28.862 7.00354L28.639 6.46834L28.0592 6.42374C24.6696 6.20074 22.1275 7.27113 20.5665 9.5457C19.2285 11.4635 19.5853 12.9799 20.1651 13.8719L21.6815 12.9799C21.4139 12.5339 21.1909 11.8203 22.0383 10.5715C23.1978 8.92132 24.9372 8.11852 27.3902 8.16312C28.0146 9.9471 28.3714 12.1325 27.078 14.0503L28.5498 15.076C29.3972 13.8719 29.7094 12.6231 29.754 11.4189C31.0028 11.5081 32.207 11.9987 33.1881 12.5339C32.8313 14.9423 31.761 16.5478 29.9324 17.3952C29.3972 17.6628 28.9066 17.752 28.5052 17.752L28.4606 19.536C28.5052 19.536 28.5498 19.536 28.5944 19.536C29.2634 19.536 29.977 19.3576 30.6906 19.0008C33.2327 17.7966 34.7045 15.4774 35.0167 12.1325L35.0613 11.5527L34.5707 11.2405C33.2327 10.5269 31.538 9.67951 29.6202 9.63491Z" fill="#826489"/>
</svg>
