<svg width="44" height="44" viewBox="0 0 44 44" fill="none" xmlns="http://www.w3.org/2000/svg">
<path d="M21.5333 17.6C21.7278 17.6 21.9144 17.5227 22.0519 17.3852C22.1894 17.2477 22.2667 17.0612 22.2667 16.8667V13.9333C22.2667 13.7388 22.1894 13.5523 22.0519 13.4148C21.9144 13.2773 21.7278 13.2 21.5333 13.2H20.8V11C20.8 10.8055 20.7227 10.619 20.5852 10.4815C20.4477 10.3439 20.2612 10.2667 20.0667 10.2667H3.93333C3.73884 10.2667 3.55232 10.3439 3.41479 10.4815C3.27726 10.619 3.2 10.8055 3.2 11V13.2H2.46667C2.27217 13.2 2.08565 13.2773 1.94812 13.4148C1.8106 13.5523 1.73333 13.7388 1.73333 13.9333V16.8667C1.73333 17.0612 1.8106 17.2477 1.94812 17.3852C2.08565 17.5227 2.27217 17.6 2.46667 17.6H3.93333V19.58L2.58987 21.593C2.50974 21.7136 2.4669 21.8552 2.46667 22V40.3333C2.46783 41.3054 2.85451 42.2374 3.54189 42.9248C4.22928 43.6122 5.16123 43.9988 6.13333 44H17.8667C18.8388 43.9988 19.7707 43.6122 20.4581 42.9248C21.1455 42.2374 21.5322 41.3054 21.5333 40.3333V22C21.5331 21.8552 21.4903 21.7136 21.4101 21.593L20.0667 19.58V17.6H21.5333ZM3.2 14.6667H9.8V13.2H4.66667V11.7333H19.3333V13.2H16.4V14.6667H20.8V16.1333H3.2V14.6667ZM5.059 20.5333H18.941L20.0667 22.22V34.4432C18.7356 34.3443 17.4331 34.0065 16.2218 33.4459C15.85 33.2926 15.5031 33.1525 15.1651 33.0381C14.5051 32.8181 13.9639 32.5893 13.4894 32.3899C12.3416 31.8252 11.0792 31.5321 9.8 31.5333C7.80384 31.7 5.83451 32.103 3.93333 32.7338V22.22L5.059 20.5333ZM17.8667 42.5333H6.13333C5.54986 42.5333 4.99028 42.3015 4.5777 41.889C4.16512 41.4764 3.93333 40.9168 3.93333 40.3333V34.2687C5.12353 33.8969 8.16027 33 9.8 33C10.8838 32.9978 11.9527 33.2518 12.9196 33.7414C13.419 33.9519 13.9844 34.1902 14.7016 34.4285C15.0096 34.5319 15.3235 34.6625 15.6615 34.8018C17.05 35.4367 18.543 35.812 20.0667 35.9091V40.3333C20.0667 40.9168 19.8349 41.4764 19.4223 41.889C19.0097 42.3015 18.4501 42.5333 17.8667 42.5333ZM18.6 19.0667H5.4V17.6H18.6V19.0667Z" fill="#826489"/>
<path d="M12.7333 13.2H11.2667V14.6667H12.7333V13.2Z" fill="#826489"/>
<path d="M27.5217 37.7198L23.176 42.7901C23.0849 42.8966 23.0262 43.027 23.0069 43.1659C22.9876 43.3047 23.0086 43.4462 23.0672 43.5735C23.1259 43.7009 23.2198 43.8087 23.3378 43.8843C23.4559 43.9599 23.5932 44.0001 23.7333 44.0001H41.3333C41.4735 44.0001 41.6108 43.9599 41.7288 43.8843C41.8469 43.8087 41.9408 43.7009 41.9995 43.5735C42.0581 43.4462 42.079 43.3047 42.0597 43.1659C42.0405 43.027 41.9818 42.8966 41.8907 42.7901L37.5442 37.7191C36.9246 36.9961 36.1559 36.4158 35.2909 36.018C34.4259 35.6201 33.4851 35.4141 32.533 35.4141C31.5809 35.4141 30.64 35.6201 29.775 36.018C28.91 36.4158 28.1413 36.9969 27.5217 37.7198ZM32.5333 36.8816C33.2737 36.8812 34.0054 37.0411 34.6781 37.3504C35.3508 37.6597 35.9485 38.1109 36.4303 38.6731L39.7391 42.5334H25.3276L28.6357 38.6739C29.1174 38.1115 29.7153 37.66 30.3881 37.3506C31.0609 37.0413 31.7928 36.8812 32.5333 36.8816Z" fill="#826489"/>
<path d="M31.0667 39.6H29.6V41.0667H31.0667V39.6Z" fill="#826489"/>
<path d="M34 38.1333H32.5333V39.6H34V38.1333Z" fill="#826489"/>
<path d="M34 24.2H32.5333V25.6667H34V24.2Z" fill="#826489"/>
<path d="M31.0667 19.8H29.6V21.2667H31.0667V19.8Z" fill="#826489"/>
<path d="M34.7333 14.6667H33.2667V16.1333H34.7333V14.6667Z" fill="#826489"/>
<path d="M30.3333 11.7333H28.8667V13.2H30.3333V11.7333Z" fill="#826489"/>
<path d="M36.9333 31.5333H35.4667V33H36.9333V31.5333Z" fill="#826489"/>
<path d="M29.6 26.4H28.1333V27.8667H29.6V26.4Z" fill="#826489"/>
<path d="M29.6 32.2667H28.1333V33.7333H29.6V32.2667Z" fill="#826489"/>
<path d="M32.5333 0C29.9755 0 27.6486 1.1616 26.5706 2.93333H1.73333C1.53884 2.93333 1.35232 3.01059 1.21479 3.14812C1.07726 3.28565 1 3.47217 1 3.66667V6.6C1 6.79449 1.07726 6.98102 1.21479 7.11854C1.35232 7.25607 1.53884 7.33333 1.73333 7.33333H26.5706C27.6486 9.10507 29.9755 10.2667 32.5333 10.2667C36.1729 10.2667 39.1333 7.96327 39.1333 5.13333C39.1333 2.3034 36.1729 0 32.5333 0ZM32.5333 8.8C30.3333 8.8 28.3805 7.7902 27.6706 6.28687C27.6115 6.16166 27.5181 6.05575 27.4013 5.98139C27.2845 5.90703 27.1491 5.86726 27.0106 5.86667H2.46667V4.4H27.0077C27.1461 4.39941 27.2816 4.35963 27.3984 4.28527C27.5152 4.21091 27.6085 4.105 27.6677 3.9798C28.3805 2.47647 30.3333 1.46667 32.5333 1.46667C35.3633 1.46667 37.6667 3.11153 37.6667 5.13333C37.6667 7.15513 35.3633 8.8 32.5333 8.8Z" fill="#826489"/>
<path d="M28.9437 4.80559L30.2512 5.47073C30.5017 5.10514 30.8454 4.81313 31.2466 4.6249C31.6478 4.43666 32.0921 4.35904 32.5333 4.40006V2.93339C31.8209 2.88685 31.1094 3.03683 30.4764 3.36697C29.8434 3.69712 29.3132 4.19475 28.9437 4.80559Z" fill="#826489"/>
<path d="M7.6 35.2H6.13333V36.6667H7.6V35.2Z" fill="#826489"/>
<path d="M10.5333 36.6667H9.06667V38.1333H10.5333V36.6667Z" fill="#826489"/>
<path d="M17.8667 38.8667H16.4V40.3333H17.8667V38.8667Z" fill="#826489"/>
<path d="M14.9333 39.6H13.4667V41.0667H14.9333V39.6Z" fill="#826489"/>
</svg>
