<svg width="44" height="46" viewBox="0 0 44 46" fill="none" xmlns="http://www.w3.org/2000/svg">
<mask id="path-2-outside-1" maskUnits="userSpaceOnUse" x="4" y="0" width="36" height="46" fill="black">
<rect fill="white" x="4" width="36" height="46"/>
<path d="M23.3302 4.40231H19.4025V5.44274H23.3302V4.40231Z"/>
<path d="M27.7052 45.1457H15.0483C14.7296 45.1468 14.4187 45.0467 14.1607 44.8597C13.9026 44.6727 13.7106 44.4085 13.6125 44.1053C12.905 41.7123 12.52 35.6985 12.4836 34.6893C12.3892 32.4251 13.1675 30.2109 14.6581 28.5039C17.4456 25.1985 18.9456 20.9976 18.8823 16.6742V7.24259H19.9227V16.6585C19.981 21.2237 18.3907 25.6567 15.4436 29.1438C14.127 30.651 13.4398 32.6065 13.524 34.6061C13.5761 36.0107 13.9766 41.6342 14.6113 43.7671C14.642 43.8585 14.7007 43.9379 14.7792 43.994C14.8577 44.05 14.9519 44.0799 15.0483 44.0792H27.7052C27.802 44.0815 27.8969 44.0523 27.9757 43.996C28.0545 43.9398 28.1129 43.8594 28.1422 43.7671C28.8237 41.5562 29.2138 35.7349 29.2138 34.2887C29.2205 32.5115 28.6142 30.7862 27.4971 29.4039C24.5242 25.8203 22.8714 21.3248 22.8151 16.6689V7.24259H23.8556V16.695C23.9091 21.1205 25.4833 25.3929 28.3138 28.7952C29.5767 30.3629 30.2618 32.3173 30.2543 34.3304C30.2543 35.891 29.8589 41.7695 29.141 44.1105C29.0434 44.4136 28.8514 44.6776 28.5931 44.8638C28.3347 45.05 28.0236 45.1488 27.7052 45.1457Z"/>
<path d="M25 7.76274H17.717C17.579 7.76274 17.4467 7.70794 17.3491 7.61038C17.2516 7.51282 17.1967 7.3805 17.1967 7.24253V4.92756C17.1967 4.78958 17.2516 4.65727 17.3491 4.55971C17.4467 4.46215 17.579 4.40734 17.717 4.40734H25C25.138 4.40734 25.2703 4.46215 25.3679 4.55971C25.4654 4.65727 25.5202 4.78958 25.5202 4.92756V7.24253C25.5202 7.3805 25.4654 7.51282 25.3679 7.61038C25.2703 7.70794 25.138 7.76274 25 7.76274ZM18.2372 6.72231H24.4798V5.44777H18.2372V6.72231Z"/>
<path d="M23.3302 5.44787H19.4025C19.2646 5.44787 19.1322 5.39306 19.0347 5.2955C18.9371 5.19794 18.8823 5.06562 18.8823 4.92765V1.52022C18.8823 1.38225 18.9371 1.24993 19.0347 1.15237C19.1322 1.05481 19.2646 1 19.4025 1H23.3302C23.4681 1 23.6005 1.05481 23.698 1.15237C23.7956 1.24993 23.8504 1.38225 23.8504 1.52022V4.92765C23.8504 5.06562 23.7956 5.19794 23.698 5.2955C23.6005 5.39306 23.4681 5.44787 23.3302 5.44787ZM19.9227 4.40743H22.81V2.04044H19.9227V4.40743Z"/>
<path d="M15.8754 45.1459H5.52307C5.3851 45.1459 5.25278 45.0911 5.15522 44.9935C5.05766 44.896 5.00285 44.7636 5.00285 44.6257V24.5765C4.96579 23.3372 5.29043 22.114 5.9371 21.0562C6.58378 19.9985 7.5245 19.1519 8.64438 18.62V16.0189C8.64438 15.8809 8.69919 15.7486 8.79675 15.651C8.89431 15.5535 9.02663 15.4987 9.1646 15.4987H12.2339C12.3719 15.4987 12.5042 15.5535 12.6017 15.651C12.6993 15.7486 12.7541 15.8809 12.7541 16.0189V18.62C13.8744 19.1514 14.8155 19.9978 15.4622 21.0557C16.109 22.1136 16.4334 23.3371 16.3956 24.5765V27.9995H15.3552V24.5765C15.3552 22.2095 14.0338 20.1598 12.0622 19.4679C11.9555 19.4308 11.8638 19.36 11.8009 19.2661C11.738 19.1723 11.7074 19.0605 11.7137 18.9477V16.5339H9.68482V18.9737C9.69108 19.0865 9.66046 19.1983 9.59758 19.2921C9.5347 19.386 9.44297 19.4568 9.33627 19.4939C7.35424 20.1598 6.04329 22.2147 6.04329 24.5765V44.1055H15.8754V44.5476H16.3956V44.6257C16.3956 44.7636 16.3408 44.896 16.2433 44.9935C16.1457 45.0911 16.0134 45.1459 15.8754 45.1459Z"/>
<path d="M13.0142 16.5339H8.36865C8.23068 16.5339 8.09836 16.4791 8.0008 16.3815C7.90324 16.284 7.84843 16.1517 7.84843 16.0137V13.1889C7.84843 13.0509 7.90324 12.9186 8.0008 12.8211C8.09836 12.7235 8.23068 12.6687 8.36865 12.6687H13.0142C13.1522 12.6687 13.2845 12.7235 13.3821 12.8211C13.4796 12.9186 13.5344 13.0509 13.5344 13.1889V16.0085C13.5351 16.0772 13.5222 16.1454 13.4963 16.2092C13.4705 16.2729 13.4323 16.3308 13.3839 16.3797C13.3355 16.4286 13.2779 16.4673 13.2145 16.4938C13.151 16.5203 13.083 16.5339 13.0142 16.5339ZM8.88887 15.4935H12.494V13.7091H8.88887V15.4935Z"/>
<path d="M12.2339 13.709H9.16461C9.02664 13.709 8.89432 13.6542 8.79676 13.5567C8.6992 13.4591 8.64439 13.3268 8.64439 13.1888V8.55367C8.64439 8.4157 8.6992 8.28338 8.79676 8.18582C8.89432 8.08826 9.02664 8.03345 9.16461 8.03345H12.2339C12.3719 8.03345 12.5042 8.08826 12.6017 8.18582C12.6993 8.28338 12.7541 8.4157 12.7541 8.55367V13.1888C12.7541 13.3268 12.6993 13.4591 12.6017 13.5567C12.5042 13.6542 12.3719 13.709 12.2339 13.709ZM9.68483 12.6686H11.7137V9.07388H9.68483V12.6686Z"/>
<path d="M38.817 45.1458H26.1341V44.1053H38.2968V29.3155C38.1928 28.5404 37.8286 26.4595 37.35 25.5804C36.2263 23.5359 35.0142 17.8863 34.1975 13.813C34.1975 13.813 34.1975 13.7766 34.1975 13.7558L33.6773 7.5392H31.2114L30.6912 13.7558C30.6912 13.7558 30.6912 13.7922 30.6912 13.813C29.8745 17.8863 28.6624 23.5359 27.5387 25.5856C27.2723 26.0641 27.0628 26.5722 26.9144 27.0994L25.9156 26.8133C26.0872 26.2117 26.3245 25.6307 26.6231 25.081C27.7988 22.9481 29.1982 15.9771 29.6664 13.6362L30.2282 6.97737C30.2387 6.84673 30.2981 6.72487 30.3946 6.63614C30.491 6.54741 30.6174 6.49835 30.7484 6.49877H34.1351C34.2661 6.49835 34.3925 6.54741 34.4889 6.63614C34.5854 6.72487 34.6448 6.84673 34.6553 6.97737L35.2171 13.6362C35.6853 15.9771 37.0847 22.9481 38.2604 25.081C38.9367 26.3243 39.3008 29.097 39.3008 29.2115C39.3188 29.2438 39.3312 29.279 39.3372 29.3155V44.6256C39.3372 44.7635 39.2824 44.8959 39.1849 44.9934C39.0873 45.091 38.955 45.1458 38.817 45.1458Z"/>
<path d="M34.3432 8.72522H30.5456V9.76566H34.3432V8.72522Z"/>
<path d="M38.8326 30.5431H28.5479V29.5027H38.8118L38.8326 30.5431Z"/>
<path d="M38.3593 37.3945H29.6144V36.3541H38.3385L38.3593 37.3945Z"/>
<path d="M31.35 14.4567L30.0321 22.1426L31.0575 22.3184L32.3755 14.6325L31.35 14.4567Z"/>
<path d="M14.3252 30.564H7.08373V24.7948H14.3668L14.3252 30.564ZM8.08255 29.5236H13.2847V25.8352H8.12417L8.08255 29.5236Z"/>
<path d="M21.3637 40.3025C20.5694 40.3025 19.7929 40.0669 19.1325 39.6256C18.472 39.1843 17.9573 38.5571 17.6533 37.8233C17.3494 37.0894 17.2698 36.2819 17.4248 35.5029C17.5798 34.7238 17.9622 34.0082 18.5239 33.4466C19.0856 32.8849 19.8012 32.5024 20.5802 32.3475C21.3593 32.1925 22.1668 32.272 22.9006 32.576C23.6344 32.88 24.2617 33.3947 24.703 34.0552C25.1443 34.7156 25.3798 35.4921 25.3798 36.2864C25.3798 37.3515 24.9567 38.373 24.2035 39.1262C23.4503 39.8794 22.4288 40.3025 21.3637 40.3025ZM21.3637 33.3107C20.7752 33.3107 20.1999 33.4853 19.7105 33.8122C19.2212 34.1392 18.8398 34.6039 18.6146 35.1477C18.3893 35.6914 18.3304 36.2897 18.4452 36.8669C18.5601 37.4441 18.8435 37.9743 19.2596 38.3905C19.6758 38.8066 20.206 39.09 20.7832 39.2049C21.3604 39.3197 21.9587 39.2607 22.5024 39.0355C23.0462 38.8103 23.5109 38.4289 23.8379 37.9396C24.1648 37.4502 24.3394 36.8749 24.3394 36.2864C24.338 35.4976 24.024 34.7416 23.4663 34.1838C22.9085 33.6261 22.1525 33.3121 21.3637 33.3107Z"/>
<path d="M17.6962 30.637L16.8691 30.0076C18.0077 28.3286 19.0414 26.5808 19.9644 24.7742L20.9268 25.1799C19.9689 27.0668 18.8897 28.8896 17.6962 30.637Z"/>
</mask>
<path d="M23.3302 4.40231H19.4025V5.44274H23.3302V4.40231Z" fill="#826489"/>
<path d="M27.7052 45.1457H15.0483C14.7296 45.1468 14.4187 45.0467 14.1607 44.8597C13.9026 44.6727 13.7106 44.4085 13.6125 44.1053C12.905 41.7123 12.52 35.6985 12.4836 34.6893C12.3892 32.4251 13.1675 30.2109 14.6581 28.5039C17.4456 25.1985 18.9456 20.9976 18.8823 16.6742V7.24259H19.9227V16.6585C19.981 21.2237 18.3907 25.6567 15.4436 29.1438C14.127 30.651 13.4398 32.6065 13.524 34.6061C13.5761 36.0107 13.9766 41.6342 14.6113 43.7671C14.642 43.8585 14.7007 43.9379 14.7792 43.994C14.8577 44.05 14.9519 44.0799 15.0483 44.0792H27.7052C27.802 44.0815 27.8969 44.0523 27.9757 43.996C28.0545 43.9398 28.1129 43.8594 28.1422 43.7671C28.8237 41.5562 29.2138 35.7349 29.2138 34.2887C29.2205 32.5115 28.6142 30.7862 27.4971 29.4039C24.5242 25.8203 22.8714 21.3248 22.8151 16.6689V7.24259H23.8556V16.695C23.9091 21.1205 25.4833 25.3929 28.3138 28.7952C29.5767 30.3629 30.2618 32.3173 30.2543 34.3304C30.2543 35.891 29.8589 41.7695 29.141 44.1105C29.0434 44.4136 28.8514 44.6776 28.5931 44.8638C28.3347 45.05 28.0236 45.1488 27.7052 45.1457Z" fill="#826489"/>
<path d="M25 7.76274H17.717C17.579 7.76274 17.4467 7.70794 17.3491 7.61038C17.2516 7.51282 17.1967 7.3805 17.1967 7.24253V4.92756C17.1967 4.78958 17.2516 4.65727 17.3491 4.55971C17.4467 4.46215 17.579 4.40734 17.717 4.40734H25C25.138 4.40734 25.2703 4.46215 25.3679 4.55971C25.4654 4.65727 25.5202 4.78958 25.5202 4.92756V7.24253C25.5202 7.3805 25.4654 7.51282 25.3679 7.61038C25.2703 7.70794 25.138 7.76274 25 7.76274ZM18.2372 6.72231H24.4798V5.44777H18.2372V6.72231Z" fill="#826489"/>
<path d="M23.3302 5.44787H19.4025C19.2646 5.44787 19.1322 5.39306 19.0347 5.2955C18.9371 5.19794 18.8823 5.06562 18.8823 4.92765V1.52022C18.8823 1.38225 18.9371 1.24993 19.0347 1.15237C19.1322 1.05481 19.2646 1 19.4025 1H23.3302C23.4681 1 23.6005 1.05481 23.698 1.15237C23.7956 1.24993 23.8504 1.38225 23.8504 1.52022V4.92765C23.8504 5.06562 23.7956 5.19794 23.698 5.2955C23.6005 5.39306 23.4681 5.44787 23.3302 5.44787ZM19.9227 4.40743H22.81V2.04044H19.9227V4.40743Z" fill="#826489"/>
<path d="M15.8754 45.1459H5.52307C5.3851 45.1459 5.25278 45.0911 5.15522 44.9935C5.05766 44.896 5.00285 44.7636 5.00285 44.6257V24.5765C4.96579 23.3372 5.29043 22.114 5.9371 21.0562C6.58378 19.9985 7.5245 19.1519 8.64438 18.62V16.0189C8.64438 15.8809 8.69919 15.7486 8.79675 15.651C8.89431 15.5535 9.02663 15.4987 9.1646 15.4987H12.2339C12.3719 15.4987 12.5042 15.5535 12.6017 15.651C12.6993 15.7486 12.7541 15.8809 12.7541 16.0189V18.62C13.8744 19.1514 14.8155 19.9978 15.4622 21.0557C16.109 22.1136 16.4334 23.3371 16.3956 24.5765V27.9995H15.3552V24.5765C15.3552 22.2095 14.0338 20.1598 12.0622 19.4679C11.9555 19.4308 11.8638 19.36 11.8009 19.2661C11.738 19.1723 11.7074 19.0605 11.7137 18.9477V16.5339H9.68482V18.9737C9.69108 19.0865 9.66046 19.1983 9.59758 19.2921C9.5347 19.386 9.44297 19.4568 9.33627 19.4939C7.35424 20.1598 6.04329 22.2147 6.04329 24.5765V44.1055H15.8754V44.5476H16.3956V44.6257C16.3956 44.7636 16.3408 44.896 16.2433 44.9935C16.1457 45.0911 16.0134 45.1459 15.8754 45.1459Z" fill="#826489"/>
<path d="M13.0142 16.5339H8.36865C8.23068 16.5339 8.09836 16.4791 8.0008 16.3815C7.90324 16.284 7.84843 16.1517 7.84843 16.0137V13.1889C7.84843 13.0509 7.90324 12.9186 8.0008 12.8211C8.09836 12.7235 8.23068 12.6687 8.36865 12.6687H13.0142C13.1522 12.6687 13.2845 12.7235 13.3821 12.8211C13.4796 12.9186 13.5344 13.0509 13.5344 13.1889V16.0085C13.5351 16.0772 13.5222 16.1454 13.4963 16.2092C13.4705 16.2729 13.4323 16.3308 13.3839 16.3797C13.3355 16.4286 13.2779 16.4673 13.2145 16.4938C13.151 16.5203 13.083 16.5339 13.0142 16.5339ZM8.88887 15.4935H12.494V13.7091H8.88887V15.4935Z" fill="#826489"/>
<path d="M12.2339 13.709H9.16461C9.02664 13.709 8.89432 13.6542 8.79676 13.5567C8.6992 13.4591 8.64439 13.3268 8.64439 13.1888V8.55367C8.64439 8.4157 8.6992 8.28338 8.79676 8.18582C8.89432 8.08826 9.02664 8.03345 9.16461 8.03345H12.2339C12.3719 8.03345 12.5042 8.08826 12.6017 8.18582C12.6993 8.28338 12.7541 8.4157 12.7541 8.55367V13.1888C12.7541 13.3268 12.6993 13.4591 12.6017 13.5567C12.5042 13.6542 12.3719 13.709 12.2339 13.709ZM9.68483 12.6686H11.7137V9.07388H9.68483V12.6686Z" fill="#826489"/>
<path d="M38.817 45.1458H26.1341V44.1053H38.2968V29.3155C38.1928 28.5404 37.8286 26.4595 37.35 25.5804C36.2263 23.5359 35.0142 17.8863 34.1975 13.813C34.1975 13.813 34.1975 13.7766 34.1975 13.7558L33.6773 7.5392H31.2114L30.6912 13.7558C30.6912 13.7558 30.6912 13.7922 30.6912 13.813C29.8745 17.8863 28.6624 23.5359 27.5387 25.5856C27.2723 26.0641 27.0628 26.5722 26.9144 27.0994L25.9156 26.8133C26.0872 26.2117 26.3245 25.6307 26.6231 25.081C27.7988 22.9481 29.1982 15.9771 29.6664 13.6362L30.2282 6.97737C30.2387 6.84673 30.2981 6.72487 30.3946 6.63614C30.491 6.54741 30.6174 6.49835 30.7484 6.49877H34.1351C34.2661 6.49835 34.3925 6.54741 34.4889 6.63614C34.5854 6.72487 34.6448 6.84673 34.6553 6.97737L35.2171 13.6362C35.6853 15.9771 37.0847 22.9481 38.2604 25.081C38.9367 26.3243 39.3008 29.097 39.3008 29.2115C39.3188 29.2438 39.3312 29.279 39.3372 29.3155V44.6256C39.3372 44.7635 39.2824 44.8959 39.1849 44.9934C39.0873 45.091 38.955 45.1458 38.817 45.1458Z" fill="#826489"/>
<path d="M34.3432 8.72522H30.5456V9.76566H34.3432V8.72522Z" fill="#826489"/>
<path d="M38.8326 30.5431H28.5479V29.5027H38.8118L38.8326 30.5431Z" fill="#826489"/>
<path d="M38.3593 37.3945H29.6144V36.3541H38.3385L38.3593 37.3945Z" fill="#826489"/>
<path d="M31.35 14.4567L30.0321 22.1426L31.0575 22.3184L32.3755 14.6325L31.35 14.4567Z" fill="#826489"/>
<path d="M14.3252 30.564H7.08373V24.7948H14.3668L14.3252 30.564ZM8.08255 29.5236H13.2847V25.8352H8.12417L8.08255 29.5236Z" fill="#826489"/>
<path d="M21.3637 40.3025C20.5694 40.3025 19.7929 40.0669 19.1325 39.6256C18.472 39.1843 17.9573 38.5571 17.6533 37.8233C17.3494 37.0894 17.2698 36.2819 17.4248 35.5029C17.5798 34.7238 17.9622 34.0082 18.5239 33.4466C19.0856 32.8849 19.8012 32.5024 20.5802 32.3475C21.3593 32.1925 22.1668 32.272 22.9006 32.576C23.6344 32.88 24.2617 33.3947 24.703 34.0552C25.1443 34.7156 25.3798 35.4921 25.3798 36.2864C25.3798 37.3515 24.9567 38.373 24.2035 39.1262C23.4503 39.8794 22.4288 40.3025 21.3637 40.3025ZM21.3637 33.3107C20.7752 33.3107 20.1999 33.4853 19.7105 33.8122C19.2212 34.1392 18.8398 34.6039 18.6146 35.1477C18.3893 35.6914 18.3304 36.2897 18.4452 36.8669C18.5601 37.4441 18.8435 37.9743 19.2596 38.3905C19.6758 38.8066 20.206 39.09 20.7832 39.2049C21.3604 39.3197 21.9587 39.2607 22.5024 39.0355C23.0462 38.8103 23.5109 38.4289 23.8379 37.9396C24.1648 37.4502 24.3394 36.8749 24.3394 36.2864C24.338 35.4976 24.024 34.7416 23.4663 34.1838C22.9085 33.6261 22.1525 33.3121 21.3637 33.3107Z" fill="#826489"/>
<path d="M17.6962 30.637L16.8691 30.0076C18.0077 28.3286 19.0414 26.5808 19.9644 24.7742L20.9268 25.1799C19.9689 27.0668 18.8897 28.8896 17.6962 30.637Z" fill="#826489"/>
<path d="M23.3302 4.40231H19.4025V5.44274H23.3302V4.40231Z" stroke="#826489" stroke-width="0.4" mask="url(#path-2-outside-1)"/>
<path d="M27.7052 45.1457H15.0483C14.7296 45.1468 14.4187 45.0467 14.1607 44.8597C13.9026 44.6727 13.7106 44.4085 13.6125 44.1053C12.905 41.7123 12.52 35.6985 12.4836 34.6893C12.3892 32.4251 13.1675 30.2109 14.6581 28.5039C17.4456 25.1985 18.9456 20.9976 18.8823 16.6742V7.24259H19.9227V16.6585C19.981 21.2237 18.3907 25.6567 15.4436 29.1438C14.127 30.651 13.4398 32.6065 13.524 34.6061C13.5761 36.0107 13.9766 41.6342 14.6113 43.7671C14.642 43.8585 14.7007 43.9379 14.7792 43.994C14.8577 44.05 14.9519 44.0799 15.0483 44.0792H27.7052C27.802 44.0815 27.8969 44.0523 27.9757 43.996C28.0545 43.9398 28.1129 43.8594 28.1422 43.7671C28.8237 41.5562 29.2138 35.7349 29.2138 34.2887C29.2205 32.5115 28.6142 30.7862 27.4971 29.4039C24.5242 25.8203 22.8714 21.3248 22.8151 16.6689V7.24259H23.8556V16.695C23.9091 21.1205 25.4833 25.3929 28.3138 28.7952C29.5767 30.3629 30.2618 32.3173 30.2543 34.3304C30.2543 35.891 29.8589 41.7695 29.141 44.1105C29.0434 44.4136 28.8514 44.6776 28.5931 44.8638C28.3347 45.05 28.0236 45.1488 27.7052 45.1457Z" stroke="#826489" stroke-width="0.4" mask="url(#path-2-outside-1)"/>
<path d="M25 7.76274H17.717C17.579 7.76274 17.4467 7.70794 17.3491 7.61038C17.2516 7.51282 17.1967 7.3805 17.1967 7.24253V4.92756C17.1967 4.78958 17.2516 4.65727 17.3491 4.55971C17.4467 4.46215 17.579 4.40734 17.717 4.40734H25C25.138 4.40734 25.2703 4.46215 25.3679 4.55971C25.4654 4.65727 25.5202 4.78958 25.5202 4.92756V7.24253C25.5202 7.3805 25.4654 7.51282 25.3679 7.61038C25.2703 7.70794 25.138 7.76274 25 7.76274ZM18.2372 6.72231H24.4798V5.44777H18.2372V6.72231Z" stroke="#826489" stroke-width="0.4" mask="url(#path-2-outside-1)"/>
<path d="M23.3302 5.44787H19.4025C19.2646 5.44787 19.1322 5.39306 19.0347 5.2955C18.9371 5.19794 18.8823 5.06562 18.8823 4.92765V1.52022C18.8823 1.38225 18.9371 1.24993 19.0347 1.15237C19.1322 1.05481 19.2646 1 19.4025 1H23.3302C23.4681 1 23.6005 1.05481 23.698 1.15237C23.7956 1.24993 23.8504 1.38225 23.8504 1.52022V4.92765C23.8504 5.06562 23.7956 5.19794 23.698 5.2955C23.6005 5.39306 23.4681 5.44787 23.3302 5.44787ZM19.9227 4.40743H22.81V2.04044H19.9227V4.40743Z" stroke="#826489" stroke-width="0.4" mask="url(#path-2-outside-1)"/>
<path d="M15.8754 45.1459H5.52307C5.3851 45.1459 5.25278 45.0911 5.15522 44.9935C5.05766 44.896 5.00285 44.7636 5.00285 44.6257V24.5765C4.96579 23.3372 5.29043 22.114 5.9371 21.0562C6.58378 19.9985 7.5245 19.1519 8.64438 18.62V16.0189C8.64438 15.8809 8.69919 15.7486 8.79675 15.651C8.89431 15.5535 9.02663 15.4987 9.1646 15.4987H12.2339C12.3719 15.4987 12.5042 15.5535 12.6017 15.651C12.6993 15.7486 12.7541 15.8809 12.7541 16.0189V18.62C13.8744 19.1514 14.8155 19.9978 15.4622 21.0557C16.109 22.1136 16.4334 23.3371 16.3956 24.5765V27.9995H15.3552V24.5765C15.3552 22.2095 14.0338 20.1598 12.0622 19.4679C11.9555 19.4308 11.8638 19.36 11.8009 19.2661C11.738 19.1723 11.7074 19.0605 11.7137 18.9477V16.5339H9.68482V18.9737C9.69108 19.0865 9.66046 19.1983 9.59758 19.2921C9.5347 19.386 9.44297 19.4568 9.33627 19.4939C7.35424 20.1598 6.04329 22.2147 6.04329 24.5765V44.1055H15.8754V44.5476H16.3956V44.6257C16.3956 44.7636 16.3408 44.896 16.2433 44.9935C16.1457 45.0911 16.0134 45.1459 15.8754 45.1459Z" stroke="#826489" stroke-width="0.4" mask="url(#path-2-outside-1)"/>
<path d="M13.0142 16.5339H8.36865C8.23068 16.5339 8.09836 16.4791 8.0008 16.3815C7.90324 16.284 7.84843 16.1517 7.84843 16.0137V13.1889C7.84843 13.0509 7.90324 12.9186 8.0008 12.8211C8.09836 12.7235 8.23068 12.6687 8.36865 12.6687H13.0142C13.1522 12.6687 13.2845 12.7235 13.3821 12.8211C13.4796 12.9186 13.5344 13.0509 13.5344 13.1889V16.0085C13.5351 16.0772 13.5222 16.1454 13.4963 16.2092C13.4705 16.2729 13.4323 16.3308 13.3839 16.3797C13.3355 16.4286 13.2779 16.4673 13.2145 16.4938C13.151 16.5203 13.083 16.5339 13.0142 16.5339ZM8.88887 15.4935H12.494V13.7091H8.88887V15.4935Z" stroke="#826489" stroke-width="0.4" mask="url(#path-2-outside-1)"/>
<path d="M12.2339 13.709H9.16461C9.02664 13.709 8.89432 13.6542 8.79676 13.5567C8.6992 13.4591 8.64439 13.3268 8.64439 13.1888V8.55367C8.64439 8.4157 8.6992 8.28338 8.79676 8.18582C8.89432 8.08826 9.02664 8.03345 9.16461 8.03345H12.2339C12.3719 8.03345 12.5042 8.08826 12.6017 8.18582C12.6993 8.28338 12.7541 8.4157 12.7541 8.55367V13.1888C12.7541 13.3268 12.6993 13.4591 12.6017 13.5567C12.5042 13.6542 12.3719 13.709 12.2339 13.709ZM9.68483 12.6686H11.7137V9.07388H9.68483V12.6686Z" stroke="#826489" stroke-width="0.4" mask="url(#path-2-outside-1)"/>
<path d="M38.817 45.1458H26.1341V44.1053H38.2968V29.3155C38.1928 28.5404 37.8286 26.4595 37.35 25.5804C36.2263 23.5359 35.0142 17.8863 34.1975 13.813C34.1975 13.813 34.1975 13.7766 34.1975 13.7558L33.6773 7.5392H31.2114L30.6912 13.7558C30.6912 13.7558 30.6912 13.7922 30.6912 13.813C29.8745 17.8863 28.6624 23.5359 27.5387 25.5856C27.2723 26.0641 27.0628 26.5722 26.9144 27.0994L25.9156 26.8133C26.0872 26.2117 26.3245 25.6307 26.6231 25.081C27.7988 22.9481 29.1982 15.9771 29.6664 13.6362L30.2282 6.97737C30.2387 6.84673 30.2981 6.72487 30.3946 6.63614C30.491 6.54741 30.6174 6.49835 30.7484 6.49877H34.1351C34.2661 6.49835 34.3925 6.54741 34.4889 6.63614C34.5854 6.72487 34.6448 6.84673 34.6553 6.97737L35.2171 13.6362C35.6853 15.9771 37.0847 22.9481 38.2604 25.081C38.9367 26.3243 39.3008 29.097 39.3008 29.2115C39.3188 29.2438 39.3312 29.279 39.3372 29.3155V44.6256C39.3372 44.7635 39.2824 44.8959 39.1849 44.9934C39.0873 45.091 38.955 45.1458 38.817 45.1458Z" stroke="#826489" stroke-width="0.4" mask="url(#path-2-outside-1)"/>
<path d="M34.3432 8.72522H30.5456V9.76566H34.3432V8.72522Z" stroke="#826489" stroke-width="0.4" mask="url(#path-2-outside-1)"/>
<path d="M38.8326 30.5431H28.5479V29.5027H38.8118L38.8326 30.5431Z" stroke="#826489" stroke-width="0.4" mask="url(#path-2-outside-1)"/>
<path d="M38.3593 37.3945H29.6144V36.3541H38.3385L38.3593 37.3945Z" stroke="#826489" stroke-width="0.4" mask="url(#path-2-outside-1)"/>
<path d="M31.35 14.4567L30.0321 22.1426L31.0575 22.3184L32.3755 14.6325L31.35 14.4567Z" stroke="#826489" stroke-width="0.4" mask="url(#path-2-outside-1)"/>
<path d="M14.3252 30.564H7.08373V24.7948H14.3668L14.3252 30.564ZM8.08255 29.5236H13.2847V25.8352H8.12417L8.08255 29.5236Z" stroke="#826489" stroke-width="0.4" mask="url(#path-2-outside-1)"/>
<path d="M21.3637 40.3025C20.5694 40.3025 19.7929 40.0669 19.1325 39.6256C18.472 39.1843 17.9573 38.5571 17.6533 37.8233C17.3494 37.0894 17.2698 36.2819 17.4248 35.5029C17.5798 34.7238 17.9622 34.0082 18.5239 33.4466C19.0856 32.8849 19.8012 32.5024 20.5802 32.3475C21.3593 32.1925 22.1668 32.272 22.9006 32.576C23.6344 32.88 24.2617 33.3947 24.703 34.0552C25.1443 34.7156 25.3798 35.4921 25.3798 36.2864C25.3798 37.3515 24.9567 38.373 24.2035 39.1262C23.4503 39.8794 22.4288 40.3025 21.3637 40.3025ZM21.3637 33.3107C20.7752 33.3107 20.1999 33.4853 19.7105 33.8122C19.2212 34.1392 18.8398 34.6039 18.6146 35.1477C18.3893 35.6914 18.3304 36.2897 18.4452 36.8669C18.5601 37.4441 18.8435 37.9743 19.2596 38.3905C19.6758 38.8066 20.206 39.09 20.7832 39.2049C21.3604 39.3197 21.9587 39.2607 22.5024 39.0355C23.0462 38.8103 23.5109 38.4289 23.8379 37.9396C24.1648 37.4502 24.3394 36.8749 24.3394 36.2864C24.338 35.4976 24.024 34.7416 23.4663 34.1838C22.9085 33.6261 22.1525 33.3121 21.3637 33.3107Z" stroke="#826489" stroke-width="0.4" mask="url(#path-2-outside-1)"/>
<path d="M17.6962 30.637L16.8691 30.0076C18.0077 28.3286 19.0414 26.5808 19.9644 24.7742L20.9268 25.1799C19.9689 27.0668 18.8897 28.8896 17.6962 30.637Z" stroke="#826489" stroke-width="0.4" mask="url(#path-2-outside-1)"/>
</svg>
