<svg width="44" height="44" viewBox="0 0 44 44" fill="none" xmlns="http://www.w3.org/2000/svg">
<path d="M23.2148 43.5621C17.9749 43.5621 12.781 41.4162 8.96505 37.6741C4.46368 33.2603 2.58532 27.3237 3.8121 21.3871C4.25171 19.2604 5.49316 17.4316 7.30828 16.2382C9.1239 15.0443 11.2972 14.63 13.4214 15.0696C15.5719 15.5143 17.2575 16.6308 18.2961 18.2987C19.2993 19.9109 19.6064 21.8879 19.1845 24.0208C19.23 24.3081 19.5578 25.284 20.352 26.062C21.7382 27.4218 22.581 27.7436 23.9524 27.4325C23.9555 27.4319 23.9585 27.4314 23.9615 27.4304C26.0817 26.9498 28.2221 27.2878 29.9902 28.3805C31.7714 29.4813 33.0164 31.2529 33.4975 33.368C33.9791 35.4862 33.6073 37.6645 32.4498 39.5029C31.2928 41.3413 29.4888 42.6181 27.3707 43.0992C26.021 43.4063 24.6227 43.5621 23.2148 43.5621ZM11.7616 16.6702C10.5333 16.6702 9.33131 17.0274 8.28109 17.7174C6.86107 18.6513 5.88977 20.0814 5.54628 21.7458C4.44344 27.0814 6.1417 32.4261 10.205 36.4099C13.6926 39.8302 18.4342 41.7915 23.2148 41.7915C24.4907 41.7915 25.7569 41.6509 26.9776 41.3737C28.6344 40.9968 30.0453 39.9977 30.9509 38.5594C31.8559 37.1217 32.1468 35.4174 31.7704 33.7606C31.3955 32.1114 30.4323 30.7359 29.0588 29.887C27.7668 29.0882 26.2072 28.8115 24.6414 29.0983C23.3651 30.5725 20.216 32.6471 17.4756 30.6049C15.4252 29.0771 15.4212 26.491 17.4508 23.6596C18.1312 20.1831 16.4162 17.4974 13.0627 16.8043C12.6297 16.7137 12.1936 16.6702 11.7616 16.6702ZM18.1039 26.0145C17.5985 27.1107 17.423 28.3572 18.5339 29.1848C19.6377 30.0069 20.862 29.6852 21.8186 29.1317C20.8352 28.8358 19.9949 28.1928 19.1116 27.3267C18.7044 26.9266 18.3674 26.4703 18.1039 26.0145ZM17.3359 36.8708C15.7419 36.8708 14.1797 36.3042 12.8427 35.2236C11.2203 33.9129 10.122 31.9945 9.7512 29.8223C9.66874 29.3401 9.99301 28.8828 10.4746 28.8004C10.9562 28.7159 11.4135 29.0422 11.4965 29.5238C11.7955 31.2711 12.6686 32.806 13.9556 33.8466C15.2097 34.8594 16.7087 35.2782 18.1818 35.0278C18.6629 34.9423 19.1207 35.2696 19.2037 35.7512C19.2866 36.2328 18.9624 36.6902 18.4803 36.7731C18.0983 36.8384 17.7159 36.8708 17.3359 36.8708ZM31.7557 27.9576C31.3363 27.9576 30.9134 27.9151 30.4925 27.8281C28.8762 27.4937 27.4871 26.5502 26.5805 25.1706C25.6628 23.7739 25.3568 22.2623 25.6972 20.7993C26.023 19.4015 26.9063 18.1823 28.255 17.2672C28.3825 17.0674 28.6471 16.4694 28.6405 15.7829C28.6293 14.6087 28.424 14.0857 27.9818 13.6946C27.9545 13.6744 27.9292 13.6526 27.9044 13.6294C27.8113 13.5545 27.7086 13.4832 27.5963 13.4123C26.1986 12.5326 25.2283 11.1991 24.8651 9.65815C24.4988 8.1071 24.7816 6.48422 25.6603 5.08797C27.4764 2.20493 31.2989 1.33632 34.182 3.15144C35.0526 3.69932 35.8696 4.35242 36.6092 5.09253C39.3602 7.84354 40.9603 11.6959 40.9993 15.6615C41.0453 20.3506 38.9095 24.4614 35.1396 26.9392C34.1182 27.6105 32.9496 27.9576 31.7557 27.9576ZM28.4371 19.4071C27.9201 19.9378 27.5746 20.5448 27.4218 21.2009C27.1942 22.1803 27.4147 23.2164 28.0602 24.1983C28.7068 25.1828 29.6978 25.8556 30.8517 26.0944C32.0051 26.3322 33.1823 26.1075 34.1663 25.4605C37.4232 23.3196 39.2681 19.7546 39.2282 15.6797C39.1943 12.1729 37.7828 8.77133 35.3571 6.3451C34.7106 5.69858 33.9973 5.12845 33.2385 4.65038C31.1826 3.3543 28.4543 3.97553 27.1582 6.03196C26.535 7.02299 26.3321 8.1668 26.5881 9.25192C26.8446 10.3376 27.5376 11.2836 28.5403 11.9144C28.639 11.9771 28.7331 12.0409 28.8226 12.1056C31.4395 12.1942 32.766 13.4199 32.766 15.7521C32.7655 17.078 32.1923 19.2755 28.4371 19.4071ZM30.2295 14.1449C30.359 14.6411 30.405 15.1814 30.4106 15.7657C30.4156 16.2868 30.3246 16.8078 30.1794 17.2652C30.8649 16.9014 30.9944 16.3227 30.9944 15.7521C30.9949 14.8845 30.7323 14.4029 30.2295 14.1449ZM36.3097 19.6605C36.1327 19.6605 35.9546 19.6079 35.7993 19.4981C35.4001 19.2153 35.3055 18.6629 35.5878 18.2643C37.0367 16.2175 36.7883 13.5418 35.0339 12.2994C34.6352 12.0171 34.5406 11.4647 34.8234 11.0655C35.1057 10.6669 35.6576 10.5723 36.0573 10.8551C38.608 12.6611 39.0455 16.4441 37.0331 19.2872C36.8606 19.5305 36.5874 19.6605 36.3097 19.6605ZM6.79025 15.5932C6.73207 15.5932 6.67339 15.5922 6.6142 15.5902C5.33785 15.5457 4.15509 15.0064 3.28395 14.072C2.41282 13.1371 1.95803 11.92 2.00305 10.6436C2.03037 9.87113 2.14571 9.09257 2.34705 8.3302C2.34705 8.3302 2.34705 8.32969 2.34756 8.32969C3.09526 5.5028 4.99284 3.00726 7.55414 1.48404C10.59 -0.322477 14.078 -0.48689 17.1209 1.03026C18.2648 1.59989 19.1172 2.5808 19.5229 3.7924C19.9286 5.004 19.8381 6.30058 19.2674 7.44389C18.6897 8.60338 17.7928 9.39812 16.6732 9.74263C15.621 10.0669 14.4777 9.95865 13.3577 9.43303C13.1831 9.43708 12.7946 9.49525 12.443 9.70418C11.5592 10.2303 11.4535 10.5328 11.4353 11.0534C11.3908 12.3292 10.8758 13.4973 9.98542 14.3416C9.12947 15.1521 8.00033 15.5932 6.79025 15.5932ZM4.05846 8.78195C3.89152 9.41735 3.7949 10.0644 3.77264 10.7058C3.74431 11.5097 4.03115 12.2761 4.57953 12.865C5.12791 13.4538 5.87257 13.7928 6.67693 13.8211C7.45802 13.853 8.21735 13.5778 8.76776 13.0562C9.24329 12.6049 9.54632 11.9974 9.63839 11.3195C9.40619 10.8859 9.05207 10.029 8.96303 9.11179C8.82846 7.73123 9.33283 6.63497 10.3831 6.02386C11.925 5.12794 13.6511 5.91307 15.0529 8.12228C15.4369 8.17843 15.8077 8.15516 16.1537 8.04893C16.7982 7.85062 17.3273 7.3675 17.6835 6.65268C18.0427 5.9323 18.0998 5.1163 17.8444 4.35343C17.5889 3.59055 17.0516 2.97287 16.3318 2.61419C13.8367 1.37022 10.9679 1.51288 8.45917 3.00474C6.29246 4.29424 4.6893 6.39923 4.05846 8.78195ZM11.6523 7.45046C11.5233 7.45046 11.3958 7.48233 11.2724 7.55417C11.107 7.65029 10.6841 7.89665 10.7129 8.7597C10.9552 8.55127 11.2324 8.36359 11.5385 8.18147C11.8193 8.01452 12.139 7.8835 12.4592 7.79497C12.1997 7.59059 11.923 7.45046 11.6523 7.45046ZM7.09226 8.04033C7.06596 8.04033 7.03965 8.03931 7.01233 8.03678C6.52567 7.99328 6.16598 7.56277 6.20949 7.07611C6.42652 4.65747 8.78395 2.88939 11.4672 3.12311C11.9543 3.16662 12.314 3.59713 12.2705 4.08328C12.227 4.57045 11.799 4.93014 11.3103 4.88663C9.59943 4.73436 8.10302 5.7866 7.97352 7.23445C7.93254 7.69379 7.54604 8.04033 7.09226 8.04033Z" fill="#826489"/>
</svg>
