<svg width="44" height="45" viewBox="0 0 44 45" fill="none" xmlns="http://www.w3.org/2000/svg">
<path d="M19.1396 28.5205C19.5434 27.9522 19.82 27.2866 19.9322 26.5613L20.6725 23.8768L17.988 24.6171C17.2701 24.7293 16.6196 25.0059 16.0513 25.4023C15.954 24.6395 15.6774 23.8992 15.1988 23.2487L13.8229 20.8259L12.447 23.2487C11.2505 24.8938 11.2505 27.0847 12.447 28.7298L13.5163 30.6217L13.5013 30.6666L13.3967 30.7264L13.4789 30.7713L13.3667 31.1826L13.778 31.0704L13.8229 31.1526L13.8902 31.0405L13.9276 31.033L15.8194 32.1098C16.6196 32.6931 17.5692 32.9996 18.5563 32.9996C19.5508 32.9996 20.493 32.6931 21.2932 32.1098L23.7159 30.7339L21.2932 29.358C20.665 28.8869 19.9173 28.6102 19.1396 28.5205ZM13.9799 27.8774L13.8378 28.1167L13.6958 27.8774C12.8583 26.7482 12.8583 25.2303 13.6958 24.1011L13.8378 23.8618L13.9799 24.1011C14.8174 25.2303 14.8174 26.7482 13.9799 27.8774ZM15.797 28.9691L15.5203 29.0364L15.5876 28.7598C15.797 27.3689 16.8663 26.2996 18.2572 26.0902L18.5264 26.0229L18.4591 26.2921C18.2572 27.6904 17.1804 28.7598 15.797 28.9691ZM20.4631 30.8685C19.3639 31.6836 17.7861 31.6836 16.6869 30.8685L16.4476 30.7264L16.6869 30.5843C17.7861 29.7693 19.3639 29.7693 20.4631 30.5843L20.7024 30.7264L20.4631 30.8685Z" fill="#826489"/>
<path d="M15.4007 22.7401C15.5502 22.8897 15.7372 22.957 15.9316 22.957C16.126 22.957 16.313 22.8822 16.4625 22.7401L19.0872 20.1154C19.3788 19.8238 19.3788 19.3527 19.0872 19.0611C18.7956 18.7694 18.3245 18.7694 18.0329 19.0611L15.4082 21.6858C15.1091 21.9699 15.1091 22.441 15.4007 22.7401Z" fill="#826489"/>
<path d="M17.9057 23.4056C18.0553 23.5552 18.2422 23.6225 18.4367 23.6225C18.6311 23.6225 18.818 23.5477 18.9676 23.4056L22.2503 20.1229C22.5419 19.8313 22.5419 19.3602 22.2503 19.0685C21.9587 18.7769 21.4876 18.7769 21.1959 19.0685L17.9132 22.3513C17.6141 22.6429 17.6141 23.114 17.9057 23.4056Z" fill="#826489"/>
<path d="M24.6133 21.985L21.3305 25.2677C21.0389 25.5593 21.0389 26.0304 21.3305 26.3221C21.4801 26.4716 21.667 26.5389 21.8615 26.5389C22.0559 26.5389 22.2428 26.4641 22.3924 26.3221L25.6751 23.0393C25.9667 22.7477 25.9667 22.2766 25.6751 21.985C25.3835 21.6933 24.9049 21.6933 24.6133 21.985Z" fill="#826489"/>
<path d="M21.3754 23.0916C21.525 23.2411 21.7119 23.3084 21.9063 23.3084C22.1007 23.3084 22.2877 23.2337 22.4372 23.0916L25.3909 20.1379C25.6826 19.8462 25.6826 19.3752 25.3909 19.0835C25.0993 18.7919 24.6282 18.7919 24.3366 19.0835L21.3829 22.0372C21.0838 22.3289 21.0838 22.8 21.3754 23.0916Z" fill="#826489"/>
<path d="M24.3665 25.4022L21.7418 28.0269C21.4502 28.3185 21.4502 28.7896 21.7418 29.0812C21.8914 29.2308 22.0783 29.2981 22.2727 29.2981C22.4672 29.2981 22.6541 29.2233 22.8037 29.0812L25.4283 26.4565C25.72 26.1649 25.72 25.6938 25.4283 25.4022C25.1367 25.1105 24.6581 25.1105 24.3665 25.4022Z" fill="#826489"/>
<path d="M7.02676 28.9969L5.96926 30.0544L7.02676 31.1119L8.08426 30.0544L7.02676 28.9969Z" fill="#826489"/>
<path d="M8.61322 30.584L7.55602 31.642L8.61397 32.6992L9.67117 31.6412L8.61322 30.584Z" fill="#826489"/>
<path d="M10.2014 32.164L9.14392 33.2215L10.2014 34.279L11.2589 33.2215L10.2014 32.164Z" fill="#826489"/>
<path d="M11.7863 33.7501L10.7288 34.8076L11.7863 35.8651L12.8438 34.8076L11.7863 33.7501Z" fill="#826489"/>
<path d="M13.3715 35.3367L12.314 36.3942L13.3715 37.4517L14.429 36.3942L13.3715 35.3367Z" fill="#826489"/>
<path d="M13.9033 37.9813L14.9608 39.0388L16.0183 37.9813L14.9608 36.9238L13.9033 37.9813Z" fill="#826489"/>
<path d="M18.2796 11.0748C17.3673 12.9069 16.1634 14.5669 14.7202 16.0176L4.21399 26.5164L0.0713167 28.4008L0.0189725 28.8195C-0.0931937 29.7468 0.295649 30.7862 1.08829 31.676C1.76876 32.4462 2.62871 32.9472 3.44378 33.0743C3.51856 33.7773 3.81767 34.4129 4.28876 34.884C4.75986 35.3551 5.38799 35.6542 6.09838 35.7289C6.17316 36.4244 6.47227 37.06 6.94336 37.5311C7.41446 38.0022 8.04259 38.3013 8.75298 38.3761C8.83523 39.0715 9.12687 39.7071 9.59796 40.1782C10.0691 40.6568 10.7047 40.9484 11.4151 41.0307C11.5272 41.7635 11.946 42.5262 12.5965 43.1768C13.4041 43.9844 14.4361 44.4704 15.3633 44.4704C15.468 44.4704 15.5727 44.463 15.6774 44.4555L16.0961 44.4031L17.9581 40.2829L28.4643 29.7617C29.915 28.311 31.575 27.1146 33.4071 26.2023L35.6953 25.0582L19.4237 8.78663L18.2796 11.0748ZM19.835 11.3066L33.1753 24.6469L32.7416 24.8638C30.7675 25.8508 28.9728 27.1445 27.41 28.7073L17.0757 39.0416L16.5448 38.5107L15.4904 39.565L16.2756 40.3502L15.0941 42.9524C14.623 42.8702 14.0846 42.5636 13.6434 42.1224C13.1648 41.6438 12.8732 41.0755 12.8732 40.6418C12.8732 40.3577 12.761 40.081 12.5591 39.8791C12.3573 39.6772 12.0806 39.5576 11.7889 39.5576C11.3253 39.5576 10.9365 39.408 10.6523 39.1238C10.3682 38.8397 10.2261 38.4434 10.2261 37.9797C10.2261 37.6881 10.1139 37.4114 9.91951 37.2095C9.72508 37.0076 9.44841 36.8955 9.14182 36.8955C8.6782 36.8955 8.28936 36.7459 8.0052 36.4618C7.72105 36.1776 7.57897 35.7813 7.57897 35.3177C7.57897 35.026 7.46681 34.7494 7.27238 34.5549C7.07049 34.353 6.80129 34.2409 6.4947 34.2409C6.03108 34.2409 5.64224 34.0913 5.35808 33.8072C5.07393 33.523 4.93185 33.1267 4.93185 32.6631C4.93185 32.3864 4.81968 32.1097 4.61779 31.9078C4.41589 31.7059 4.13921 31.5863 3.85506 31.5863C3.36152 31.5863 2.72592 31.2199 2.22491 30.659C1.8585 30.2403 1.61173 29.7767 1.53695 29.3654L5.09636 27.7427L4.40093 28.4381L5.45529 29.4925L6.51713 28.4381L5.46277 27.3838L5.41043 27.4436L15.7821 17.072C17.3449 15.5091 18.6386 13.7219 19.6256 11.7403L19.835 11.3066Z" fill="#826489"/>
<path d="M31.1828 1.93859L30.1414 0.865082L21.226 9.5135L22.2673 10.587L31.1828 1.93859Z" fill="#826489"/>
<path d="M33.8955 22.228L34.9804 23.2574L43.1691 14.6273L42.0843 13.5979L33.8955 22.228Z" fill="#826489"/>
<path d="M23.8628 12.1618L34.9666 1.05805L33.9091 0.000547767L22.8053 11.1043L23.8628 12.1618Z" fill="#826489"/>
<path d="M25.45 13.7475L38.14 1.0575L37.0825 0L24.3925 12.69L25.45 13.7475Z" fill="#826489"/>
<path d="M27.032 15.3351L40.2508 2.11636L39.1933 1.05886L25.9745 14.2776L27.032 15.3351Z" fill="#826489"/>
<path d="M28.6205 16.9207L41.8393 3.70191L40.7818 2.64441L27.563 15.8632L28.6205 16.9207Z" fill="#826489"/>
<path d="M29.149 17.4465L30.2065 18.504L42.8965 5.81402L41.839 4.75652L29.149 17.4465Z" fill="#826489"/>
<path d="M30.7366 19.039L31.7941 20.0965L43.9554 7.93526L42.8979 6.87776L30.7366 19.039Z" fill="#826489"/>
<path d="M32.3182 20.6334L33.3887 21.6777L43.9105 10.8923L42.84 9.84794L32.3182 20.6334Z" fill="#826489"/>
</svg>
