<svg width="44" height="44" viewBox="0 0 44 44" fill="none" xmlns="http://www.w3.org/2000/svg">
<path d="M9.73039 23.4229C13.0176 20.7048 14.9032 16.5823 14.9032 12.1135V10.6452H13.4839V12.1135C13.4839 16.1579 11.7863 19.8809 8.82626 22.3293C7.64181 23.3101 6.6653 24.5626 6.00246 25.9522L7.28342 26.5632C7.85755 25.3582 8.7042 24.2724 9.73039 23.4229Z" fill="#826489"/>
<path d="M14.9032 7.80645H13.4839V9.22581H14.9032V7.80645Z" fill="#826489"/>
<path d="M15.6129 39.742V41.1613C17.6213 41.1613 18.9228 40.5752 19.5197 40.226L18.8029 39.0004C18.4218 39.2239 17.3488 39.742 15.6129 39.742Z" fill="#826489"/>
<path d="M2.83871 34.0645H4.25806C4.25806 33.2817 4.89464 32.6452 5.67742 32.6452V31.2258C4.11187 31.2258 2.83871 32.499 2.83871 34.0645Z" fill="#826489"/>
<path d="M27.4688 24.129C26.6754 22.6614 25.6378 21.3577 24.3568 20.2663C21.9567 18.2224 20.5806 15.3638 20.5806 12.4236V4.25806C21.3634 4.25806 22 3.62148 22 2.83871V1.41935C22 0.636581 21.3634 0 20.5806 0H10.6452C9.86239 0 9.22581 0.636581 9.22581 1.41935V2.83871C9.22581 3.62148 9.86239 4.25806 10.6452 4.25806V7.37284C9.95323 7.194 9.24142 7.09677 8.51613 7.09677C3.82019 7.09677 0 10.917 0 15.6129C0 18.717 1.70606 21.577 4.39645 23.0666C3.10555 25.0062 2.32348 27.2608 2.16665 29.612C0.849484 30.6524 0 32.2598 0 34.0645C0 35.8266 0.814 37.4461 2.16452 38.5106C0.840968 39.6816 0 41.3877 0 43.2903V44H6.3871C7.80361 44 9.16335 43.5352 10.2754 42.68C11.6621 43.5004 13.5265 44 15.6129 44C16.9003 44 18.101 43.807 19.1613 43.4699V44H31.9355C38.588 44 44 38.588 44 31.9355V24.129H27.4688ZM42.5806 25.5484V31.9092C39.3644 31.7779 35.9366 30.8007 32.885 29.9207C30.1478 29.1323 27.5625 28.3871 25.5484 28.3871C22.4918 28.3871 19.822 29.084 18.4516 29.5183V25.5484H42.5806ZM10.6452 1.41935H20.5806L20.5814 2.83871H10.6452V1.41935ZM7.46723 19.7226C5.61284 19.2479 4.25806 17.5645 4.25806 15.6129C4.25806 13.2646 6.16781 11.3548 8.51613 11.3548C9.27264 11.3548 9.99864 11.5628 10.6452 11.9382V12.1135C10.6452 15.0892 9.48697 17.82 7.46723 19.7226ZM1.41935 15.6129C1.41935 11.6997 4.60297 8.51613 8.51613 8.51613C9.24568 8.51613 9.9589 8.6311 10.6452 8.84755V10.3655C9.97239 10.0923 9.25632 9.93548 8.51613 9.93548C5.38574 9.93548 2.83871 12.4825 2.83871 15.6129C2.83871 17.9108 4.24174 19.9448 6.27284 20.8255C5.91658 21.1683 5.57948 21.5274 5.2651 21.9049C2.92387 20.6921 1.41935 18.2657 1.41935 15.6129ZM7.92213 21.235C10.555 19.0577 12.0645 15.7328 12.0645 12.1135V4.25806H19.1613V12.4236C19.1613 15.7804 20.7197 19.0328 23.4364 21.3471C24.3845 22.1547 25.1893 23.0879 25.8422 24.129H17.0323V31.9355C17.0323 32.6877 17.1025 33.4357 17.2402 34.1695C16.7165 34.1014 16.1728 34.0645 15.6129 34.0645C14.0012 34.0645 12.5208 34.3619 11.2903 34.875C11.3293 34.6067 11.3548 34.3363 11.3548 34.0645C11.3548 30.9341 8.80781 28.3871 5.67742 28.3871C4.97555 28.3871 4.30561 28.5212 3.68464 28.7554C4.11755 25.8358 5.62135 23.1383 7.92213 21.235ZM1.41935 34.0645C1.41935 31.7162 3.3291 29.8064 5.67742 29.8064C8.02574 29.8064 9.93548 31.7162 9.93548 34.0645C9.93548 34.7103 9.78929 35.3263 9.51252 35.9019C9.12858 36.2063 8.80568 36.5434 8.5431 36.9032H6.3871C5.30697 36.9032 4.29 37.175 3.39723 37.6505C2.17232 36.8713 1.41935 35.5335 1.41935 34.0645ZM1.46974 42.5806C1.81535 40.1763 3.88832 38.3226 6.3871 38.3226H7.89161C7.84123 38.5546 7.80645 38.7903 7.80645 39.0323C7.80645 40.0585 8.27413 41.0009 9.08103 41.7844C8.28335 42.3003 7.35297 42.5806 6.3871 42.5806H1.46974ZM9.22581 39.0323C9.22581 37.109 12.1511 35.4839 15.6129 35.4839C19.0747 35.4839 22 37.109 22 39.0323C22 40.9555 19.0747 42.5806 15.6129 42.5806C12.1511 42.5806 9.22581 40.9555 9.22581 39.0323ZM21.1228 42.5806C22.5472 41.6857 23.4194 40.436 23.4194 39.0323C23.4194 38.9606 23.4073 38.891 23.403 38.8201C24.0701 38.5 24.8018 38.3226 25.5484 38.3226H29.0464C28.7008 40.727 26.6278 42.5806 24.129 42.5806H21.1228ZM31.9355 42.5806H28.1302C29.409 41.5488 30.2869 40.04 30.4771 38.3226H30.5161V36.9032H25.5484C24.6726 36.9032 23.8104 37.0885 23.0141 37.4334C22.3201 36.0935 20.7737 35.024 18.7589 34.4733C18.5566 33.6472 18.4516 32.7949 18.4516 31.9355V31.0143C19.5048 30.6538 22.3222 29.8064 25.5484 29.8064C27.3623 29.8064 29.854 30.5246 32.4919 31.2847C35.6081 32.1832 39.1075 33.1803 42.4792 33.3257C41.7943 38.5397 37.3333 42.5806 31.9355 42.5806Z" fill="#826489"/>
<path d="M36.1936 34.0645C35.0197 34.0645 34.0645 35.0197 34.0645 36.1936C34.0645 37.3674 35.0197 38.3226 36.1936 38.3226C37.3674 38.3226 38.3226 37.3674 38.3226 36.1936C38.3226 35.0197 37.3674 34.0645 36.1936 34.0645ZM36.1936 36.9032C35.8025 36.9032 35.4839 36.5853 35.4839 36.1936C35.4839 35.8018 35.8025 35.4839 36.1936 35.4839C36.5846 35.4839 36.9032 35.8018 36.9032 36.1936C36.9032 36.5853 36.5846 36.9032 36.1936 36.9032Z" fill="#826489"/>
<path d="M25.5484 31.2258C24.3746 31.2258 23.4194 32.181 23.4194 33.3548C23.4194 34.5286 24.3746 35.4839 25.5484 35.4839C26.7222 35.4839 27.6774 34.5286 27.6774 33.3548C27.6774 32.181 26.7222 31.2258 25.5484 31.2258ZM25.5484 34.0645C25.1574 34.0645 24.8387 33.7466 24.8387 33.3548C24.8387 32.9631 25.1574 32.6452 25.5484 32.6452C25.9394 32.6452 26.2581 32.9631 26.2581 33.3548C26.2581 33.7466 25.9394 34.0645 25.5484 34.0645Z" fill="#826489"/>
</svg>
