<svg width="44" height="45" viewBox="0 0 44 45" fill="none" xmlns="http://www.w3.org/2000/svg">
<path d="M34.9099 26.7971C34.3204 21.3082 31.9575 17.6075 29.4564 13.6892C28.8054 12.6695 28.1316 11.6144 27.4736 10.5039C25.7224 7.55202 25.0883 5.16514 24.625 3.42216C24.1372 1.58673 23.7157 0.00146484 21.9918 0.00146484C20.2678 0.00146484 19.8458 1.58673 19.358 3.42271C18.8946 5.16569 18.26 7.55256 16.5099 10.5039C15.8263 11.6563 15.1243 12.7445 14.445 13.7968C11.9515 17.6597 9.59621 21.3082 9.0725 26.8085C8.44275 33.421 11.9668 39.3787 17.6465 41.3267L17.4372 41.8504C17.2702 42.2686 17.4736 42.7433 17.8924 42.9103C17.9913 42.95 18.0941 42.9685 18.1947 42.9685C18.5189 42.9685 18.825 42.7743 18.9528 42.4551L19.2476 41.7177C19.4831 41.7579 19.7207 41.7922 19.9584 41.8216L19.8719 42.6329C19.8246 43.0811 20.1487 43.483 20.5968 43.5303C20.6262 43.5335 20.655 43.5346 20.6844 43.5346C21.0961 43.5346 21.4501 43.2235 21.4947 42.8053L21.5855 41.951C21.7269 41.9553 21.8656 41.9586 21.9934 41.9586C22.1212 41.9586 22.2599 41.9553 22.4013 41.951L22.4921 42.8053C22.5367 43.2241 22.8902 43.5352 23.3024 43.5352C23.3312 43.5352 23.36 43.5341 23.3894 43.5308C23.8375 43.4835 24.1622 43.0816 24.1143 42.6335L24.0284 41.8216C24.2661 41.7916 24.5037 41.7574 24.7387 41.7177L25.0334 42.4551C25.1607 42.7743 25.4674 42.9685 25.7915 42.9685C25.8921 42.9685 25.9944 42.9495 26.0939 42.9103C26.5126 42.7433 26.716 42.2686 26.5491 41.8504L26.3402 41.3267C32.0945 39.3531 35.618 33.3911 34.9099 26.7971ZM25.922 39.5065C29.9997 34.4836 28.509 25.3581 28.1088 23.3166C27.5454 20.4457 26.7394 17.7233 25.7132 15.2249C25.5593 14.8497 25.1291 14.6697 24.7555 14.8247C24.3803 14.9786 24.2008 15.4077 24.3553 15.7824C25.345 18.1926 26.1232 20.822 26.6682 23.5989C27.8211 29.4777 27.5454 37.1538 23.1561 40.053C22.7352 40.0894 22.3311 40.1096 21.9918 40.1096C21.6573 40.1096 21.2598 40.0894 20.8454 40.0541C16.4534 37.1555 16.1782 29.4782 17.3322 23.5983C17.8755 20.8242 18.6537 18.1948 19.6451 15.7824C19.7996 15.4077 19.6201 14.978 19.2454 14.8241C18.8702 14.6691 18.4411 14.8491 18.2872 15.2238C17.2593 17.7255 16.4528 20.4479 15.8916 23.3155C15.4908 25.3581 13.998 34.4929 18.0843 39.5141C13.3144 37.7858 10.3717 32.6743 10.9134 26.9831C11.3947 21.9315 13.5281 18.6261 15.9987 14.7991C16.6872 13.7327 17.3991 12.6292 18.1006 11.4469C19.9812 8.27477 20.6822 5.64045 21.1456 3.89747C21.5154 2.50581 21.7198 1.85049 21.9923 1.85049C22.2648 1.85049 22.4687 2.50581 22.839 3.89693C23.3024 5.64045 24.0028 8.27423 25.884 11.4469C26.5583 12.5835 27.2397 13.6516 27.8994 14.6844C30.3836 18.576 32.5296 21.9369 33.0729 26.9945C33.6792 32.6498 30.7453 37.7499 25.922 39.5065Z" fill="#826489"/>
</svg>
