<svg width="44" height="45" viewBox="0 0 44 45" fill="none" xmlns="http://www.w3.org/2000/svg">
<path d="M6.78657 30.0603L5.21518 31.0309C6.13953 32.5561 7.24875 33.9888 8.54284 35.2829C9.79072 36.577 11.2235 37.6863 12.7486 38.6568L13.7192 37.0854C12.3327 36.2073 11.0386 35.1443 9.83694 33.9888C8.6815 32.7872 7.66471 31.4931 6.78657 30.0603Z" fill="#826489"/>
<path d="M42.1893 14.9934C41.0339 14.0229 39.1851 14.6237 38.8616 14.7161L37.9373 14.9934L38.6768 12.4977L39.2776 10.5566C40.1557 7.92215 40.0633 6.11967 39.0003 5.05666C37.9373 3.99366 36.0886 3.85501 33.4079 4.68693L28.1854 6.25832C27.8618 6.35076 27.5383 6.4432 27.2148 6.58185L27.9543 3.02309V2.93065C28.0929 1.59034 27.5845 0.850864 27.1686 0.527341C26.2904 -0.165923 24.9039 -0.165926 22.9165 0.481121L18.6645 2.14496C14.5974 3.76257 11.0848 6.53563 8.58909 10.1868L0.547216 22.4345C-0.377136 23.821 -0.0998292 25.7159 1.14805 26.7789L3.6438 28.8587L2.02618 30.8923C0.732085 32.5099 0.870741 34.867 2.30349 36.2998L7.66473 41.661C8.45043 42.4467 9.46722 42.8627 10.5302 42.8627C11.4084 42.8627 12.3327 42.5854 13.0722 41.9845L15.6604 39.951L18.5721 42.8627C19.2191 43.5097 20.0048 43.787 20.8368 43.787C21.53 43.787 22.2695 43.5559 22.8703 43.0938L34.1936 34.1738C37.5213 31.4007 39.9246 27.7495 41.1725 23.6361L42.9288 17.8127L42.975 17.7203C43.1136 16.1489 42.6515 15.3632 42.1893 14.9934ZM39.4162 16.4724C39.9246 16.2875 40.7565 16.1951 40.9876 16.38C41.0801 16.4724 41.1725 16.7497 41.0801 17.2581L40.3406 19.7539C39.1389 19.2455 37.8911 18.922 36.597 18.8295C36.828 18.2749 37.0591 17.6741 37.2902 17.0732L39.4162 16.4724ZM33.8701 6.39697C34.9793 6.07345 35.8113 5.93479 36.3659 5.93479C37.1053 5.93479 37.4751 6.11967 37.6137 6.30454C37.891 6.58185 38.2608 7.45998 37.4289 9.95573L37.0129 11.3423C35.8575 10.7876 34.4247 10.5103 32.9458 10.7414C33.0382 9.26247 32.6685 7.87593 32.2987 6.85915L33.8701 6.39697ZM28.6937 7.96838L30.5425 7.41376C30.9584 8.47677 31.4206 10.1406 30.9584 11.712L30.4038 13.5145L32.1601 12.8674C33.7315 12.2666 35.4415 12.5901 36.5045 13.191L35.9037 15.2245C35.3953 16.9808 34.6558 18.6909 33.7777 20.3085C33.4079 20.216 32.992 20.1236 32.6222 20.0774C33.4542 18.4136 33.8701 16.9346 34.0088 16.1489L32.2063 15.8254C32.0676 16.6573 31.6517 18.1825 30.6811 19.8925C28.1853 19.7076 25.5972 20.0312 23.0552 20.7244C23.1938 20.216 23.3325 19.7076 23.4249 19.153L27.1686 18.0438L26.614 16.2875L23.7485 17.1657C23.7947 16.7035 23.8409 16.2876 23.8871 15.8254L27.5383 14.7161L26.9837 12.9599L23.8871 13.8842C23.8871 13.4683 23.8409 13.0523 23.7947 12.6363L27.8618 11.3885L27.3072 9.6322L23.5174 10.7876C23.4712 10.6028 23.4249 10.4179 23.4249 10.233C25.0888 9.26247 26.845 8.52299 28.6937 7.96838ZM19.1729 3.855C19.404 4.96422 19.3578 6.11968 19.1267 7.27512L20.9292 7.69107C21.2989 6.16589 21.2989 4.59448 20.9292 3.16174L23.4712 2.14496C25.4123 1.49791 25.9207 1.82143 25.9669 1.86765C26.1056 1.96008 26.1518 2.23739 26.1056 2.60713L25.135 7.27512C22.0384 8.56921 19.1729 10.4179 16.6772 12.7288C16.862 10.2793 16.4923 7.87594 15.7066 5.61128C16.8158 4.96423 17.9713 4.3634 19.1729 3.855ZM2.25727 25.3C1.70266 24.8378 1.61022 24.0059 1.97997 23.4051L10.0218 11.1574C11.1773 9.49356 12.5638 8.0146 14.1352 6.76672C14.9671 9.35491 15.1058 12.128 14.5049 14.9472H14.5512C14.3663 15.1321 14.1814 15.3632 13.9965 15.5481L4.7068 27.3336L2.25727 25.3ZM11.8705 40.4594C10.9924 41.1526 9.69831 41.1064 8.91261 40.3207L3.55136 34.9595C2.76566 34.1738 2.67323 32.8797 3.41271 32.0015L15.4293 16.7497C17.2318 14.5775 19.3578 12.6826 21.7149 11.1574C22.3157 14.3926 21.9922 17.8589 20.8368 21.3715C17.0931 22.758 13.4882 25.0689 10.3916 28.1192L11.6857 29.4134C17.6477 23.4513 25.782 20.632 32.7609 21.9723C31.2357 24.3756 29.3408 26.5479 27.1223 28.3966L11.8705 40.4594ZM32.9458 32.6486L21.6687 41.5224C21.1141 41.9845 20.2821 41.9383 19.82 41.4299L17.0931 38.7031L28.3702 29.8293C28.9248 29.3671 29.4332 28.905 29.9416 28.4428C32.2525 27.7495 34.702 27.7033 36.9667 28.2117C35.8575 29.8755 34.5172 31.4007 32.9458 32.6486ZM37.8911 26.5479C35.9961 26.0395 34.055 25.9008 32.0676 26.1319C33.4542 24.4681 34.702 22.6194 35.6726 20.6782C37.0591 20.632 38.4457 20.9555 39.7398 21.5101L39.2776 22.9891C38.9541 24.2832 38.4919 25.4386 37.8911 26.5479Z" fill="#826489"/>
</svg>
