<svg width="44" height="45" viewBox="0 0 44 45" fill="none" xmlns="http://www.w3.org/2000/svg">
<path d="M37.7564 7.42848C36.6475 5.58005 34.9103 4.21748 32.8652 3.5918C31.5302 3.18339 30.1563 3.10155 28.8294 3.3332C28.6114 3.05589 28.3772 2.78927 28.1243 2.53729C26.597 1.01605 24.5796 0.119526 22.4436 0.0127918C20.0374 -0.107812 17.7549 0.737967 16.015 2.39317C15.7047 2.68822 15.4199 3.00205 15.1604 3.33147C13.8366 3.10198 12.4662 3.18442 11.1346 3.5918C9.08952 4.21748 7.35239 5.58005 6.24344 7.42848C5.13465 9.27674 4.74975 11.4505 5.15998 13.5511C5.17238 13.6142 5.18539 13.6769 5.19918 13.7404C5.59312 15.5461 5.67306 17.5205 5.43668 19.6086C5.29402 20.8685 5.38017 22.1355 5.69253 23.3745C6.04633 24.778 6.669 26.0684 7.54303 27.2097C8.60004 28.5897 9.33736 30.1164 9.73535 31.751L9.75164 31.8168C10.3388 34.1459 11.8148 36.0787 13.9077 37.2589C15.23 38.0045 16.683 38.3833 18.1552 38.3832C18.8662 38.3832 19.5817 38.2934 20.2889 38.1152C20.3809 39.6856 20.4934 41.2627 20.6265 42.8455C20.687 43.5648 21.2894 44.1084 21.9985 44.1084C22.0371 44.1084 22.0762 44.1068 22.1155 44.1035C22.8741 44.0397 23.4373 43.3731 23.3734 42.6145C23.2412 41.0423 23.1296 39.476 23.0385 37.9167C23.1177 37.9435 23.1966 37.9711 23.2768 37.9957C24.1244 38.2549 24.9876 38.3833 25.8448 38.3833C27.3168 38.3833 28.7701 38.0045 30.0922 37.259C32.1851 36.0787 33.6611 34.146 34.2487 31.8156L34.2655 31.7477C34.6626 30.1166 35.4 28.5898 36.4569 27.2098C37.331 26.0685 37.9536 24.7782 38.3074 23.3746C38.6198 22.1356 38.7059 20.8686 38.5633 19.6088C38.3269 17.5206 38.4068 15.5462 38.801 13.7394C38.8146 13.677 38.8276 13.6143 38.8402 13.5498C39.2501 11.4505 38.8652 9.27674 37.7564 7.42848ZM17.915 4.39046C19.0282 3.33156 20.4681 2.75834 21.9981 2.75834C22.1004 2.75834 22.2031 2.76093 22.3059 2.76601C23.76 2.83863 25.1354 3.45104 26.1787 4.49039C27.2221 5.52974 27.8401 6.90282 27.9188 8.35618C27.9212 8.40132 27.9231 8.44629 27.9245 8.491C27.9937 10.6403 28.4577 12.8709 29.3039 15.121C29.6331 15.9964 29.8 16.9195 29.8 17.8648C29.8 18.9353 29.5873 19.9719 29.1679 20.9457C28.3282 22.8956 27.9108 24.9307 27.9276 26.9948L27.9278 27.0433C27.9278 28.6828 27.2733 30.2084 26.0848 31.339C25.1718 32.2076 24.0387 32.7479 22.8165 32.9146C22.6806 28.44 22.7174 24.0328 22.9274 19.7185L26.3465 16.2116C26.8779 15.6666 26.8668 14.7939 26.3219 14.2626C25.7768 13.7312 24.9042 13.7422 24.3727 14.2873L23.1902 15.5002C23.246 14.7661 23.3064 14.0347 23.3726 13.3068C23.4415 12.5487 22.8828 11.8783 22.1247 11.8093C21.367 11.7405 20.696 12.2992 20.6272 13.0572C20.449 15.0172 20.3083 16.9996 20.2036 19.0013C20.2011 19.0279 20.2003 19.0546 20.1994 19.0813C20.1429 20.1722 20.0973 21.2688 20.0626 22.371L18.987 21.1456C18.4848 20.5735 17.614 20.517 17.0418 21.0191C16.4697 21.5213 16.4131 22.3922 16.9153 22.9643L19.9841 26.4601C19.9696 28.5044 19.9919 30.5652 20.0507 32.6403C19.2221 32.3499 18.4593 31.8748 17.8211 31.2392C16.7777 30.1998 16.1597 28.8267 16.0809 27.3726C16.0746 27.2555 16.0716 27.1362 16.0721 27.0181C16.0808 24.9198 15.6634 22.8767 14.8318 20.9455C14.4125 19.9717 14.1998 18.9352 14.1998 17.8646C14.1998 16.794 14.4125 15.7575 14.8318 14.7837C15.6716 12.8338 16.089 10.7987 16.0722 8.73462L16.072 8.68612C16.0721 7.04668 16.7265 5.52104 17.915 4.39046ZM15.2619 34.8577C13.8331 34.0519 12.8255 32.7327 12.425 31.1442L12.4129 31.0954C11.9246 29.0904 11.0224 27.2191 9.73139 25.5337C9.08668 24.6918 8.62709 23.7386 8.36546 22.7007C8.13433 21.7843 8.0705 20.8484 8.17577 19.9188C8.44618 17.5303 8.35073 15.254 7.89261 13.154C7.88296 13.1095 7.87374 13.0648 7.86522 13.0214C7.58619 11.5923 7.84962 10.1097 8.60728 8.84687C9.36493 7.58406 10.5489 6.65394 11.941 6.22804C12.5208 6.05066 13.1113 5.9628 13.6974 5.9628C13.7141 5.9628 13.7307 5.96348 13.7473 5.96357C13.4633 6.82899 13.3153 7.74472 13.3153 8.68638L13.3156 8.75762C13.3292 10.4364 12.9874 12.0972 12.2999 13.6935C11.7314 15.0137 11.4431 16.4172 11.4431 17.8648C11.4431 19.3125 11.7314 20.716 12.2999 22.036C12.9808 23.6172 13.3225 25.2896 13.3154 27.0069C13.3147 27.1783 13.319 27.3516 13.3282 27.5219C13.4439 29.6575 14.3486 31.6713 15.8757 33.1924C16.8141 34.1271 17.9382 34.8248 19.1606 35.2495C19.2303 35.3336 19.301 35.4167 19.3738 35.4979C17.9674 35.791 16.5263 35.5708 15.2619 34.8577ZM36.1349 13.0199C36.126 13.0647 36.1169 13.1094 36.1075 13.1528C35.6491 15.2538 35.5537 17.5302 35.8241 19.9188C35.9294 20.8482 35.8654 21.7841 35.6344 22.7006C35.3728 23.7385 34.9132 24.6917 34.2685 25.5336C32.9775 27.2191 32.0753 29.0904 31.5879 31.092L31.5753 31.1429C31.1745 32.7328 30.1668 34.052 28.7381 34.8578C27.4736 35.5708 26.0327 35.7911 24.6261 35.4979C24.6958 35.4201 24.7635 35.3404 24.8305 35.2599C25.9924 34.8606 27.0647 34.2118 27.985 33.3363C29.7259 31.6802 30.6846 29.4454 30.6846 27.0434L30.6844 26.9721C30.6708 25.2933 31.0125 23.6326 31.7 22.0362C32.2686 20.716 32.5568 19.3126 32.5568 17.8649C32.5568 16.5871 32.3305 15.3374 31.8843 14.1509C31.1446 12.1837 30.7394 10.2497 30.68 8.40236C30.678 8.33801 30.6752 8.2734 30.6716 8.20801C30.6299 7.43813 30.4842 6.68461 30.2452 5.96374C30.2643 5.96357 30.2834 5.96288 30.3026 5.96288C30.8885 5.96288 31.4792 6.05075 32.0589 6.22812C33.451 6.65403 34.635 7.58406 35.3927 8.84687C36.1503 10.1097 36.4137 11.5922 36.1349 13.0199Z" fill="#826489"/>
</svg>
