<svg width="44" height="45" viewBox="0 0 44 45" fill="none" xmlns="http://www.w3.org/2000/svg">
<path d="M8.71135 16.6284C8.4168 16.8591 8.36502 17.2849 8.5957 17.5794C8.82638 17.874 9.25216 17.9257 9.54671 17.6951L8.71135 16.6284ZM10.5101 17.0039C10.8229 16.7986 10.91 16.3786 10.7047 16.0658C10.4994 15.7531 10.0794 15.6659 9.76667 15.8712L10.5101 17.0039ZM3.70968 26.4045C3.70968 26.7787 4.01297 27.0819 4.3871 27.0819C4.76123 27.0819 5.06452 26.7787 5.06452 26.4045H3.70968ZM8.04291 19.0752C8.29753 18.8011 8.28173 18.3725 8.00762 18.1179C7.73351 17.8633 7.30488 17.879 7.05025 18.1532L8.04291 19.0752ZM12.2452 18.1474L12.7359 18.6144L12.7404 18.6096L12.2452 18.1474ZM12.3305 18.056L12.1662 17.3988L11.6429 17.5296L11.6532 18.069L12.3305 18.056ZM12.338 18.0533L12.5023 18.7104L12.6902 18.6635L12.8249 18.5242L12.338 18.0533ZM18.9123 13.8363L19.1449 14.4725L19.145 14.4725L18.9123 13.8363ZM24.6108 9.72709L24.0706 9.31833L24.0706 9.31836L24.6108 9.72709ZM27.1755 4.76567L27.8186 4.97856L27.8186 4.9784L27.1755 4.76567ZM27.7486 4.24203L27.5861 3.58439L27.5854 3.58454L27.7486 4.24203ZM29.0425 3.92229L28.8801 3.26462L28.8799 3.26465L29.0425 3.92229ZM30.0498 4.64848L29.3732 4.6824L29.3732 4.68283L30.0498 4.64848ZM30.9291 9.46154L31.5713 9.24597L31.5712 9.24577L30.9291 9.46154ZM35.9833 15.6579L36.3522 15.0897L36.3522 15.0897L35.9833 15.6579ZM13.6163 20.8111C13.3736 21.0958 13.4076 21.5234 13.6923 21.7661C13.977 22.0088 14.4045 21.9748 14.6473 21.6901L13.6163 20.8111ZM15.8285 20.4969C16.11 20.2504 16.1384 19.8225 15.892 19.541C15.6455 19.2595 15.2175 19.2311 14.9361 19.4776L15.8285 20.4969ZM12.4871 33.1693C12.6805 33.4895 13.097 33.5922 13.4172 33.3988C13.7374 33.2053 13.8401 32.7889 13.6467 32.4686L12.4871 33.1693ZM13.039 24.2542C13.1866 23.9104 13.0277 23.512 12.684 23.3643C12.3402 23.2167 11.9418 23.3756 11.7941 23.7193L13.039 24.2542ZM25.3871 39.8012C25.7612 39.8012 26.0645 39.4979 26.0645 39.1238C26.0645 38.7496 25.7612 38.4464 25.3871 38.4464V39.8012ZM17.0154 35.963C16.7064 35.7521 16.2849 35.8316 16.074 36.1406C15.8631 36.4496 15.9426 36.8711 16.2516 37.082L17.0154 35.963ZM31.9041 38.5052C32.2487 38.3596 32.41 37.9621 32.2643 37.6175C32.1186 37.2729 31.7211 37.1117 31.3765 37.2573L31.9041 38.5052ZM29.5832 37.8816C29.2227 37.9818 29.0117 38.3553 29.1119 38.7157C29.2121 39.0762 29.5855 39.2872 29.946 39.187L29.5832 37.8816ZM38.6636 32.4949C38.8344 32.162 38.7031 31.7537 38.3702 31.5829C38.0374 31.4121 37.6291 31.5434 37.4582 31.8763L38.6636 32.4949ZM34.9458 35.0453C34.6642 35.2916 34.6357 35.7196 34.8821 36.0011C35.1284 36.2827 35.5564 36.3112 35.838 36.0649L34.9458 35.0453ZM31.905 17.0372C31.5604 16.8914 31.1629 17.0526 31.0171 17.3972C30.8714 17.7417 31.0325 18.1392 31.3771 18.285L31.905 17.0372ZM38.466 27.7716C38.466 28.1457 38.7693 28.449 39.1434 28.449C39.5176 28.449 39.8209 28.1457 39.8209 27.7716H38.466ZM20.6757 16.3976C20.3162 16.5013 20.1088 16.8767 20.2124 17.2362C20.316 17.5957 20.6914 17.8031 21.0509 17.6995L20.6757 16.3976ZM27.187 17.196C27.5588 17.2379 27.8941 16.9705 27.936 16.5988C27.9779 16.227 27.7105 15.8916 27.3388 15.8497L27.187 17.196ZM24.8129 27.7325C24.7918 27.3589 24.4718 27.0733 24.0983 27.0944C23.7247 27.1156 23.4391 27.4356 23.4602 27.8091L24.8129 27.7325ZM26.6376 32.1855L26.9787 31.6002L26.9787 31.6002L26.6376 32.1855ZM29.1386 32.8162L29.3854 32.1853L29.3852 32.1852L29.1386 32.8162ZM31.6603 36.275C31.8289 36.6089 32.2364 36.7429 32.5703 36.5742C32.9043 36.4056 33.0383 35.9981 32.8696 35.6642L31.6603 36.275ZM23.1459 18.4596C23.2281 18.0946 22.9989 17.7321 22.6339 17.6499C22.2689 17.5676 21.9064 17.7969 21.8242 18.1618L23.1459 18.4596ZM22.8921 22.2784L23.4273 21.863L23.4271 21.8627L22.8921 22.2784ZM24.4522 23.9204L23.8889 24.2967L23.889 24.2969L24.4522 23.9204ZM24.597 26.1492C24.6565 26.5186 25.0042 26.7697 25.3736 26.7102C25.7429 26.6507 25.9941 26.303 25.9346 25.9337L24.597 26.1492ZM24.5688 34.1874C24.2807 33.9487 23.8537 33.9887 23.615 34.2768C23.3763 34.5649 23.4163 34.9919 23.7043 35.2306L24.5688 34.1874ZM26.0124 35.9704L25.544 36.4599L25.5441 36.4599L26.0124 35.9704ZM26.633 38.1118C26.7707 38.4596 27.1644 38.63 27.5122 38.4923C27.8601 38.3545 28.0304 37.9609 27.8927 37.613L26.633 38.1118ZM19.9123 33.6489C20.0234 34.0061 20.4031 34.2057 20.7604 34.0945C21.1176 33.9834 21.3171 33.6037 21.206 33.2465L19.9123 33.6489ZM21.1844 30.2943L20.7179 29.8031L20.7177 29.8033L21.1844 30.2943ZM22.5688 30.3277C22.9356 30.2537 23.1729 29.8964 23.099 29.5297C23.025 29.1629 22.6677 28.9256 22.301 28.9996L22.5688 30.3277ZM32.8693 33.8771C32.7582 34.2343 32.9577 34.614 33.3149 34.7251C33.6722 34.8363 34.0519 34.6368 34.163 34.2795L32.8693 33.8771ZM32.8909 30.9249L33.3576 30.4339L33.3574 30.4337L32.8909 30.9249ZM31.7743 29.6302C31.4075 29.5562 31.0503 29.7936 30.9763 30.1603C30.9024 30.527 31.1397 30.8843 31.5064 30.9583L31.7743 29.6302ZM25.781 19.566C25.4293 19.6938 25.2479 20.0825 25.3757 20.4341C25.5034 20.7857 25.8921 20.9672 26.2437 20.8394L25.781 19.566ZM28.5134 18.3107L27.9562 17.9253L27.956 17.9256L28.5134 18.3107ZM29.7821 17.261C29.899 16.9057 29.7057 16.5228 29.3503 16.4058C28.995 16.2889 28.6121 16.4822 28.4951 16.8376L29.7821 17.261ZM13.9004 29.6569C13.5488 29.7847 13.3673 30.1733 13.4951 30.5249C13.6229 30.8766 14.0115 31.058 14.3632 30.9302L13.9004 29.6569ZM16.6328 28.4015L16.0757 28.0162L16.0755 28.0165L16.6328 28.4015ZM17.9016 27.3519C18.0185 26.9965 17.8252 26.6136 17.4698 26.4967C17.1144 26.3797 16.7315 26.5731 16.6146 26.9284L17.9016 27.3519ZM31.8196 19.9916C31.59 19.6962 31.1644 19.6428 30.869 19.8724C30.5736 20.102 30.5202 20.5276 30.7498 20.823L31.8196 19.9916ZM33.8501 22.2099L34.0456 21.5613L34.0452 21.5612L33.8501 22.2099ZM35.231 23.0912C35.6051 23.0926 35.9095 22.7904 35.9108 22.4162C35.9121 22.0421 35.6099 21.7377 35.2358 21.7364L35.231 23.0912ZM25.7183 22.1151C25.3812 22.2775 25.2397 22.6824 25.4021 23.0194C25.5645 23.3565 25.9693 23.4981 26.3064 23.3357L25.7183 22.1151ZM30.1988 22.7446C30.5577 22.8501 30.9342 22.6447 31.0397 22.2857C31.1453 21.9268 30.9398 21.5503 30.5809 21.4448L30.1988 22.7446ZM17.8517 30.6199C18.0319 30.2921 17.9123 29.8802 17.5844 29.7C17.2566 29.5197 16.8447 29.6393 16.6644 29.9672L17.8517 30.6199ZM16.6328 32.1856L16.0076 31.9247L16.0076 31.9249L16.6328 32.1856ZM14.3163 34.1939C14.0322 34.4373 13.9992 34.865 14.2426 35.1491C14.486 35.4332 14.9137 35.4662 15.1978 35.2227L14.3163 34.1939ZM18.7527 25.9115C19.1191 25.8358 19.3547 25.4774 19.279 25.111C19.2034 24.7446 18.845 24.509 18.4786 24.5847L18.7527 25.9115ZM14.2381 23.9867L13.6085 24.2366L13.6086 24.2368L14.2381 23.9867ZM14.8869 22.9202C14.9945 22.5619 14.7913 22.1842 14.433 22.0766C14.0747 21.969 13.697 22.1722 13.5894 22.5305L14.8869 22.9202ZM36.7872 27.6177C37.051 27.883 37.4799 27.8843 37.7452 27.6206C38.0106 27.3568 38.0119 26.9279 37.7481 26.6626L36.7872 27.6177ZM32.9769 25.1126L33.1663 24.4622L33.1662 24.4622L32.9769 25.1126ZM28.6448 25.3992L28.361 24.784L28.3608 24.7841L28.6448 25.3992ZM27.2381 25.7757C27.1315 26.1343 27.3357 26.5115 27.6943 26.6182C28.0529 26.7249 28.4301 26.5206 28.5367 26.162L27.2381 25.7757ZM23.0231 36.6338C23.3895 36.5581 23.6251 36.1997 23.5495 35.8333C23.4738 35.4669 23.1154 35.2312 22.749 35.3069L23.0231 36.6338ZM18.5086 34.709L17.8789 34.9589L17.879 34.959L18.5086 34.709ZM19.1574 33.6425C19.265 33.2842 19.0617 32.9065 18.7034 32.7988C18.3451 32.6912 17.9674 32.8945 17.8598 33.2528L19.1574 33.6425ZM28.927 27.7581C28.5716 27.875 28.3783 28.2578 28.4952 28.6132C28.6121 28.9686 28.9949 29.162 29.3503 29.0451L28.927 27.7581ZM34.1414 28.4016L33.6737 28.8916L33.6739 28.8918L34.1414 28.4016ZM35.3919 29.6629L35.0814 30.265L35.0815 30.265L35.3919 29.6629ZM38.1137 30.3033C38.4674 30.1814 38.6553 29.7958 38.5334 29.4421C38.4114 29.0884 38.0259 28.9006 37.6722 29.0225L38.1137 30.3033ZM16.6181 22.9477C16.7408 23.3011 17.1268 23.4881 17.4803 23.3654C17.8337 23.2427 18.0207 22.8567 17.898 22.5033L16.6181 22.9477ZM17.8833 18.9414L18.3428 19.4391L18.3429 19.4391L17.8833 18.9414ZM19.2787 18.9725C19.6442 18.8924 19.8756 18.5313 19.7956 18.1658C19.7156 17.8004 19.3544 17.569 18.989 17.649L19.2787 18.9725ZM19.6801 20.4327C19.4588 20.131 19.0349 20.0658 18.7332 20.2871C18.4315 20.5084 18.3663 20.9323 18.5876 21.234L19.6801 20.4327ZM20.3843 26.5094L19.8198 26.135L19.8193 26.1357L20.3843 26.5094ZM19.3715 26.5845C19.0647 26.7986 18.9894 27.2209 19.2035 27.5277C19.4176 27.8345 19.8398 27.9098 20.1467 27.6957L19.3715 26.5845ZM24.0309 10.4309L24.5361 10.8822L25.0744 10.2796L24.3871 9.8547L24.0309 10.4309ZM20.5375 7.26263L21.0798 6.85669L21.0798 6.85667L20.5375 7.26263ZM17.8122 1.93405L18.456 1.72324L18.4559 1.72309L17.8122 1.93405ZM17.2032 1.37179L17.0387 2.02893L17.0393 2.02908L17.2032 1.37179ZM15.8287 1.02766L15.664 1.68476L15.6642 1.6848L15.8287 1.02766ZM14.7584 1.80805L14.0818 1.77392L14.0818 1.7741L14.7584 1.80805ZM13.8242 6.97744L13.1814 6.76385L13.1813 6.76402L13.8242 6.97744ZM8.45432 13.6331L8.82604 14.1994L8.82611 14.1994L8.45432 13.6331ZM22.5833 42.7655L22.6839 43.4354L27.0876 42.7735L22.6863 42.096L22.5833 42.7655ZM9.54671 17.6951C9.85354 17.4548 10.1749 17.2239 10.5101 17.0039L9.76667 15.8712C9.40009 16.1119 9.04807 16.3647 8.71135 16.6284L9.54671 17.6951ZM5.06452 26.4045C5.06452 23.7073 6.1151 21.1506 8.04291 19.0752L7.05025 18.1532C4.90677 20.4607 3.70968 23.3409 3.70968 26.4045H5.06452ZM12.7404 18.6096C12.7831 18.5639 12.8044 18.541 12.8151 18.5296C12.8204 18.5239 12.8231 18.521 12.8244 18.5196C12.8251 18.5189 12.8255 18.5185 12.8257 18.5183C12.8257 18.5182 12.8258 18.5181 12.8259 18.518C12.8259 18.518 12.826 18.5179 12.8261 18.5179C12.8261 18.5178 12.8262 18.5177 12.8264 18.5175C12.8264 18.5175 12.8267 18.5172 12.827 18.5168C12.8271 18.5167 12.8276 18.5162 12.8283 18.5155C12.8289 18.5148 12.8301 18.5134 12.8308 18.5128C12.9644 18.2949 13.0078 18.0429 12.3305 18.056C11.6532 18.069 11.6966 17.8171 11.8303 17.5992C11.8309 17.5985 11.8321 17.5971 11.8328 17.5965C11.8334 17.5958 11.8339 17.5952 11.834 17.5951C11.8344 17.5947 11.8346 17.5945 11.8347 17.5944C11.8348 17.5942 11.835 17.5941 11.835 17.5941C11.8351 17.594 11.8351 17.5939 11.8351 17.5939C11.8351 17.5939 11.8351 17.5939 11.8351 17.594C11.8349 17.5942 11.8346 17.5945 11.8339 17.5952C11.8326 17.5966 11.8299 17.5995 11.8246 17.6052C11.8139 17.6166 11.7926 17.6395 11.7499 17.6852L12.7404 18.6096ZM12.4948 18.7132C12.5278 18.7049 12.5544 18.6957 12.5726 18.6888C12.5815 18.6854 12.5888 18.6824 12.5934 18.6805C12.5957 18.6795 12.5976 18.6787 12.5989 18.6782C12.6 18.6777 12.601 18.6773 12.601 18.6773C12.6018 18.6769 12.5988 18.6782 12.5952 18.6797C12.5912 18.6814 12.5845 18.6841 12.5762 18.6873C12.5593 18.6937 12.5339 18.7025 12.5023 18.7104L12.1737 17.3961C12.1407 17.4043 12.114 17.4136 12.0959 17.4205C12.0869 17.4238 12.0797 17.4268 12.0751 17.4287C12.0728 17.4297 12.0708 17.4305 12.0696 17.431C12.0685 17.4315 12.0675 17.4319 12.0675 17.4319C12.0667 17.4323 12.0697 17.431 12.0733 17.4295C12.0773 17.4278 12.084 17.4251 12.0923 17.4219C12.1092 17.4155 12.1346 17.4067 12.1662 17.3988L12.4948 18.7132ZM12.8249 18.5242C14.5159 16.7761 16.6762 15.3751 19.1449 14.4725L18.6797 13.2001C16.0272 14.1699 13.6907 15.6805 11.8511 17.5823L12.8249 18.5242ZM19.1451 14.4725C21.503 13.6099 23.6246 12.1533 25.151 10.1358L24.0706 9.31836C22.7206 11.1026 20.8251 12.4152 18.6796 13.2001L19.1451 14.4725ZM25.151 10.1359C26.8261 7.92213 27.5504 5.78877 27.8186 4.97856L26.5324 4.55278C26.279 5.31826 25.6105 7.28327 24.0706 9.31833L25.151 10.1359ZM27.8186 4.9784C27.8294 4.94585 27.858 4.91283 27.9117 4.89951L27.5854 3.58454C27.0985 3.70536 26.695 4.06117 26.5323 4.55295L27.8186 4.9784ZM27.9111 4.89966L29.205 4.57992L28.8799 3.26465L27.5861 3.58439L27.9111 4.89966ZM29.2048 4.57996C29.2489 4.56907 29.2923 4.57869 29.3263 4.60308C29.3591 4.62659 29.3718 4.6545 29.3732 4.6824L30.7263 4.61456C30.6787 3.66443 29.7604 3.04728 28.8801 3.26462L29.2048 4.57996ZM29.3732 4.68283C29.4636 6.46253 29.8143 8.27089 30.2869 9.67731L31.5712 9.24577C31.1401 7.96284 30.8107 6.27708 30.7263 4.61413L29.3732 4.68283ZM30.2869 9.67712C31.2158 12.4443 33.2086 14.6641 35.6144 16.2261L36.3522 15.0897C34.142 13.6548 32.382 11.661 31.5713 9.24597L30.2869 9.67712ZM35.6144 16.2261C39.7106 18.8858 42.3226 23.1087 42.3226 27.8318H43.6774C43.6774 22.5805 40.7712 17.9591 36.3522 15.0897L35.6144 16.2261ZM42.3226 27.8318C42.3226 35.7517 34.9345 42.3238 25.6208 42.3238V43.6787C35.5038 43.6787 43.6774 36.6672 43.6774 27.8318H42.3226ZM25.6208 42.3238C16.3071 42.3238 8.91903 35.7517 8.91903 27.8318H7.56419C7.56419 36.6672 15.7378 43.6787 25.6208 43.6787V42.3238ZM8.91903 27.8318C8.91903 24.3417 10.3432 21.129 12.7359 18.6144L11.7544 17.6805C9.14779 20.4199 7.56419 23.9583 7.56419 27.8318H8.91903ZM14.6473 21.6901C15.005 21.2706 15.4003 20.8719 15.8285 20.4969L14.9361 19.4776C14.4607 19.8938 14.0187 20.3392 13.6163 20.8111L14.6473 21.6901ZM13.6467 32.4686C12.7866 31.0452 12.3082 29.4508 12.3082 27.7708H10.9533C10.9533 29.7151 11.5086 31.5498 12.4871 33.1693L13.6467 32.4686ZM12.3082 27.7708C12.3082 26.5402 12.5649 25.3574 13.039 24.2542L11.7941 23.7193C11.2507 24.9843 10.9533 26.3486 10.9533 27.7708H12.3082ZM25.3871 38.4464C22.1957 38.4464 19.2786 37.5079 17.0154 35.963L16.2516 37.082C18.7479 38.786 21.933 39.8012 25.3871 39.8012V38.4464ZM31.3765 37.2573C30.8027 37.4999 30.2037 37.7092 29.5832 37.8816L29.946 39.187C30.6221 38.9991 31.2762 38.7707 31.9041 38.5052L31.3765 37.2573ZM37.4582 31.8763C36.857 33.0478 36.0033 34.1199 34.9458 35.0453L35.838 36.0649C37.0132 35.0365 37.9778 33.8312 38.6636 32.4949L37.4582 31.8763ZM31.3771 18.285C35.6422 20.0893 38.466 23.7061 38.466 27.7716H39.8209C39.8209 23.032 36.5398 18.998 31.905 17.0372L31.3771 18.285ZM21.0509 17.6995C22.4069 17.3086 23.8666 17.0953 25.3871 17.0953V15.7405C23.74 15.7405 22.154 15.9715 20.6757 16.3976L21.0509 17.6995ZM25.3871 17.0953C25.9977 17.0953 26.599 17.1298 27.187 17.196L27.3388 15.8497C26.7006 15.7778 26.0487 15.7405 25.3871 15.7405V17.0953ZM23.4602 27.8091C23.47 27.9817 23.5317 28.8284 23.9032 29.8204C24.2749 30.8131 24.9767 32.0017 26.2965 32.7708L26.9787 31.6002C26.0176 31.0402 25.4767 30.159 25.172 29.3453C24.8671 28.531 24.8187 27.8349 24.8129 27.7325L23.4602 27.8091ZM26.2965 32.7708C26.8355 33.0849 27.3159 33.1523 27.7263 33.201C28.1297 33.2488 28.4627 33.2794 28.8921 33.4471L29.3852 32.1852C28.7693 31.9445 28.2651 31.9006 27.8858 31.8556C27.5136 31.8114 27.2662 31.7678 26.9787 31.6002L26.2965 32.7708ZM28.8919 33.4471C30.2541 33.98 31.115 35.1955 31.6603 36.275L32.8696 35.6642C32.2741 34.4851 31.2165 32.9016 29.3854 32.1853L28.8919 33.4471ZM21.8242 18.1618C21.2931 20.5191 21.7182 21.8717 22.3572 22.694L23.4271 21.8627C23.1028 21.4454 22.677 20.5408 23.1459 18.4596L21.8242 18.1618ZM22.357 22.6937C22.6283 23.0433 22.9421 23.2928 23.173 23.4961C23.4122 23.7066 23.6445 23.9308 23.8889 24.2967L25.0156 23.5442C24.6808 23.043 24.3539 22.7306 24.0682 22.4791C23.7743 22.2204 23.5976 22.0825 23.4273 21.863L22.357 22.6937ZM23.889 24.2969C24.3457 24.9801 24.5206 25.6748 24.597 26.1492L25.9346 25.9337C25.8403 25.3485 25.6183 24.4459 25.0154 23.544L23.889 24.2969ZM23.7043 35.2306C24.0446 35.5126 24.4048 35.6877 24.6737 35.8355C24.9522 35.9887 25.227 36.1565 25.544 36.4599L26.4807 35.4809C26.0458 35.0649 25.6594 34.8313 25.3264 34.6483C24.9837 34.4599 24.782 34.3641 24.5688 34.1874L23.7043 35.2306ZM25.5441 36.4599C26.1363 37.0265 26.4566 37.6662 26.633 38.1118L27.8927 37.613C27.6749 37.0629 27.2635 36.2298 26.4806 35.4809L25.5441 36.4599ZM21.206 33.2465C20.8896 32.2293 21.1156 31.2943 21.6511 30.7853L20.7177 29.8033C19.7182 30.7534 19.4836 32.2707 19.9123 33.6489L21.206 33.2465ZM21.6509 30.7855C21.9548 30.4969 22.3146 30.3789 22.5688 30.3277L22.301 28.9996C21.9104 29.0783 21.2756 29.2734 20.7179 29.8031L21.6509 30.7855ZM34.163 34.2795C34.5917 32.9013 34.3571 31.384 33.3576 30.4339L32.4242 31.4159C32.9597 31.9249 33.1857 32.8599 32.8693 33.8771L34.163 34.2795ZM33.3574 30.4337C32.7996 29.904 32.1649 29.709 31.7743 29.6302L31.5064 30.9583C31.7607 31.0096 32.1205 31.1275 32.4244 31.4161L33.3574 30.4337ZM26.2437 20.8394C26.8336 20.625 28.1298 20.0577 29.0707 18.6957L27.956 17.9256C27.2468 18.9522 26.2574 19.3929 25.781 19.566L26.2437 20.8394ZM29.0705 18.696C29.4275 18.1798 29.6455 17.6762 29.7821 17.261L28.4951 16.8376C28.3906 17.1554 28.2252 17.5365 27.9562 17.9253L29.0705 18.696ZM14.3632 30.9302C14.953 30.7159 16.2492 30.1485 17.1902 28.7866L16.0755 28.0165C15.3662 29.0431 14.3768 29.4837 13.9004 29.6569L14.3632 30.9302ZM17.19 28.7868C17.547 28.2707 17.765 27.767 17.9016 27.3519L16.6146 26.9284C16.51 27.2463 16.3446 27.6273 16.0757 28.0162L17.19 28.7868ZM30.7498 20.823C31.1353 21.3191 32.0761 22.3836 33.6549 22.8586L34.0452 21.5612C32.8589 21.2043 32.1332 20.3951 31.8196 19.9916L30.7498 20.823ZM33.6546 22.8585C34.2535 23.0391 34.7975 23.0897 35.231 23.0912L35.2358 21.7364C34.9038 21.7352 34.4939 21.6965 34.0456 21.5613L33.6546 22.8585ZM26.3064 23.3357C28.2341 22.4068 29.474 22.5316 30.1988 22.7446L30.5809 21.4448C29.5173 21.1322 27.9323 21.0483 25.7183 22.1151L26.3064 23.3357ZM16.6644 29.9672C16.4585 30.3418 16.3777 30.671 16.3064 30.9647C16.2365 31.2526 16.1699 31.5358 16.0076 31.9247L17.258 32.4465C17.4648 31.9507 17.552 31.5768 17.623 31.2843C17.6926 30.9977 17.7399 30.8232 17.8517 30.6199L16.6644 29.9672ZM16.0076 31.9249C15.5651 32.9859 14.8696 33.7198 14.3163 34.1939L15.1978 35.2227C15.8462 34.6671 16.7061 33.7698 17.258 32.4463L16.0076 31.9249ZM18.4786 24.5847C17.4854 24.7898 16.6168 24.7433 15.9745 24.5474C15.3187 24.3473 14.9816 24.0233 14.8677 23.7367L13.6086 24.2368C13.929 25.0435 14.6967 25.574 15.5791 25.8433C16.4751 26.1166 17.5781 26.1541 18.7527 25.9115L18.4786 24.5847ZM14.8678 23.7368C14.8303 23.6425 14.7466 23.3876 14.8869 22.9202L13.5894 22.5305C13.3517 23.3217 13.4712 23.8906 13.6085 24.2366L14.8678 23.7368ZM37.7481 26.6626C37.2086 26.1198 36.4104 25.6794 35.6121 25.3292C34.7992 24.9727 33.9202 24.6818 33.1663 24.4622L32.7874 25.763C33.5104 25.9736 34.3286 26.2457 35.0679 26.5699C35.8217 26.9006 36.4305 27.2588 36.7872 27.6177L37.7481 26.6626ZM33.1662 24.4622C31.5878 24.0027 29.877 24.0847 28.361 24.784L28.9286 26.0143C30.1264 25.4617 31.4992 25.388 32.7875 25.763L33.1662 24.4622ZM28.3608 24.7841C28.1436 24.8844 27.9242 25.0007 27.7412 25.133C27.5854 25.2456 27.3338 25.4543 27.2381 25.7757L28.5367 26.162C28.5247 26.2026 28.5095 26.2317 28.499 26.2489C28.4886 26.2661 28.4808 26.2749 28.48 26.2758C28.4799 26.276 28.4945 26.2603 28.5349 26.231C28.6172 26.1716 28.7483 26.0975 28.9287 26.0142L28.3608 24.7841ZM22.749 35.3069C21.7559 35.5121 20.8872 35.4656 20.2449 35.2697C19.5891 35.0696 19.252 34.7456 19.1381 34.459L17.879 34.959C18.1994 35.7658 18.9671 36.2963 19.8496 36.5655C20.7455 36.8389 21.8485 36.8764 23.0231 36.6338L22.749 35.3069ZM19.1382 34.4591C19.1008 34.3647 19.017 34.1099 19.1574 33.6425L17.8598 33.2528C17.6222 34.044 17.7416 34.6129 17.8789 34.9589L19.1382 34.4591ZM29.3503 29.0451C32.3564 28.0563 33.3333 28.5668 33.6737 28.8916L34.6091 27.9115C33.7003 27.0441 32.0543 26.7295 28.927 27.7581L29.3503 29.0451ZM33.6739 28.8918C33.8355 29.0459 33.9025 29.1736 34.1396 29.4714C34.3515 29.7375 34.6319 30.0331 35.0814 30.265L35.7024 29.0608C35.4834 28.9479 35.3434 28.8082 35.1996 28.6276C35.0811 28.4787 34.8572 28.1481 34.6089 27.9113L33.6739 28.8918ZM35.0815 30.265C36.1958 30.8394 37.4077 30.5468 38.1137 30.3033L37.6722 29.0225C37.0342 29.2424 36.2938 29.3657 35.7023 29.0608L35.0815 30.265ZM17.898 22.5033C17.4461 21.2015 17.7034 20.0294 18.3428 19.4391L17.4238 18.4437C16.264 19.5144 16.0526 21.3189 16.6181 22.9477L17.898 22.5033ZM18.3429 19.4391C18.6265 19.1773 18.9653 19.0411 19.2787 18.9725L18.989 17.649C18.5166 17.7524 17.9341 17.9726 17.4238 18.4437L18.3429 19.4391ZM18.5876 21.234C19.3279 22.2433 19.8103 23.2496 20.0116 24.1265C20.2145 25.0106 20.1175 25.6862 19.8198 26.135L20.9489 26.8839C21.5251 26.0151 21.5829 24.9162 21.3321 23.8234C21.0796 22.7235 20.4999 21.5504 19.6801 20.4327L18.5876 21.234ZM19.8193 26.1357C19.7238 26.2802 19.5843 26.4361 19.3715 26.5845L20.1467 27.6957C20.5029 27.4472 20.7618 27.1668 20.9494 26.8831L19.8193 26.1357ZM19.145 14.4725C21.202 13.7204 23.0769 12.5158 24.5361 10.8822L23.5257 9.97964C22.2305 11.4296 20.5503 12.5161 18.6797 13.2001L19.145 14.4725ZM24.3871 9.8547C23.1091 9.06473 21.9811 8.06075 21.0798 6.85669L19.9951 7.66858C21.0055 9.01838 22.2634 10.1347 23.6747 11.0071L24.3871 9.8547ZM21.0798 6.85667C19.4381 4.66366 18.7258 2.54724 18.456 1.72324L17.1684 2.14486C17.4527 3.01305 18.2199 5.29715 19.9951 7.66859L21.0798 6.85667ZM18.4559 1.72309C18.2896 1.21561 17.8759 0.841413 17.3671 0.714508L17.0393 2.02908C17.1062 2.04578 17.1505 2.09023 17.1685 2.14501L18.4559 1.72309ZM17.3677 0.714656L15.9932 0.370527L15.6642 1.6848L17.0387 2.02893L17.3677 0.714656ZM15.9934 0.37057C15.0716 0.139525 14.1311 0.79621 14.0818 1.77392L15.4349 1.84218C15.4398 1.7455 15.5426 1.65432 15.664 1.68476L15.9934 0.37057ZM14.0818 1.7741C13.9919 3.56561 13.6407 5.38139 13.1814 6.76385L14.4671 7.19102C14.967 5.68632 15.3392 3.7492 15.435 1.842L14.0818 1.7741ZM13.1813 6.76402C12.3154 9.37252 10.436 11.5217 8.08254 13.0668L8.82611 14.1994C11.3758 12.5254 13.4851 10.1494 14.4671 7.19086L13.1813 6.76402ZM8.0826 13.0668C3.39818 16.1415 0.322581 21.0909 0.322581 26.708H1.67742C1.67742 21.6123 4.46556 17.0615 8.82604 14.1994L8.0826 13.0668ZM0.322581 26.708C0.322581 36.1581 8.97527 43.6787 19.4658 43.6787V42.3238C9.55918 42.3238 1.67742 35.2555 1.67742 26.708H0.322581ZM19.4658 43.6787C20.5641 43.6787 21.6383 43.5926 22.6839 43.4354L22.4826 42.0956C21.5 42.2433 20.4932 42.3238 19.4658 42.3238V43.6787ZM22.6863 42.096C14.7921 40.8807 8.91903 34.8992 8.91903 27.8318H7.56419C7.56419 35.7096 14.0757 42.1412 22.4802 43.435L22.6863 42.096Z" fill="#826489"/>
</svg>
