<svg width="44" height="45" viewBox="0 0 44 45" fill="none" xmlns="http://www.w3.org/2000/svg">
<path d="M20.0674 43.5704C16.4244 43.5704 13.0665 41.5584 10.0812 37.5843C7.59885 34.2574 5.55786 30.5795 4.01635 26.6529C3.91907 26.4041 4.04103 26.1234 4.29029 26.0257C4.53906 25.9293 4.81977 26.0499 4.91706 26.2991C6.42759 30.1454 8.426 33.7473 10.8561 37.004C13.7562 40.8653 16.9854 42.7461 20.4658 42.5932C20.7373 42.5811 20.9594 42.7882 20.9706 43.0554C20.9817 43.3226 20.775 43.5486 20.5084 43.5602C20.3612 43.567 20.2141 43.5704 20.0674 43.5704ZM25.0124 33.0585C24.7447 33.0585 24.5284 32.8422 24.5284 32.5746V31.3888C24.5284 31.1211 24.7447 30.9048 25.0124 30.9048C25.28 30.9048 25.4964 31.1211 25.4964 31.3888V32.5746C25.4964 32.8422 25.2795 33.0585 25.0124 33.0585ZM17.8004 33.0585C17.5328 33.0585 17.3164 32.8422 17.3164 32.5746V31.3888C17.3164 31.1211 17.5328 30.9048 17.8004 30.9048C18.0681 30.9048 18.2844 31.1211 18.2844 31.3888V32.5746C18.2844 32.8422 18.0681 33.0585 17.8004 33.0585ZM21.9637 26.8388C21.6961 26.8388 21.4797 26.6224 21.4797 26.3548V25.169C21.4797 24.9014 21.6961 24.685 21.9637 24.685C22.2314 24.685 22.4477 24.9014 22.4477 25.169V26.3548C22.4477 26.6224 22.2314 26.8388 21.9637 26.8388ZM14.7276 26.8388C14.4599 26.8388 14.2436 26.6224 14.2436 26.3548V25.169C14.2436 24.9014 14.4599 24.685 14.7276 24.685C14.9952 24.685 15.2116 24.9014 15.2116 25.169V26.3548C15.2116 26.6224 14.9947 26.8388 14.7276 26.8388ZM29.5135 26.621C29.2459 26.621 29.0295 26.4046 29.0295 26.137V24.9517C29.0295 24.684 29.2459 24.4677 29.5135 24.4677C29.7812 24.4677 29.9975 24.684 29.9975 24.9517V26.137C29.9975 26.4046 29.7812 26.621 29.5135 26.621ZM2.74877 21.5879C2.52178 21.5879 2.31947 21.4287 2.27446 21.1978C1.35198 16.5515 2.75749 12.7909 6.45179 10.0201C7.37041 9.33086 8.36888 8.69877 9.41915 8.14073C9.65437 8.01392 9.94766 8.10443 10.0735 8.3411C10.1993 8.5768 10.1093 8.8701 9.87313 8.99545C8.8674 9.52978 7.91151 10.1353 7.03258 10.7945C3.61415 13.3586 2.36836 16.6996 3.22405 21.0096C3.27681 21.2714 3.10596 21.526 2.84412 21.5783C2.81121 21.585 2.77975 21.5879 2.74877 21.5879ZM17.9214 20.9341C17.6538 20.9341 17.4374 20.7177 17.4374 20.4501V19.2648C17.4374 18.9971 17.6538 18.7808 17.9214 18.7808C18.1891 18.7808 18.4054 18.9971 18.4054 19.2648V20.4501C18.4054 20.7177 18.1891 20.9341 17.9214 20.9341ZM10.7109 20.9341C10.4433 20.9341 10.2269 20.7177 10.2269 20.4501V19.2648C10.2269 18.9971 10.4433 18.7808 10.7109 18.7808C10.9786 18.7808 11.1949 18.9971 11.1949 19.2648V20.4501C11.1949 20.7177 10.9786 20.9341 10.7109 20.9341ZM25.4727 20.6921C25.205 20.6921 24.9887 20.4757 24.9887 20.2081V19.0228C24.9887 18.7551 25.205 18.5388 25.4727 18.5388C25.7403 18.5388 25.9567 18.7551 25.9567 19.0228V20.2081C25.9567 20.4757 25.7403 20.6921 25.4727 20.6921ZM21.9637 15.1509C21.6961 15.1509 21.4797 14.9345 21.4797 14.6669V13.4811C21.4797 13.2134 21.6961 12.9971 21.9637 12.9971C22.2314 12.9971 22.4477 13.2134 22.4477 13.4811V14.6669C22.4477 14.9345 22.2314 15.1509 21.9637 15.1509ZM14.7276 15.1509C14.4599 15.1509 14.2436 14.9345 14.2436 14.6669V13.4811C14.2436 13.2134 14.4599 12.9971 14.7276 12.9971C14.9952 12.9971 15.2116 13.2134 15.2116 13.4811V14.6669C15.2116 14.9345 14.9947 15.1509 14.7276 15.1509ZM37.7898 13.3359C37.5221 13.3359 37.3058 13.1195 37.3058 12.8519V10.9643C37.3058 10.6967 37.5221 10.4803 37.7898 10.4803C38.0574 10.4803 38.2738 10.6967 38.2738 10.9643V12.8519C38.2738 13.1195 38.0574 13.3359 37.7898 13.3359ZM41.516 9.58496H39.6526C39.385 9.58496 39.1687 9.36861 39.1687 9.10096C39.1687 8.83332 39.385 8.61697 39.6526 8.61697H41.516C41.7837 8.61697 42 8.83332 42 9.10096C42 9.36861 41.7837 9.58496 41.516 9.58496ZM35.9501 9.58496H34.0867C33.8191 9.58496 33.6027 9.36861 33.6027 9.10096C33.6027 8.83332 33.8191 8.61697 34.0867 8.61697H35.9501C36.2178 8.61697 36.4341 8.83332 36.4341 9.10096C36.4341 9.36861 36.2178 9.58496 35.9501 9.58496ZM37.7898 7.7453C37.5221 7.7453 37.3058 7.52896 37.3058 7.26131V5.39794C37.3058 5.1303 37.5221 4.91395 37.7898 4.91395C38.0574 4.91395 38.2738 5.1303 38.2738 5.39794V7.26131C38.2738 7.52896 38.0574 7.7453 37.7898 7.7453Z" fill="#826489"/>
<path d="M20.0515 41.1185C16.859 41.119 13.9391 39.2929 11.3517 35.6789C8.65297 31.8951 6.59407 27.6035 5.23163 22.9238C3.74384 17.9527 4.83089 13.9719 8.4647 11.0999C10.1785 9.73163 12.144 8.68621 14.3229 7.98103C12.8879 6.68781 12.2113 5.55817 12.2113 4.47887C12.2113 4.12991 12.3163 3.61882 12.8153 3.16048C13.2446 2.79168 13.7823 2.6155 14.4376 2.6155C15.1714 2.6155 15.8431 2.75925 16.4399 3.04432C16.3833 2.72827 16.3736 2.54581 16.3736 2.42191C16.3736 1.96647 16.4965 1.51491 16.7376 1.08077C17.1456 0.378978 17.7607 0.00146484 18.4785 0.00146484C19.4048 0.00146484 20.2983 0.552247 21.1337 1.63784C21.2774 1.8295 21.4284 2.04101 21.5876 2.27332C21.7188 2.10344 21.8495 1.94324 21.9773 1.79369C22.9206 0.685829 23.8271 0.147146 24.7471 0.147146C26.0007 0.147146 26.7794 0.95396 26.7794 2.25251C26.7794 2.3343 26.7693 2.41561 26.7489 2.49451L26.731 2.56178C26.8588 2.50757 26.9541 2.47224 27.0296 2.44756C27.5969 2.22734 28.3161 2.1078 29.1263 2.1078C29.8939 2.1078 30.5395 2.29074 31.0443 2.65083C31.4102 2.91219 31.5482 3.39134 31.3773 3.80709C30.7685 5.2852 29.6287 6.60747 27.9846 7.74146C28.636 7.9307 29.2681 8.14995 29.8789 8.39823C30.3184 8.57731 30.5633 9.04823 30.4573 9.51093C30.3343 10.0491 30.4127 10.5612 30.6983 11.0757C31.011 11.6105 31.4717 11.9638 32.0956 12.1371C32.5239 12.2489 32.9358 12.245 33.3443 12.1201C33.6371 12.0291 33.957 12.0853 34.2034 12.2677C34.4497 12.4502 34.5959 12.7392 34.5959 13.0455V13.0944C34.5959 13.1806 34.5847 13.2657 34.562 13.349C34.289 14.3479 34.4033 15.284 34.9119 16.2094C35.4061 17.0714 36.1369 17.6371 37.1373 17.9227C37.5666 18.0456 37.8556 18.4459 37.8377 18.8926C37.7868 20.1713 37.5085 21.5647 37.0144 23.0346C35.4187 27.77 33.2209 31.8626 30.4795 35.1978C27.6709 38.6535 24.4959 40.6277 21.0436 41.0614C20.7102 41.0996 20.3791 41.1185 20.0515 41.1185ZM16.5841 9.36815C13.9517 9.96201 11.6252 11.0544 9.66935 12.6162C6.67393 14.9829 5.8313 18.1739 7.08871 22.3754C8.3921 26.8533 10.3566 30.9484 12.9271 34.5536C15.3727 37.9696 17.9563 39.4715 20.8118 39.1394C23.7424 38.7706 26.4939 37.0321 28.9811 33.9723C31.5748 30.8158 33.6594 26.9283 35.1796 22.4161C35.5247 21.392 35.7497 20.4196 35.8499 19.516C34.728 19.0335 33.8467 18.2421 33.2238 17.157C32.689 16.1823 32.4441 15.1765 32.4876 14.1471C32.19 14.1321 31.8913 14.0846 31.5903 14.0053C30.4597 13.6916 29.5987 13.0286 29.0174 12.033C28.6365 11.3477 28.4531 10.6454 28.4652 9.92958C27.427 9.55836 26.324 9.27619 25.1755 9.08937C23.9931 8.90449 22.7434 8.8164 21.4424 8.83479C19.7117 8.8498 18.0792 9.02936 16.5885 9.36767C16.5856 9.36767 16.5841 9.36815 16.5841 9.36815ZM14.1564 4.5839C14.214 4.92172 14.577 5.78855 16.5546 7.31845C16.5696 7.33055 16.5851 7.34313 16.5991 7.35572C16.6088 7.36346 16.617 7.37072 16.6258 7.37895C18.1223 7.075 19.733 6.91335 21.4221 6.89834C22.7057 6.88044 23.9611 6.96078 25.1551 7.12872C25.8502 6.75847 26.3748 6.46759 26.717 6.26238C27.7266 5.59495 28.516 4.84912 29.0605 4.04376C28.5189 4.04957 28.0567 4.12507 27.685 4.26833C27.4885 4.33512 27.0751 4.51227 26.0336 5.12113C25.6251 5.36022 25.1024 5.26826 24.7999 4.90333C24.5719 4.62842 24.4558 4.27366 24.4558 3.84968C24.4558 3.67109 24.4926 3.44216 24.6847 2.7457L24.8396 2.147C24.8362 2.1228 24.8333 2.10344 24.8309 2.08747C24.8101 2.08505 24.7815 2.08311 24.7467 2.08311C24.6353 2.08311 24.2143 2.15281 23.4505 3.04916C23.1074 3.45232 22.7405 3.94938 22.3606 4.52679C22.1791 4.80266 21.8737 4.97157 21.5392 4.96238C21.2092 4.95802 20.9038 4.78572 20.73 4.50549C20.2968 3.80951 19.914 3.23888 19.5917 2.8091C18.9993 2.03859 18.6266 1.9413 18.4867 1.93743C18.4828 1.94614 18.4557 1.97567 18.4194 2.03762C18.3488 2.16636 18.3086 2.29704 18.3086 2.42142C18.3086 2.46498 18.3197 2.7244 18.5419 3.55009C18.7519 4.23639 18.8482 4.49726 18.887 4.58874C19.0297 4.92995 18.9654 5.32247 18.7214 5.60028C18.4775 5.87857 18.0976 5.99473 17.7404 5.896C17.2782 5.77064 16.6543 5.44782 15.7749 4.87962C15.4167 4.66327 14.9715 4.5505 14.4362 4.5505C14.2944 4.55147 14.2063 4.56841 14.1564 4.5839Z" fill="#826489"/>
</svg>
