<svg width="44" height="45" viewBox="0 0 44 45" fill="none" xmlns="http://www.w3.org/2000/svg">
<path d="M30.2164 32.0725C29.4655 32.0725 28.7637 31.8476 28.1793 31.4094C27.3396 30.7801 26.854 29.7959 26.8129 28.6381C26.7733 27.5303 27.15 26.3883 27.8733 25.4232C28.5967 24.4578 29.5869 23.7756 30.6614 23.5025C31.785 23.2171 32.8655 23.4067 33.7048 24.036C34.545 24.6653 35.0301 25.6494 35.0717 26.8072C35.1108 27.9153 34.7341 29.057 34.0107 30.0224C33.2874 30.9875 32.2972 31.6697 31.2227 31.9429C30.8816 32.0297 30.544 32.0725 30.2164 32.0725ZM31.6616 24.6066C31.4369 24.6066 31.2031 24.6364 30.9649 24.6971C30.1623 24.9013 29.4148 25.4215 28.8595 26.1624C28.3047 26.903 28.0153 27.7668 28.0449 28.5943C28.0725 29.3723 28.3825 30.0216 28.9187 30.4229C29.4545 30.8245 30.1638 30.9411 30.9192 30.7482C31.7218 30.5441 32.4692 30.0239 33.0245 29.283C33.5793 28.5423 33.8693 27.6785 33.8397 26.8511C33.8116 26.0733 33.5016 25.4237 32.9654 25.0224C32.5987 24.7478 32.1502 24.6066 31.6616 24.6066Z" fill="#826489"/>
<path d="M25.4289 38.4541C24.6945 38.4541 23.9867 38.2419 23.3928 37.797C22.5526 37.1675 22.0675 36.183 22.0264 35.0252C21.9872 33.9174 22.364 32.7757 23.0873 31.8103C24.6103 29.777 27.2257 29.1558 28.9187 30.4229C30.6107 31.6911 30.7477 34.3766 29.2242 36.4097C28.2355 37.7288 26.7868 38.4541 25.4289 38.4541ZM26.8706 30.9917C25.8969 30.9917 24.8219 31.5505 24.0735 32.5495C23.5182 33.2904 23.2288 34.1542 23.2584 34.9816C23.286 35.7594 23.596 36.4087 24.1322 36.8103C25.2794 37.6703 27.1214 37.1594 28.238 35.6703C29.3537 34.1815 29.3275 32.2699 28.1793 31.4094C27.8016 31.1265 27.3481 30.9917 26.8706 30.9917Z" fill="#826489"/>
<path d="M31.4525 37.7486C30.529 37.7486 29.605 37.4652 28.8189 36.8763C28.6413 36.7426 28.4723 36.5947 28.3173 36.4356C28.079 36.1923 28.0835 35.8021 28.3268 35.5641C28.5696 35.326 28.9604 35.3306 29.1981 35.5738C29.31 35.688 29.4314 35.7946 29.5588 35.8901C30.9905 36.9641 33.0642 36.624 34.1793 35.1354C34.7221 34.4111 34.9598 33.527 34.848 32.6458C34.7376 31.7725 34.2962 31.0063 33.6055 30.4888C33.4795 30.394 33.3436 30.3078 33.2006 30.2315C32.9007 30.071 32.7873 29.6975 32.9473 29.3973C33.1073 29.0973 33.481 28.983 33.7815 29.144C33.9797 29.2501 34.1693 29.3707 34.3454 29.5026C35.305 30.222 35.9185 31.2834 36.071 32.4913C36.223 33.6915 35.9014 34.8931 35.1655 35.8748C34.2485 37.0988 32.8505 37.7486 31.4525 37.7486Z" fill="#826489"/>
<path d="M35.4901 33.7622C35.2137 33.7622 34.9624 33.5751 34.8926 33.2949C34.8104 32.9646 35.011 32.63 35.3416 32.5478C36.1377 32.3491 36.9097 31.8139 37.4605 31.079C38.0153 30.3381 38.3052 29.4743 38.2756 28.6468C38.248 27.8691 37.938 27.2195 37.4018 26.8182C36.691 26.2852 35.6456 26.2684 34.6734 26.7735C34.3714 26.9298 33.9992 26.8129 33.8422 26.5114C33.6852 26.2094 33.8026 25.8372 34.1046 25.68C35.4996 24.9531 37.0466 25.0118 38.1412 25.8315C38.9814 26.461 39.4665 27.4454 39.5076 28.6032C39.5467 29.711 39.17 30.8528 38.4467 31.8184C37.7188 32.79 36.7216 33.474 35.6395 33.7436C35.5894 33.7562 35.5392 33.7622 35.4901 33.7622Z" fill="#826489"/>
<path d="M27.9491 43.5652C27.1982 43.5654 26.4969 43.3404 25.912 42.9023C24.3941 41.7643 24.0981 39.503 25.2092 37.5253C25.3758 37.2286 25.751 37.1233 26.0484 37.2896C26.3449 37.4564 26.4507 37.8321 26.2837 38.1288C25.4796 39.5607 25.6341 41.1533 26.6514 41.9158C27.1866 42.3169 27.8979 42.4322 28.6519 42.2409C29.4545 42.0367 30.2019 41.5163 30.7572 40.7756C31.5618 39.7019 31.7966 38.3593 31.3552 37.3553C31.2182 37.0438 31.3597 36.6801 31.6712 36.5429C31.9832 36.4064 32.3464 36.5477 32.4838 36.8592C33.1013 38.2637 32.8109 40.0912 31.7434 41.5148C31.0206 42.4799 30.0304 43.1624 28.9559 43.4355C28.6148 43.5223 28.2772 43.5652 27.9491 43.5652Z" fill="#826489"/>
<path d="M33.4715 42.3142C32.7206 42.3142 32.0193 42.0895 31.4344 41.6513C31.2889 41.5422 31.1495 41.4178 31.0211 41.2821C30.7868 41.035 30.7973 40.6448 31.0446 40.4108C31.2914 40.177 31.6812 40.1868 31.916 40.4343C31.9967 40.5196 32.0835 40.5971 32.1738 40.6646C32.7095 41.0659 33.4208 41.182 34.1743 40.9899C34.9769 40.7857 35.7243 40.2655 36.2796 39.5249C36.8344 38.7837 37.1244 37.9199 37.0948 37.0925C37.0672 36.3147 36.7572 35.6651 36.2209 35.2638C35.9365 35.0506 35.6034 34.9179 35.2307 34.8695C34.8936 34.8256 34.6554 34.5164 34.6995 34.1788C34.7431 33.8412 35.0526 33.6024 35.3902 33.6471C35.9671 33.7223 36.5099 33.94 36.9603 34.2771C37.8006 34.9067 38.2856 35.8911 38.3268 37.0489C38.3659 38.1567 37.9892 39.2984 37.2658 40.264C36.543 41.2292 35.5528 41.9114 34.4783 42.1845C34.1372 42.2713 33.7996 42.3142 33.4715 42.3142Z" fill="#826489"/>
<path d="M37.642 37.1025C37.4203 37.1025 37.2061 36.9824 37.0958 36.7722C36.9378 36.471 37.0536 36.0983 37.3551 35.9403C37.8773 35.6664 38.3503 35.2583 38.7236 34.7604C39.2789 34.0195 39.5683 33.1557 39.5387 32.3283C39.5111 31.5505 39.2011 30.9009 38.6649 30.4996C38.5956 30.4477 38.5239 30.4008 38.4492 30.3586C38.1522 30.1914 38.0474 29.8154 38.2149 29.5189C38.3819 29.2222 38.7597 29.1184 39.0541 29.2847C39.176 29.3534 39.2929 29.4294 39.4043 29.5131C40.2445 30.1424 40.7296 31.1269 40.7707 32.2846C40.8098 33.3925 40.4331 34.5342 39.7098 35.4996C39.2277 36.1434 38.6112 36.6734 37.928 37.0318C37.8367 37.0797 37.7384 37.1025 37.642 37.1025Z" fill="#826489"/>
<path d="M23.6005 32.7585C23.5022 32.7585 23.4029 32.7349 23.3106 32.6855C23.1194 32.5834 22.9323 32.4643 22.7538 32.3313C20.7768 30.8495 20.4086 27.9907 21.9321 25.9577C22.6675 24.976 23.7309 24.3301 24.9253 24.1388C26.1257 23.9469 27.3181 24.2366 28.2787 24.9567C28.4558 25.0893 28.6233 25.2361 28.7763 25.3921C29.0146 25.6354 29.0106 26.0256 28.7673 26.2637C28.524 26.5022 28.1337 26.4974 27.8954 26.2549C27.7861 26.143 27.6662 26.0382 27.5393 25.9429C26.848 25.4249 25.9867 25.2155 25.1204 25.3562C24.2431 25.4964 23.4611 25.9727 22.9183 26.6971C21.8027 28.1861 22.06 30.2707 23.4922 31.3441C23.6201 31.4394 23.755 31.5252 23.8915 31.5985C24.1919 31.759 24.3048 32.1324 24.1448 32.4324C24.0334 32.6403 23.8207 32.7585 23.6005 32.7585Z" fill="#826489"/>
<path d="M24.4593 25.4964C24.1302 25.4964 23.8573 25.2365 23.8438 24.9047C23.7991 23.7906 24.1758 22.6418 24.9042 21.6697C26.4276 19.6368 29.0436 19.0146 30.7356 20.2822C31.8322 21.1038 32.3218 22.5749 32.0133 24.1209C31.9466 24.454 31.6245 24.6707 31.2884 24.6047C30.9543 24.538 30.7376 24.2134 30.8043 23.8796C31.019 22.8036 30.7095 21.8031 29.9962 21.2689C28.8485 20.4081 27.0065 20.9192 25.8904 22.4088C25.3401 23.144 25.0427 24.0356 25.0758 24.8555C25.0893 25.1956 24.8244 25.4823 24.4843 25.4958C24.4758 25.4964 24.4678 25.4964 24.4593 25.4964Z" fill="#826489"/>
<path d="M19.8338 37.4773C19.0941 37.4773 18.383 37.2601 17.7856 36.8124C16.9456 36.1831 16.4603 35.1989 16.4189 34.0412C16.3795 32.9331 16.7563 31.7914 17.4799 30.826C18.5468 29.4021 20.2208 28.6128 21.7399 28.8082C22.0775 28.8521 22.3158 29.1616 22.2717 29.4989C22.2275 29.8365 21.9145 30.0741 21.5809 30.0307C20.4929 29.8882 19.2709 30.4914 18.4663 31.5652C17.911 32.3061 17.6216 33.1699 17.6509 33.9973C17.6785 34.7751 17.989 35.4247 18.5247 35.826C19.5421 36.5885 21.1134 36.2895 22.2626 35.1157C22.5004 34.8721 22.8912 34.8684 23.134 35.1064C23.3773 35.3444 23.3818 35.7347 23.1435 35.978C22.1814 36.9612 20.9737 37.4773 19.8338 37.4773Z" fill="#826489"/>
<path d="M18.1867 31.5219C18.0926 31.5219 17.9971 31.5003 17.9075 31.4547C17.742 31.3704 17.5832 31.2716 17.4355 31.1607C16.5955 30.5314 16.1102 29.5472 16.0691 28.3895C16.0297 27.2816 16.4064 26.1397 17.1295 25.1743C18.6534 23.1412 21.2704 22.5199 22.9614 23.7873C23.4104 24.1234 23.772 24.5831 24.0068 25.1164C24.1443 25.4276 24.0033 25.7915 23.6918 25.929C23.3803 26.0674 23.0161 25.9247 22.8792 25.6135C22.7272 25.2688 22.5059 24.9862 22.222 24.7737C21.075 23.9134 19.2321 24.4244 18.1159 25.9137C17.5611 26.6543 17.2715 27.5181 17.3011 28.3456C17.3286 29.1234 17.6389 29.773 18.1746 30.1743C18.2659 30.2427 18.3643 30.3039 18.4668 30.3561C18.7703 30.5106 18.891 30.8818 18.7365 31.185C18.6276 31.3987 18.4112 31.5219 18.1867 31.5219Z" fill="#826489"/>
<path d="M20.6509 24.3697C20.6105 24.3697 20.5697 24.3657 20.5288 24.3574C20.1949 24.2905 19.9787 23.9654 20.046 23.6318C20.198 22.8754 20.5333 22.135 21.0159 21.4909C22.5395 19.4583 25.1555 18.8353 26.8475 20.1036C26.9594 20.1874 27.0657 20.2782 27.1656 20.376C27.4088 20.614 27.4134 21.0043 27.1751 21.2476C26.9373 21.4911 26.5471 21.4951 26.3038 21.2574C26.2421 21.1972 26.1769 21.1415 26.1081 21.0898C24.9604 20.229 23.1184 20.7409 22.0023 22.2303C21.6291 22.7281 21.3705 23.297 21.2544 23.8746C21.1957 24.1673 20.9384 24.3697 20.6509 24.3697Z" fill="#826489"/>
<path d="M22.6263 42.2053C21.8839 42.2053 21.1733 41.9889 20.5829 41.5464C19.2137 40.5204 18.8265 38.5058 19.6414 36.6478C19.7781 36.3358 20.142 36.1941 20.4533 36.331C20.765 36.4677 20.907 36.8311 20.77 37.1429C20.1864 38.4737 20.4134 39.879 21.3223 40.5602C22.2491 41.2542 23.6797 41.0616 24.8029 40.0917C25.0602 39.8687 25.4495 39.8973 25.6722 40.1554C25.8944 40.413 25.8663 40.8023 25.6085 41.0247C24.7061 41.804 23.6371 42.2053 22.6263 42.2053Z" fill="#826489"/>
<path d="M34.2029 26.2674C33.9079 26.2674 33.6471 26.0552 33.5959 25.7548C33.5387 25.4192 33.764 25.1006 34.0995 25.0434C35.3817 24.8242 36.5174 24.1302 37.2979 23.0889C38.3298 21.7119 38.5866 19.9083 37.9992 18.3048C36.2972 18.1922 34.6368 18.9444 33.6044 20.3211C32.8244 21.3625 32.4773 22.6477 32.6273 23.9399C32.6664 24.278 32.4241 24.584 32.086 24.6231C31.7459 24.662 31.4419 24.4204 31.4023 24.0818C31.2162 22.4749 31.6481 20.8767 32.6182 19.582C33.9887 17.7535 36.2485 16.81 38.5139 17.1187C38.7251 17.1476 38.9066 17.2835 38.9934 17.4781C39.926 19.5667 39.6546 21.9998 38.2841 23.8282C37.314 25.123 35.9014 25.986 34.3072 26.2584C34.2721 26.2644 34.237 26.2674 34.2029 26.2674Z" fill="#826489"/>
<path d="M38.8555 28.8523C38.551 28.8523 38.2861 28.6263 38.2455 28.316C38.2009 27.9787 38.4386 27.6692 38.7762 27.6248C40.2917 27.4254 41.634 26.5458 42.4296 25.2471C41.5101 23.9072 40.0233 23.0938 38.3865 23.053C38.0464 23.0444 37.7775 22.7615 37.786 22.4214C37.794 22.0808 38.0694 21.8144 38.4176 21.8205C40.5987 21.8751 42.565 23.0319 43.6786 24.9145C43.787 25.0981 43.793 25.3243 43.6942 25.5134C42.7446 27.3338 40.9658 28.5801 38.9368 28.8468C38.9097 28.8505 38.8826 28.8523 38.8555 28.8523Z" fill="#826489"/>
<path d="M28.217 20.8804C27.9185 20.8804 27.6561 20.6627 27.609 20.3582C27.2955 18.3364 27.9922 16.2794 29.472 14.8561C29.626 14.7083 29.8462 14.6512 30.0514 14.7031C32.1718 15.2433 33.8342 16.8062 34.4983 18.8836C34.6022 19.2079 34.4236 19.5548 34.099 19.6587C33.7765 19.7617 33.4284 19.5834 33.3245 19.2594C32.8259 17.7003 31.6275 16.5017 30.083 15.9953C29.0602 17.1239 28.5932 18.6592 28.8269 20.1696C28.8791 20.5059 28.6489 20.8209 28.3123 20.8729C28.2802 20.8779 28.2486 20.8804 28.217 20.8804Z" fill="#826489"/>
<path d="M39.8738 25.8656H36.1116C35.771 25.8656 35.4951 25.5898 35.4951 25.2494C35.4951 24.909 35.771 24.6331 36.1116 24.6331H39.8738C40.2144 24.6331 40.4903 24.909 40.4903 25.2494C40.4903 25.5898 40.2144 25.8656 39.8738 25.8656Z" fill="#826489"/>
<path d="M31.7223 22.4743C31.4404 22.4743 31.1866 22.28 31.1219 21.9938L30.3805 18.7164C30.3052 18.3843 30.5134 18.0545 30.8455 17.9793C31.1756 17.9043 31.5071 18.1124 31.5824 18.4445L32.3238 21.7219C32.399 22.054 32.1909 22.3838 31.8588 22.459C31.8131 22.4693 31.7675 22.4743 31.7223 22.4743Z" fill="#826489"/>
<path d="M33.5463 24.9536C33.4128 24.9536 33.2779 24.9105 33.165 24.8212C32.8977 24.6105 32.852 24.2227 33.0627 23.9556L35.5136 20.849C35.7248 20.5817 36.1121 20.5353 36.3795 20.7469C36.6468 20.9576 36.6925 21.3454 36.4818 21.6125L34.0308 24.7191C33.9089 24.8733 33.7284 24.9536 33.5463 24.9536Z" fill="#826489"/>
<path d="M12.1854 25.6868C11.8865 25.6868 11.5792 25.6477 11.2685 25.5687C10.2928 25.3204 9.39437 24.7016 8.73849 23.8265C7.3545 21.979 7.48292 19.5358 9.02517 18.3801C9.79266 17.8047 10.7786 17.6314 11.8029 17.8918C12.7786 18.1398 13.677 18.7586 14.3331 19.6339C15.7171 21.4814 15.5887 23.9246 14.0465 25.0803C13.5117 25.4809 12.8709 25.6868 12.1854 25.6868ZM10.8922 19.0076C10.4691 19.0076 10.0811 19.129 9.76457 19.3663C8.76608 20.1147 8.74852 21.7839 9.72519 23.0871C10.2128 23.738 10.8687 24.195 11.5722 24.3738C12.2283 24.5406 12.8438 24.441 13.3071 24.0939C14.3056 23.3457 14.3231 21.6765 13.3464 20.3733C12.8589 19.7224 12.2027 19.2655 11.4992 19.0864C11.2918 19.0337 11.0881 19.0076 10.8922 19.0076Z" fill="#826489"/>
<path d="M15.9037 31.3461C15.8658 31.3461 15.8277 31.3426 15.7891 31.3353C14.7364 31.1374 13.7271 30.4833 13.0203 29.5405C12.3642 28.6649 12.0226 27.6288 12.0585 26.623C12.0961 25.5674 12.5396 24.6692 13.3071 24.0939C14.1744 23.444 15.3722 23.3118 16.5114 23.7402C16.8302 23.8598 16.9915 24.2152 16.8716 24.5338C16.752 24.8525 16.3948 25.0133 16.078 24.8939C15.3236 24.611 14.5827 24.6788 14.0465 25.0803C13.583 25.4277 13.3146 25.991 13.2905 26.6669C13.2646 27.3923 13.519 28.1502 14.0068 28.8011C14.5307 29.5001 15.2634 29.9822 16.0168 30.1239C16.3514 30.1866 16.5716 30.5089 16.5087 30.8435C16.453 31.1394 16.1944 31.3461 15.9037 31.3461Z" fill="#826489"/>
<path d="M11.0826 30.767C10.8646 30.767 10.6449 30.7495 10.4247 30.7144C9.33916 30.5406 8.37352 29.9536 7.70511 29.062C6.32086 27.2145 6.65645 24.6166 8.45278 23.2702C8.6128 23.1503 8.78536 23.0405 8.96494 22.9444C9.26517 22.7839 9.63863 22.8977 9.79915 23.1977C9.95942 23.4982 9.84605 23.8714 9.54583 24.0319C9.42143 24.0981 9.30279 24.1736 9.19268 24.2564C7.93962 25.1954 7.71514 27.0194 8.69181 28.3226C9.1671 28.9572 9.85183 29.3743 10.6196 29.4972C11.3795 29.6191 12.1307 29.437 12.7344 28.9842C12.8458 28.901 12.9516 28.8082 13.0492 28.7084C13.2872 28.4653 13.6775 28.4603 13.9208 28.6986C14.1641 28.9363 14.1686 29.3266 13.9306 29.5701C13.7893 29.7146 13.6356 29.8496 13.4738 29.9707C12.7763 30.4934 11.9454 30.767 11.0826 30.767Z" fill="#826489"/>
<path d="M7.46732 27.1982C7.41791 27.1982 7.36775 27.1922 7.31759 27.1797C6.33515 26.9349 5.43021 26.3143 4.76982 25.4327C3.38558 23.5857 3.51425 21.1426 5.0565 19.9868C6.0555 19.2376 7.46607 19.1832 8.73669 19.8456C9.03868 20.0029 9.1558 20.3751 8.99854 20.6768C8.84129 20.9788 8.46757 21.0954 8.16735 20.9387C7.32085 20.498 6.4124 20.511 5.7959 20.973C4.79741 21.7214 4.7796 23.3904 5.75627 24.6936C6.24009 25.3394 6.91804 25.8097 7.61606 25.9838C7.94613 26.066 8.14728 26.4006 8.06476 26.7307C7.99504 27.0111 7.74347 27.1982 7.46732 27.1982Z" fill="#826489"/>
<path d="M14.2188 35.9616C12.974 35.9616 11.6539 35.2915 10.7666 34.1076C9.79816 32.8154 9.53531 31.1548 10.0969 29.8774C10.2338 29.5656 10.598 29.4244 10.9093 29.5611C11.2208 29.6983 11.3625 30.062 11.2255 30.3735C10.8398 31.2506 11.047 32.4262 11.753 33.3682C12.6447 34.5581 14.0846 35.0539 15.1011 34.5227C15.4031 34.365 15.7751 34.4821 15.9328 34.7836C16.0906 35.0853 15.9737 35.4577 15.672 35.6153C15.2233 35.8498 14.7272 35.9616 14.2188 35.9616Z" fill="#826489"/>
<path d="M9.27318 34.8488C8.97447 34.8488 8.66722 34.8097 8.35646 34.7307C7.38079 34.4826 6.48238 33.8639 5.82625 32.9885C4.44226 31.141 4.57067 28.6978 6.11293 27.5421C6.52477 27.2336 7.02088 27.0344 7.54834 26.9657C7.88167 26.9206 8.19519 27.1598 8.23908 27.4974C8.28297 27.835 8.04495 28.1443 7.70735 28.1882C7.38556 28.2301 7.09762 28.3444 6.85208 28.5285C5.85384 29.2767 5.83628 30.9459 6.81295 32.2491C7.30053 32.9 7.95666 33.357 8.66019 33.536C9.31557 33.7021 9.93182 33.6033 10.3948 33.2561C10.4741 33.1967 10.5481 33.1305 10.615 33.059C10.8483 32.8107 11.2383 32.7986 11.4864 33.0314C11.7344 33.2644 11.747 33.6544 11.514 33.9027C11.3981 34.0259 11.2704 34.1402 11.1342 34.2423C10.5997 34.6431 9.95891 34.8488 9.27318 34.8488Z" fill="#826489"/>
<path d="M5.54183 30.1861C5.44527 30.1861 5.34746 30.1633 5.25616 30.1154C4.63615 29.7903 4.07733 29.31 3.63991 28.7264C2.98404 27.851 2.64242 26.8149 2.67829 25.8089C2.71592 24.7532 3.15911 23.8551 3.9266 23.28C4.02893 23.2032 4.13578 23.1337 4.24688 23.071C4.5436 22.9035 4.91982 23.0086 5.08636 23.305C5.25365 23.6015 5.14881 23.9775 4.85235 24.1445C4.78764 24.1811 4.72519 24.222 4.66549 24.2664C4.20249 24.6135 3.93412 25.1769 3.91004 25.8528C3.88421 26.5782 4.13879 27.3361 4.62637 27.987C4.95468 28.4249 5.37028 28.7833 5.82852 29.0239C6.13 29.1819 6.24638 29.5543 6.08811 29.8558C5.978 30.066 5.76355 30.1861 5.54183 30.1861Z" fill="#826489"/>
<path d="M19.5905 21.85C19.352 21.85 19.1247 21.7106 19.0241 21.4776C18.9286 21.2556 18.8064 21.0449 18.6617 20.8518C18.1862 20.2172 17.5015 19.8001 16.7337 19.6772C15.9742 19.5561 15.2228 19.7377 14.6189 20.1901C14.5095 20.2719 14.4047 20.3637 14.3066 20.4633C14.0681 20.7061 13.678 20.7093 13.435 20.4705C13.1922 20.232 13.189 19.8417 13.4277 19.599C13.5689 19.4552 13.7212 19.3221 13.8797 19.2034C14.753 18.5488 15.8355 18.2854 16.9286 18.46C18.0141 18.6338 18.9797 19.2207 19.6482 20.1124C19.8511 20.3833 20.0219 20.6782 20.1563 20.9895C20.291 21.302 20.1468 21.6647 19.8343 21.7996C19.7548 21.8337 19.672 21.85 19.5905 21.85Z" fill="#826489"/>
<path d="M17.3352 19.8038C17.3266 19.8038 17.3184 19.8038 17.3101 19.8032C16.97 19.7897 16.7051 19.503 16.7189 19.1629C16.7475 18.4441 16.4867 17.6613 16.0026 17.0157C15.515 16.3648 14.8591 15.9079 14.1556 15.7288C13.4992 15.5622 12.884 15.6611 12.4207 16.0089C11.803 16.4717 11.5353 17.342 11.7227 18.2798C11.7894 18.6136 11.5727 18.9382 11.2389 19.0049C10.9065 19.0714 10.5805 18.8554 10.5138 18.5211C10.2329 17.1133 10.6801 15.7727 11.6813 15.0225C12.4488 14.4466 13.436 14.2736 14.4593 14.5341C15.435 14.7822 16.3334 15.401 16.9893 16.2766C17.6497 17.1577 17.991 18.2003 17.9504 19.2121C17.9371 19.5439 17.664 19.8038 17.3352 19.8038Z" fill="#826489"/>
<path d="M18.2443 20.2376C18.1613 20.2376 18.0773 20.2208 17.9965 20.1854C17.685 20.0482 17.5433 19.6846 17.6803 19.373C17.8944 18.886 18.225 18.4656 18.6364 18.1576C19.7786 17.3021 21.4053 17.3557 22.7823 18.2958C23.0632 18.4877 23.1355 18.8712 22.9438 19.1523C22.7512 19.4335 22.3675 19.5052 22.087 19.3136C21.1533 18.6763 20.0888 18.6101 19.3755 19.144C19.1302 19.3279 18.9396 19.5717 18.8089 19.8692C18.7073 20.1002 18.4814 20.2376 18.2443 20.2376Z" fill="#826489"/>
<path d="M20.7419 18.7956C20.4545 18.7956 20.1974 18.5935 20.1385 18.3008C20.0364 17.7931 19.8089 17.2935 19.4809 16.8558C18.5042 15.5524 16.8975 15.1004 15.899 15.8488C15.8393 15.8932 15.7831 15.9416 15.7299 15.9935C15.4861 16.2308 15.0964 16.2268 14.8583 15.9828C14.6206 15.7392 14.6253 15.349 14.8691 15.1112C14.9609 15.0216 15.0577 14.9386 15.1601 14.8621C16.7018 13.7069 19.0828 14.2695 20.4676 16.1164C20.9047 16.7003 21.209 17.3715 21.3469 18.0575C21.4141 18.3913 21.1979 18.7161 20.8643 18.7833C20.8232 18.7916 20.7823 18.7956 20.7419 18.7956Z" fill="#826489"/>
<path d="M8.61909 20.4935C8.58448 20.4935 8.54961 20.4905 8.5145 20.4845C7.07157 20.2379 5.79317 19.4569 4.91532 18.2853C3.67555 16.6305 3.42975 14.4288 4.27399 12.5392C4.36103 12.3445 4.54236 12.2086 4.75355 12.1798C6.80671 11.9001 8.84858 12.7546 10.0881 14.4087C10.9662 15.5803 11.357 17.0265 11.1884 18.4807C11.1496 18.8188 10.8446 19.0608 10.5052 19.022C10.1671 18.9828 9.92483 18.6768 9.96396 18.3387C10.0961 17.1993 9.78989 16.0661 9.10191 15.1481C8.20048 13.9455 6.75529 13.2826 5.26922 13.3674C4.7696 14.7712 5.0006 16.3433 5.90177 17.5462C6.58976 18.4641 7.59151 19.0761 8.72217 19.2695C9.05776 19.3267 9.28325 19.6452 9.22581 19.9808C9.17464 20.2813 8.91379 20.4935 8.61909 20.4935Z" fill="#826489"/>
<path d="M4.45633 22.8059C4.4295 22.8059 4.40241 22.8041 4.37507 22.8004C2.53911 22.5588 0.929637 21.4312 0.070098 19.7841C-0.0287218 19.5952 -0.0227042 19.3687 0.0859012 19.1851C1.09342 17.4816 2.8732 16.435 4.8466 16.3853C5.18219 16.3881 5.46987 16.6459 5.4784 16.986C5.48693 17.3264 5.21781 17.6093 4.8777 17.6178C3.44881 17.6534 2.14935 18.357 1.33696 19.5177C2.04125 20.6429 3.2138 21.4043 4.53609 21.5784C4.87343 21.6228 5.11096 21.9323 5.06656 22.2699C5.02593 22.5799 4.76107 22.8059 4.45633 22.8059Z" fill="#826489"/>
<path d="M13.9732 15.6743C13.9418 15.6743 13.91 15.6718 13.8779 15.6668C13.5415 15.6146 13.3113 15.2996 13.3635 14.9633C13.5679 13.6455 13.1663 12.3064 12.284 11.3144C10.9421 11.7681 9.90199 12.8178 9.46633 14.179C9.36274 14.5033 9.01436 14.6808 8.69156 14.5783C8.36726 14.4744 8.18868 14.1275 8.29252 13.8032C8.89397 11.9231 10.3981 10.509 12.3161 10.0205C12.5227 9.96804 12.742 10.0257 12.8955 10.1732C14.2351 11.4611 14.8653 13.3224 14.5814 15.1524C14.5343 15.4566 14.2719 15.6743 13.9732 15.6743Z" fill="#826489"/>
<path d="M6.91128 20.134H3.54586C3.2055 20.134 2.92961 19.8581 2.92961 19.5178C2.92961 19.1774 3.2055 18.9015 3.54586 18.9015H6.91128C7.25163 18.9015 7.52753 19.1774 7.52753 19.5178C7.52753 19.8581 7.25163 20.134 6.91128 20.134Z" fill="#826489"/>
<path d="M10.8381 17.1001C10.7932 17.1001 10.7475 17.0951 10.7016 17.0848C10.3695 17.0098 10.1614 16.6798 10.2364 16.3477L10.8993 13.4157C10.9745 13.0839 11.3038 12.8757 11.6364 12.9504C11.9685 13.0254 12.1767 13.3555 12.1017 13.6876L11.4388 16.6196C11.3741 16.9058 11.1197 17.1001 10.8381 17.1001Z" fill="#826489"/>
<path d="M9.20625 19.3181C9.0239 19.3181 8.84357 19.2378 8.72192 19.0836L6.52931 16.3046C6.31837 16.0374 6.36402 15.6497 6.63139 15.439C6.89901 15.2281 7.28651 15.274 7.49694 15.5411L9.68956 18.3201C9.9005 18.5872 9.85485 18.975 9.58748 19.1857C9.47436 19.275 9.33993 19.3181 9.20625 19.3181Z" fill="#826489"/>
</svg>
