<svg width="44" height="45" viewBox="0 0 44 45" fill="none" xmlns="http://www.w3.org/2000/svg">
<path d="M4.34696 23.4851C4.76483 23.9064 5.2087 24.301 5.67597 24.6667L6.58054 23.5137C6.16133 23.1847 5.76278 22.8302 5.38715 22.4522C2.88232 19.9403 1.47276 16.5396 1.46609 12.9923V6.57813H7.88023C11.4251 6.58889 14.8228 7.99671 17.3365 10.4963C18.43 11.5938 19.3231 12.8742 19.9755 14.2795C19.5478 16.7772 20.0013 19.3459 21.2583 21.5462V24.1983C20.4689 23.6048 19.6029 23.1208 18.6838 22.7594L18.3261 22.4009V15.3967H16.86V20.9348L13.9279 18.0026V11.7314H12.4618V16.5365L9.52958 13.6044V9.53231H8.06349V12.139L4.79191 8.86743L3.75539 9.90396L7.04603 13.1975H4.39827V14.6636H8.51138L11.4436 17.5958H6.5974V19.0619H12.906L15.9166 22.0674C13.5811 21.794 11.2196 22.2812 9.18293 23.4565C7.14623 24.6318 5.54285 26.4326 4.61085 28.5915H0.755036C0.560621 28.5915 0.374168 28.6687 0.236695 28.8062C0.0992226 28.9436 0.0219913 29.1301 0.0219913 29.3245C0.0227052 30.0587 0.210617 30.7805 0.567968 31.4219C0.925319 32.0632 1.4403 32.6028 2.06425 32.9897C1.43958 33.3759 0.924029 33.9153 0.566579 34.5568C0.20913 35.1983 0.0216626 35.9206 0.0219913 36.655C0.0219913 36.8494 0.0992226 37.0358 0.236695 37.1733C0.374168 37.3108 0.560621 37.388 0.755036 37.388H4.61085C5.20557 38.7471 6.06928 39.9718 7.14994 40.9882C8.23061 42.0047 9.50585 42.7918 10.8988 43.3022C12.2918 43.8126 13.7737 44.0357 15.2553 43.9581C16.7368 43.8805 18.1873 43.5038 19.5193 42.8507C20.8514 42.1975 22.0374 41.2815 23.006 40.1577C23.9745 39.0339 24.7056 37.7257 25.155 36.3119C25.6045 34.8981 25.7631 33.4079 25.6213 31.9311C25.4794 30.4544 25.0401 29.0216 24.3298 27.7191C24.8505 26.9221 25.4923 26.2111 26.232 25.6116C27.4144 24.6451 28.8118 23.9768 30.3065 23.6632C31.8011 23.3496 33.3493 23.3999 34.8205 23.8097C36.2917 24.2195 37.6428 24.9769 38.7601 26.0181C39.8774 27.0592 40.7281 28.3537 41.2405 29.7924C41.7529 31.231 41.912 32.7718 41.7045 34.2848C41.4969 35.7979 40.9288 37.2389 40.0479 38.4864C39.167 39.734 37.9991 40.7515 36.6428 41.4534C35.2864 42.1552 33.7812 42.5208 32.254 42.5193C31.0022 42.5237 29.7621 42.2791 28.6057 41.7999C27.4493 41.3207 26.3998 40.6164 25.518 39.7279L24.4837 40.76C25.5619 41.8444 26.8546 42.6919 28.279 43.2482C29.7035 43.8046 31.2283 44.0575 32.7561 43.9909C34.2839 43.9243 35.7809 43.5396 37.1515 42.8614C38.5222 42.1833 39.7362 41.2265 40.7159 40.0524C41.6957 38.8782 42.4196 37.5125 42.8415 36.0427C43.2633 34.5728 43.3738 33.031 43.1658 31.516C42.9578 30.001 42.436 28.5461 41.6336 27.2442C40.8312 25.9424 39.766 24.8224 38.5061 23.9557C38.5318 23.9308 38.5604 23.9088 38.5853 23.8824C40.0905 22.366 41.1234 20.4456 41.5589 18.3539C41.9944 16.2622 41.8137 14.089 41.0388 12.098L43.7679 9.36884C43.9053 9.23137 43.9825 9.04495 43.9825 8.85057C43.9825 8.6562 43.9053 8.46978 43.7679 8.33231C43.2476 7.81441 42.604 7.43749 41.8977 7.23704C41.1915 7.03659 40.4458 7.01922 39.731 7.18656C39.8996 6.47163 39.8827 5.72545 39.6818 5.01891C39.4809 4.31237 39.1027 3.66892 38.5831 3.14968C38.4456 3.01226 38.2592 2.93506 38.0648 2.93506C37.8704 2.93506 37.684 3.01226 37.5466 3.14968L34.8196 5.87881C32.8283 5.10448 30.6553 4.92412 28.5636 5.35958C26.4719 5.79504 24.5513 6.82764 23.0345 8.33231C21.9318 9.43528 21.078 10.7615 20.5304 12.2218C19.2149 10.0456 17.3585 8.24691 15.1416 7.00099C12.9248 5.75506 10.4232 5.1043 7.88023 5.11204H0.733045C0.538629 5.11204 0.352176 5.18928 0.214704 5.32675C0.0772312 5.46422 0 5.65067 0 5.84509V12.9923C0.00643333 16.9267 1.56914 20.6988 4.34696 23.4851ZM1.58411 30.0576H4.09552C3.90877 30.7246 3.78604 31.408 3.729 32.0984C3.21827 31.9886 2.74776 31.74 2.3693 31.3799C1.99085 31.0198 1.71914 30.5622 1.58411 30.0576ZM1.58411 35.9219C1.68875 35.5286 1.87675 35.1623 2.13536 34.848C2.54174 34.3532 3.1051 34.0123 3.73193 33.8819C3.78808 34.5719 3.90982 35.255 4.09552 35.9219H1.58411ZM14.6822 42.5193C12.1556 42.5164 9.73345 41.5115 7.94694 39.725C6.16042 37.9384 5.15548 35.5162 5.15257 32.9897C5.15257 31.105 5.71147 29.2625 6.7586 27.6954C7.80572 26.1283 9.29404 24.9068 11.0353 24.1856C12.7766 23.4643 14.6927 23.2756 16.5413 23.6433C18.3898 24.011 20.0878 24.9186 21.4206 26.2513C22.7533 27.584 23.6609 29.2821 24.0286 31.1306C24.3963 32.9792 24.2076 34.8952 23.4863 36.6366C22.7651 38.3779 21.5436 39.8662 19.9765 40.9133C18.4094 41.9604 16.5669 42.5193 14.6822 42.5193ZM22.7244 25.5127V23.5335C22.8299 23.6485 22.9238 23.7732 23.0345 23.8839C23.5014 24.3498 24.0098 24.7723 24.5533 25.1462C24.1571 25.5344 23.7922 25.9533 23.4618 26.3989C23.2316 26.0909 22.9855 25.795 22.7244 25.5127ZM42.1442 8.91875L40.3761 10.6876C40.0345 10.0843 39.6356 9.51523 39.1849 8.98839C39.6249 8.70782 40.1332 8.55301 40.6548 8.54074C41.1765 8.52846 41.6916 8.65919 42.1442 8.91875ZM38.0003 4.77118C38.2617 5.22378 38.3932 5.73973 38.3803 6.26224C38.3674 6.78476 38.2105 7.29357 37.927 7.73268C37.4011 7.28213 36.8331 6.88322 36.2307 6.54148L38.0003 4.77118ZM24.0725 9.36884C25.4406 8.00957 27.1875 7.09529 29.0841 6.74578C30.9808 6.39627 32.9388 6.62784 34.7016 7.41014C36.8439 8.36491 38.5569 10.079 39.5104 12.2218C40.2918 13.9842 40.5228 15.9415 40.173 17.8373C39.8233 19.7331 38.9091 21.4791 37.5502 22.8466C37.4366 22.9602 37.312 23.0665 37.1925 23.1735C35.3785 22.2544 33.344 21.8599 31.3179 22.0344C29.2918 22.209 27.3547 22.9457 25.7247 24.1617C25.126 23.7872 24.5717 23.346 24.0725 22.8466C23.5148 22.2889 23.0279 21.6648 22.6225 20.9883C21.5405 19.1652 21.0958 17.034 21.3583 14.9304C21.6208 12.8267 22.5757 10.8701 24.0725 9.36884Z" fill="#826489"/>
<path d="M30.1281 9.56681L29.9815 8.10879C29.3996 8.16877 28.8259 8.29167 28.2706 8.47531L28.7324 9.8681C29.1853 9.7174 29.6533 9.61638 30.1281 9.56681Z" fill="#826489"/>
<path d="M26.1594 11.4588C26.5844 11.0331 27.0656 10.6676 27.5896 10.3724L26.8705 9.09253C25.8115 9.68875 24.9011 10.5168 24.2075 11.5148C23.5138 12.5127 23.0549 13.6546 22.8651 14.855L24.3129 15.0822C24.5266 13.7085 25.1736 12.439 26.1594 11.4588Z" fill="#826489"/>
<path d="M31.4191 37.5133C31.8519 37.827 32.3569 38.0264 32.8872 38.093C33.4176 38.1596 33.9562 38.0914 34.4531 37.8945C34.95 38.0916 35.4887 38.16 36.0191 38.0934C36.5495 38.0268 37.0545 37.8272 37.4872 37.5133C37.9413 37.1892 38.3053 36.7546 38.5447 36.2506C38.7842 35.7467 38.8912 35.19 38.8558 34.6332C39.2031 34.2007 39.4362 33.688 39.5338 33.142C39.6314 32.596 39.5903 32.0342 39.4144 31.5082C39.2489 30.9943 38.9579 30.5297 38.5676 30.1566C38.1774 29.7835 37.7002 29.5136 37.1793 29.3714C36.8907 28.9086 36.489 28.5269 36.012 28.2622C35.5351 27.9976 34.9986 27.8587 34.4531 27.8587C33.9077 27.8587 33.3712 27.9976 32.8943 28.2622C32.4173 28.5269 32.0156 28.9086 31.7269 29.3714C31.2061 29.5136 30.7289 29.7835 30.3386 30.1566C29.9483 30.5297 29.6573 30.9943 29.4919 31.5082C29.3159 32.0342 29.2749 32.596 29.3725 33.142C29.4701 33.688 29.7032 34.2007 30.0505 34.6332C30.015 35.19 30.1221 35.7467 30.3615 36.2506C30.601 36.7546 30.965 37.1892 31.4191 37.5133ZM30.8847 31.9635C30.9828 31.6456 31.1691 31.3621 31.4218 31.1458C31.6745 30.9295 31.9834 30.7893 32.3126 30.7415C32.4308 30.7239 32.5428 30.6777 32.639 30.6069C32.7352 30.5361 32.8127 30.4429 32.8646 30.3354C33.0052 30.0325 33.2294 29.7761 33.5108 29.5965C33.7923 29.4168 34.1192 29.3214 34.4531 29.3214C34.787 29.3214 35.114 29.4168 35.3954 29.5965C35.6769 29.7761 35.9011 30.0325 36.0416 30.3354C36.0936 30.4429 36.1711 30.5361 36.2673 30.6069C36.3635 30.6777 36.4755 30.7239 36.5936 30.7415C36.9228 30.7893 37.2317 30.9295 37.4845 31.1458C37.7372 31.3621 37.9235 31.6456 38.0216 31.9635C38.1341 32.2904 38.1518 32.6426 38.0727 32.9792C37.9936 33.3158 37.8208 33.6231 37.5744 33.8657C37.4914 33.9483 37.4294 34.0496 37.3936 34.161C37.3577 34.2725 37.3491 34.3909 37.3685 34.5064C37.4323 34.847 37.3972 35.1988 37.2673 35.5201C37.1374 35.8414 36.9181 36.1187 36.6354 36.3192C36.3734 36.5123 36.0615 36.6262 35.7367 36.6476C35.4119 36.6689 35.0878 36.5966 34.8028 36.4394C34.6962 36.3822 34.5771 36.3522 34.4561 36.3522C34.3351 36.3522 34.2159 36.3822 34.1093 36.4394C33.8243 36.5966 33.5002 36.6689 33.1754 36.6476C32.8506 36.6262 32.5388 36.5123 32.2767 36.3192C31.994 36.1187 31.7747 35.8414 31.6448 35.5201C31.5149 35.1988 31.4798 34.847 31.5437 34.5064C31.563 34.3909 31.5544 34.2725 31.5185 34.161C31.4827 34.0496 31.4207 33.9483 31.3377 33.8657C31.0903 33.6238 30.9164 33.3167 30.8363 32.9801C30.7561 32.6434 30.7729 32.291 30.8847 31.9635Z" fill="#826489"/>
<path d="M12.4464 25.52L12.9082 26.9128C13.3629 26.7621 13.8326 26.6613 14.3091 26.6122L14.1573 25.1542C13.5755 25.214 13.0018 25.3366 12.4464 25.52Z" fill="#826489"/>
<path d="M9.30156 27.4647C8.09514 28.6647 7.30381 30.2189 7.04305 31.9004L8.49155 32.1276C8.70408 30.7531 9.35029 29.4825 10.3359 28.5012C10.7619 28.0769 11.2438 27.7127 11.7683 27.4185L11.0491 26.1408C10.409 26.5004 9.82101 26.9458 9.30156 27.4647Z" fill="#826489"/>
</svg>
