<svg width="44" height="45" viewBox="0 0 44 45" fill="none" xmlns="http://www.w3.org/2000/svg">
<path d="M27.5683 41.1686C24.0136 41.1686 20.3149 39.5858 17.1536 36.7109C10.0202 30.2228 7.4156 18.8522 11.3462 11.3638C13.4692 7.32006 17.1742 5.00146 21.5093 5.00146C25.064 5.00146 28.7627 6.58479 31.9253 9.46099C39.0579 15.9487 41.662 27.3184 37.7314 34.8053C35.6089 38.8496 31.9039 41.1686 27.5683 41.1686ZM21.5098 6.63939C17.803 6.63939 14.6278 8.63845 12.7957 12.1251C9.19136 18.9954 11.6393 29.4808 18.2559 35.4986C21.1146 38.0991 24.4231 39.5307 27.5683 39.5307C31.2746 39.5307 34.4507 37.5307 36.2824 34.0441C39.8867 27.1747 37.4392 16.6902 30.8222 10.6715C27.9634 8.07145 24.6563 6.63939 21.5098 6.63939Z" fill="#826489"/>
<path d="M38.242 39.1285C38.0424 39.1285 37.8438 39.0569 37.6853 38.911C37.3546 38.604 37.3336 38.0857 37.6406 37.7537C38.157 37.1952 38.6309 36.5745 39.0512 35.9077C39.2928 35.5241 39.8003 35.4132 40.1807 35.6499C40.5629 35.8911 40.6779 36.3973 40.4362 36.7799C39.9645 37.5326 39.4271 38.2343 38.8431 38.8653C38.682 39.0412 38.4627 39.1285 38.242 39.1285Z" fill="#826489"/>
<path d="M41.6271 32.8591C41.5551 32.8591 41.4799 32.8497 41.4065 32.8292C40.9711 32.7079 40.7169 32.2559 40.8381 31.82C43.0346 23.9602 39.8737 13.93 33.3243 7.9726C32.7918 7.48928 32.2507 7.04311 31.7034 6.63497C31.34 6.36377 31.2666 5.85136 31.5374 5.48798C31.8063 5.12459 32.3196 5.05209 32.683 5.3215C33.2715 5.76141 33.8537 6.23981 34.4252 6.75938C41.4096 13.1124 44.7709 23.8363 42.4161 32.2608C42.315 32.6224 41.9856 32.8591 41.6271 32.8591Z" fill="#826489"/>
<path d="M27.3221 36.9679C24.4218 36.9679 21.4077 35.6795 18.8354 33.3398C13.0445 28.0734 10.9309 18.8371 14.127 12.7517C15.8643 9.44185 18.8976 7.54347 22.4491 7.54347C25.3481 7.54347 28.3617 8.83278 30.9359 11.1733C36.7272 16.4393 38.8391 25.6747 35.6442 31.7619C33.9052 35.0713 30.8719 36.9679 27.3221 36.9679ZM22.4491 9.18184C19.5277 9.18184 17.0225 10.7607 15.5766 13.5134C12.7066 18.9807 14.6614 27.3314 19.9358 32.1275C22.2075 34.1928 24.8308 35.3299 27.3221 35.3299C30.2431 35.3308 32.747 33.7524 34.1947 31.0002C37.0646 25.5324 35.1081 17.1812 29.8354 12.3861C27.562 10.3199 24.9396 9.18184 22.4491 9.18184Z" fill="#826489"/>
<path d="M22.19 29.0866C22.0606 29.0866 21.9309 29.0562 21.8087 28.9926C21.4091 28.7823 21.2538 28.2874 21.465 27.8864L23.1204 24.7291C23.3303 24.3268 23.8275 24.1787 24.2262 24.3841C24.6263 24.5944 24.7811 25.0894 24.5703 25.4904L22.9145 28.6476C22.7691 28.9273 22.4844 29.0866 22.19 29.0866Z" fill="#826489"/>
<path d="M27.2644 19.4203C27.1351 19.4203 27.0053 19.3898 26.8835 19.3267C26.4835 19.1164 26.3286 18.621 26.5394 18.2205L28.1966 15.0641C28.4065 14.6627 28.9054 14.5114 29.3024 14.7195C29.7025 14.9299 29.8573 15.4248 29.6465 15.8258L27.9889 18.9822C27.8435 19.261 27.5589 19.4203 27.2644 19.4203Z" fill="#826489"/>
<path d="M25.7093 31.0181C25.2631 31.0181 24.8979 30.661 24.8903 30.2139L24.8133 26.1075C24.8053 25.655 25.1655 25.2813 25.6166 25.2728C25.6229 25.2728 25.6274 25.2728 25.6323 25.2728C26.0789 25.2728 26.4436 25.6295 26.4517 26.077L26.5282 30.1835C26.5367 30.6355 26.1765 31.0096 25.7254 31.0181C25.7191 31.0181 25.7142 31.0181 25.7093 31.0181Z" fill="#826489"/>
<path d="M25.4761 18.4383C25.0295 18.4383 24.6648 18.0816 24.6567 17.6345L24.5802 13.5272C24.5717 13.0752 24.9319 12.7015 25.383 12.693C25.3898 12.693 25.3942 12.693 25.3992 12.693C25.8453 12.693 26.2105 13.0497 26.2181 13.4968L26.2951 17.6041C26.3031 18.0561 25.9433 18.4298 25.4918 18.4383C25.4855 18.4383 25.4806 18.4383 25.4761 18.4383Z" fill="#826489"/>
<path d="M29.1887 30.7158C28.8768 30.7158 28.5792 30.5368 28.4414 30.2343L26.6531 26.2764C26.4674 25.8633 26.65 25.3787 27.0626 25.1925C27.4752 25.0059 27.9603 25.188 28.1474 25.6006L29.9356 29.5589C30.1214 29.972 29.9392 30.4562 29.5262 30.6428C29.4161 30.6921 29.3024 30.7158 29.1887 30.7158Z" fill="#826489"/>
<path d="M23.7098 18.5918C23.3979 18.5918 23.0998 18.4127 22.9624 18.1102L21.1724 14.1515C20.9866 13.7398 21.1688 13.2542 21.5818 13.0676C21.9877 12.881 22.4791 13.0636 22.6662 13.4762L24.4567 17.4349C24.6424 17.8471 24.4598 18.3326 24.0472 18.5188C23.9385 18.5685 23.8235 18.5918 23.7098 18.5918Z" fill="#826489"/>
<path d="M31.6939 28.2572C31.4975 28.2572 31.3006 28.1869 31.1439 28.0442L28.1205 25.2964C27.7844 24.9925 27.7603 24.4743 28.0646 24.1391C28.3702 23.8039 28.8884 23.7807 29.221 24.0841L32.2448 26.8318C32.5805 27.1366 32.6046 27.6539 32.3008 27.9891C32.1388 28.1668 31.9164 28.2572 31.6939 28.2572Z" fill="#826489"/>
<path d="M22.4375 19.8403C22.241 19.8403 22.0437 19.77 21.8875 19.6273L18.8654 16.8804C18.5297 16.5756 18.5056 16.0583 18.8094 15.7231C19.1151 15.3888 19.6333 15.3664 19.9658 15.6676L22.9875 18.4145C23.3236 18.7193 23.3477 19.2366 23.0434 19.5718C22.8828 19.7499 22.6603 19.8403 22.4375 19.8403Z" fill="#826489"/>
<path d="M32.555 24.307C32.4941 24.307 32.4319 24.2999 32.3675 24.2856L28.922 23.48C28.4821 23.3771 28.2082 22.9372 28.3107 22.4964C28.4163 22.0574 28.8388 21.7835 29.2962 21.8851L32.7421 22.6906C33.182 22.794 33.4558 23.2339 33.3529 23.6747C33.2634 24.052 32.9278 24.307 32.555 24.307Z" fill="#826489"/>
<path d="M22.0012 21.8457C21.9403 21.8457 21.8781 21.8394 21.8159 21.8242L18.3695 21.0227C17.9296 20.9202 17.6544 20.4803 17.7569 20.0395C17.8594 19.5996 18.2961 19.319 18.7405 19.4277L22.1864 20.2293C22.6263 20.3317 22.902 20.7716 22.7991 21.2125C22.7114 21.5906 22.3739 21.8457 22.0012 21.8457Z" fill="#826489"/>
<path d="M28.5922 21.2719C28.2834 21.2719 27.9858 21.0951 27.848 20.7953C27.6592 20.3849 27.8386 19.8976 28.2494 19.7087L31.1964 18.3523C31.6009 18.163 32.0923 18.3429 32.2825 18.7537C32.4713 19.1641 32.2919 19.651 31.8815 19.8398L28.9346 21.1963C28.8241 21.2477 28.7072 21.2719 28.5922 21.2719Z" fill="#826489"/>
<path d="M19.5712 25.4365C19.2624 25.4365 18.9666 25.2602 18.8274 24.9603C18.6385 24.5504 18.818 24.0639 19.2275 23.8733L22.1713 22.5133C22.5839 22.3262 23.069 22.5021 23.2592 22.9143C23.448 23.3246 23.2686 23.8111 22.8591 24.0013L19.9153 25.3613C19.803 25.4119 19.6862 25.4365 19.5712 25.4365Z" fill="#826489"/>
<path d="M20.1789 44.0015C8.65076 44.0015 0.936428 37.1052 0.0472073 26.004C-0.728791 16.3533 8.17102 6.51235 18.7168 5.3573C19.1505 5.31031 19.5711 5.63163 19.6208 6.08273C19.6705 6.53249 19.3456 6.93615 18.8958 6.98582C9.34979 8.03167 0.98476 17.2103 1.67886 25.8729C2.49469 36.0441 9.58339 42.3636 20.1789 42.3636C23.0953 42.3636 26.9239 41.153 30.4208 39.1235C30.8074 38.8971 31.3113 39.0291 31.5405 39.4207C31.7678 39.8122 31.6349 40.3139 31.2429 40.5413C29.4497 41.5813 24.7816 44.0015 20.1789 44.0015Z" fill="#826489"/>
</svg>
