<svg width="44" height="45" viewBox="0 0 44 45" fill="none" xmlns="http://www.w3.org/2000/svg">
<path d="M5.7404 25.941C5.7404 26.4012 6.11349 26.7743 6.57373 26.7743C7.03397 26.7743 7.40706 26.4012 7.40706 25.941H5.7404ZM17.1538 18.7707L17.1829 17.9379L17.1684 17.9374H17.1538V18.7707ZM22.8354 20.8605C23.246 21.0682 23.7474 20.9037 23.9551 20.493C24.1629 20.0823 23.9984 19.581 23.5877 19.3733L22.8354 20.8605ZM18.1635 16.8407C18.5845 16.6548 18.7751 16.1628 18.5893 15.7418C18.4034 15.3207 17.9114 15.1301 17.4903 15.316L18.1635 16.8407ZM13.1125 23.9696C13.3817 24.3429 13.9025 24.4273 14.2758 24.1582C14.6491 23.889 14.7336 23.3682 14.4644 22.9948L13.1125 23.9696ZM23.89 11.4731L24.3711 10.7926C24.269 10.7205 24.152 10.6722 24.0288 10.6514L23.89 11.4731ZM6.5906 26.7163L5.75758 26.7394C5.76427 26.9802 5.87487 27.2064 6.06084 27.3595C6.24682 27.5127 6.48998 27.5779 6.72763 27.5383L6.5906 26.7163ZM6.59598 26.7156V27.5489C6.82731 27.5489 7.04823 27.4528 7.20587 27.2835C7.36351 27.1142 7.44368 26.887 7.4272 26.6562L6.59598 26.7156ZM6.59396 26.6873V25.854C6.36263 25.854 6.14171 25.9501 5.98408 26.1194C5.82644 26.2887 5.74626 26.516 5.76275 26.7467L6.59396 26.6873ZM16.0695 28.2159L15.6036 28.9068L15.6037 28.9069L16.0695 28.2159ZM17.2447 29.0081L17.7105 28.3171L17.7105 28.3171L17.2447 29.0081ZM18.8621 29.8595L18.5461 30.6306C18.9474 30.7951 19.4078 30.6243 19.6047 30.2378L18.8621 29.8595ZM27.4573 18.5633H26.624H27.4573ZM42.1122 23.4371L41.5516 24.0538L41.5517 24.0538L42.1122 23.4371ZM21.228 41.31L20.4116 41.4775C20.4657 41.741 20.6437 41.9622 20.8895 42.0715L21.228 41.31ZM28.5975 34.3046L28.8031 35.1122L28.8031 35.1122L28.5975 34.3046ZM37.0957 26.6867L36.8296 25.897L36.8295 25.8971L37.0957 26.6867ZM36.2659 27.0145L35.4336 26.9732C35.4192 27.2622 35.5558 27.538 35.7944 27.7017C36.033 27.8654 36.3395 27.8936 36.604 27.7762L36.2659 27.0145ZM37.0965 26.6874L37.3621 27.4773L37.3626 27.4771L37.0965 26.6874ZM41.8894 23.2453L41.3534 23.8833C41.5927 24.0844 41.9245 24.1347 42.2126 24.0134C42.5008 23.8922 42.6968 23.6199 42.7204 23.3082L41.8894 23.2453ZM37.0904 15.1785L36.2572 15.1937C36.2631 15.5183 36.457 15.8099 36.754 15.9409L37.0904 15.1785ZM27.034 8.5857L26.7427 9.36649C26.9441 9.44161 27.1668 9.43599 27.3642 9.35082L27.034 8.5857ZM16.0951 12.2668L15.3939 11.8165C15.1988 12.1203 15.2216 12.5152 15.4503 12.7946C15.6789 13.074 16.0615 13.1743 16.3979 13.0431L16.0951 12.2668ZM20.2668 42.0168L20.3457 42.8464C20.6804 42.8146 20.9631 42.5848 21.0627 42.2637C21.1623 41.9427 21.0593 41.5932 20.8014 41.3775L20.2668 42.0168ZM1 29.089L1.41255 28.365C1.14558 28.2128 0.816564 28.22 0.556442 28.3835C0.296321 28.5471 0.147301 28.8405 0.168688 29.147L1 29.089ZM18.0349 11.6617L18.2271 12.4725C18.6087 12.3821 18.8756 12.0378 18.8681 11.6456C18.8605 11.2535 18.5805 10.9197 18.1957 10.844L18.0349 11.6617ZM10.9003 11.2511L10.7856 10.4257L10.7856 10.4257L10.9003 11.2511ZM1.21805 29.2068L0.645561 28.6012C0.452134 28.7841 0.357702 29.0484 0.391433 29.3124C0.425163 29.5764 0.582998 29.8085 0.816184 29.9368L1.21805 29.2068ZM7.25084 30.7683L7.21011 31.6007C7.48168 31.614 7.74266 31.4939 7.9093 31.2791C8.07595 31.0642 8.1273 30.7816 8.04689 30.5219L7.25084 30.7683ZM7.25354 30.7763L6.45749 31.0227C6.56109 31.3573 6.86287 31.5914 7.21271 31.6086L7.25354 30.7763ZM19.2121 41.1167L18.6659 41.7461C18.785 41.8495 18.931 41.917 19.087 41.9406L19.2121 41.1167ZM21.2266 41.2992L21.2152 42.1324C21.4644 42.1358 21.7022 42.0275 21.8631 41.8371C22.024 41.6466 22.0912 41.3942 22.0463 41.149L21.2266 41.2992ZM36.2564 27.0185L36.596 27.7795C36.8828 27.6515 37.0733 27.3731 37.0887 27.0594L36.2564 27.0185ZM31.8344 28.4771L31.7645 29.3075L31.7645 29.3075L31.8344 28.4771ZM28.0126 28.9934L27.7253 28.2111L27.725 28.2112L28.0126 28.9934ZM25.3096 29.9875L25.0219 29.2054L25.0218 29.2054L25.3096 29.9875ZM17.2447 29.0068L17.7107 28.3159L17.7105 28.3158L17.2447 29.0068ZM16.0696 28.2146L15.6036 28.9055L15.6037 28.9056L16.0696 28.2146ZM6.59397 26.6861V25.8527C6.36913 25.8527 6.15383 25.9436 5.99697 26.1047C5.8401 26.2657 5.75498 26.4834 5.76093 26.7081L6.59397 26.6861ZM7.2758 30.7763L6.47987 31.0232C6.58345 31.3572 6.88448 31.5909 7.23368 31.6086L7.2758 30.7763ZM33.9552 28.6555L34.5771 29.2102C34.7873 28.9745 34.8463 28.6403 34.7293 28.3469C34.6124 28.0536 34.3397 27.8515 34.0251 27.8251L33.9552 28.6555ZM36.1602 33.5783C36.1602 33.1181 35.7871 32.745 35.3269 32.745C34.8667 32.745 34.4936 33.1181 34.4936 33.5783H36.1602ZM28.2609 42.1681C27.8007 42.1681 27.4276 42.5412 27.4276 43.0014C27.4276 43.4617 27.8007 43.8348 28.2609 43.8348V42.1681ZM6.83476 38.6719C6.57397 39.0511 6.66999 39.57 7.04922 39.8307C7.42844 40.0915 7.94727 39.9955 8.20805 39.6163L6.83476 38.6719ZM11.1097 35.3968C11.3705 35.0175 11.2744 34.4987 10.8952 34.2379C10.516 33.9772 9.99717 34.0732 9.73639 34.4524L11.1097 35.3968ZM30.0261 39.5523C30.3515 39.8777 30.8792 39.8777 31.2046 39.5523C31.53 39.2269 31.53 38.6992 31.2046 38.3738L30.0261 39.5523ZM30.5315 37.7007C30.2061 37.3753 29.6784 37.3753 29.353 37.7007C29.0276 38.0261 29.0276 38.5538 29.353 38.8792L30.5315 37.7007ZM39.2815 33.4946C39.607 33.1692 39.607 32.6415 39.2815 32.3161C38.9561 31.9906 38.4285 31.9906 38.103 32.3161L39.2815 33.4946ZM36.7569 33.6622C36.4314 33.9877 36.4314 34.5153 36.7569 34.8407C37.0823 35.1662 37.6099 35.1662 37.9354 34.8407L36.7569 33.6622ZM6.97388 33.6622C6.64844 33.3368 6.1208 33.3368 5.79537 33.6622C5.46993 33.9876 5.46993 34.5153 5.79537 34.8407L6.97388 33.6622ZM6.46844 35.5138C6.79388 35.8392 7.32152 35.8392 7.64696 35.5138C7.97239 35.1884 7.97239 34.6607 7.64696 34.3353L6.46844 35.5138ZM12.3585 37.0276C12.0331 36.7021 11.5054 36.7021 11.18 37.0276C10.8546 37.353 10.8546 37.8807 11.18 38.2061L12.3585 37.0276ZM11.8531 38.8792C12.1785 39.2046 12.7061 39.2046 13.0316 38.8792C13.357 38.5537 13.357 38.0261 13.0316 37.7007L11.8531 38.8792ZM7.40706 25.941C7.40706 24.2661 8.35223 22.7057 10.0843 21.5296C11.8187 20.3518 14.2934 19.604 17.1538 19.604V17.9374C14.0205 17.9374 11.2051 18.7538 9.14798 20.1508C7.0884 21.5493 5.7404 23.5741 5.7404 25.941H7.40706ZM17.1538 18.7707C17.1248 19.6035 17.1247 19.6035 17.1246 19.6035C17.1246 19.6035 17.1245 19.6035 17.1244 19.6035C17.1244 19.6035 17.1244 19.6035 17.1244 19.6035C17.1245 19.6035 17.1249 19.6035 17.1254 19.6036C17.1265 19.6036 17.1284 19.6037 17.1312 19.6038C17.1368 19.604 17.1457 19.6044 17.1579 19.6049C17.1823 19.606 17.2196 19.6078 17.2686 19.6106C17.3667 19.6161 17.5116 19.6253 17.6937 19.6402C18.0586 19.67 18.5703 19.722 19.154 19.8106C20.3389 19.9905 21.7493 20.3111 22.8354 20.8605L23.5877 19.3733C22.2641 18.7037 20.6456 18.3513 19.4041 18.1628C18.7746 18.0672 18.2237 18.0112 17.8292 17.9791C17.6317 17.9629 17.4728 17.9527 17.362 17.9465C17.3065 17.9434 17.2631 17.9413 17.2329 17.9399C17.2177 17.9393 17.2059 17.9388 17.1975 17.9384C17.1933 17.9383 17.19 17.9381 17.1876 17.9381C17.1863 17.938 17.1853 17.938 17.1845 17.9379C17.1842 17.9379 17.1838 17.9379 17.1835 17.9379C17.1834 17.9379 17.1832 17.9379 17.1832 17.9379C17.183 17.9379 17.1829 17.9379 17.1538 18.7707ZM17.4903 15.316C15.4108 16.2341 13.7829 17.5613 12.9259 19.0841C12.0473 20.6455 11.9925 22.4161 13.1125 23.9696L14.4644 22.9948C13.7772 22.0417 13.7712 20.9804 14.3784 19.9015C15.0073 18.7839 16.3022 17.6625 18.1635 16.8407L17.4903 15.316ZM24.0288 10.6514C23.1942 10.5104 22.3301 10.4176 21.434 10.4176V12.0843C22.2152 12.0843 22.9839 12.1652 23.7512 12.2948L24.0288 10.6514ZM21.434 10.4176C12.758 10.4176 5.74111 17.5285 5.74111 26.2808H7.40778C7.40778 18.431 13.6963 12.0843 21.434 12.0843V10.4176ZM5.74111 26.2808C5.74111 26.4253 5.75576 26.6738 5.75758 26.7394L7.42361 26.6931C7.41735 26.4679 7.40778 26.4298 7.40778 26.2808H5.74111ZM6.5906 26.7163C6.72763 27.5383 6.72761 27.5383 6.72758 27.5383C6.72758 27.5383 6.72756 27.5383 6.72754 27.5383C6.72751 27.5383 6.72748 27.5383 6.72745 27.5383C6.7274 27.5383 6.72734 27.5383 6.72728 27.5383C6.72716 27.5383 6.72704 27.5384 6.72693 27.5384C6.72669 27.5384 6.72645 27.5385 6.72621 27.5385C6.72572 27.5386 6.72522 27.5387 6.7247 27.5387C6.72367 27.5389 6.72252 27.5391 6.72125 27.5393C6.71894 27.5397 6.71526 27.5402 6.71066 27.5409C6.70684 27.5414 6.69805 27.5427 6.68662 27.5439C6.68494 27.5441 6.64565 27.5489 6.59598 27.5489V25.8823C6.54564 25.8823 6.50534 25.8872 6.50252 25.8875C6.48996 25.8889 6.4799 25.8903 6.4749 25.891C6.46913 25.8918 6.46436 25.8925 6.46125 25.893C6.45958 25.8933 6.4581 25.8935 6.45684 25.8937C6.45621 25.8938 6.45562 25.8939 6.45508 25.894C6.4548 25.8941 6.45454 25.8941 6.45429 25.8942C6.45416 25.8942 6.45404 25.8942 6.45392 25.8942C6.45386 25.8942 6.4538 25.8942 6.45374 25.8942C6.45371 25.8943 6.45368 25.8943 6.45365 25.8943C6.45364 25.8943 6.45361 25.8943 6.45361 25.8943C6.45359 25.8943 6.45356 25.8943 6.5906 26.7163ZM7.4272 26.6562C7.42686 26.6515 7.42652 26.6468 7.42619 26.6421C7.42585 26.6374 7.42551 26.6327 7.42518 26.6279L5.76275 26.7467C5.76308 26.7514 5.76342 26.7561 5.76376 26.7608C5.76409 26.7655 5.76443 26.7703 5.76477 26.775L7.4272 26.6562ZM6.59396 27.5207H11.0787V25.854H6.59396V27.5207ZM11.0787 27.5207C12.6883 27.5207 14.2627 28.0025 15.6036 28.9068L16.5355 27.525C14.9202 26.4357 13.0216 25.854 11.0787 25.854V27.5207ZM15.6037 28.9069L16.7789 29.6991L17.7105 28.3171L16.5353 27.5249L15.6037 28.9069ZM16.7789 29.6991C17.3472 30.0822 17.9447 30.3841 18.5461 30.6306L19.1782 29.0885C18.6596 28.8759 18.1667 28.6246 17.7105 28.3171L16.7789 29.6991ZM19.6047 30.2378C20.0938 29.2777 20.8109 28.5554 21.6696 27.8914C22.1012 27.5576 22.5594 27.2454 23.0407 26.9221C23.5153 26.6034 24.0173 26.2708 24.5014 25.9156C25.4743 25.2015 26.4366 24.3531 27.1473 23.1676C27.8639 21.9722 28.2907 20.4923 28.2907 18.5633H26.624C26.624 20.2319 26.2592 21.4075 25.7178 22.3106C25.1705 23.2236 24.4082 23.9166 23.5153 24.5719C23.0663 24.9014 22.6 25.2105 22.1115 25.5385C21.6298 25.862 21.1302 26.2017 20.65 26.573C19.6849 27.3193 18.7619 28.2203 18.1196 29.4813L19.6047 30.2378ZM28.2907 18.5633C28.2907 14.8464 26.6177 12.3809 24.3711 10.7926L23.409 12.1536C25.26 13.4622 26.624 15.4417 26.624 18.5633H28.2907ZM41.5517 24.0538C41.5654 24.0663 41.6362 24.1461 41.7114 24.374C41.7835 24.5923 41.842 24.893 41.873 25.2771C41.935 26.0446 41.8806 27.057 41.6838 28.2203C41.2906 30.5457 40.348 33.3624 38.784 35.8544C37.2203 38.3458 35.0693 40.4619 32.2759 41.4918C29.5006 42.5151 25.9767 42.5087 21.5664 40.5485L20.8895 42.0715C25.6182 44.1733 29.5962 44.2562 32.8525 43.0556C36.0908 41.8616 38.5011 39.4403 40.1956 36.7404C41.8897 34.0412 42.9019 31.0127 43.3272 28.4982C43.5397 27.2415 43.6104 26.0853 43.5343 25.143C43.4963 24.6722 43.4199 24.2326 43.294 23.8513C43.1712 23.4795 42.9807 23.1004 42.6726 22.8204L41.5517 24.0538ZM21.228 41.31C22.0443 41.1425 22.0444 41.1432 22.0445 41.1438C22.0446 41.144 22.0447 41.1447 22.0448 41.145C22.045 41.1458 22.0451 41.1465 22.0452 41.1472C22.0455 41.1485 22.0457 41.1495 22.0458 41.1502C22.0461 41.1517 22.0461 41.152 22.046 41.1513C22.0458 41.1499 22.0448 41.1442 22.0434 41.1345C22.0405 41.115 22.036 41.0796 22.032 41.0299C22.024 40.9303 22.0185 40.7751 22.0334 40.5778C22.0631 40.1842 22.1737 39.6246 22.5085 39.0002C23.165 37.7756 24.777 36.1372 28.8031 35.1122L28.3919 33.497C24.0482 34.6029 21.9754 36.4672 21.0396 38.2127C20.5782 39.0732 20.4158 39.8654 20.3715 40.4523C20.3494 40.7453 20.3566 40.9875 20.3706 41.1629C20.3777 41.2506 20.3864 41.322 20.3942 41.375C20.398 41.4015 20.4016 41.4234 20.4047 41.4406C20.4062 41.4492 20.4075 41.4566 20.4087 41.4627C20.4093 41.4658 20.4098 41.4686 20.4103 41.471C20.4106 41.4723 20.4108 41.4734 20.411 41.4745C20.4111 41.475 20.4113 41.4758 20.4113 41.4761C20.4115 41.4768 20.4116 41.4775 21.228 41.31ZM28.8031 35.1122C29.7108 34.881 30.4521 34.3671 31.0678 33.7953C31.6784 33.2281 32.2108 32.5594 32.673 31.9827L31.3725 30.9404C30.8944 31.5369 30.4384 32.1052 29.9336 32.5741C29.4338 33.0383 28.9326 33.3593 28.3918 33.4971L28.8031 35.1122ZM32.6731 31.9826C34.0812 30.225 34.1887 28.5462 37.362 27.4764L36.8295 25.8971C33.0392 27.1749 32.3618 29.7055 31.3724 30.9405L32.6731 31.9826ZM37.3619 27.4764C38.2615 27.1732 38.7982 26.4535 39.1536 25.8096C39.3351 25.481 39.488 25.137 39.6219 24.8264C39.7614 24.5026 39.8753 24.2278 39.9973 23.9778C40.1193 23.7276 40.2223 23.561 40.3138 23.4558C40.3566 23.4064 40.3881 23.381 40.4068 23.3686C40.4234 23.3576 40.4305 23.3562 40.4319 23.3559C40.4325 23.3558 40.728 23.305 41.5516 24.0538L42.6727 22.8205C41.8171 22.0427 40.9471 21.5333 40.0689 21.7293C39.6241 21.8285 39.2946 22.0874 39.0553 22.3631C38.8221 22.6316 38.6438 22.9508 38.4994 23.247C38.3549 23.5432 38.2171 23.875 38.0913 24.1666C37.96 24.4714 37.834 24.7516 37.6945 25.0042C37.4082 25.5228 37.1351 25.7941 36.8296 25.897L37.3619 27.4764ZM35.4595 26.2809C35.4595 26.5014 35.4463 26.7163 35.4336 26.9732L37.0982 27.0559C37.1096 26.8254 37.1261 26.5544 37.1261 26.2809H35.4595ZM36.604 27.7762C36.8464 27.6686 37.0918 27.5682 37.3621 27.4773L36.8308 25.8976C36.4966 26.0099 36.2009 26.1317 35.9278 26.2529L36.604 27.7762ZM37.3626 27.4771C38.2416 27.1809 38.7738 26.4872 39.1286 25.8575C39.3094 25.5366 39.4613 25.2008 39.5944 24.8946C39.7335 24.5742 39.8447 24.3042 39.9658 24.0493C40.0857 23.7968 40.1888 23.6183 40.2845 23.4973C40.3778 23.3794 40.4277 23.3627 40.4298 23.362C40.431 23.3616 40.4378 23.3589 40.458 23.3599C40.4805 23.3609 40.5268 23.367 40.6022 23.3948C40.7608 23.4531 41.0054 23.591 41.3534 23.8833L42.4255 22.6073C41.6122 21.9239 40.7531 21.494 39.8971 21.7827C39.4884 21.9206 39.1922 22.1918 38.9776 22.4631C38.7653 22.7313 38.5986 23.0431 38.4603 23.3342C38.3232 23.6228 38.1879 23.9493 38.0657 24.2306C37.9374 24.5259 37.8132 24.7967 37.6765 25.0394C37.3964 25.5365 37.1285 25.7972 36.8303 25.8977L37.3626 27.4771ZM42.7204 23.3082C42.7367 23.0934 42.7497 22.8642 42.7497 22.6254H41.083C41.083 22.8052 41.0732 22.988 41.0585 23.1824L42.7204 23.3082ZM42.7497 22.6254C42.7497 18.9538 40.5601 15.7985 37.4268 14.4161L36.754 15.9409C39.2988 17.0637 41.083 19.6309 41.083 22.6254H42.7497ZM37.9236 15.1633C37.8428 10.7439 34.2795 7.16813 29.8676 7.16813V8.8348C33.3496 8.8348 36.1926 11.6614 36.2572 15.1937L37.9236 15.1633ZM29.8676 7.16813C28.745 7.16813 27.6757 7.40112 26.7038 7.82057L27.3642 9.35082C28.1328 9.01912 28.9777 8.8348 29.8676 8.8348V7.16813ZM27.3252 7.8049C26.2427 7.40116 25.0727 7.16813 23.8429 7.16813V8.8348C24.8598 8.8348 25.8329 9.02716 26.7427 9.36649L27.3252 7.8049ZM23.8429 7.16813C20.2945 7.16813 17.1855 9.02627 15.3939 11.8165L16.7963 12.717C18.2988 10.377 20.8935 8.8348 23.8429 8.8348V7.16813ZM16.3979 13.0431C17.966 12.4315 19.6594 12.0843 21.434 12.0843V10.4176C19.4393 10.4176 17.5411 10.8083 15.7923 11.4904L16.3979 13.0431ZM21.434 12.0843C29.1716 12.0843 35.4595 18.431 35.4595 26.2809H37.1261C37.1261 17.5286 30.11 10.4176 21.434 10.4176V12.0843ZM18.2207 42.9558C18.9478 42.9558 19.6549 42.9121 20.3457 42.8464L20.1879 41.1872C19.5339 41.2494 18.8814 41.2891 18.2207 41.2891V42.9558ZM20.8014 41.3775C19.8756 40.6033 18.8865 39.7424 18.0288 38.9222C17.1584 38.0897 16.4694 37.3421 16.1049 36.7893L14.7135 37.7068C15.1883 38.4268 15.9949 39.2831 16.8769 40.1266C17.7716 40.9824 18.7917 41.8695 19.7322 42.6561L20.8014 41.3775ZM16.105 36.7894C15.7263 36.2149 15.4124 35.5733 14.9831 34.7999C14.5715 34.0583 14.0824 33.2549 13.4142 32.5227C12.0353 31.0118 9.99574 29.9155 6.57375 29.9155V31.5822C9.57763 31.5822 11.1525 32.5168 12.1832 33.6462C12.7198 34.2342 13.1343 34.9033 13.5259 35.6088C13.8999 36.2825 14.2889 37.0626 14.7135 37.7067L16.105 36.7894ZM6.57375 29.9155C4.78561 29.9155 3.02541 29.2839 1.41255 28.365L0.587453 29.8131C2.35075 30.8177 4.39882 31.5822 6.57375 31.5822V29.9155ZM0.168688 29.147C0.71601 36.9912 8.7337 42.9558 18.2207 42.9558V41.2891C9.28822 41.2891 2.29764 35.7145 1.83131 29.031L0.168688 29.147ZM7.40778 26.2808C7.40778 19.5552 12.0325 13.9412 18.2271 12.4725L17.8426 10.8508C10.9042 12.4958 5.74111 18.7748 5.74111 26.2808H7.40778ZM18.1957 10.844C15.9821 10.4086 13.251 10.0832 10.7856 10.4257L11.0149 12.0765C13.2099 11.7716 15.7288 12.0573 17.874 12.4794L18.1957 10.844ZM10.7856 10.4257C5.72517 11.1289 2.54866 15.7863 2.54866 20.7577H4.21532C4.21532 16.4217 6.95919 12.6401 11.015 12.0765L10.7856 10.4257ZM2.54866 20.7577C2.54866 22.4153 2.54121 23.9406 2.28526 25.2989C2.03285 26.6384 1.54993 27.7463 0.645561 28.6012L1.79054 29.8123C3.03059 28.64 3.62964 27.1649 3.9231 25.6075C4.21301 24.0689 4.21532 22.3833 4.21532 20.7577H2.54866ZM0.816184 29.9368C2.52512 30.8775 4.4899 31.5822 6.57375 31.5822V29.9155C4.86279 29.9155 3.17809 29.3345 1.61991 28.4768L0.816184 29.9368ZM6.57375 31.5822C6.78778 31.5822 6.99478 31.5901 7.21011 31.6007L7.29156 29.936C7.0667 29.925 6.82818 29.9155 6.57375 29.9155V31.5822ZM8.04689 30.5219C7.63236 29.1829 7.40778 27.7595 7.40778 26.2808H5.74111C5.74111 27.9292 5.99162 29.5187 6.45478 31.0148L8.04689 30.5219ZM5.74111 26.2808C5.74111 27.9332 5.99382 29.5252 6.45749 31.0227L8.04959 30.5298C7.63422 29.1883 7.40778 27.7623 7.40778 26.2808H5.74111ZM7.21271 31.6086C9.88975 31.7399 11.3268 32.6738 12.2944 33.7858C12.7969 34.3634 13.1914 35.0112 13.5678 35.6907C13.9288 36.3424 14.3033 37.0845 14.7135 37.7067L16.105 36.7894C15.7418 36.2385 15.4341 35.6204 15.0257 34.8832C14.6327 34.1736 14.1709 33.4034 13.5517 32.6918C12.2759 31.2255 10.4085 30.0967 7.29436 29.9439L7.21271 31.6086ZM14.7134 37.7065C15.4705 38.8556 17.1168 40.4018 18.6659 41.7461L19.7583 40.4874C18.1817 39.1192 16.7157 37.7162 16.1051 36.7896L14.7134 37.7065ZM19.087 41.9406C19.7698 42.0444 20.4792 42.1223 21.2152 42.1324L21.2381 40.4659C20.6036 40.4572 19.9749 40.3897 19.3372 40.2929L19.087 41.9406ZM22.0463 41.1488C22.0469 41.152 22.0001 40.8979 22.0412 40.4894C22.082 40.0833 22.2094 39.5255 22.5576 38.9097C23.2423 37.699 24.8707 36.1132 28.8031 35.1122L28.3919 33.497C24.1517 34.5765 22.0746 36.378 21.1068 38.0893C20.1494 39.7824 20.367 41.2315 20.407 41.4495L22.0463 41.1488ZM32.6731 31.9826C33.9917 30.337 34.1294 28.8801 36.596 27.7795L35.9168 26.2575C32.9652 27.5745 32.2414 29.856 31.3724 30.9404L32.6731 31.9826ZM37.0887 27.0594C37.098 26.8721 37.1261 26.5536 37.1261 26.2809H35.4595C35.4595 26.5063 35.4391 26.6721 35.4241 26.9775L37.0887 27.0594ZM31.9042 27.6467C30.4871 27.5275 29.0614 27.7204 27.7253 28.2111L28.2999 29.7756C29.4084 29.3685 30.5903 29.2087 31.7645 29.3075L31.9042 27.6467ZM27.725 28.2112L25.0219 29.2054L25.5972 30.7696L28.3003 29.7755L27.725 28.2112ZM25.0218 29.2054C22.5842 30.1021 19.8707 29.7726 17.7107 28.3159L16.7788 29.6977C19.3815 31.453 22.6557 31.8517 25.5973 30.7696L25.0218 29.2054ZM17.7105 28.3158L16.5354 27.5236L15.6037 28.9056L16.7789 29.6978L17.7105 28.3158ZM16.5355 27.5237C14.9203 26.4344 13.0216 25.8527 11.0787 25.8527V27.5194C12.6883 27.5194 14.2627 28.0012 15.6036 28.9055L16.5355 27.5237ZM11.0787 25.8527H6.59397V27.5194H11.0787V25.8527ZM5.76093 26.7081C5.80076 28.2116 6.05609 29.6569 6.47987 31.0232L8.07173 30.5295C7.69051 29.3004 7.46257 28.0063 7.42701 26.664L5.76093 26.7081ZM7.23368 31.6086C9.90058 31.7436 11.3331 32.6776 12.2984 33.7892C12.7997 34.3666 13.1935 35.0139 13.5692 35.6928C13.9297 36.344 14.3037 37.085 14.7134 37.7066L16.105 36.7894C15.7424 36.2393 15.435 35.6219 15.0274 34.8856C14.6352 34.1769 14.1743 33.4076 13.5568 32.6965C12.2845 31.2312 10.4227 30.1012 7.31792 29.9441L7.23368 31.6086ZM22.0463 41.149C22.047 41.1525 22.0001 40.8988 22.041 40.4905C22.0817 40.0847 22.2088 39.5268 22.5567 38.911C23.2409 37.7001 24.8691 36.1136 28.803 35.1122L28.3919 33.497C24.15 34.5768 22.0729 36.3792 21.1057 38.0911C20.1488 39.7847 20.3674 41.2336 20.4069 41.4493L22.0463 41.149ZM32.673 31.9828C33.0487 31.514 33.3543 30.9913 33.6336 30.5364C33.9235 30.064 34.2074 29.6247 34.5771 29.2102L33.3333 28.1008C32.859 28.6326 32.5112 29.179 32.2132 29.6644C31.9045 30.1673 31.6658 30.5745 31.3725 30.9403L32.673 31.9828ZM34.0251 27.8251L31.9042 27.6467L31.7645 29.3075L33.8854 29.4859L34.0251 27.8251ZM34.4936 33.5783C34.4936 38.7411 31.5924 42.1681 28.2609 42.1681V43.8348C32.9202 43.8348 36.1602 39.1929 36.1602 33.5783H34.4936ZM8.20805 39.6163L11.1097 35.3968L9.73639 34.4524L6.83476 38.6719L8.20805 39.6163ZM31.2046 38.3738L30.5315 37.7007L29.353 38.8792L30.0261 39.5523L31.2046 38.3738ZM38.103 32.3161L36.7569 33.6622L37.9354 34.8407L39.2815 33.4946L38.103 32.3161ZM5.79537 34.8407L6.46844 35.5138L7.64696 34.3353L6.97388 33.6622L5.79537 34.8407ZM11.18 38.2061L11.8531 38.8792L13.0316 37.7007L12.3585 37.0276L11.18 38.2061Z" fill="#826489"/>
</svg>
