<svg width="44" height="45" viewBox="0 0 44 45" fill="none" xmlns="http://www.w3.org/2000/svg">
<path d="M42.9878 36.872L41.8645 35.8406C42.9313 33.4003 43.3157 29.7713 41.016 24.7388C36.0597 13.8932 36.8133 9.98646 36.8477 9.82374C36.9348 9.53959 36.8315 9.24562 36.5877 9.0534C36.3429 8.85971 35.9924 8.82481 35.6979 8.9482C33.6548 9.80457 31.4097 11.8319 29.7589 14.2629C26.7734 11.8948 23.8774 9.85225 21.1485 8.18327C21.1323 8.17295 21.1171 8.16361 21.1004 8.15427C19.6457 7.26644 18.2383 6.4848 16.8903 5.81721C16.5998 5.64515 16.3122 5.50849 16.0271 5.40083C15.4077 5.11128 14.803 4.84729 14.2131 4.60985C11.6283 3.56766 9.32561 3.02739 7.36807 3.00232C5.17111 2.97528 3.38563 3.5888 2.06667 4.82762C-1.22851 7.92617 -0.248759 12.6932 2.65954 17.7857C2.77211 18.0383 2.91812 18.2891 3.09952 18.5368C5.46017 22.4475 8.87825 26.5096 12.3086 30.1263C9.59353 31.7407 7.66794 33.7547 6.8568 35.3809C6.73489 35.6263 6.76389 35.9129 6.933 36.1341C7.1026 36.3548 7.38724 36.4767 7.68121 36.4541C8.12709 36.4192 8.53069 36.3794 8.92053 36.3401C9.66481 36.2663 10.3068 36.2019 11.0034 36.2019C13.2107 36.2019 16.1642 36.8779 24.0529 40.2404C27.1165 41.5628 29.8321 42.2338 32.123 42.2338C33.4872 42.2338 34.7127 41.9983 35.779 41.5323L36.8389 42.5042C37.5139 43.1231 38.4022 43.4323 39.288 43.4323C40.1764 43.4323 41.0622 43.1231 41.7382 42.5042L42.9858 41.3603C44.3377 40.1239 44.3377 38.1093 42.9878 36.872ZM35.1345 11.009C35.2009 13.1056 35.9108 17.503 39.4861 25.3268C41.3493 29.4036 41.5666 32.8787 40.1414 35.6754C40.1311 35.6931 40.1223 35.7108 40.1139 35.7295C39.9664 36.0136 39.8027 36.2904 39.6204 36.5603C38.6121 38.0592 37.301 38.9539 36.5665 39.3727C35.397 37.952 32.7817 34.561 30.891 31.2442C30.8851 31.2333 30.8787 31.222 30.8729 31.2107C30.8399 31.1532 30.807 31.0957 30.775 31.0377C30.7445 30.9841 30.7146 30.9295 30.6841 30.875C30.6762 30.8612 30.6688 30.8469 30.6615 30.8332C30.3055 30.1887 29.9801 29.5501 29.7014 28.9302C29.7009 28.9292 29.7004 28.9282 29.7004 28.9272C29.341 28.1289 29.0598 27.3654 28.8932 26.6698C27.912 22.5866 28.9212 18.8146 30.6398 15.8945C30.6467 15.8842 30.6536 15.8738 30.66 15.8625C30.66 15.8611 30.6605 15.8606 30.6615 15.8591C30.6639 15.8552 30.6659 15.8507 30.6688 15.8463C30.69 15.8163 30.7087 15.7858 30.7244 15.7539C31.9942 13.6439 33.6297 11.9927 35.1345 11.009ZM10.826 26.1286C9.69332 24.726 11.0536 23.208 11.6976 22.6161C12.1464 22.2061 12.64 21.9618 13.1094 21.8546C13.192 21.8512 13.2746 21.8369 13.3543 21.8104C13.7893 21.7534 14.1914 21.8153 14.5026 21.9726C14.5434 22.6717 14.775 23.3746 15.2381 24.0383C14.8748 24.2487 14.5316 24.4891 14.219 24.7506C13.253 25.5583 12.5097 26.6123 12.2265 27.6953C11.7453 27.1683 11.2777 26.6457 10.826 26.1286ZM7.65221 22.273C6.65131 20.7864 7.21763 19.5657 8.09809 18.9129C8.44122 18.6587 8.85761 18.47 9.29415 18.382C9.31873 18.3785 9.34232 18.3731 9.36592 18.3682C9.95436 18.266 10.5723 18.3515 11.0865 18.7118C11.1209 19.4266 11.3392 20.1035 11.73 20.7185C11.3156 20.9196 10.9081 21.1905 10.5251 21.5415C9.71741 22.2833 9.17813 23.0782 8.9166 23.8692C8.47613 23.3299 8.05532 22.7965 7.65221 22.273ZM4.15301 17.1087C3.77202 16.1309 4.18595 15.194 4.84322 14.6557C5.41445 14.1881 6.3013 13.9237 7.18765 14.4472C7.09818 15.4353 7.30956 16.4284 7.8282 17.268C7.55192 17.3993 7.29138 17.5551 7.05492 17.7311C6.44091 18.1863 5.94292 18.8102 5.67598 19.5397C5.10868 18.6995 4.59988 17.8879 4.15301 17.1087ZM6.26689 9.05979C7.08441 8.18573 8.67178 7.54125 10.5812 8.39663C10.531 8.92755 10.6146 9.47519 10.8673 9.99481C10.0989 10.247 9.39689 10.6501 8.81041 11.1879C8.26523 11.6879 7.85524 12.2798 7.58044 12.9129C7.08294 12.7075 6.57954 12.6234 6.09335 12.6362C5.119 11.3418 5.44936 9.93336 6.26689 9.05979ZM15.3388 6.78615C16.1539 7.16862 16.995 7.59827 17.8573 8.07119C16.9488 8.39564 16.2065 8.99343 15.7223 9.67724C15.5802 9.87781 15.4608 10.0843 15.3615 10.2937C14.57 9.88617 13.6335 9.67183 12.6586 9.69297C12.6346 9.69297 12.61 9.69494 12.5854 9.69592C12.2093 9.2176 12.1557 8.67536 12.2939 8.18868C12.2963 8.18327 12.2978 8.17738 12.2993 8.17148C12.3878 7.87308 12.5471 7.59581 12.7486 7.36771C13.2697 6.78025 14.1895 6.37911 15.3388 6.78615ZM22.9188 11.1796C21.9975 11.3644 21.1171 11.8137 20.3477 12.5177C19.9672 12.8662 19.6526 13.262 19.4073 13.6784C18.6576 13.3205 17.9006 13.1465 17.1661 13.1184C16.4002 12.2306 16.6406 11.1747 17.115 10.5041C17.6621 9.72984 18.8179 9.01063 20.2946 9.48798C21.152 10.014 22.028 10.5778 22.9188 11.1796ZM27.4877 14.4861C26.5153 14.6158 25.5208 15.0126 24.6807 15.7824C24.1753 16.246 23.7648 16.8177 23.4748 17.4474C22.5747 16.8841 21.5915 16.5753 20.5694 16.5341C20.4136 16.2248 20.3831 15.7504 20.5163 15.2323C20.6048 15.1079 20.6476 14.9688 20.6501 14.8292C20.8241 14.4045 21.1077 13.9723 21.5197 13.5938C22.6705 12.5418 24.0441 12.3171 25.3881 12.9626C25.4338 12.9842 25.48 13.0009 25.5272 13.0147C26.1742 13.4871 26.828 13.9782 27.4877 14.4861ZM27.0261 21.0661C26.3654 20.8955 25.6545 20.806 24.9393 20.8232C24.4049 19.9639 24.5534 18.0497 25.8546 16.857C26.6864 16.0951 27.7984 15.8645 28.726 15.9899C28.0073 17.3614 27.3378 19.0786 27.0261 21.0661ZM20.0375 23.6077C19.0126 23.0871 17.8573 23.0767 16.762 23.3869C16.3368 22.8501 16.1573 22.2769 16.1598 21.715C16.1696 21.657 16.1716 21.5985 16.1662 21.5395C16.2301 20.6556 16.731 19.8115 17.4168 19.1956C18.1424 18.5437 19.1005 18.0993 20.1329 18.0506C20.1373 18.0506 20.1403 18.0506 20.1437 18.0506C20.159 18.0506 20.1747 18.0497 20.1899 18.0487C21.1132 18.0182 22.0934 18.3068 23.0206 19.0471C23.0201 19.0555 23.0176 19.0643 23.0171 19.0732C22.9345 19.8135 23.0191 20.5022 23.2496 21.0813C22.5378 21.2922 21.8623 21.6383 21.2729 22.1511C20.7621 22.595 20.3502 23.0856 20.0375 23.6077ZM13.3995 20.2751C12.2285 18.8554 12.7855 17.0842 13.8704 15.9731C15.0311 14.784 16.9705 14.1233 18.8469 15.133C18.7382 15.6846 18.7491 16.2263 18.8847 16.7091C17.9197 16.9509 17.0132 17.4297 16.2552 18.1101C15.5453 18.7487 14.9991 19.549 14.7145 20.4147C14.3075 20.2977 13.8616 20.2471 13.3995 20.2751ZM9.4844 16.8172C8.45253 15.5607 8.64573 13.4896 9.98435 12.263C10.7001 11.6068 11.6632 11.2336 12.695 11.213C13.5804 11.1938 14.4117 11.4485 15.0139 11.9135C15.0286 12.4036 15.1506 12.8854 15.3777 13.3347C14.3001 13.639 13.3439 14.2324 12.635 14.959C12.0201 15.5887 11.5707 16.3168 11.3176 17.0783C10.7262 16.8433 10.0984 16.7676 9.4844 16.8172ZM13.896 29.2763C13.4482 28.2056 14.1998 26.8247 15.3374 25.8739C16.2493 25.1105 18.0613 24.1661 19.4442 25.0633C19.2603 25.8557 19.279 26.6856 19.5066 27.5168C17.4488 27.8452 15.5591 28.4769 13.896 29.2763ZM21.1741 27.3202C21.0109 26.7858 20.8865 25.9944 21.1431 25.136C21.1761 25.0707 21.1992 25.0018 21.212 24.931C21.4155 24.3765 21.7857 23.8004 22.4149 23.2537C23.6242 22.2017 25.4613 22.1766 26.8629 22.6117C26.7911 23.9754 26.8998 25.4438 27.2729 26.9962C27.3437 27.2887 27.4307 27.5916 27.5344 27.9018C27.1972 27.8035 26.8688 27.7214 26.5492 27.657C25.2617 27.3974 23.9492 27.2656 22.6469 27.2656C22.1489 27.2656 21.6578 27.2843 21.1741 27.3202ZM3.25535 5.88948C4.25772 4.94807 5.59487 4.49973 7.34545 4.52333C8.81533 4.54151 10.5399 4.90333 12.4807 5.59796C12.0854 5.81623 11.7403 6.09447 11.4606 6.41057C11.3176 6.57182 11.1888 6.74682 11.0767 6.93167C8.57887 5.91996 6.27868 6.71192 5.00692 8.0707C3.8497 9.30805 3.32369 11.241 4.43175 13.0688C4.18202 13.1981 3.949 13.35 3.7386 13.522C3.38809 13.8086 3.08674 14.1591 2.85421 14.5534C1.15082 10.654 1.28159 7.74477 3.25535 5.88948ZM32.124 40.7143C30.0799 40.7143 27.6022 40.0924 24.7574 38.8644C16.5526 35.3672 13.5017 34.6829 11.0044 34.6829C10.3722 34.6829 9.78476 34.7291 9.18452 34.7866C11.0546 32.4835 15.2086 29.4955 20.681 28.8958C20.6923 28.8948 20.7051 28.8928 20.7174 28.8914C21.3437 28.824 21.9877 28.7862 22.6479 28.7862C23.8297 28.7862 25.0228 28.9061 26.1933 29.1416C26.8422 29.2733 27.5496 29.4916 28.2974 29.791C28.5461 30.3234 28.8258 30.8681 29.1267 31.4157C29.1577 31.4727 29.1886 31.5293 29.2196 31.5858C29.2383 31.6183 29.2555 31.6507 29.2732 31.6827C30.4806 33.8472 31.9873 36.0353 33.2679 37.7603C30.2819 37.604 27.7979 36.4644 25.191 35.2669C22.2905 33.9347 19.2908 32.5567 15.3167 32.3227C14.8561 32.2947 14.4658 32.6137 14.4363 33.0326C14.4068 33.4519 14.7538 33.8132 15.21 33.8403C18.8479 34.0541 21.6947 35.3618 24.4477 36.6262C27.3127 37.9422 30.2667 39.2995 33.9675 39.2995C34.1223 39.2995 34.2806 39.297 34.4389 39.2921C34.6886 39.6097 34.9172 39.8938 35.1168 40.1381C34.2614 40.5211 33.2591 40.7143 32.124 40.7143ZM41.8144 40.2861L40.5662 41.4301C39.8622 42.0755 38.7168 42.0755 38.0133 41.4301L37.2784 40.7566C38.1313 40.2945 39.7324 39.2533 40.9821 37.4329C41.0165 37.3822 41.0514 37.3306 41.0858 37.2775L41.8144 37.9461C42.5178 38.5916 42.5178 39.6416 41.8144 40.2861Z" fill="#826489"/>
</svg>
