<svg width="44" height="45" viewBox="0 0 44 45" fill="none" xmlns="http://www.w3.org/2000/svg">
<path d="M35.5461 1.51356C35.374 1.34149 35.1959 1.18027 35.0191 1.01701L24.9154 11.12C27.3853 15.1899 26.8975 20.532 23.4109 24.0186M35.5461 1.51356C43.4617 9.42914 42.2599 23.4652 32.8622 32.8629C23.4637 42.2614 9.42771 43.4631 1.51213 35.5475M35.5461 1.51356C35.4133 1.38146 35.2765 1.25617 35.1396 1.13017L35.2683 1.00146C35.479 1.19791 35.6904 1.39301 35.8963 1.59827C45.3672 11.0699 45.3679 26.4262 35.8956 35.8978C26.4247 45.3694 11.0684 45.3694 1.5968 35.8978C1.39155 35.6925 1.19645 35.4805 1 35.2698L1.12871 35.1411C1.25471 35.2779 1.38004 35.4147 1.51213 35.5475M23.4109 24.0186C19.9242 27.5052 14.5822 27.9937 10.5129 25.5238L1.01559 35.0205C1.17884 35.198 1.34007 35.3761 1.51213 35.5475M23.4109 24.0186C26.8623 20.5672 27.3711 15.2991 24.9845 11.2448L24.866 11.3633C25.1031 15.0864 23.8133 18.8745 20.9817 21.7068C18.1494 24.539 14.3613 25.8288 10.6383 25.5917C14.6912 27.9776 19.9588 27.47 23.4109 24.0186ZM1.51213 35.5475C1.37258 35.4086 1.24117 35.2639 1.10907 35.1203" stroke="#826489" stroke-width="2" stroke-miterlimit="10" stroke-linecap="round" stroke-linejoin="round"/>
</svg>
