<svg width="44" height="45" viewBox="0 0 44 45" fill="none" xmlns="http://www.w3.org/2000/svg">
<path d="M26.088 10.8355L29.4428 3.24278C29.5439 3.01382 29.5466 2.7537 29.4509 2.52259C29.3552 2.29148 29.1682 2.10982 28.9349 2.0206L23.8345 0.0626433C23.3798 -0.112568 22.8681 0.100803 22.6709 0.546356L21.8254 2.46078L20.9806 0.546893C20.7844 0.10134 20.2727 -0.111493 19.817 0.063181L14.716 2.02168C14.4822 2.11143 14.2957 2.29256 14.2 2.52366C14.1043 2.75477 14.107 3.0149 14.2081 3.24386L17.572 10.8591C10.5861 12.2796 6.00054 17.185 6 23.7511C6 28.4732 8.32343 32.4203 12.7188 35.164C13.9264 35.9191 15.2685 36.5206 16.7072 36.9521C18.4244 37.4681 18.5448 37.8282 19.1242 39.5599L19.2161 39.8351C19.2478 39.9291 19.2886 40.0812 19.3392 40.2693C19.7439 41.7554 20.3555 44.0009 21.883 44.0014H21.884C23.4115 44.0009 24.0231 41.7533 24.4278 40.2661C24.4789 40.0791 24.5186 39.928 24.5504 39.8345L24.6428 39.5583C25.2222 37.8282 25.3426 37.4681 27.0587 36.9521C28.4964 36.5211 29.8384 35.9197 31.0482 35.1646C35.4436 32.4198 37.7665 28.4732 37.7665 23.7511C37.767 17.15 33.1352 12.2259 26.088 10.8355ZM23.9914 2.08026L27.3838 3.38198L24.8067 9.2134L22.8246 4.72294L23.9914 2.08026ZM16.2676 3.38252L19.66 2.08026L23.3712 10.4872C22.8832 10.456 22.3887 10.4367 21.8835 10.4367C21.0456 10.4367 20.2313 10.4823 19.4413 10.5683L16.2676 3.38252ZM21.884 12.2646C29.7524 12.2646 35.3608 16.5363 35.8934 22.7692C34.9598 22.9637 34.3638 23.4211 33.8645 23.8081C33.2894 24.2542 32.8353 24.6057 31.8641 24.6057C30.8929 24.6057 30.4388 24.2536 29.8637 23.8081C29.2107 23.3018 28.398 22.6719 26.8743 22.6719C25.3522 22.6719 24.5407 23.3018 23.8887 23.8081C23.3142 24.2536 22.8606 24.6057 21.8905 24.6057C20.9198 24.6057 20.4657 24.2536 19.8911 23.8081C19.2387 23.3018 18.426 22.6719 16.9034 22.6719C15.3808 22.6719 14.5692 23.3018 13.9168 23.8081C13.3422 24.2536 12.8886 24.6057 11.9185 24.6057C10.9489 24.6057 10.4953 24.2536 9.92129 23.8081C9.41823 23.4179 8.81735 22.9573 7.87304 22.7654C8.40889 16.5347 14.0167 12.2646 21.884 12.2646ZM30.0808 33.614C29.0091 34.2831 27.8165 34.8168 26.5336 35.2016C23.9102 35.9901 23.534 37.1145 22.91 38.9773L22.8187 39.2503C22.7794 39.3664 22.7278 39.5534 22.6644 39.7856C22.3183 41.0578 22.063 41.6898 21.883 41.9935C21.7034 41.6904 21.4482 41.0594 21.102 39.7883C21.0386 39.5551 20.9865 39.3664 20.9467 39.2503L20.8569 38.9794C20.2335 37.115 19.8573 35.9901 17.2329 35.2016C15.9494 34.8168 14.7568 34.2831 13.6867 33.614C11.1338 32.0199 8.11973 29.1466 7.85369 24.424C8.26807 24.567 8.57765 24.8061 8.93291 25.0824C9.58538 25.5887 10.3969 26.2186 11.919 26.2186C13.4416 26.2186 14.2532 25.5887 14.9057 25.0824C15.4802 24.6363 15.9338 24.2848 16.9039 24.2848C17.8746 24.2848 18.3287 24.6368 18.9033 25.0824C19.5558 25.5887 20.3684 26.2186 21.891 26.2186C23.4136 26.2186 24.2257 25.5887 24.8782 25.0818C25.4522 24.6363 25.9058 24.2843 26.8754 24.2843C27.8471 24.2843 28.3013 24.6363 28.8764 25.0824C29.5288 25.5887 30.3415 26.2186 31.8646 26.2186C33.3872 26.2186 34.1999 25.5887 34.8529 25.0829C35.2028 24.812 35.5091 24.5766 35.9133 24.4331C35.644 29.1499 32.6321 32.021 30.0808 33.614Z" fill="#826489"/>
</svg>
