<svg width="44" height="45" viewBox="0 0 44 45" fill="none" xmlns="http://www.w3.org/2000/svg">
<path d="M34.5342 33.336C34.3816 33.3314 34.2315 33.2965 34.0926 33.2333C30.8779 31.7133 26.9752 29.8544 26.1536 26.6603C25.9048 25.5954 25.3642 24.621 24.5925 23.8462C24.3183 23.6977 24.0772 23.495 23.8838 23.2505C23.7413 23.0604 23.6692 22.8267 23.6796 22.5893C23.6901 22.352 23.7826 22.1256 23.9412 21.9487C24.0999 21.7719 24.315 21.6555 24.5499 21.6195C24.7847 21.5834 25.0248 21.6299 25.2292 21.751C25.4264 21.8706 25.612 22.0081 25.7838 22.1619C26.4986 22.4757 27.2287 22.7533 27.9714 22.9938C29.7032 23.4827 31.3538 24.2232 32.8704 25.1916C35.4072 27.0916 35.551 31.7647 35.5612 32.2885C35.5644 32.4638 35.5227 32.637 35.44 32.7916C35.3573 32.9462 35.2364 33.0771 35.0888 33.1717C34.9235 33.2785 34.731 33.3355 34.5342 33.336ZM27.7968 25.1197C27.9334 25.4538 28.0466 25.797 28.1357 26.1468C28.6185 27.9954 30.9806 29.4128 33.3326 30.5836C33.1066 29.2176 32.6136 27.5641 31.638 26.8349C30.4467 26.0765 29.1533 25.4921 27.7968 25.0992V25.1197Z" fill="#826489"/>
<path d="M41.6207 40.9566C41.4757 40.9577 41.332 40.9281 41.1993 40.8697C41.0665 40.8112 40.9476 40.7254 40.8504 40.6177C39.2174 38.7793 35.4174 38.1322 32.4184 38.1322C29.666 38.1322 22.7129 37.3106 17.4853 29.7413C16.7572 28.8119 16.2396 27.7355 15.9683 26.5864C15.697 25.4373 15.6785 24.2431 15.9139 23.0861C16.6471 20.7318 18.2578 18.7496 20.4124 17.5504H20.5459C28.7622 14.6028 33.9898 16.698 36.9785 18.9882C41.1483 22.2131 42.6991 27.2046 42.4732 29.7722C42.2803 33.1436 42.3318 36.5245 42.6272 39.8885C42.6448 40.1026 42.5949 40.3169 42.4843 40.5011C42.3738 40.6854 42.2082 40.8303 42.011 40.9155C41.8853 40.9567 41.7523 40.9707 41.6207 40.9566ZM21.3572 19.3888C19.716 20.3202 18.4844 21.834 17.9064 23.6305C17.746 24.5051 17.7767 25.404 17.9966 26.2656C18.2164 27.1272 18.6201 27.931 19.1799 28.6219C23.6784 35.1436 29.4503 36.1192 32.4184 36.1192C35.1803 36.0718 37.9177 36.6438 40.4294 37.7933C40.2392 35.0579 40.2392 32.3125 40.4294 29.577C40.604 27.5229 39.238 23.3223 35.7152 20.6007C32.1925 17.879 27.1292 17.345 21.3572 19.3991V19.3888Z" fill="#826489"/>
<path d="M15.8934 36.0064H15.6572C11.8572 35.0923 0.251642 32.2988 0.00515273 18.2797C-0.231066 6.592 7.72848 2.70979 8.66309 2.28871C11.3766 0.706539 14.4792 -0.0833495 17.6189 0.00868023C19.8386 0.241881 22.0278 0.706576 24.1508 1.39518C25.512 1.879 26.9315 2.17948 28.372 2.28871C29.0796 2.26523 29.7765 2.10843 30.426 1.82654C30.8658 1.56621 31.3802 1.46113 31.8868 1.52818C32.3933 1.59523 32.8627 1.83051 33.2196 2.19627C34.3288 3.30547 33.7639 4.74333 33.3531 5.79091C33.1409 6.20945 33.0184 6.66771 32.9936 7.13633C33.0553 7.32119 33.1477 7.56768 33.2812 7.8758C34.1747 10.0942 36.0234 14.7056 35.058 18.29C35.0223 18.4202 34.9613 18.5421 34.8785 18.6487C34.7957 18.7553 34.6927 18.8446 34.5754 18.9113C34.4581 18.9781 34.3287 19.0211 34.1948 19.0378C34.0608 19.0546 33.9249 19.0447 33.7947 19.0089C33.534 18.9368 33.3123 18.7648 33.1777 18.5302C33.0431 18.2956 33.0065 18.0173 33.0758 17.7559C33.8666 14.8391 32.1206 10.4947 31.3709 8.64608L31.0525 7.82444C30.8384 6.88016 30.9772 5.89013 31.4428 5.04117C31.6277 4.54819 31.9255 3.80872 31.7612 3.6444C31.5969 3.48007 31.6585 3.55196 31.6482 3.55196L31.1655 3.7471C30.2978 4.10741 29.3725 4.30916 28.4336 4.34278C26.7742 4.22923 25.139 3.88352 23.5757 3.31574C21.5906 2.68942 19.5463 2.26953 17.4751 2.06276C14.7369 2.0416 12.0426 2.75063 9.66959 4.11683H9.5258C9.21769 4.24008 1.84355 7.48552 2.05923 18.1667C2.28518 29.3101 10.2036 32.5453 16.1399 33.942C16.4037 34.0054 16.6317 34.1706 16.7741 34.4015C16.9165 34.6325 16.9617 34.9103 16.8999 35.1745C16.8547 35.4084 16.7295 35.6192 16.5459 35.771C16.3623 35.9227 16.1317 36.006 15.8934 36.0064Z" fill="#826489"/>
<path d="M28.0022 43.206C25.7583 43.2861 23.5328 42.774 21.5496 41.7212C19.5664 40.6683 17.8955 39.1117 16.7048 37.2081C10.3782 27.9647 17.6497 19.6662 17.7318 19.5841C17.9143 19.3811 18.17 19.259 18.4425 19.2446C18.7151 19.2301 18.9822 19.3245 19.1851 19.507C19.388 19.6895 19.5101 19.9452 19.5246 20.2177C19.539 20.4903 19.4446 20.7574 19.2621 20.9603C18.9951 21.2479 12.9972 28.1496 18.3994 36.0475C22.6822 42.3227 28.6698 41.3367 33.0861 40.6178C34.0464 40.4353 35.0171 40.3118 35.9926 40.2481H37.1531C39.1148 40.1762 40.6656 40.1248 41.3126 39.7346C41.427 39.6386 41.5609 39.5687 41.705 39.5297C41.8491 39.4908 42 39.4837 42.1471 39.509C42.2942 39.5343 42.4341 39.5914 42.5569 39.6763C42.6797 39.7612 42.7825 39.8718 42.8582 40.0005C42.9339 40.1291 42.9806 40.2728 42.9951 40.4213C43.0096 40.5699 42.9916 40.7199 42.9422 40.8608C42.8929 41.0017 42.8134 41.1301 42.7093 41.2371C42.6053 41.3442 42.4791 41.4272 42.3397 41.4805C41.2305 42.1584 39.618 42.22 37.2045 42.3022H36.0542C35.1656 42.3731 34.2811 42.4896 33.4044 42.6514C31.6224 42.9867 29.8153 43.1722 28.0022 43.206Z" fill="#826489"/>
<path d="M15.2772 32.8738C15.1397 32.8712 15.004 32.8434 14.8766 32.7916C3.27109 27.8413 4.60624 17.612 4.80138 16.4412C4.80098 15.5435 5.15042 14.6809 5.77553 14.0366C6.40064 13.3924 7.25222 13.017 8.14952 12.9903C8.62632 12.9921 9.09664 13.1009 9.52575 13.3087C10.1587 12.9798 10.8813 12.8651 11.585 12.9818C12.2887 13.0984 12.9355 13.4402 13.4285 13.9557C14.0436 13.8091 14.6879 13.8435 15.2838 14.0549C15.8798 14.2663 16.4018 14.6456 16.7869 15.1471C17.0477 15.0737 17.3171 15.0357 17.588 15.0341C18.4871 15.0609 19.3402 15.4376 19.9656 16.0841C20.591 16.7306 20.9392 17.5958 20.9362 18.4952C20.9362 18.7676 20.8279 19.0289 20.6353 19.2215C20.4427 19.4141 20.1815 19.5223 19.9091 19.5223C19.6367 19.5223 19.3755 19.4141 19.1829 19.2215C18.9903 19.0289 18.8821 18.7676 18.8821 18.4952C18.9021 18.1275 18.7782 17.7665 18.5367 17.4885C18.2951 17.2106 17.9549 17.0375 17.588 17.006C17.3516 17.0067 17.1215 17.0822 16.9307 17.2217C16.8018 17.3093 16.6546 17.3665 16.5004 17.3888C16.3461 17.4111 16.1888 17.398 16.0403 17.3505C15.8919 17.303 15.7562 17.2223 15.6435 17.1146C15.5309 17.0069 15.4442 16.8749 15.3901 16.7287C15.3349 16.5529 15.2416 16.3913 15.1168 16.2557C14.992 16.12 14.8388 16.0136 14.6681 15.9439C14.4974 15.8743 14.3135 15.8432 14.1294 15.8528C13.9453 15.8624 13.7656 15.9125 13.6031 15.9995C13.4857 16.0752 13.3533 16.1245 13.215 16.144C13.0766 16.1635 12.9358 16.1528 12.802 16.1125C12.6672 16.0763 12.5413 16.013 12.4318 15.9265C12.3223 15.8399 12.2316 15.732 12.1652 15.6093C12.0648 15.3987 11.908 15.22 11.7122 15.0931C11.5164 14.9662 11.2893 14.8961 11.056 14.8903C10.7566 14.8924 10.4696 15.0102 10.2549 15.219C10.0675 15.3836 9.82658 15.4744 9.5771 15.4744C9.32763 15.4744 9.08668 15.3836 8.89926 15.219C8.692 15.0362 8.42586 14.9341 8.14952 14.9314C7.96071 14.9454 7.77668 14.9974 7.60843 15.0842C7.44018 15.171 7.29118 15.2909 7.17035 15.4366C7.04953 15.5824 6.95936 15.751 6.90525 15.9325C6.85114 16.1139 6.8342 16.3044 6.85545 16.4925C6.86053 16.5643 6.86053 16.6364 6.85545 16.7082C6.77329 17.0985 5.00678 26.3418 15.688 30.8916C15.9133 30.9803 16.1001 31.1457 16.2154 31.3587C16.3306 31.5717 16.3668 31.8186 16.3176 32.0558C16.2685 32.2929 16.1371 32.505 15.9467 32.6547C15.7564 32.8044 15.5192 32.882 15.2772 32.8738Z" fill="#826489"/>
</svg>
