<svg width="44" height="45" viewBox="0 0 44 45" fill="none" xmlns="http://www.w3.org/2000/svg">
<path d="M35.8095 3.96786C34.4111 3.37844 33.134 2.53502 32.0429 1.48031L31.5384 0.975878C31.4033 0.840784 31.2201 0.764893 31.029 0.764893C30.8379 0.764893 30.6546 0.840784 30.5195 0.975878L30.0151 1.48031C28.9249 2.5342 27.6491 3.37711 26.252 3.96642C25.2591 4.40125 24.3276 4.96453 23.4813 5.64184C21.9901 6.84027 20.7579 8.32913 19.8595 10.0181C19.8472 10.0361 19.8357 10.0563 19.8249 10.0758C19.6498 10.4065 19.4948 10.7589 19.3421 11.1127L18.8614 10.0318L20.3437 6.1787L19.0012 5.6649L18.0363 8.16975L16.562 4.85494L15.2447 5.43863L16.7227 8.76354L14.2041 7.79503L13.6867 9.14042L17.5535 10.6256L18.5422 12.8501L14.2546 11.2035L13.7343 12.5496L18.3462 14.3202C18.2359 14.9021 18.157 15.4895 18.1098 16.0799L14.8873 14.8419L14.3713 16.1858L18.0652 17.6033C18.0652 17.777 18.0702 17.9506 18.0788 18.1236C17.598 18.0808 17.1106 18.0594 16.6167 18.0594C15.6173 18.0608 14.6202 18.1557 13.6384 18.3426C13.5743 18.2223 13.5094 18.102 13.4489 17.9823L13.4381 17.9607C13.4071 17.8887 13.3732 17.8166 13.3394 17.7445L13.3106 17.684C12.7233 16.3709 12.3293 14.9796 12.141 13.5534C12.1404 13.5344 12.1387 13.5154 12.136 13.4965C12.0043 12.4051 11.9859 11.3029 12.0812 10.2076C12.3533 7.41802 13.2253 4.72018 14.6372 2.29892C17.2721 2.85363 19.764 3.94684 21.9565 5.50997L22.8068 4.34618C20.3021 2.56239 17.4391 1.3452 14.4167 0.779151C14.2702 0.749791 14.1182 0.766682 13.9818 0.827489C13.8453 0.888295 13.7311 0.99001 13.655 1.11856C12.1051 3.66289 11.1048 6.50341 10.7185 9.45749C6.99184 9.69139 3.3986 10.9327 0.322233 13.049C0.197607 13.1317 0.101795 13.2511 0.0480803 13.3907C-0.00563408 13.5303 -0.0145886 13.6831 0.0224584 13.828C0.753016 16.8569 2.14133 19.688 4.08887 22.1201L5.20222 21.2049C3.49398 19.0738 2.25048 16.6089 1.5516 13.9685C4.25811 12.1974 7.3703 11.143 10.596 10.9045C10.5569 11.8063 10.5919 12.7099 10.7005 13.6061C10.7005 13.6376 10.7026 13.6692 10.707 13.7005C10.8563 14.8297 11.1219 15.9406 11.4997 17.0153L10.0123 16.4489L8.33545 12.675L7.01817 13.2609L8.1135 15.721L4.71797 14.4175L4.20129 15.7628L7.59249 17.0657L5.13232 18.1589L5.71818 19.4762L9.50068 17.795L11.9962 18.7455C10.0824 19.2904 8.30932 20.2432 6.7987 21.5384C5.28809 22.8335 4.07577 24.4404 3.24504 26.2485C2.65532 27.6493 1.81089 28.9287 0.754601 30.0216L0.253775 30.526C0.118681 30.6612 0.0427895 30.8444 0.0427895 31.0355C0.0427895 31.2266 0.118681 31.4098 0.253775 31.545L0.754601 32.0494C1.81075 33.1419 2.65516 34.4207 3.24504 35.8211C5.43426 40.7868 10.6832 44.0015 16.6167 44.0015C24.5636 44.0015 31.029 38.1825 31.029 31.0305C31.029 24.7791 26.0892 19.5468 19.5374 18.3282C19.515 18.0011 19.4992 17.6717 19.4992 17.3388V17.1226C19.5184 16.0857 19.644 15.0534 19.8739 14.042C19.946 13.766 20.0115 13.5044 20.0958 13.2299C20.3436 12.3903 20.6718 11.5765 21.0759 10.8C21.0867 10.7838 21.0965 10.7669 21.1054 10.7495L21.1162 10.7294C21.9225 9.20098 23.0329 7.85368 24.3792 6.77032C25.1276 6.17116 25.9513 5.67258 26.8292 5.2873C28.3888 4.62652 29.8126 3.68298 31.029 2.5043C32.2454 3.68281 33.6693 4.62633 35.2287 5.2873C39.6821 7.2416 42.5588 11.9724 42.5588 17.3388C42.5588 23.9238 38.1818 29.4617 32.3765 30.2227L32.5639 31.6509C39.084 30.7977 44 24.6444 44 17.3388C44 11.4003 40.7846 6.15204 35.8095 3.96786ZM29.5877 31.0305C29.5877 37.3877 23.7688 42.5603 16.6167 42.5603C11.2546 42.5603 6.5231 39.6836 4.56376 35.2324C3.90452 33.6717 2.96136 32.2469 1.78219 31.0305C2.96136 29.814 3.90452 28.3892 4.56376 26.8286C6.5231 22.3773 11.2546 19.5007 16.6167 19.5007C23.7688 19.5007 29.5877 24.6732 29.5877 31.0305Z" fill="#826489"/>
<path d="M31.7496 5.08835H30.3084V15.1769H31.7496V5.08835Z" fill="#826489"/>
<path d="M31.7496 16.6182H30.3084V19.5006H31.7496V16.6182Z" fill="#826489"/>
<path d="M31.7496 20.9418H30.3084V25.2655H31.7496V20.9418Z" fill="#826489"/>
<path d="M27.4511 6.33871C26.2775 10.6349 25.8016 15.0917 26.0416 19.5389L27.4828 19.4625C27.2503 15.1697 27.7097 10.8675 28.8434 6.72064L27.4511 6.33871Z" fill="#826489"/>
<path d="M21.6322 17.3238L23.0734 17.354C23.1455 13.9585 24.1543 11.1359 25.1199 9.84454L23.967 8.9798C22.6165 10.7813 21.7006 14.0558 21.6322 17.3238Z" fill="#826489"/>
<path d="M34.6068 28.339C36.5496 21.1342 36.5496 13.5435 34.6068 6.33871L33.2161 6.72064C35.0925 13.6751 35.0925 21.0026 33.2161 27.9571L34.6068 28.339Z" fill="#826489"/>
<path d="M38.1428 25.6172C40.2697 21.9804 40.9129 17.6637 39.9386 13.5649L38.5384 13.9065C39.4242 17.6516 38.8324 21.5939 36.8861 24.9138L38.1428 25.6172Z" fill="#826489"/>
<path d="M38.1428 9.06035L36.8861 9.76367C37.3829 10.6468 37.8001 11.5723 38.1327 12.5294L39.4954 12.0595C39.1353 11.0213 38.6826 10.0176 38.1428 9.06035Z" fill="#826489"/>
<path d="M20.2918 21.483C18.1842 20.8471 15.9476 20.7702 13.8013 21.2596C13.6376 21.2886 13.4758 21.3278 13.317 21.377C11.7075 21.7669 10.2052 22.5105 8.91912 23.5539C7.63308 24.5972 6.59572 25.914 5.88246 27.4086L5.85147 27.4806C5.65164 27.9394 5.56964 28.4408 5.61294 28.9393C5.65623 29.4378 5.82344 29.9176 6.09936 30.335C6.2974 30.635 6.54526 30.8989 6.83222 31.1154C6.6317 31.2963 6.45515 31.5022 6.3069 31.7279C6.03091 32.1453 5.86372 32.6251 5.82055 33.1237C5.77738 33.6222 5.8596 34.1236 6.05973 34.5823L6.09071 34.6543C6.80435 36.1499 7.84261 37.4674 9.12986 38.511C10.4171 39.5545 11.9209 40.2978 13.5318 40.6866C13.6797 40.7315 13.83 40.7678 13.9821 40.7954C16.1455 41.2947 18.4019 41.2175 20.526 40.5713C20.7285 40.5244 20.9296 40.4733 21.1263 40.4149L21.1169 40.3832C22.5259 39.9167 23.8255 39.169 24.9371 38.1855C26.0486 37.202 26.949 36.0032 27.5837 34.6615C27.8669 34.0252 27.9263 33.3118 27.7523 32.6374C27.5782 31.963 27.181 31.3673 26.6253 30.9475C27.1067 30.5101 27.4383 29.9323 27.5731 29.296C27.7079 28.6597 27.639 27.9971 27.3762 27.4021C26.7413 26.0606 25.8408 24.8618 24.7293 23.8784C23.6177 22.8949 22.3182 22.1472 20.9094 21.6804L20.9188 21.6487C20.7127 21.586 20.5037 21.5305 20.2918 21.483ZM16.7032 26.0704C16.9007 26.3253 17.1371 26.5475 17.4036 26.729C16.892 26.8796 16.3479 26.8796 15.8363 26.729C16.1678 26.5717 16.4625 26.3475 16.7032 26.0704ZM16.9114 35.9903C16.6717 35.713 16.3773 35.488 16.0467 35.3295C16.5591 35.1778 17.1045 35.1778 17.6169 35.3295C17.3482 35.5108 17.1096 35.7339 16.9114 35.9903ZM24.7517 31.751C25.0273 31.7515 25.2983 31.8206 25.5404 31.9523C25.7825 32.0839 25.988 32.2738 26.1382 32.5048C26.2884 32.7358 26.3787 33.0006 26.4008 33.2752C26.423 33.5499 26.3763 33.8258 26.265 34.0778C25.6743 35.3073 24.8284 36.3969 23.7837 37.2739C22.7389 38.1509 21.5193 38.7952 20.2061 39.1639C18.909 39.4572 18.38 39.1805 17.9635 38.6069C17.8122 38.3973 17.7229 38.1494 17.706 37.8914C17.689 37.6335 17.7451 37.3759 17.8677 37.1484C18.004 36.8786 18.2129 36.6521 18.4707 36.4944C18.7286 36.3367 19.0254 36.254 19.3276 36.2555L20.1527 36.2087V36.1957C21.01 36.2558 21.865 36.0518 22.6028 35.6113L24.4044 34.5304L23.6621 33.2953L21.8606 34.3762C21.4286 34.6357 20.9341 34.7729 20.4302 34.7729C19.9262 34.7729 19.4317 34.6357 18.9998 34.3762C18.3438 33.9816 17.5927 33.773 16.8271 33.773C16.0616 33.773 15.3105 33.9816 14.6545 34.3762C14.2225 34.6357 13.728 34.7729 13.2241 34.7729C12.7201 34.7729 12.2256 34.6357 11.7936 34.3762L9.99211 33.2953L9.24988 34.5304L11.0514 35.6113C11.6508 35.9685 12.3295 36.1712 13.0266 36.2015C13.2536 36.2361 13.4972 36.2613 13.7472 36.2865C14.6314 36.3766 15.5488 36.4688 15.9264 37.054C16.0765 37.34 16.1258 37.6683 16.0662 37.9857C16.0672 38.2265 16.0139 38.4645 15.9102 38.6818C15.8065 38.8992 15.6551 39.0903 15.4673 39.241C15.0965 39.4286 14.6715 39.4797 14.2668 39.3852C14.1681 39.3628 14.0686 39.3398 13.9706 39.3131L13.9331 39.3023C12.5246 38.9722 11.2078 38.331 10.0793 37.4257C8.95083 36.5205 8.03931 35.3741 7.4116 34.0706L6.75224 34.3589L7.38205 33.9986C7.27676 33.7596 7.23376 33.4978 7.25708 33.2377C7.28039 32.9776 7.36925 32.7277 7.51537 32.5112C7.66775 32.2777 7.87599 32.0858 8.12124 31.9531C8.36648 31.8203 8.64097 31.7509 8.91984 31.751H24.7517ZM26.0567 27.9829C26.168 28.235 26.2147 28.5108 26.1926 28.7855C26.1705 29.0602 26.0802 29.325 25.9299 29.556C25.7797 29.787 25.5743 29.9769 25.3322 30.1085C25.0901 30.2401 24.819 30.3093 24.5434 30.3098H8.7123C8.43279 30.3096 8.15775 30.2396 7.9122 30.1061C7.66666 29.9726 7.4584 29.7797 7.30639 29.5452C7.16016 29.3287 7.07118 29.0786 7.04774 28.8184C7.0243 28.5582 7.06717 28.2963 7.17235 28.0571L6.51227 27.7689L7.20262 27.9894C7.82993 26.6866 8.74082 25.5407 9.86852 24.6357C10.9962 23.7307 12.3121 23.0895 13.7198 22.7592L13.7624 22.7462C13.8589 22.7217 13.9569 22.6994 14.0542 22.6741C14.4601 22.5794 14.8863 22.6305 15.2583 22.8183C15.4461 22.969 15.5974 23.1602 15.7011 23.3775C15.8048 23.5949 15.8581 23.8328 15.8572 24.0736C15.9168 24.391 15.8675 24.7193 15.7174 25.0053C15.3362 25.5905 14.4203 25.6827 13.5382 25.7728C13.286 25.798 13.0417 25.8232 12.8176 25.8578C12.1207 25.8873 11.4422 26.0899 10.8432 26.4473L9.04162 27.5282L9.78385 28.7633L11.5854 27.6824C12.0174 27.4228 12.5118 27.2857 13.0158 27.2857C13.5198 27.2857 14.0142 27.4228 14.4462 27.6824C15.1022 28.077 15.8533 28.2855 16.6189 28.2855C17.3844 28.2855 18.1355 28.077 18.7915 27.6824C19.2235 27.4228 19.718 27.2857 20.2219 27.2857C20.7259 27.2857 21.2204 27.4228 21.6523 27.6824L23.4539 28.7633L24.1961 27.5282L22.3946 26.4473C21.6567 26.0069 20.8017 25.8029 19.9445 25.8629V25.8499L19.0798 25.8016C18.7838 25.7982 18.4945 25.7132 18.2438 25.5559C17.993 25.3987 17.7906 25.1752 17.6587 24.9102C17.5361 24.6825 17.4801 24.4249 17.4971 24.1668C17.514 23.9088 17.6032 23.6607 17.7545 23.451C18.1703 22.8795 18.6957 22.6006 19.9884 22.8925C21.3037 23.2607 22.5253 23.9052 23.5718 24.783C24.6182 25.6608 25.4654 26.7517 26.0567 27.9829Z" fill="#826489"/>
</svg>
