<svg width="44" height="45" viewBox="0 0 44 45" fill="none" xmlns="http://www.w3.org/2000/svg">
<path d="M20.7533 44.0015C20.6687 44.0015 20.5842 43.9795 20.5089 43.9364C20.4747 43.9213 20.4409 43.9017 20.4116 43.8792C20.1632 43.6974 19.9393 43.5228 19.7403 43.3576C18.217 42.1975 16.8647 40.853 15.7212 39.3614C14.8353 38.2086 14.1475 37.0441 13.6767 35.9011C13.574 35.6512 13.6928 35.3657 13.9426 35.2626C14.1915 35.1599 14.4779 35.2787 14.5811 35.5285C15.0191 36.5924 15.6635 37.6811 16.4966 38.766C17.5584 40.151 18.809 41.403 20.2155 42.4898V27.037C20.2155 26.7672 20.4341 26.5481 20.7044 26.5481C20.9748 26.5481 21.1933 26.7672 21.1933 27.037V42.547C22.6429 41.4499 23.9189 40.1779 24.9832 38.7689C26.7994 36.389 27.72 34.013 27.72 31.7059C27.72 29.767 27.3924 27.8652 26.7461 26.0529C26.6552 25.7982 26.7882 25.5185 27.0424 25.4281C27.2976 25.3367 27.5767 25.4701 27.6672 25.7244C28.3507 27.6423 28.6973 29.655 28.6973 31.7059C28.6973 34.2325 27.7092 36.808 25.7615 39.3604C24.6327 40.8545 23.2765 42.2024 21.7316 43.3654C21.492 43.5409 21.2725 43.7135 21.0687 43.8856C20.9777 43.9633 20.8648 44.0015 20.7533 44.0015ZM35.1271 43.4388C34.9551 43.4388 34.7888 43.3478 34.6994 43.187C34.5679 42.9513 34.6529 42.6536 34.8895 42.5226L35.3819 42.2517C40.5225 39.4348 43.0222 35.6649 43.0222 30.7276C43.0222 29.3749 42.9176 28.0275 42.7108 26.7227C42.6683 26.4557 42.8501 26.2049 43.1166 26.1629C43.3835 26.1233 43.6343 26.3027 43.6763 26.5692C43.891 27.9248 44 29.324 44 30.7276C44 35.9808 41.2583 40.1471 35.8507 43.1097L35.3643 43.3772C35.289 43.4192 35.2073 43.4388 35.1271 43.4388ZM13.3951 43.097C13.2978 43.097 13.1995 43.0677 13.1135 43.0071C12.1308 42.3124 11.198 41.3805 10.34 40.2365C8.31746 37.6459 7.24679 34.8602 7.16271 31.964C7.04537 27.7699 8.62937 23.671 11.8712 19.7814C12.0443 19.5736 12.3518 19.5458 12.5595 19.7188C12.7668 19.8919 12.7947 20.1994 12.6221 20.4072C9.53724 24.1086 8.02951 27.9874 8.13951 31.9362C8.21773 34.6187 9.21946 37.2118 11.1164 39.6425C11.9191 40.7122 12.7786 41.5727 13.6776 42.2087C13.8981 42.3642 13.9509 42.6692 13.7945 42.8902C13.6996 43.0252 13.5486 43.097 13.3951 43.097ZM28.4044 42.877C28.2597 42.877 28.116 42.8125 28.0197 42.6898C27.853 42.4771 27.8901 42.1701 28.1028 42.0034C28.8972 41.3805 29.6658 40.5871 30.3879 39.6464C31.3177 38.4477 32.0349 37.2216 32.5209 35.9988C32.6206 35.748 32.9042 35.6239 33.1559 35.7251C33.4072 35.8248 33.5295 36.1088 33.4302 36.3596C32.91 37.6679 32.1469 38.9747 31.1618 40.2434C30.3927 41.2471 29.5655 42.0987 28.7066 42.7729C28.6166 42.8433 28.5105 42.877 28.4044 42.877ZM13.2973 32.7081C13.047 32.7081 12.8338 32.517 12.8108 32.2632C12.7937 32.0687 12.7844 31.8829 12.7844 31.7054C12.7844 28.0554 13.9059 24.5188 16.1172 21.1928C16.6349 20.3842 17.379 19.292 18.325 17.9544C18.5954 17.533 19.1366 16.2463 20.1099 12.6099C20.1657 12.4021 20.35 12.255 20.5656 12.2481C20.7836 12.2388 20.9753 12.3748 21.0447 12.5786C22.0533 15.5261 22.7685 17.3419 23.1709 17.975C24.1027 19.292 24.8478 20.3842 25.3694 21.2002C25.6305 21.5913 25.8837 22.0049 26.1174 22.4224C26.2494 22.658 26.1653 22.9563 25.9292 23.0878C25.695 23.2198 25.3963 23.1362 25.2643 22.8996C25.0433 22.5045 24.8033 22.1124 24.5505 21.7345C24.0318 20.9235 23.296 19.8445 22.3583 18.5191C21.9765 17.9173 21.4123 16.5601 20.637 14.3772C20.0176 16.542 19.5247 17.8968 19.1361 18.501C18.1867 19.8445 17.4509 20.9235 16.9366 21.7272C14.8285 24.8967 13.7627 28.2519 13.7627 31.7054C13.7627 31.8545 13.7705 32.011 13.7852 32.1748C13.8096 32.4441 13.6116 32.6817 13.3423 32.7062C13.3266 32.7072 13.3119 32.7081 13.2973 32.7081ZM33.8311 32.4388C33.8262 32.4388 33.8213 32.4388 33.8169 32.4388C33.5471 32.4304 33.3349 32.2056 33.3422 31.9362C33.4683 27.5919 31.6291 23.3332 27.8745 19.2779C24.3491 15.444 23.7512 14.7371 23.6079 14.5386C22.2029 12.7497 21.363 10.9516 21.1244 9.21018C21.0872 8.94276 21.2745 8.69587 21.5419 8.6592C21.8103 8.62107 22.0567 8.80929 22.0929 9.07671C22.308 10.6446 23.0809 12.2843 24.3892 13.9504C24.5378 14.1558 25.3763 15.1164 28.5936 18.6149C32.5267 22.8634 34.4535 27.3553 34.32 31.9645C34.3122 32.2295 34.0946 32.4388 33.8311 32.4388ZM20.7044 24.0548C20.4341 24.0548 20.2155 23.8358 20.2155 23.5659V21.7081C20.2155 21.4378 20.4341 21.2192 20.7044 21.2192C20.9748 21.2192 21.1933 21.4378 21.1933 21.7081V23.5659C21.1933 23.8358 20.9748 24.0548 20.7044 24.0548ZM42.1911 23.1504C41.999 23.1504 41.8176 23.0369 41.7394 22.8492C41.6567 22.6517 41.5834 22.4703 41.5174 22.3056C41.2065 21.3923 40.8608 20.548 40.4805 19.7721C40.3622 19.5296 40.4624 19.2368 40.7049 19.118C40.9474 18.9992 41.2397 19.0994 41.359 19.3419C41.757 20.1554 42.1192 21.0384 42.4336 21.9663C42.4888 22.1027 42.5617 22.2801 42.6423 22.4732C42.746 22.7226 42.6282 23.0086 42.3788 23.1127C42.3172 23.1381 42.2537 23.1504 42.1911 23.1504ZM15.7173 16.7459C15.6009 16.7459 15.4836 16.7044 15.3907 16.6203C15.1903 16.4394 15.1741 16.1304 15.3545 15.93C16.6339 14.5107 17.0006 14.078 17.0827 13.9651C18.4013 12.2843 19.1737 10.6441 19.3888 9.07671C19.426 8.80929 19.6704 8.62058 19.9398 8.6592C20.2072 8.69587 20.3945 8.94276 20.3578 9.21018C20.1183 10.9521 19.2788 12.7497 17.8625 14.5547C17.7833 14.6647 17.4993 15.0113 16.081 16.5846C15.9847 16.6912 15.8507 16.7459 15.7173 16.7459ZM9.53333 10.8304C9.26297 10.8304 9.04444 10.6113 9.04444 10.3415V8.16591C9.04444 7.89556 9.26297 7.67703 9.53333 7.67703C9.80319 7.67703 10.0222 7.89556 10.0222 8.16591V10.3415C10.0222 10.6113 9.80319 10.8304 9.53333 10.8304ZM13.9089 6.47925H11.7089C11.4385 6.47925 11.22 6.26071 11.22 5.99036C11.22 5.72049 11.4385 5.50147 11.7089 5.50147H13.9089C14.1792 5.50147 14.3978 5.72049 14.3978 5.99036C14.3978 6.26071 14.1787 6.47925 13.9089 6.47925ZM7.38222 6.47925H5.20666C4.9368 6.47925 4.71777 6.26071 4.71777 5.99036C4.71777 5.72049 4.9368 5.50147 5.20666 5.50147H7.38222C7.65257 5.50147 7.87111 5.72049 7.87111 5.99036C7.87111 6.26071 7.65257 6.47925 7.38222 6.47925ZM9.53333 4.32765C9.26297 4.32765 9.04444 4.10912 9.04444 3.83876V1.66369C9.04444 1.39334 9.26297 1.1748 9.53333 1.1748C9.80319 1.1748 10.0222 1.39334 10.0222 1.66369V3.83876C10.0222 4.10912 9.80319 4.32765 9.53333 4.32765Z" fill="#826489"/>
<path d="M17.4103 43.9889C17.0549 43.9889 16.7024 43.9761 16.3533 43.9497C15.312 43.9004 14.2457 43.7718 13.2112 43.5684C13.2034 43.5669 13.1961 43.5655 13.1883 43.5635L13.1848 43.563C11.1662 43.1221 9.17253 42.3741 7.26 41.3415C2.44102 38.7054 0 35.0119 0 30.3611C0 27.7157 0.456133 25.1349 1.3552 22.6904C2.45178 19.5884 4.14675 17.1195 6.38782 15.3654C7.97867 14.1187 10.4911 12.3519 13.8556 10.1142C15.6567 8.78105 17.0187 7.45567 17.864 6.20167C18.0459 5.93229 18.3495 5.77047 18.6746 5.77047H22.219C22.5622 5.77047 22.881 5.95087 23.0575 6.24518C23.1235 6.35567 23.2027 6.46225 23.2921 6.56394C23.3132 6.58691 23.3327 6.61136 23.3513 6.63629C24.1677 7.75585 25.4129 8.93456 27.0512 10.1406C30.3771 12.3509 32.889 14.1178 34.4818 15.3654C36.7224 17.12 38.4169 19.5884 39.5183 22.7026C40.4135 25.1349 40.8701 27.7157 40.8701 30.3616C40.8701 35.0124 38.4291 38.7054 33.615 41.3396C32.0046 42.221 30.3351 42.8923 28.6518 43.3342L28.6489 43.3347C27.2829 43.6931 25.8632 43.9009 24.4293 43.9522L18.4414 43.9527C18.0977 43.9771 17.753 43.9889 17.4103 43.9889ZM13.5945 41.6505C14.5337 41.8348 15.5022 41.9517 16.4736 41.9981C17.0999 42.045 17.7188 42.045 18.3358 41.9996C18.3592 41.9981 18.3832 41.9971 18.4072 41.9971H24.3956C25.6505 41.9512 26.927 41.7649 28.1541 41.4427L28.1566 41.4422C29.6853 41.0409 31.2063 40.4288 32.6773 39.6236C36.8749 37.3268 38.9155 34.2976 38.9155 30.3611C38.9155 27.9465 38.5 25.593 37.6801 23.3656C36.7004 20.596 35.221 18.4258 33.2772 16.9044C31.7245 15.6876 29.2532 13.9506 25.9321 11.7418C24.1115 10.4037 22.7338 9.09443 21.7991 7.82429C21.7702 7.79203 21.7428 7.75829 21.716 7.72505H19.1801C18.2087 9.02891 16.7982 10.3685 14.9791 11.7134C11.6165 13.951 9.14515 15.6881 7.5944 16.9034C5.65009 18.4254 4.17022 20.5955 3.19538 23.3529C2.37111 25.593 1.95556 27.947 1.95556 30.3611C1.95556 34.2971 3.99618 37.3268 8.19378 39.6236C9.93862 40.5652 11.7568 41.2481 13.5945 41.6505Z" fill="#826489"/>
</svg>
