<svg width="44" height="45" viewBox="0 0 44 45" fill="none" xmlns="http://www.w3.org/2000/svg">
<path d="M12.5266 43.7676C11.47 43.7676 10.4018 43.6478 9.3254 43.4083C6.51664 42.7956 4.19172 41.4821 2.41652 39.5049C2.20779 39.326 2.01349 39.1298 1.83698 38.9201C1.17663 38.1996 0.691832 37.3748 0.395085 36.4677C-0.142138 34.8916 -0.132038 33.0284 0.428752 30.9416C1.2406 27.7985 3.08361 24.8974 5.90439 22.3282C7.99172 20.4289 10.22 19.0755 12.5343 18.3002C13.223 16.4264 14.3283 14.7195 15.8279 13.2209C18.5823 10.4828 21.9403 9.07846 25.8124 9.04383C25.5662 7.81452 25.0694 6.60877 24.3301 5.44776C24.0444 4.99999 24.1762 4.40553 24.624 4.11985C25.0722 3.83464 25.6667 3.96594 25.9524 4.41419C26.9152 5.92486 27.5285 7.51056 27.7834 9.1381C30.9471 9.49833 33.738 10.869 36.0899 13.2209C38.8621 16.0104 40.2674 19.4266 40.2674 23.3757C40.2674 27.3099 38.8621 30.7102 36.0899 33.4824C33.3196 36.2695 29.9096 37.684 25.9591 37.684C25.4527 37.684 24.9539 37.6581 24.4682 37.6066C23.3091 39.2038 21.8051 40.564 19.9857 41.6586C17.5877 43.063 15.091 43.7676 12.5266 43.7676ZM8.64437 41.2411C8.99835 41.3513 9.36387 41.4475 9.73853 41.5297C12.9898 42.2521 16.0183 41.7529 19.0036 40.0046C20.7461 38.9557 22.1606 37.6282 23.197 36.0651C23.2028 36.055 23.209 36.0449 23.2158 36.0353C23.6515 35.3649 24.031 34.6199 24.3402 33.8244C24.3513 33.797 24.3628 33.7705 24.3758 33.7441C24.3936 33.7094 24.4104 33.671 24.4273 33.6296C24.5316 33.3011 24.6283 32.9731 24.7178 32.6451C25.4224 30.2148 25.394 27.9712 24.6274 25.8363C24.5663 26.4721 24.446 27.1348 24.2686 27.824C23.5385 30.5914 22.0177 33.178 19.7467 35.5164C19.4263 35.8372 19.108 36.1474 18.7809 36.4576C15.9443 39.0413 12.8806 40.6024 9.65966 41.1108C9.31289 41.168 8.97478 41.2113 8.64437 41.2411ZM3.7199 38.0885C5.06032 39.2476 6.90236 39.6155 9.35329 39.2115C12.2025 38.7618 14.9314 37.3613 17.4713 35.0489C17.7709 34.7637 18.0782 34.4645 18.3769 34.1659C20.4051 32.0781 21.7643 29.7772 22.4068 27.3388C23.0898 24.6935 22.7714 22.6668 21.431 21.1494C21.3059 21.0383 21.1876 20.9272 21.077 20.8161C20.6956 20.4501 20.2651 20.1586 19.7967 19.9504C18.603 19.3891 17.111 19.2612 15.3469 19.5627C14.7525 19.6666 14.1542 19.8109 13.5727 19.9898C13.5688 19.9908 13.565 19.9922 13.5616 19.9932C11.355 20.6535 9.21526 21.9175 7.20007 23.7509C4.66016 26.0638 3.00761 28.6479 2.28907 31.4317C1.82688 33.1525 1.80427 34.6386 2.2203 35.8588C2.43624 36.5201 2.78782 37.1131 3.26685 37.633C3.27791 37.6446 3.28849 37.6571 3.29859 37.6696C3.42075 37.8163 3.55686 37.9524 3.70355 38.0746C3.7074 38.077 3.71029 38.0799 3.71317 38.0823C3.71509 38.0842 3.71798 38.0866 3.7199 38.0885ZM25.5873 35.7544C25.7105 35.7578 25.8345 35.7597 25.9582 35.7597C29.4263 35.7597 32.2952 34.5703 34.7259 32.1237C37.16 29.6896 38.3427 26.8289 38.3427 23.3752C38.3427 19.9042 37.16 17.0272 34.7259 14.5786C32.7487 12.6014 30.5075 11.4539 27.9007 11.0912C27.8897 11.5159 27.8565 11.9483 27.8021 12.384C27.7362 12.9116 27.2514 13.2825 26.7296 13.2199C26.2015 13.154 25.8278 12.6736 25.8937 12.1465C25.9437 11.7468 25.9726 11.3524 25.9803 10.9667C25.9726 10.9667 25.9654 10.9667 25.9586 10.9667C22.5035 10.9667 19.6341 12.1493 17.1861 14.583C16.2391 15.5295 15.4744 16.5693 14.8996 17.688C14.94 17.6808 14.9795 17.6735 15.0189 17.6668C17.1832 17.2974 19.0589 17.4773 20.597 18.2012C21.2424 18.4878 21.8499 18.8961 22.3866 19.4069C23.5318 20.3366 24.5182 21.4899 25.3185 22.8356C27.2149 26.008 27.6367 29.4843 26.5709 33.166C26.4752 33.5171 26.367 33.8826 26.2506 34.2481C26.2438 34.2698 26.2357 34.2914 26.227 34.3126C26.1914 34.4025 26.1558 34.4847 26.1188 34.5598C25.9577 34.97 25.7797 35.3687 25.5873 35.7544ZM30.6551 8.93995C30.0698 8.93995 29.5081 8.85434 28.9954 8.72592C28.6366 8.63599 28.3605 8.34838 28.286 7.98574C27.855 5.88061 28.1561 2.98961 32.0436 1.17354C32.9897 0.726253 34.054 0.385739 35.2016 0.163058L36.1755 0.0125205C36.478 -0.0336509 36.7853 0.066387 37.0022 0.282815C37.2192 0.499725 37.3197 0.806572 37.273 1.10909L37.1292 2.04695C37.1244 2.07725 37.1182 2.10755 37.1105 2.13737C36.8219 3.27578 36.4405 4.31415 35.9778 5.22363C34.483 8.12521 32.4577 8.93995 30.6551 8.93995ZM30.0785 6.97814C31.8801 7.2167 33.2234 6.36734 34.2651 4.3459C34.5965 3.69469 34.8822 2.95595 35.1155 2.14602C34.3132 2.33023 33.5495 2.58946 32.8617 2.91458C30.8148 3.8712 29.9188 5.17169 30.0785 6.97814Z" fill="#826489"/>
<path d="M28.074 40.2571C27.8316 40.2571 27.6228 40.0748 27.5969 39.8281C27.5675 39.5641 27.7585 39.3265 28.0225 39.2976C30.295 39.0504 32.5079 38.2568 34.6 36.94C35.7509 36.2243 36.7888 35.399 37.6877 34.4847C37.8729 34.2948 38.1788 34.2928 38.3678 34.479C38.5578 34.6651 38.5602 34.9695 38.3736 35.159C37.4218 36.1277 36.3237 37.0011 35.1103 37.7552C32.896 39.1495 30.5461 39.9902 28.1269 40.2537C28.1086 40.2561 28.0918 40.2571 28.074 40.2571ZM8.02261 37.7975C6.57495 37.7975 5.38844 37.4075 4.48329 36.6298C4.46261 36.6125 4.44385 36.5932 4.42701 36.5725C4.35824 36.4898 4.29668 36.4206 4.24089 36.3652C4.238 36.3624 4.23608 36.36 4.23319 36.3571C4.22117 36.345 4.21059 36.3325 4.20049 36.3196C4.1346 36.2373 4.07736 36.1628 4.02782 36.0969C3.5892 35.6102 3.26215 35.0195 3.08275 34.3736C2.75378 33.1967 2.83651 31.8328 3.32996 30.3202C3.5488 29.6973 3.82486 29.0846 4.15576 28.4892C4.15768 28.4853 4.15961 28.4815 4.16153 28.4776C5.0133 26.84 6.28926 25.2798 7.94614 23.8523C9.25192 22.7096 10.6159 21.8112 11.9967 21.1859C12.0025 21.183 12.0087 21.1802 12.0145 21.1773C12.2026 21.0926 12.4017 21.0147 12.6046 20.9469C13.3751 20.6415 14.2062 20.4063 15.0517 20.2567C16.7004 19.9518 18.0904 20.0533 19.1869 20.5578C19.4976 20.6958 19.7929 20.8733 20.0589 21.0835C20.2176 21.1859 20.3662 21.3163 20.5023 21.4716L20.7447 21.7121C22.0337 23.1612 22.2852 25.1143 21.5123 27.5374C21.3123 28.1208 21.0718 28.696 20.7919 29.2558C20.788 29.264 20.7842 29.2717 20.7808 29.2794C19.9863 30.83 18.8286 32.3031 17.3391 33.6623L16.9015 34.0514C15.3908 35.349 13.8287 36.3292 12.2516 36.9712C12.2377 36.9775 12.2223 36.9833 12.2074 36.9881C11.3941 37.2853 10.5822 37.4993 9.78193 37.6297C9.15718 37.7417 8.5709 37.7975 8.02261 37.7975ZM5.27012 36.03C6.28349 36.8 7.74462 37.0193 9.61648 36.6817C10.2711 36.5745 10.929 36.4095 11.5797 36.1887L11.6192 29.946L5.27012 36.03ZM12.5849 29.3506L12.5445 35.792C13.7969 35.2009 15.0488 34.3727 16.2661 33.3271L16.6937 32.9476C17.8764 31.8683 18.8354 30.715 19.551 29.5131L12.5849 29.3506ZM4.8642 29.2005C4.61507 29.6757 4.40778 30.1523 4.24041 30.6289C3.81092 31.9472 3.73108 33.1236 4.00955 34.1158C4.12979 34.5492 4.3366 34.9517 4.62469 35.3158L10.8857 29.3169L4.8642 29.2005ZM13.2068 28.4031L20.0575 28.5632C20.2643 28.127 20.4456 27.6812 20.5976 27.2363C21.2666 25.1398 21.0862 23.5455 20.0445 22.3729L19.7982 22.1286L19.7953 22.1247L13.2068 28.4031ZM5.39325 28.2487L11.6317 28.3689L11.7115 22.395C10.6481 22.9539 9.59725 23.6859 8.57571 24.579C7.24251 25.7271 6.17576 26.9583 5.39325 28.2487ZM12.6797 21.942L12.6027 27.649L19.0109 21.5433C18.9388 21.5043 18.8642 21.4682 18.7892 21.4346C17.8696 21.0113 16.672 20.9339 15.2244 21.2032L15.2205 21.2037C14.438 21.3418 13.6675 21.5596 12.9331 21.8506C12.8432 21.8814 12.7595 21.9112 12.6797 21.942ZM25.2364 34.654C25.0214 34.654 24.8256 34.5088 24.7703 34.2904C24.7054 34.0326 24.8622 33.7715 25.12 33.707L25.2166 33.683C25.257 33.6729 25.2984 33.6685 25.3417 33.6685C27.9624 33.7166 30.1267 33.0481 31.7585 31.688C31.9644 31.5177 32.2659 31.5461 32.4367 31.7496C32.6069 31.9535 32.5786 32.257 32.3746 32.4267C30.574 33.9273 28.2375 34.6651 25.3898 34.6309L25.3542 34.6396C25.3152 34.6492 25.2758 34.654 25.2364 34.654ZM41.2766 30.2533C41.2193 30.2533 41.1612 30.2432 41.1049 30.2211C40.8567 30.1259 40.7331 29.8474 40.8279 29.5997C41.1385 28.7907 41.3992 27.9385 41.6017 27.066C42.5776 22.8385 41.91 18.8091 39.6168 15.0908C38.8276 13.8533 37.9234 12.752 36.9321 11.8228C36.7378 11.6414 36.7282 11.337 36.9095 11.1427C37.0909 10.9484 37.3963 10.9388 37.5896 11.1211C38.639 12.1051 39.5952 13.2685 40.4311 14.5801C42.8661 18.5277 43.5731 22.7995 42.5391 27.2834C42.326 28.1992 42.0524 29.0947 41.7258 29.945C41.6522 30.136 41.4699 30.2533 41.2766 30.2533ZM36.179 20.6583C36.0231 20.6583 35.8697 20.5823 35.7769 20.4419L35.1276 19.4559C34.9819 19.2342 35.043 18.9356 35.2647 18.7898C35.4864 18.6441 35.7851 18.7052 35.9308 18.9274L36.5801 19.9133C36.7268 20.135 36.6647 20.4337 36.443 20.5794C36.3617 20.6324 36.2699 20.6583 36.179 20.6583ZM33.3899 19.6724C33.2322 19.6724 33.0783 19.5954 32.9859 19.4535L32.3602 18.4916C32.2154 18.269 32.2794 17.9708 32.5021 17.8265C32.7248 17.6817 33.0225 17.7447 33.1673 17.9674L33.793 18.9293C33.9377 19.152 33.8738 19.4502 33.6511 19.5945C33.5703 19.6474 33.4789 19.6724 33.3899 19.6724ZM10.7361 18.1333C10.7006 18.1333 10.665 18.1295 10.6289 18.1213C10.3697 18.0621 10.2081 17.8044 10.2672 17.5451C10.5818 16.1715 11.1108 14.8614 11.839 13.6528C11.976 13.4248 12.2709 13.3522 12.4993 13.4893C12.7268 13.6263 12.7999 13.9216 12.6628 14.1496C11.9876 15.2712 11.496 16.4856 11.2051 17.7601C11.1541 17.9823 10.9559 18.1333 10.7361 18.1333ZM33.654 16.5702C33.4981 16.5702 33.3447 16.4942 33.2519 16.3538L32.6026 15.3679C32.4569 15.1461 32.518 14.8475 32.7397 14.7017C32.9614 14.556 33.2601 14.6176 33.4058 14.8393L34.0551 15.8252C34.2018 16.047 34.1397 16.3456 33.918 16.4914C33.8367 16.5443 33.7449 16.5702 33.654 16.5702ZM14.8723 12.6259C14.6064 12.6259 14.3914 12.4105 14.3914 12.145V10.5338C14.3914 10.2683 14.6064 10.0529 14.8723 10.0529C15.1383 10.0529 15.3533 10.2683 15.3533 10.5338V12.145C15.3533 12.411 15.1378 12.6259 14.8723 12.6259ZM18.1433 9.37953H16.508C16.2421 9.37953 16.0271 9.16406 16.0271 8.89857C16.0271 8.63309 16.2421 8.41762 16.508 8.41762H18.1433C18.4092 8.41762 18.6242 8.63309 18.6242 8.89857C18.6242 9.16406 18.4088 9.37953 18.1433 9.37953ZM13.2611 9.37953H11.6259C11.3599 9.37953 11.1449 9.16406 11.1449 8.89857C11.1449 8.63309 11.3599 8.41762 11.6259 8.41762H13.2611C13.5271 8.41762 13.7421 8.63309 13.7421 8.89857C13.7421 9.16406 13.5271 9.37953 13.2611 9.37953ZM14.8723 7.76882C14.6064 7.76882 14.3914 7.55335 14.3914 7.28787V5.65263C14.3914 5.38714 14.6064 5.17168 14.8723 5.17168C15.1383 5.17168 15.3533 5.38714 15.3533 5.65263V7.28787C15.3533 7.55335 15.1378 7.76882 14.8723 7.76882Z" fill="#826489"/>
</svg>
