<svg width="44" height="45" viewBox="0 0 44 45" fill="none" xmlns="http://www.w3.org/2000/svg">
<path fill-rule="evenodd" clip-rule="evenodd" d="M16.1335 21.2625C7.35999 21.2625 1.46696 24.2963 1.46696 27.1291C1.46696 29.9619 7.35999 32.9957 16.1335 32.9957C24.9071 32.9957 30.8001 29.9619 30.8001 27.1291C30.8001 24.2963 24.9071 21.2625 16.1335 21.2625ZM16.1335 34.4624C7.08646 34.4624 0.000305176 31.2409 0.000305176 27.1291C0.000305176 23.0173 7.08646 19.7958 16.1335 19.7958C25.1806 19.7958 32.2668 23.0173 32.2668 27.1291C32.2668 31.2409 25.1806 34.4624 16.1335 34.4624Z" fill="#826489"/>
<path fill-rule="evenodd" clip-rule="evenodd" d="M4.5184 27.1261C5.34266 27.9761 9.12077 30.0624 16.1336 30.0624C23.1332 30.0624 26.9194 27.9805 27.7488 27.132C26.9245 26.2821 23.1457 24.1957 16.1336 24.1957C9.13397 24.1957 5.3478 26.2777 4.5184 27.1261ZM16.1336 31.529C7.89318 31.529 3.16468 28.7314 2.94175 27.2325L2.92561 27.1232L2.94175 27.0147C3.16688 25.5194 7.89685 22.7291 16.1336 22.7291C24.374 22.7291 29.1018 25.526 29.3254 27.0257L29.3416 27.1349L29.3254 27.2435C29.1003 28.7387 24.3696 31.529 16.1336 31.529Z" fill="#826489"/>
<path fill-rule="evenodd" clip-rule="evenodd" d="M16.45 44.0014C16.2528 44.0014 16.131 43.9962 16.0988 43.9948C15.892 44.0043 9.36535 44.2639 4.64198 39.7605C1.562 36.8235 0.000305176 32.5741 0.000305176 27.1291C0.000305176 26.7236 0.328543 26.3956 0.733341 26.3956C1.13887 26.3956 1.46696 26.7236 1.46696 27.1291C1.46696 32.1509 2.87173 36.0403 5.64371 38.6891C9.90215 42.7591 16.0328 42.5325 16.0995 42.5296C16.2278 42.5347 22.3636 42.7598 26.6235 38.6891C29.3948 36.0403 30.8001 32.1509 30.8001 27.1291C30.8001 26.7236 31.1283 26.3956 31.5331 26.3956C31.9387 26.3956 32.2668 26.7236 32.2668 27.1291C32.2668 32.5741 30.7045 36.8235 27.6245 39.7605C23.4643 43.7271 17.905 44.0014 16.45 44.0014Z" fill="#826489"/>
<path fill-rule="evenodd" clip-rule="evenodd" d="M15.4002 30.7957H16.8669V23.4624H15.4002V30.7957Z" fill="#826489"/>
<path fill-rule="evenodd" clip-rule="evenodd" d="M3.66693 27.8625H28.6001V26.3958H3.66693V27.8625Z" fill="#826489"/>
<path fill-rule="evenodd" clip-rule="evenodd" d="M11.001 30.7957C10.7458 30.7957 10.4986 30.663 10.3637 30.4261C10.162 30.0748 10.2845 29.6268 10.6365 29.4258L20.9031 23.5592C21.2544 23.3561 21.7032 23.48 21.9034 23.832C22.105 24.1833 21.9826 24.6313 21.6306 24.8323L11.364 30.6989C11.2496 30.7649 11.1242 30.7957 11.001 30.7957Z" fill="#826489"/>
<path fill-rule="evenodd" clip-rule="evenodd" d="M21.2661 30.7957C21.1429 30.7957 21.0175 30.7649 20.9031 30.6989L10.6365 24.8323C10.2845 24.6313 10.162 24.1833 10.3637 23.832C10.5639 23.48 11.0112 23.3561 11.364 23.5592L21.6306 29.4258C21.9826 29.6268 22.105 30.0748 21.9034 30.4261C21.7684 30.663 21.5213 30.7957 21.2661 30.7957Z" fill="#826489"/>
<path fill-rule="evenodd" clip-rule="evenodd" d="M27.8668 11.7292C26.2491 11.7292 24.9335 10.4136 24.9335 8.7959C24.9335 8.39037 25.2613 8.06258 25.6668 8.06258C26.0723 8.06258 26.4001 8.39037 26.4001 8.7959C26.4001 9.60477 27.0579 10.2626 27.8668 10.2626C28.6757 10.2626 29.3334 9.60477 29.3334 8.7959C29.3334 8.39037 29.6612 8.06258 30.0668 8.06258C30.4723 8.06258 30.8001 8.39037 30.8001 8.7959C30.8001 10.4136 29.4845 11.7292 27.8668 11.7292Z" fill="#826489"/>
<path fill-rule="evenodd" clip-rule="evenodd" d="M34.4668 16.1292C34.279 16.1292 34.0913 16.0573 33.9483 15.9143C33.6616 15.6276 33.6616 15.1641 33.9483 14.8774L34.6816 14.1441C34.9684 13.8573 35.4318 13.8573 35.7186 14.1441C36.0053 14.4308 36.0053 14.8943 35.7186 15.181L34.9852 15.9143C34.8422 16.0573 34.6545 16.1292 34.4668 16.1292Z" fill="#826489"/>
<path fill-rule="evenodd" clip-rule="evenodd" d="M19.0668 13.9293C18.8791 13.9293 18.6914 13.8574 18.5484 13.7144C18.2617 13.4277 18.2617 12.9642 18.5484 12.6775L19.2817 11.9441C19.5684 11.6574 20.0319 11.6574 20.3186 11.9441C20.6054 12.2309 20.6054 12.6943 20.3186 12.9811L19.5853 13.7144C19.4423 13.8574 19.2546 13.9293 19.0668 13.9293Z" fill="#826489"/>
<path fill-rule="evenodd" clip-rule="evenodd" d="M25.6668 18.3291C25.4791 18.3291 25.2913 18.2573 25.1483 18.1143C24.8616 17.8275 24.8616 17.3641 25.1483 17.0773L25.8817 16.344C26.1684 16.0573 26.6319 16.0573 26.9186 16.344C27.2053 16.6307 27.2053 17.0942 26.9186 17.3809L26.1853 18.1143C26.0423 18.2573 25.8545 18.3291 25.6668 18.3291Z" fill="#826489"/>
<path fill-rule="evenodd" clip-rule="evenodd" d="M8.80025 37.3957C8.61252 37.3957 8.42478 37.3239 8.28179 37.1809C7.99505 36.8941 7.99505 36.4307 8.28179 36.1439L9.01511 35.4106C9.30185 35.1239 9.76531 35.1239 10.052 35.4106C10.3388 35.6973 10.3388 36.1608 10.052 36.4475L9.31871 37.1809C9.17571 37.3239 8.98798 37.3957 8.80025 37.3957Z" fill="#826489"/>
<path fill-rule="evenodd" clip-rule="evenodd" d="M24.2002 37.3957C24.0124 37.3957 23.8247 37.3239 23.6817 37.1809L22.9484 36.4475C22.6616 36.1608 22.6616 35.6973 22.9484 35.4106C23.2351 35.1239 23.6986 35.1239 23.9853 35.4106L24.7186 36.1439C25.0053 36.4307 25.0053 36.8941 24.7186 37.1809C24.5756 37.3239 24.3879 37.3957 24.2002 37.3957Z" fill="#826489"/>
<path fill-rule="evenodd" clip-rule="evenodd" d="M16.1335 40.329C15.9458 40.329 15.758 40.2571 15.615 40.1141C15.3283 39.8274 15.3283 39.3639 15.615 39.0772L16.3484 38.3439C16.6351 38.0572 17.0986 38.0572 17.3853 38.3439C17.672 38.6306 17.672 39.0941 17.3853 39.3808L16.652 40.1141C16.509 40.2571 16.3212 40.329 16.1335 40.329Z" fill="#826489"/>
<path fill-rule="evenodd" clip-rule="evenodd" d="M38.1334 23.4624C37.9457 23.4624 37.7579 23.3906 37.6149 23.2476C37.3282 22.9608 37.3282 22.4974 37.6149 22.2107L38.3483 21.4773C38.635 21.1906 39.0985 21.1906 39.3852 21.4773C39.6719 21.7641 39.6719 22.2275 39.3852 22.5143L38.6519 23.2476C38.5089 23.3906 38.3211 23.4624 38.1334 23.4624Z" fill="#826489"/>
<path fill-rule="evenodd" clip-rule="evenodd" d="M16.1335 19.7958C25.1806 19.7958 32.2668 23.0173 32.2668 27.1291C32.2668 29.6957 31.9118 32.0211 31.2093 34.0605C37.7476 32.5301 42.5333 26.6114 42.5333 19.7958C42.5333 11.7087 35.9539 5.12925 27.8668 5.12925C19.7796 5.12925 13.2002 11.7087 13.2002 19.7958C13.2002 19.8376 13.2009 19.8787 13.2017 19.9198C14.1939 19.8376 15.1773 19.7958 16.1335 19.7958ZM28.837 35.9364L29.3738 34.7271C30.3205 32.5917 30.8001 30.0353 30.8001 27.1291C30.8001 24.2963 24.9071 21.2625 16.1335 21.2625C14.9829 21.2625 13.7905 21.3255 12.5886 21.4502L11.8259 21.5287L11.7658 20.5196C11.7489 20.2798 11.7335 20.04 11.7335 19.7958C11.7335 10.8998 18.9708 3.6626 27.8668 3.6626C36.7628 3.6626 44 10.8998 44 19.7958C44 27.7708 38.0446 34.6296 30.1467 35.7509L28.837 35.9364Z" fill="#826489"/>
</svg>
