<svg width="44" height="45" viewBox="0 0 44 45" fill="none" xmlns="http://www.w3.org/2000/svg">
<path d="M16.7913 31.5407C17.3244 30.83 17.813 30.1636 18.2128 29.8527C18.4793 29.6306 19.1901 29.5417 19.9008 29.4529C21.1002 29.2752 22.6105 29.0975 23.8988 28.1203C25.0537 27.2763 25.5868 26.299 26.0754 25.455C26.5196 24.6554 26.9194 23.9002 27.8523 23.1895C29.9401 21.5903 36.2479 16.4374 38.2025 14.1275C38.5579 13.7721 38.8688 13.1502 38.7355 12.2174C41.0899 10.3517 42.7335 7.46427 42.8223 7.33101L41.9339 5.99837C41.845 5.99837 41.1787 6.0872 40.2014 6.30931C41.1343 4.53245 41.5341 2.88886 41.5341 2.80001L40.6901 1.7339C40.5568 1.7339 38.7355 1.77831 36.781 2.71116C37.0031 1.68947 37.0919 0.978738 37.0919 0.889895L35.7593 0.00146484C35.626 0.0903078 32.7831 1.68948 31.3616 4.39919C30.1622 4.13266 29.407 4.48803 29.0072 4.88783C27.7634 5.95394 20.7893 12.706 19.9897 15.7267C19.6343 17.1037 18.4793 19.5025 17.4576 20.2132C17.1023 20.4798 16.6136 20.7019 16.125 20.924C14.9256 21.5015 13.4153 22.2566 12.438 23.8114C11.7273 24.9663 11.5052 26.2101 11.2831 27.4095C11.1054 28.4312 10.9277 29.3641 10.4835 30.1637C9.72831 31.4519 8.30682 33.5841 7.46281 34.7835C6.35227 35.7608 5.68595 36.9601 5.10847 38.0262C4.57541 39.0035 4.04236 39.9364 3.28719 40.6027C2.17666 41.5356 1.02169 42.113 0 42.2907L0.222107 44.0676C1.6436 43.8899 3.06508 43.1792 4.44215 41.9798C5.46384 41.1358 6.08574 40.0252 6.66322 38.9591C7.0186 38.3372 7.37397 37.7153 7.77376 37.1378H7.81818C8.21798 37.0046 10.9721 36.1161 12.8822 35.2277C12.7934 35.9829 12.5269 36.738 12.0382 37.2711C11.5496 37.8041 10.9721 38.1151 10.3502 38.4705C9.15083 39.1368 7.77376 39.8475 6.70765 42.2463L8.35124 42.957C9.01756 41.4911 9.72831 40.8692 10.5279 40.3806C10.4391 40.9581 10.3502 41.4911 10.2169 41.8909L11.9494 42.3351C12.1271 41.58 12.3492 40.6027 12.438 39.2701C12.749 39.048 13.0155 38.8258 13.3264 38.5149C14.6147 37.1378 14.7035 34.9612 14.7035 34.0727C15.4143 33.3176 16.125 32.3847 16.7913 31.5407ZM38.1136 10.3961C37.8915 9.9963 37.6694 9.5965 37.4029 9.24113C38.2913 8.75249 39.2686 8.44155 40.1126 8.21944C39.5351 8.88576 38.8688 9.68535 38.1136 10.3961ZM39.4463 3.64402C39.0909 4.66571 38.4246 6.13162 37.4473 7.24216C37.0475 7.41985 36.6477 7.59753 36.2479 7.81964C35.937 7.46426 35.626 7.15332 35.2707 6.84237C35.5372 6.39816 35.7593 5.90951 35.937 5.42088C37.0919 4.31034 38.469 3.86613 39.4463 3.64402ZM34.9153 2.84444C34.6932 3.73287 34.3378 4.79898 33.8936 5.73183C33.5826 5.50973 33.3161 5.33203 33.0052 5.15435C33.4938 4.2215 34.249 3.42192 34.9153 2.84444ZM11.9494 31.0965C12.5269 30.0748 12.749 29.0087 12.9267 27.9426C13.2376 28.2091 13.593 28.4756 13.9928 28.7422L15.0145 27.2763C14.2593 26.7876 13.7707 26.2546 13.4153 25.8548C13.5486 25.455 13.6818 25.0996 13.9039 24.7442C14.6147 23.6337 15.7696 23.0562 16.8802 22.5232C17.4576 22.2566 17.9907 21.9901 18.4349 21.6347C19.9897 20.5242 21.2335 17.6812 21.6777 16.1709C22.1219 14.5273 25.3647 10.9291 27.8079 8.48596C28.4742 8.93017 29.2293 9.55207 30.0289 10.4849L31.406 9.32998C30.6064 8.39713 29.8512 7.68637 29.1405 7.19774C29.5847 6.75352 29.9845 6.44258 30.2066 6.22047L30.251 6.17605C30.3399 6.08721 30.4287 6.0872 30.562 6.0872C30.6952 6.0872 30.8729 6.13162 30.9618 6.13162C32.9607 6.62026 36.2924 9.95187 36.9143 12.0397C36.9587 12.2174 37.0919 12.6616 36.9143 12.8837L36.8698 12.9281C35.093 15.0159 29.0072 20.0356 26.7862 21.7236C26.4752 21.9457 26.2531 22.1678 26.031 22.3899C25.4535 21.9013 25.0537 21.457 24.7428 21.1017L23.3657 22.2566C23.7211 22.7008 24.2097 23.2339 24.9205 23.8114C24.7872 24.0779 24.6539 24.3 24.5207 24.5221C24.0765 25.3217 23.6767 26.0325 22.8771 26.6099C21.9442 27.2763 20.7448 27.4539 19.7231 27.5872C18.7015 27.7205 17.7242 27.8537 17.0579 28.4312C16.5692 28.8754 15.9917 29.6306 15.4143 30.3858C14.7035 31.363 13.8595 32.4291 13.1488 32.9622C12.5269 33.4064 11.1054 33.9839 9.77273 34.517C10.5279 33.4064 11.4163 32.0294 11.9494 31.0965Z" fill="#826489"/>
<path d="M0.755132 32.2959L2.30988 33.0067C2.35431 32.9623 4.88632 30.2081 6.21897 28.9199C6.79645 28.3869 7.32951 28.0759 7.95141 27.765C8.66216 27.4096 9.41732 26.9654 10.2169 26.1658C11.5495 24.8331 12.3491 23.0119 12.9266 21.6792L13.1487 21.235C13.5929 20.2577 14.8812 19.1472 15.8584 18.5697C18.0795 17.2815 21.7665 11.8621 22.5661 10.4406C23.4545 8.97468 23.4101 7.33108 22.5217 5.90959C23.188 5.46537 23.9876 4.79905 24.9204 3.82177L23.6322 2.57798C22.7438 3.51083 21.9442 4.13273 21.3223 4.53252C21.2779 4.4881 21.189 4.44368 21.1446 4.39926C21.0557 4.31042 20.9225 4.22158 20.8336 4.17715C21.3667 2.97777 21.8998 2.17818 22.344 1.6007L20.9225 0.579012C20.4783 1.20091 19.8564 2.08934 19.2789 3.37756C17.813 2.8445 16.2138 2.8445 15.2365 3.82177C13.0599 5.95401 11.8161 8.93026 10.9276 11.1069C10.6611 11.7732 10.3946 12.3507 10.2169 12.7949C9.77269 13.7278 9.19521 14.4385 8.57331 15.1493C7.95141 15.9044 7.28509 16.704 6.79645 17.7257C6.52992 18.3032 6.26339 19.0139 5.99686 19.7691C5.73033 19.7691 5.50823 19.8135 5.2417 19.9024C3.95347 20.3466 2.70967 21.6348 2.04335 23.1451L3.68695 23.8559C4.13116 22.8786 4.75306 22.2123 5.33054 21.8569C4.88632 23.1007 4.30885 24.3889 3.46484 25.4995C1.28819 28.3424 0.755132 32.1183 0.755132 32.2959ZM4.79748 26.61C6.17455 24.7443 6.88529 22.5676 7.46277 20.7908C7.7293 19.9468 8.04026 19.1028 8.30678 18.5253C8.70658 17.6813 9.28406 16.9705 9.86154 16.2598C10.4834 15.4602 11.1498 14.6606 11.7272 13.5501C11.8161 13.4168 11.8605 13.2391 11.9493 13.1059C12.3936 13.4612 12.9266 13.861 13.5929 14.2164L14.4369 12.6617C13.6374 12.2174 13.0599 11.7732 12.6601 11.3734C13.5041 9.37446 14.6146 6.79802 16.4359 5.06558C16.6136 4.8879 16.9245 4.79905 17.3243 4.79905C18.0795 4.79905 19.1012 5.15442 19.9896 5.82074C20.656 6.3538 22.0774 7.73088 21.0113 9.55216C20.7004 10.1296 20.0341 11.1513 19.2789 12.2174C18.8347 11.8621 18.2572 11.4623 17.502 11.1069L16.7024 12.7061C17.3243 13.017 17.813 13.3724 18.2128 13.6389C17.0578 15.1493 15.7696 16.5707 14.97 17.0594C14.3481 17.4148 13.3708 18.1255 12.5712 19.0139C11.9049 18.6141 11.4607 18.1699 11.1053 17.859L9.86154 19.1472C10.2613 19.547 10.7944 19.9912 11.5495 20.4798C11.5495 20.4798 11.5496 20.5243 11.5051 20.5243L11.283 20.9685C10.75 22.1678 10.0392 23.767 8.92868 24.922C8.30678 25.5439 7.7293 25.8548 7.1074 26.2102C6.44108 26.5656 5.73034 26.921 4.97517 27.6761C4.53096 28.1203 3.95348 28.6978 3.42042 29.2753C3.73137 28.3424 4.17558 27.4096 4.79748 26.61Z" fill="#826489"/>
<path d="M31.8946 16.8372L33.3605 15.8155C32.8719 15.1048 32.1167 14.1719 30.9173 13.1058L29.718 14.4384C30.8285 15.3713 31.4504 16.2153 31.8946 16.8372Z" fill="#826489"/>
<path d="M24.7872 18.3476L26.0754 17.1482C25.4979 16.5263 24.6095 15.6823 23.2768 14.7938L22.2996 16.2597C23.499 17.0593 24.2541 17.8145 24.7872 18.3476Z" fill="#826489"/>
<path d="M43 20.924L42.4225 19.236C41.845 19.4137 41.0898 19.6802 40.2014 20.1244C40.8677 19.6802 41.7117 19.0139 42.6446 18.0366L41.3564 16.7928C40.5568 17.5924 39.8905 18.1699 39.313 18.5697C39.7572 17.7257 40.157 17.1038 40.4679 16.6596L39.0465 15.6379C38.6022 16.2153 38.0692 17.0149 37.5361 18.1699C36.47 17.8589 35.3595 17.9922 34.4266 18.6141L34.3822 18.6585C32.9607 19.7691 30.6508 22.7009 29.096 24.6554C28.7851 25.0552 28.5186 25.3662 28.3409 25.6327C27.8078 26.299 27.2303 26.7432 26.6529 27.2763C26.031 27.8093 25.3646 28.3424 24.7872 29.0976C24.1653 29.8972 23.7655 30.7412 23.4545 31.3631C23.2324 31.8517 23.0103 32.2959 22.8326 32.518C22.6549 32.6957 22.3884 32.9622 22.1219 33.2288C21.3223 33.9839 20.3894 34.9612 19.812 35.7164C19.0568 36.6936 16.8357 40.1141 16.7469 40.2918L17.9907 41.4912C18.0351 41.4467 21.4555 39.1812 22.7882 38.4705C23.2324 38.2484 23.6766 38.0707 24.1653 37.9819C24.1653 38.3817 24.0764 38.8259 23.8099 39.2257C23.1436 40.4695 21.5888 41.4467 20.5227 41.7577L21.0113 43.4901C22.4328 43.0903 24.4318 41.8465 25.3646 40.1141C25.8533 39.2701 26.031 38.3372 25.8977 37.4932C26.2086 37.36 26.5196 37.2267 26.8305 37.049C28.3853 36.1606 29.407 34.8279 30.1177 33.8507L30.1622 33.8062C30.7396 33.0066 32.1611 31.985 32.8719 31.8517C35.0485 31.4075 39.5351 27.5428 40.5124 25.6327C41.3564 24.3889 41.4008 23.0118 41.0454 21.768C41.7562 21.3682 42.4669 21.1017 43 20.924ZM38.9576 24.6554L38.8688 24.7887C38.2024 26.1657 34.0712 29.7639 32.4277 30.1193C31.3171 30.3414 29.8512 31.4075 28.9628 32.3403C28.6518 31.8961 28.2076 31.4519 27.6746 30.9633L26.4752 32.2959C27.0971 32.8734 27.4969 33.362 27.8078 33.8062C27.2748 34.4281 26.6529 35.0945 25.8533 35.5387C25.2314 35.8941 24.6095 36.0717 23.9876 36.205C23.3212 36.3827 22.6549 36.5604 21.8553 36.9602C21.5 37.1379 20.9669 37.4488 20.4338 37.8042C20.7004 37.4044 20.9225 37.049 21.1002 36.8713C21.6332 36.205 22.5661 35.2722 23.2768 34.5614C23.5878 34.2505 23.8543 33.9839 24.032 33.8062C24.4318 33.362 24.6983 32.7846 25.0093 32.1627C25.2758 31.5408 25.5867 30.8744 26.1198 30.2081C26.6084 29.5862 27.1415 29.142 27.7634 28.6534C28.3853 28.1203 29.0516 27.5872 29.7179 26.7876C29.8956 26.5655 30.1177 26.2546 30.3843 25.9436C31.0062 26.5655 31.406 27.143 31.6725 27.5428L33.1828 26.61C32.8275 26.0769 32.3388 25.3217 31.4948 24.5222C32.783 22.8786 34.4266 20.8796 35.4039 20.1244C36.47 19.4581 37.625 20.0356 38.3357 20.7907C39.313 21.7236 39.8905 23.3672 38.9576 24.6554Z" fill="#826489"/>
<path d="M19.6787 27.0543L21.189 26.1214C20.8336 25.4995 20.2561 24.6999 19.2789 23.8115L18.0795 25.1441C18.9235 25.8993 19.3677 26.5656 19.6787 27.0543Z" fill="#826489"/>
<path d="M37.0475 22.0346L35.8482 23.3672C36.6477 24.1224 37.1364 24.7887 37.4473 25.2773L38.9577 24.3445C38.6023 23.767 38.0248 22.923 37.0475 22.0346Z" fill="#826489"/>
<path d="M19.0569 7.90848C18.5238 7.41985 17.7686 6.79795 16.6137 6.22047L15.8141 7.81964C16.7914 8.30827 17.4133 8.84134 17.8575 9.24113L19.0569 7.90848Z" fill="#826489"/>
</svg>
