<svg width="44" height="45" viewBox="0 0 44 45" fill="none" xmlns="http://www.w3.org/2000/svg">
<path d="M40.4747 0.626719C40.4669 0.614289 40.4551 0.605131 40.4466 0.593355C40.4054 0.533168 40.3583 0.476905 40.3053 0.425223C40.2902 0.41083 40.2765 0.394474 40.2608 0.380736C40.1947 0.323165 40.1221 0.272136 40.0416 0.230921C40.0207 0.219799 39.9978 0.213911 39.9762 0.204098C39.9337 0.18578 39.8931 0.164845 39.8473 0.151761C39.5641 0.0680219 36.9328 -0.594694 31.7305 1.73626C31.7161 1.74281 31.7044 1.75197 31.6906 1.75916C31.3393 1.71467 30.9841 1.68589 30.6236 1.68589C26.9809 1.68589 23.8846 4.03778 22.7515 7.29969C22.7345 7.31146 22.7155 7.31931 22.6985 7.3324C21.1349 8.53353 19.5026 9.89756 17.8455 11.3839C14.8054 12.0794 12.3999 14.4391 11.6318 17.4518C9.91974 19.2829 8.36794 21.1114 7.01307 22.8948C4.05276 24.1757 1.97433 27.1243 1.97433 30.5504C1.97433 30.7179 1.99264 30.8814 2.00246 31.0469C-0.513643 36.5646 0.0443996 39.6708 0.0699139 39.7996C0.0725307 39.8134 0.0810354 39.8232 0.0836523 39.8363C0.108512 39.9436 0.145803 40.0463 0.200757 40.1418C0.205336 40.1496 0.206644 40.1588 0.211223 40.166C0.265523 40.255 0.331599 40.3368 0.410105 40.4094C0.423843 40.4218 0.440198 40.4329 0.453936 40.4454L0.457208 40.448C2.62265 42.4041 6.01409 43.5274 9.77712 43.5274C17.0022 43.5274 24.9751 39.534 32.2258 32.2827C49.0279 15.4826 41.3998 2.09804 40.4747 0.626719ZM37.5897 2.27991C37.2835 2.73001 36.8824 3.29264 36.361 3.98479C35.9188 3.56348 35.4373 3.1945 34.9218 2.8831C36.0274 2.52721 36.9152 2.3558 37.5897 2.27991ZM30.6236 3.91152C32.2859 3.91152 33.843 4.57489 34.9892 5.74789C33.2555 7.91268 30.7028 10.9005 26.9744 14.9213C25.4435 13.7751 24.51 11.957 24.51 10.0258C24.51 6.65398 27.2524 3.91152 30.6236 3.91152ZM22.4649 11.6476C22.0855 11.5135 21.6949 11.4075 21.2958 11.3296C21.638 11.0398 21.9775 10.7585 22.3158 10.4818C22.338 10.8763 22.3877 11.2649 22.4649 11.6476ZM19.7035 13.3937C22.0501 13.3937 24.1776 14.7492 25.1943 16.8231C23.842 18.2564 22.3635 19.7991 20.7299 21.4725C19.464 22.7692 18.2799 23.9592 17.1599 25.0668C15.001 24.0809 13.5892 21.9253 13.5892 19.5079C13.5899 16.1368 16.3323 13.3937 19.7035 13.3937ZM11.8726 22.3623C11.3917 22.2707 10.8991 22.2203 10.3993 22.2151C10.7525 21.7892 11.1163 21.362 11.4898 20.9328C11.5742 21.4241 11.7044 21.901 11.8726 22.3623ZM10.3129 24.4368C12.2795 24.4368 14.1047 25.3782 15.2476 26.9391C11.2949 30.7617 8.34308 33.3282 6.18157 35.0474C4.91959 33.8901 4.19865 32.2808 4.19865 30.5524C4.1993 27.1799 6.94176 24.4368 10.3129 24.4368ZM4.39099 36.4161C3.49406 37.0696 2.79863 37.5236 2.27854 37.8344C2.36162 37.0369 2.56312 35.9398 3.01191 34.5614C3.38154 35.2339 3.83949 35.8606 4.39099 36.4161ZM30.6543 30.712C21.4378 39.9285 13.6187 41.305 9.77843 41.305C7.29504 41.305 5.03146 40.762 3.31742 39.7839C5.92315 38.2479 11.4951 34.1185 22.3216 23.027C24.1397 21.1644 25.7752 19.4556 27.2524 17.8835C27.2694 17.8685 27.2825 17.8508 27.2982 17.8345C34.6313 10.0278 37.9704 5.68051 39.4483 3.50198C41.1414 7.53389 43.4501 17.9156 30.6543 30.712ZM19.8762 29.3669C19.922 29.4598 20.9857 31.6835 20.0829 35.0802C19.9776 35.4753 19.6204 35.7363 19.2298 35.7363C19.1546 35.7363 19.0787 35.7265 19.0022 35.7069C18.5305 35.5819 18.2505 35.0978 18.3754 34.6268C19.0977 31.9072 18.3211 30.2109 18.2871 30.1402C18.0804 29.7019 18.2642 29.1746 18.7012 28.9646C19.1382 28.7546 19.6623 28.9319 19.8762 29.3669ZM29.5226 19.1363C29.5742 19.2508 30.7695 21.9822 29.9452 25.0393C29.8385 25.4331 29.482 25.6929 29.0927 25.6929C29.0162 25.6929 28.939 25.6831 28.8618 25.6621C28.3908 25.5352 28.1121 25.0504 28.239 24.5794C28.8952 22.1444 27.9184 19.8769 27.9086 19.8547C27.7124 19.4092 27.9132 18.8877 28.3587 18.6902C28.8042 18.4939 29.3237 18.6921 29.5226 19.1363ZM6.50278 32.1388C6.124 32.1388 5.77334 31.8928 5.65754 31.5114C5.5339 31.1025 5.47109 30.678 5.47109 30.2488C5.47109 28.7009 6.30652 27.2577 7.65224 26.4845C8.07617 26.2411 8.61524 26.3876 8.85795 26.8103C9.10132 27.2329 8.95543 27.7733 8.53215 28.016C7.73336 28.4752 7.23747 29.3309 7.23747 30.2501C7.23747 30.5059 7.2741 30.7571 7.34737 30.9998C7.48868 31.4663 7.22504 31.9596 6.75858 32.1015C6.67419 32.1264 6.58783 32.1388 6.50278 32.1388ZM14.9173 19.2436C14.9173 17.6958 15.7527 16.2532 17.0978 15.4793C17.5223 15.2372 18.0608 15.3825 18.3041 15.8044C18.5475 16.2271 18.4016 16.7674 17.979 17.0108C17.1795 17.4701 16.6836 18.3264 16.6836 19.2449C16.6836 19.5001 16.7209 19.7513 16.7942 19.9947C16.9355 20.4611 16.6719 20.9544 16.2054 21.0964C16.1204 21.1225 16.034 21.135 15.949 21.135C15.5702 21.135 15.2195 20.889 15.1037 20.5076C14.9794 20.0967 14.9166 19.6721 14.9173 19.2436ZM26.7677 11.7555C26.3882 11.7555 26.0382 11.5095 25.9224 11.1281C25.7981 10.7179 25.7353 10.2934 25.736 9.86485C25.736 8.31502 26.5721 6.87248 27.9178 6.10051C28.3417 5.85715 28.8808 6.00435 29.1235 6.42697C29.3662 6.84959 29.2197 7.38997 28.797 7.63268C27.9982 8.09128 27.5023 8.94699 27.5023 9.86616C27.5023 10.1206 27.5396 10.3732 27.6129 10.6165C27.7542 11.0836 27.4899 11.5763 27.0235 11.7176C26.9384 11.7431 26.8527 11.7555 26.7677 11.7555Z" fill="#826489"/>
</svg>
