<svg width="44" height="45" viewBox="0 0 44 45" fill="none" xmlns="http://www.w3.org/2000/svg">
<path d="M11.6818 36.7913C9.50589 35.7709 7.93128 33.7498 7.24827 31.1C7.13663 30.6642 6.69255 30.4018 6.25679 30.5144C5.82103 30.6265 5.5586 31.0706 5.67121 31.5064C6.47712 34.635 8.36606 37.0356 10.9904 38.266C11.1025 38.3184 11.2196 38.3434 11.3361 38.3434C11.6421 38.3434 11.9354 38.1701 12.0739 37.8743C12.2649 37.467 12.0896 36.9822 11.6818 36.7913Z" fill="#826489"/>
<path d="M42.7906 29.8397C42.415 23.958 37.911 18.9134 30.4282 15.985C30.134 15.7402 29.7809 15.4146 29.378 15.044C27.7069 13.5046 25.4189 11.3968 23.3332 11.3968C22.8529 11.3968 22.4024 11.5065 21.996 11.7224L21.5353 11.9662C20.7558 10.3784 19.5685 8.68091 17.7138 8.68091L15.5042 8.68238V7.27032C16.5392 7.59494 17.5356 7.75994 18.4806 7.75994C21.6974 7.75994 24.3917 5.89009 26.4878 2.20278C26.6014 2.00253 26.6249 1.7636 26.5534 1.54474C26.4809 1.32588 26.3194 1.14815 26.1093 1.05512C24.5288 0.355948 23.0188 0.00146484 21.6215 0.00146484C19.2581 0.00146484 17.1723 1.01938 15.5899 2.94456C15.5605 2.97981 15.5326 3.01506 15.5042 3.05031V1.50753C15.5042 1.05757 15.1394 0.692805 14.6895 0.692805C14.24 0.692805 13.8747 1.05757 13.8747 1.50753V8.68287L12.8867 8.68336C9.56807 8.68581 8.74307 11.2108 7.94499 13.653C7.60716 14.6875 7.25855 15.7569 6.71654 16.7395C1.23283 23.4277 -0.402005 30.4194 2.23067 35.9306C4.43639 40.5481 9.40552 43.3997 15.2251 43.3997C15.2809 43.3997 15.3372 43.3997 15.3935 43.3987C17.5816 43.3791 19.7213 42.9066 21.6151 42.0292C23.5584 43.315 25.8645 44.0009 28.3562 44.0014C30.7665 44.0014 33.2621 43.3404 35.5712 42.09C40.341 39.5072 43.1078 34.8128 42.7906 29.8397ZM21.622 1.62993C22.5424 1.62993 23.5364 1.82039 24.5871 2.19789C22.8798 4.84133 20.8748 6.13 18.4811 6.13C17.6375 6.13 16.7307 5.96696 15.7759 5.64528C16.434 4.31989 18.1942 1.62993 21.622 1.62993ZM15.3789 41.7693C15.3279 41.7697 15.2775 41.7697 15.2256 41.7697C10.0401 41.7697 5.63302 39.2722 3.70099 35.228C1.34446 30.2965 2.91956 23.9139 8.02137 17.7173C8.05222 17.6801 8.07964 17.6404 8.10314 17.5983C8.74307 16.4595 9.14162 15.2369 9.49365 14.1592C10.3196 11.6323 10.845 10.3143 12.8877 10.3128L14.6689 10.3118C14.6763 10.3118 14.6826 10.3128 14.69 10.3128C14.6978 10.3128 14.7042 10.3118 14.712 10.3118L17.7148 10.3104C18.5075 10.3104 19.3061 11.1241 20.0939 12.7305L17.9254 13.8802C15.1032 15.3754 15.5385 17.8882 15.9586 20.3176C16.1343 21.337 16.317 22.3897 16.3003 23.4536C15.6011 26.9074 15.5037 30.0831 16.01 32.894C16.4873 35.5399 17.4832 37.8058 18.9702 39.6277C19.3374 40.0781 19.732 40.4958 20.1497 40.8806C18.6657 41.4495 17.0396 41.7551 15.3789 41.7693ZM34.7951 40.6573C32.7235 41.779 30.4977 42.372 28.3571 42.372C26.0559 42.372 23.9383 41.7002 22.1933 40.4463C22.1743 40.4316 22.1547 40.4174 22.1351 40.4047C21.4359 39.8945 20.7974 39.2908 20.2324 38.598C17.4651 35.2069 16.6411 29.9186 17.9121 23.7073C17.9219 23.6598 17.9273 23.6118 17.9283 23.5633C17.9582 22.3158 17.7491 21.1069 17.564 20.04C17.1346 17.5577 16.9892 16.22 18.6892 15.3196L22.7589 13.1619C22.9312 13.0703 23.1192 13.0263 23.3342 13.0263C24.7839 13.0263 26.8844 14.9617 28.2744 16.2421C28.743 16.6739 29.1479 17.047 29.5014 17.3315C29.567 17.3843 29.6404 17.4269 29.7193 17.4573C36.6581 20.1399 40.8297 24.6909 41.165 29.9435C41.4407 34.2752 39.0004 38.3806 34.7951 40.6573Z" fill="#826489"/>
<path d="M26.6165 28.9874C26.3164 28.653 25.8008 28.6256 25.4659 28.9267C25.1315 29.2273 25.1046 29.7429 25.4052 30.0773L26.4716 31.2617C26.6322 31.4404 26.854 31.5314 27.0768 31.5314C27.2711 31.5314 27.4665 31.4624 27.6217 31.3224C27.9561 31.0213 27.983 30.5062 27.6824 30.1718L26.6165 28.9874Z" fill="#826489"/>
<path d="M31.7041 26.7072C31.5519 26.2837 31.0862 26.0628 30.6627 26.2141C30.2387 26.3654 30.0184 26.8315 30.1692 27.2551L30.7039 28.7518C30.8228 29.0852 31.1367 29.2924 31.4711 29.2924C31.5622 29.2924 31.6542 29.2772 31.7453 29.2449C32.1688 29.0936 32.3896 28.6275 32.2383 28.2039L31.7041 26.7072Z" fill="#826489"/>
</svg>
