<svg width="44" height="45" viewBox="0 0 44 45" fill="none" xmlns="http://www.w3.org/2000/svg">
<path d="M1.72323 42.0988L3.7684 40.0536M1 39.9292L3.25707 39.5416M3.8927 42.8219L4.28032 40.5648M39.0239 13.3681L39.9511 16.1734C40.2693 17.1359 39.7189 18.1694 38.7426 18.442L31.8029 20.3823C28.8458 21.2096 26.1512 22.7847 23.9795 24.9565L16.4923 32.4436C14.2808 34.6544 12.1033 36.9296 10.3503 39.5193C10.2288 39.6994 10.0827 39.8758 9.90484 40.053C7.97682 41.9817 4.68415 41.7156 3.13219 39.2539C2.06332 37.5587 2.36995 35.2843 3.80331 33.8828C3.96241 33.7273 4.12079 33.5964 4.28134 33.4857C7.00196 31.6141 9.39788 29.3108 11.7331 26.9756L18.9664 19.7416C21.0737 17.6342 22.6206 15.0329 23.466 12.1749L25.59 4.99435C25.7904 4.31745 26.5012 3.93127 27.1781 4.13087L31.8268 5.50275M39.0239 13.3681C38.8121 12.7281 38.1395 12.3622 37.4865 12.5329M39.0239 13.3681L39.7533 15.5766L42.0581 14.5974C42.7379 14.3783 43.1067 13.6443 42.876 12.9681L41.6249 9.29791C41.3985 8.6333 40.6775 8.27532 40.0108 8.49734L34.7785 10.4398L33.7374 13.5598M37.4865 12.5329L30.3602 14.4847M37.4865 12.5329L33.7374 13.5598M30.3602 14.4847L32.6787 7.1292C32.9051 6.44362 32.5189 5.70669 31.8268 5.50275M30.3602 14.4847L33.7374 13.5598M30.3602 14.4847C26.2452 15.2441 22.5509 16.739 18.5987 20.1098M31.8268 5.50275L31.7357 5.47598L28.916 4.6436L29.4706 2.89421C29.6804 2.23105 30.3826 1.85716 31.0501 2.05387L35.7233 3.42864C36.4161 3.63186 36.803 4.36879 36.5767 5.05509L33.7374 13.5598M5.7626 36.0137C5.39377 36.3826 5.33881 36.8129 5.33881 37.0363C5.33881 37.2605 5.39377 37.6901 5.7626 38.0589M34.674 16.7533L36.9159 16.1104M23.8058 21.2259C25.6413 19.7911 27.745 18.7236 30.0021 18.093L32.2896 17.4371M18.087 26.7578L21.6668 23.178M14.5075 30.3373L16.0414 28.8034M27.8031 6.81413L25.9395 13.1319" stroke="#826489" stroke-width="1.44637" stroke-linecap="round" stroke-linejoin="round"/>
</svg>
