<svg width="44" height="45" viewBox="0 0 44 45" fill="none" xmlns="http://www.w3.org/2000/svg">
<path d="M29.746 7.82966C29.0113 7.74322 28.3198 7.74322 27.6716 7.74322C27.3259 7.57035 26.9801 7.4407 26.5912 7.31105C26.9801 6.83567 27.4123 6.40351 27.8445 6.101L28.4927 5.66883L28.147 4.97737C27.758 4.24269 26.2454 2.34117 25.5972 1.56327L25.1218 1.00146L24.5168 1.34719C21.6213 3.03263 20.4112 4.89093 19.763 6.66281C18.0775 6.79246 16.7378 7.1382 15.6142 7.70001C14.8795 7.70001 14.1448 7.7 13.2805 7.78644C4.72366 8.65077 3.47038 13.9232 4.16185 22.6961C5.24226 35.9203 9.3046 43.0943 16.0031 43.3968C16.8243 43.44 17.6022 43.44 18.2936 43.3536C19.0283 43.6993 19.8494 43.9586 20.7137 44.045C20.757 44.045 20.757 44.045 20.8002 44.045C21.0595 44.0882 21.362 44.0882 21.6213 44.0882C21.8806 44.0882 22.1831 44.0882 22.4424 44.045C22.4856 44.045 22.5288 44.045 22.5721 44.045C23.3932 43.9586 24.1711 43.7425 24.9057 43.3968C25.554 43.44 26.2454 43.44 26.9801 43.3968C33.6787 43.0943 37.741 35.9636 38.8214 22.6961C39.5561 13.9664 38.3028 8.69399 29.746 7.82966ZM24.7761 3.29193C25.2947 3.94018 25.8565 4.67485 26.2454 5.19345C24.8193 6.40351 23.6525 8.47791 23.8253 10.4659C23.8253 10.9412 23.9118 11.7623 24.1711 12.497C23.3932 12.4106 22.572 12.3674 21.6645 12.3674C21.1027 12.3674 20.5841 12.3674 20.0655 12.4106C20.4977 11.5031 20.6705 10.5523 20.8434 9.60153C21.2323 7.48393 21.6645 5.3231 24.7761 3.29193ZM37.136 22.6529C36.4445 31.0801 34.1973 41.1063 27.2826 41.7113C28.2334 40.7174 29.0113 39.4209 29.6595 37.7786C29.9188 37.0872 30.1781 36.3525 30.4374 35.5314C30.6535 34.8399 30.8264 34.1053 30.9993 33.3274C31.4314 31.2097 31.7771 28.7032 31.9068 25.8941L30.1781 25.8077C30.0053 28.4871 29.7028 30.9072 29.2706 32.9816C29.0977 33.7163 28.9249 34.4078 28.752 35.056C28.5359 35.7907 28.3198 36.4821 28.0605 37.1304C27.153 39.3344 25.9861 40.847 24.6032 41.6681L24.3871 41.7978C23.9982 42.0139 23.566 42.1867 23.1339 42.2732H23.0906C22.9178 42.3164 22.7017 42.3596 22.5288 42.3596C22.4856 42.3596 22.4424 42.3596 22.356 42.3596C22.1399 42.3596 21.9238 42.4028 21.7077 42.4028C21.4916 42.4028 21.2756 42.4028 21.0595 42.3596C21.0163 42.3596 20.9298 42.3596 20.8866 42.3596C20.6705 42.3164 20.4977 42.3164 20.3248 42.2732C20.2816 42.2732 20.2384 42.2299 20.1951 42.2299C20.0223 42.1867 19.8926 42.1435 19.7198 42.1003C19.6765 42.1003 19.6333 42.0571 19.5901 42.0571C19.4172 41.9706 19.2444 41.8842 19.0283 41.7978C15.7006 40.0691 13.7127 34.7103 13.1941 25.8509L11.4654 25.9373C11.9408 33.6299 13.4966 38.9023 16.1328 41.7113C9.00208 41.3656 6.6684 31.1233 5.97693 22.6097C5.24225 13.2749 6.97091 10.2066 13.5398 9.55831C14.3609 9.47188 15.1388 9.42866 15.8303 9.47188H16.0896L16.3057 9.34223C17.0836 8.91007 18.1208 8.60755 19.374 8.4779C19.3308 8.7372 19.2876 8.99651 19.2444 9.21259C18.9851 10.6387 18.769 11.7624 17.8182 12.6699C17.775 12.6699 17.7318 12.6699 17.6886 12.7131C16.8675 11.6759 15.2253 10.8116 13.8423 10.8116V12.5402C14.4906 12.5402 15.3117 12.886 15.8303 13.3181C14.577 13.88 13.6262 14.7443 12.9348 15.8679L14.4041 16.7755C15.182 15.4358 16.4785 14.6579 18.5097 14.2689L18.5529 14.3121L18.5961 14.2689C19.5037 14.096 20.4977 14.0528 21.7077 14.0528C25.6836 14.0528 27.8877 14.8739 29.0113 16.8619L30.5239 15.9976C29.8324 14.7875 28.7952 13.88 27.4123 13.2749C27.9741 12.886 28.7088 12.5835 29.3138 12.5835V10.8548C28.1902 10.8548 26.8505 11.4598 25.9429 12.2377C25.7701 11.892 25.554 11.1573 25.554 10.4226V10.3362C25.5108 9.86082 25.5972 9.34223 25.7701 8.86685C26.2454 8.9965 26.6776 9.16937 27.0666 9.38545L27.2826 9.51509H27.4987C28.147 9.51509 28.8384 9.5151 29.5731 9.60153C36.142 10.2066 37.8707 13.2749 37.136 22.6529Z" fill="#826489"/>
</svg>
