<svg width="44" height="45" viewBox="0 0 44 45" fill="none" xmlns="http://www.w3.org/2000/svg">
<path d="M25.4198 41.8509C24.1179 41.8509 22.9876 41.5712 22.0602 41.0193C22.0167 40.9968 21.9737 40.9723 21.9312 40.9464H21.917C21.874 40.9728 21.8309 40.9973 21.7874 41.0193C20.8605 41.5712 19.7302 41.8509 18.4283 41.8509C14.2586 41.8509 10.5685 39.12 7.46163 33.7349C6.4775 32.0341 5.67329 30.3567 5.07049 28.7497C4.05752 26.1322 3.54175 23.5871 3.54175 21.1955C3.54175 18.4103 4.48481 15.9825 6.34502 13.9791C8.38855 11.7918 11.0877 10.6845 14.3701 10.6845C15.5967 10.6845 17.4725 11.1861 20.1047 12.2186C20.4938 12.3789 20.8595 12.532 21.2017 12.6772C21.2213 12.1071 21.1954 11.539 21.1245 10.9783C20.884 8.87656 20.0059 6.84573 18.5119 4.9298C18.1799 4.50398 18.2562 3.88945 18.682 3.5575C19.1078 3.22457 19.7229 3.30181 20.0543 3.72763C21.7728 5.93152 22.7857 8.29186 23.0659 10.7446C23.1372 11.3049 23.1695 11.8744 23.1631 12.4474C23.3514 12.3721 23.5445 12.2953 23.7425 12.2181C26.3922 11.1856 28.2676 10.684 29.4766 10.684C32.7766 10.684 35.4772 11.7928 37.5026 13.9795C39.3623 15.982 40.3049 18.4103 40.3049 21.195C40.3049 25.0352 38.9859 29.2552 36.3836 33.7368C33.2801 39.12 29.59 41.8509 25.4198 41.8509ZM22.8747 39.2231C22.9202 39.2598 22.9519 39.2793 22.9715 39.2891C22.995 39.3008 23.0184 39.3136 23.0409 39.3272C23.6647 39.7042 24.465 39.8953 25.4198 39.8953C28.8401 39.8953 31.9601 37.4939 34.6925 32.7576C37.1203 28.5757 38.3503 24.6866 38.3503 21.1955C38.3503 18.8879 37.6048 16.9627 36.0697 15.3098C34.4055 13.5127 32.2496 12.64 29.4776 12.64C28.8254 12.64 27.4247 12.8825 24.4548 14.0397C23.7508 14.3154 23.1059 14.5789 22.5393 14.8229L22.465 14.8727C22.1864 15.0585 21.8314 15.0869 21.5254 14.9505C20.9187 14.6791 20.1956 14.3702 19.3762 14.0328C16.4429 12.8825 15.0335 12.64 14.371 12.64C11.6137 12.64 9.45677 13.5136 7.77696 15.3122C6.24382 16.9622 5.49778 18.8875 5.49778 21.1955C5.49778 23.3446 5.96906 25.6522 6.89843 28.0531C7.46652 29.5696 8.22478 31.1482 9.15464 32.7566C11.888 37.4934 15.0081 39.8953 18.4283 39.8953C19.3831 39.8953 20.1834 39.7037 20.8067 39.3272C20.8297 39.3136 20.8532 39.3004 20.8771 39.2886C20.8967 39.2788 20.9284 39.2598 20.9734 39.2231C20.994 39.2055 21.016 39.1889 21.0384 39.1723C21.1308 39.1058 21.2174 39.0398 21.2966 38.9738C21.6588 38.6707 22.1868 38.6702 22.5501 38.9733C22.6298 39.0398 22.7163 39.1058 22.8092 39.1723C22.8322 39.1884 22.8542 39.205 22.8747 39.2231ZM26.4631 10.0142C25.8046 10.0142 25.1734 9.91887 24.5975 9.77513C24.2309 9.68371 23.9498 9.39038 23.8745 9.0203C23.3924 6.63307 23.7405 3.36341 28.14 1.33796C29.2077 0.838807 30.4143 0.444766 31.7206 0.169524C31.7436 0.164635 31.7665 0.160235 31.79 0.157791L32.8655 0.0106366C33.1735 -0.0318963 33.4815 0.0751694 33.6976 0.297123C33.9142 0.519077 34.0125 0.830496 33.9626 1.13654L33.7915 2.18764C33.7866 2.21453 33.7812 2.24093 33.7749 2.26733C33.4493 3.57118 33.0117 4.767 32.4759 5.82201C30.7863 9.09607 28.4983 10.0142 26.4631 10.0142ZM25.6936 8.00244C27.8814 8.32999 29.4922 7.34049 30.7355 4.93126C31.153 4.10945 31.5055 3.17714 31.7832 2.1588C30.755 2.39639 29.8086 2.7171 28.9633 3.11212C26.513 4.23998 25.4624 5.80343 25.6936 8.00244Z" fill="#826489"/>
<path d="M16.7181 44.0014C16.7054 44.0014 16.6917 44.0009 16.6785 43.9999C12.8877 43.6954 9.44108 41.2372 6.43493 36.6936C6.28582 36.4687 6.34742 36.1651 6.5728 36.016C6.79768 35.8668 7.10079 35.9284 7.25039 36.1538C10.0825 40.434 13.2813 42.7455 16.7568 43.0256C17.0261 43.0471 17.2266 43.2827 17.2051 43.5516C17.1845 43.8078 16.9704 44.0014 16.7181 44.0014ZM17.8421 38.1597C17.8015 38.1597 17.7599 38.1543 17.7189 38.1441C15.2197 37.4934 12.9474 35.4347 10.9659 32.0252C9.82535 30.0403 8.99522 28.1273 8.49754 26.337C8.42567 26.0769 8.57771 25.8071 8.8378 25.7352C9.0974 25.6638 9.36726 25.8154 9.43913 26.0755C9.91481 27.787 10.7127 29.6243 11.8122 31.5358C13.6567 34.7092 15.7277 36.6153 17.9653 37.1976C18.2263 37.2655 18.3828 37.5325 18.3153 37.794C18.2581 38.014 18.0596 38.1597 17.8421 38.1597ZM4.61824 33.0015C4.4393 33.0015 4.26673 32.9032 4.18068 32.7321C2.07017 28.5272 1 24.5384 1 20.8772C1 18.1702 1.81644 15.7576 3.42634 13.7062C3.59304 13.494 3.90055 13.4569 4.11273 13.6236C4.32491 13.7903 4.36206 14.0978 4.19535 14.31C2.7243 16.1853 1.97777 18.3946 1.97777 20.8772C1.97777 24.3849 3.01274 28.2256 5.05432 32.2936C5.17556 32.5346 5.07828 32.8289 4.83726 32.9497C4.76637 32.9849 4.69157 33.0015 4.61824 33.0015ZM42.0424 23.8349C42.0135 23.8349 41.9852 23.8325 41.9558 23.8271C41.6904 23.7797 41.5129 23.5264 41.5603 23.2605C41.7666 22.1043 41.8708 20.9652 41.8708 19.8749C41.8708 17.2614 40.9854 14.989 39.2401 13.12C38.4515 12.2698 37.5529 11.5893 36.5678 11.097C36.3263 10.9763 36.2285 10.6824 36.3493 10.4409C36.4701 10.1999 36.7634 10.1012 37.0054 10.2224C38.0951 10.767 39.0885 11.5179 39.9563 12.4532C41.8752 14.5085 42.8485 17.0062 42.8485 19.8749C42.8485 21.0224 42.739 22.2191 42.5234 23.4316C42.4814 23.6687 42.2751 23.8349 42.0424 23.8349ZM30.9931 23.346C30.7232 23.346 30.5042 23.1275 30.5042 22.8571V22.2954C30.5042 22.0251 30.7232 21.8065 30.9931 21.8065C31.2634 21.8065 31.482 22.0251 31.482 22.2954V22.8571C31.482 23.1275 31.2634 23.346 30.9931 23.346ZM8.38167 23.2238C8.12843 23.2238 7.9143 23.0292 7.89474 22.7726C7.87763 22.5482 7.86883 22.3238 7.86883 22.0994C7.86883 21.6897 7.89474 21.2819 7.94607 20.8874C7.98127 20.6195 8.23109 20.4313 8.49411 20.466C8.76202 20.5012 8.95073 20.7466 8.91553 21.014C8.86958 21.367 8.84611 21.7322 8.84611 22.0999C8.84611 22.2993 8.85393 22.4988 8.86909 22.6982C8.88962 22.9676 8.6882 23.2023 8.41931 23.2228C8.40709 23.2233 8.39389 23.2238 8.38167 23.2238ZM33.1686 21.6843C32.8983 21.6843 32.6797 21.4653 32.6797 21.1954V20.7554C32.6797 20.4856 32.8983 20.2665 33.1686 20.2665C33.4385 20.2665 33.6575 20.4856 33.6575 20.7554V21.1954C33.6575 21.4648 33.4385 21.6843 33.1686 21.6843ZM31.2375 18.8238C30.9677 18.8238 30.7486 18.6053 30.7486 18.335V17.675C30.7486 17.4046 30.9677 17.1861 31.2375 17.1861C31.5079 17.1861 31.7264 17.4046 31.7264 17.675V18.335C31.7264 18.6053 31.5079 18.8238 31.2375 18.8238ZM9.60437 9.55996C9.33451 9.55996 9.11549 9.34094 9.11549 9.07107V7.16442C9.11549 6.89407 9.33451 6.67554 9.60437 6.67554C9.87472 6.67554 10.0933 6.89407 10.0933 7.16442V9.07107C10.0933 9.34094 9.87472 9.55996 9.60437 9.55996ZM13.4421 5.72172H11.511C11.2407 5.72172 11.0221 5.50319 11.0221 5.23284C11.0221 4.96297 11.2407 4.74395 11.511 4.74395H13.4421C13.712 4.74395 13.931 4.96297 13.931 5.23284C13.931 5.50319 13.712 5.72172 13.4421 5.72172ZM7.72217 5.72172H5.79107C5.52072 5.72172 5.30219 5.50319 5.30219 5.23284C5.30219 4.96297 5.52072 4.74395 5.79107 4.74395H7.72217C7.99203 4.74395 8.21105 4.96297 8.21105 5.23284C8.21105 5.50319 7.99203 5.72172 7.72217 5.72172ZM9.60437 3.84001C9.33451 3.84001 9.11549 3.62099 9.11549 3.35112V1.44447C9.11549 1.17461 9.33451 0.955587 9.60437 0.955587C9.87472 0.955587 10.0933 1.17461 10.0933 1.44447V3.35112C10.0933 3.6205 9.87472 3.84001 9.60437 3.84001Z" fill="#826489"/>
</svg>
