<svg width="44" height="45" viewBox="0 0 44 45" fill="none" xmlns="http://www.w3.org/2000/svg">
<path d="M35.8491 11.4066C34.1293 9.95835 32.0022 9.18896 29.7845 9.18896C29.5582 9.18896 29.3319 9.18896 29.1056 9.23422C27.7931 8.32905 26.3448 7.74069 24.806 7.5144V6.38293C24.806 6.11138 25.0323 5.97559 26.3901 5.7493C26.5711 5.70404 26.7069 5.70405 26.8879 5.65879L27.6121 5.52301V4.75362C27.6121 1.44974 24.8513 0.00146484 22.8599 0.00146484H22.7241L22.5884 0.0467262C20.4159 0.770864 19.2845 2.89802 19.2845 4.57259V7.5144C17.7004 7.74069 16.1616 8.28379 14.8491 9.23422C14.6228 9.23422 14.3966 9.18896 14.1703 9.18896C11.9526 9.18896 9.82543 9.95835 8.15086 11.4066C4.1681 12.4023 1 16.8377 1 21.3635V30.7773C1 35.3484 4.21336 39.7385 8.15086 40.7342C8.3319 40.87 8.51293 41.0058 8.69397 41.1415C8.73922 41.1868 8.78448 41.2321 8.82974 41.2321C9.01078 41.3678 9.14656 41.4584 9.32759 41.5489C9.41811 41.5941 9.46337 41.6394 9.55388 41.6847C9.73492 41.7752 9.87069 41.8657 10.0517 41.9562C10.1422 42.0015 10.2328 42.0467 10.3233 42.092C10.5043 42.1825 10.6401 42.2278 10.8211 42.3183C10.9116 42.3635 11.0474 42.4088 11.1379 42.454C11.319 42.4993 11.4547 42.5446 11.6358 42.5898C11.7716 42.6351 11.9073 42.6351 11.9978 42.6803C12.1336 42.7256 12.3147 42.7709 12.4504 42.7709C12.6315 42.8161 12.7672 42.8161 12.9483 42.8614C13.0841 42.8614 13.1746 42.9066 13.3103 42.9066C13.5819 42.9519 13.8987 42.9519 14.2155 42.9519C14.8491 42.9519 15.4828 42.9066 16.1164 42.7709C16.1164 42.7709 16.1616 42.7709 16.1616 42.8161C16.2974 42.9066 16.4332 42.9519 16.569 42.9972C16.6142 42.9972 16.6142 43.0424 16.6595 43.0424C16.7953 43.0877 16.9763 43.1782 17.1121 43.2234C17.1573 43.2234 17.1573 43.2234 17.2026 43.2687C17.3384 43.314 17.5194 43.3592 17.6552 43.4045C17.7004 43.4045 17.7004 43.4045 17.7457 43.4497C17.9267 43.495 18.0625 43.5402 18.2435 43.5855C18.2888 43.5855 18.2888 43.5855 18.3341 43.5855C18.5151 43.6308 18.6509 43.676 18.8319 43.676C18.8772 43.676 18.8772 43.676 18.9224 43.676C19.1035 43.7213 19.2392 43.7213 19.4203 43.7665C19.4655 43.7665 19.4655 43.7665 19.5108 43.7665C19.6918 43.7665 19.8276 43.8118 20.0086 43.8118C20.0539 43.8118 20.0991 43.8118 20.0991 43.8118C20.2802 43.8118 20.5065 43.8118 20.6875 43.8118H23.4935C23.6746 43.8118 23.8556 43.8118 24.0366 43.8118C24.0819 43.8118 24.1724 43.8118 24.2177 43.8118C24.3535 43.8118 24.444 43.8118 24.5797 43.7665C24.6703 43.7665 24.7155 43.7665 24.806 43.7213C24.8966 43.7213 25.0323 43.676 25.1228 43.676C25.2134 43.676 25.3039 43.6308 25.3944 43.6308C25.4849 43.6308 25.5754 43.5855 25.6659 43.5855C25.7565 43.5855 25.847 43.5403 25.9375 43.495C26.028 43.495 26.0733 43.4497 26.1638 43.4497C26.2543 43.4045 26.3901 43.4045 26.4806 43.3592C26.5259 43.3592 26.6164 43.314 26.6616 43.314C26.7974 43.2687 26.8879 43.2234 27.0237 43.1782C27.069 43.1782 27.069 43.1329 27.1142 43.1329C27.431 42.9971 27.7026 42.9066 28.0194 42.7256C28.653 42.8614 29.2866 42.9066 29.9203 42.9066C30.1918 42.9066 30.5086 42.9066 30.7802 42.8614C30.9612 42.8614 31.1422 42.8161 31.278 42.7709C31.3685 42.7709 31.5043 42.7256 31.5948 42.7256C31.7759 42.6803 31.9569 42.6351 32.1832 42.5898C32.2737 42.5898 32.3642 42.5446 32.4547 42.5446C32.6358 42.4993 32.7716 42.454 32.9073 42.4088C33.0431 42.3635 33.2241 42.3183 33.3599 42.2277C33.4052 42.1825 33.4957 42.1825 33.541 42.1372C34.4009 41.7752 35.2155 41.2773 35.9397 40.6437C39.8772 39.6028 43 35.2127 43 30.6868V21.273C42.9095 16.8377 39.7866 12.4476 35.8491 11.4066ZM21.0496 4.57259C21.0496 3.5769 21.7284 2.30965 22.9504 1.81181C23.4483 1.85707 25.2586 2.17387 25.6659 3.98422C24.4892 4.21051 22.9504 4.61784 22.9504 6.33767V7.28811H21.0496V4.57259ZM29.4677 39.3312C28.6983 40.1911 27.7478 40.87 26.7069 41.3226C26.7069 41.3226 26.6616 41.3226 26.6616 41.3678C26.1638 41.5941 25.666 41.7299 25.1228 41.8657C25.0776 41.8657 25.0323 41.8657 25.0323 41.9109C24.806 41.9562 24.5345 42.0015 24.2629 42.0467C24.2177 42.0467 24.1724 42.0467 24.1272 42.0467C23.8556 42.092 23.6293 42.092 23.3578 42.092H20.5517C20.2802 42.092 20.0086 42.092 19.7371 42.0467C19.6918 42.0467 19.6466 42.0467 19.6013 42.0467C19.3297 42.0015 19.1034 41.9562 18.8772 41.9109C18.8319 41.9109 18.7414 41.8657 18.6961 41.8657C18.4698 41.8204 18.1983 41.7299 17.972 41.6847C17.9267 41.6847 17.8362 41.6394 17.791 41.6394C17.5647 41.5489 17.3384 41.4584 17.1573 41.3678C17.1121 41.3678 17.0668 41.3226 17.0668 41.3226C15.9806 40.8247 15.0302 40.0553 14.2608 39.1502C13.0388 37.6566 12.8125 35.801 12.8125 33.9002H11.0022C11.0022 36.2536 11.3642 38.5166 12.8578 40.3269C13.1293 40.6437 13.4009 40.9605 13.7177 41.2321C13.6272 41.2321 13.5366 41.2321 13.4461 41.2321C13.3556 41.2321 13.2198 41.1868 13.1293 41.1868C12.9935 41.1868 12.8578 41.1415 12.7672 41.1415C12.6315 41.0963 12.4957 41.0963 12.3599 41.051C12.2694 41.051 12.1789 41.0058 12.0884 40.9605C11.9526 40.9153 11.7716 40.87 11.6358 40.8247C11.5453 40.7795 11.5 40.7795 11.4095 40.7342C11.2737 40.689 11.0927 40.5984 10.9569 40.5532C10.9116 40.5079 10.8211 40.5079 10.7759 40.4627C10.6401 40.3721 10.4591 40.2816 10.3233 40.2364C10.278 40.1911 10.2328 40.1911 10.1875 40.1459C10.0517 40.0553 9.87069 39.9648 9.73491 39.829C9.68966 39.7838 9.6444 39.7838 9.6444 39.7385C9.50862 39.6027 9.32759 39.5122 9.19181 39.3765C7.60776 37.9734 6.56681 35.9368 6.56681 33.6739V33.5381C6.20474 31.0036 6.52156 28.5596 6.83837 25.9346C6.92888 25.1653 7.10991 23.5812 7.10991 23.5812L5.61638 23.3097C5.61638 23.3097 5.11853 25.0747 5.07328 25.7084C4.75647 28.4239 4.43966 31.0036 4.80173 33.7191C4.80173 34.9864 5.07328 36.1631 5.52586 37.2493C3.89655 35.62 2.81034 33.2665 2.81034 30.8678V21.454C2.81034 17.6976 5.52586 13.8959 8.78448 13.1717L9.01077 13.1265L9.19181 12.9907C10.5948 11.7687 12.3599 11.0898 14.2155 11.0898C14.4871 11.0898 14.7586 11.0898 15.0754 11.1351L15.4375 11.1803L15.7091 10.954C17.1573 9.86784 18.8772 9.27948 20.6422 9.27948H23.4483C25.2586 9.27948 26.9784 9.86784 28.3815 10.954L28.653 11.1803C29.9655 12.2213 31.6401 14.2579 31.6401 16.4303C31.8211 20.6394 31.9116 29.6006 31.6401 33.8096V33.8549C31.5948 35.8463 30.8254 37.7924 29.4677 39.3312ZM41.0991 30.7773C41.0991 33.5381 39.6961 36.2536 37.6595 37.7924C38.2026 36.4799 38.3836 34.9864 38.2026 33.4476C37.75 33.3118 36.8901 33.4476 36.3922 33.6739C36.6185 35.6653 36.0754 37.5661 34.8082 38.9239C34.1746 39.6028 33.4504 40.1459 32.5905 40.5079C32.5905 40.5079 32.5905 40.5079 32.5453 40.5079C32.4095 40.5532 32.2737 40.5984 32.1379 40.6437C32.0022 40.689 31.9116 40.7342 31.7759 40.7795C31.7306 40.7795 31.6853 40.8247 31.6401 40.8247C31.4591 40.87 31.278 40.9153 31.097 40.9605C31.0517 40.9605 31.0065 40.9605 31.0065 40.9605C30.8254 41.0058 30.6444 41.0058 30.4181 41.051C30.3276 41.051 30.2371 41.051 30.1466 41.051C30.3276 40.87 30.5539 40.689 30.7349 40.4627C32.4095 38.6071 33.3599 36.2084 33.3599 33.7191C33.6315 29.4196 33.5409 20.4584 33.3599 16.1588C33.3147 14.2127 32.3642 12.4023 31.1875 10.9993C32.5 11.2709 33.7672 11.8592 34.8082 12.7644L34.9892 12.9002L35.2155 12.9454C38.4741 13.7148 41.0991 17.3808 41.0991 21.1825V30.7773Z" fill="#826489"/>
<path d="M11.4094 19.01C11.3642 19.7794 11.3189 20.5941 11.2737 21.3635L13.084 21.454C13.1293 20.6846 13.1745 19.9152 13.2198 19.1006V19.0553C13.2198 18.0596 13.4913 17.0639 13.9439 16.204L12.3599 15.2988C11.7715 16.385 11.4547 17.6975 11.4094 19.01Z" fill="#826489"/>
<path d="M15.2112 14.62C16.2975 13.6695 17.6552 13.1717 19.0582 13.1717V11.3613C17.2026 11.3613 15.3923 12.0402 13.9893 13.2622L15.2112 14.62Z" fill="#826489"/>
</svg>
