<svg width="44" height="45" viewBox="0 0 44 45" fill="none" xmlns="http://www.w3.org/2000/svg">
<path d="M43.2617 20.0387C43.2617 15.1322 40.9837 10.4886 37.1287 7.68492C33.9745 5.36311 30.3385 4.61839 27.1405 5.62596C24.9502 6.32689 24.7311 6.23926 22.4093 5.49453L22.3217 5.45072C16.6267 3.6108 9.92412 7.5973 7.5147 14.2123C4.88624 15.6579 2.65204 18.2426 1.55685 21.3091C-0.4583 26.8727 -0.502108 31.9106 1.33781 35.8094C2.73966 38.7884 5.32431 40.9787 8.6975 42.2054C8.87273 42.2492 9.04796 42.3368 9.22319 42.3806C12.0269 43.4758 14.6553 44.0015 17.1086 44.0015C19.2551 44.0015 21.2265 43.5634 23.0226 42.731C24.3368 42.1177 25.5635 41.2854 26.6586 40.234C31.4337 40.234 35.2449 38.8322 38.0048 36.1161C41.5094 32.6991 43.2617 27.3108 43.2617 20.0387ZM2.9587 35.0209C1.33781 31.6039 1.42543 26.9165 3.22155 21.8786C4.31674 18.7683 6.76997 16.1836 9.61747 15.176C10.4498 14.8694 11.2822 14.738 12.1145 14.738C13.1659 14.738 14.1735 15.0008 15.0496 15.5265C16.4953 16.3588 18.1162 17.3226 19.9999 17.4978C20.0437 17.4978 20.0437 17.4978 20.0875 17.4978C20.3065 17.4978 20.5256 17.5416 20.7446 17.5416C22.5407 17.5416 24.1178 18.3302 25.213 19.8196C26.9215 22.2291 27.1405 25.9527 25.7825 29.8516C24.2054 34.2762 21.8836 37.6494 19.0361 39.5331C16.1886 41.4606 12.8154 41.8111 9.35462 40.5845C6.33189 39.4455 4.18531 37.6055 2.9587 35.0209ZM22.3217 41.1102C20.8322 41.8111 19.2552 42.1616 17.5028 42.2054C18.3352 41.8987 19.1675 41.4606 19.9999 40.9349C23.154 38.8322 25.7387 35.1961 27.4034 30.3773C28.8928 26.1279 28.7176 22.0976 26.9215 19.2063C27.6662 19.732 28.3233 20.3891 28.8928 21.1339C30.908 23.8938 31.3023 27.8364 29.9442 31.7353C28.2795 36.3789 25.7387 39.5769 22.3217 41.1102ZM28.3233 38.3941C29.6376 36.6856 30.7328 34.6704 31.5651 32.261C33.1422 27.8364 32.6603 23.2804 30.2509 20.0387C28.0605 17.1036 24.4683 15.5265 20.1313 15.6579C18.598 15.5265 17.24 14.6941 15.882 13.9494C14.0858 12.898 11.9831 12.679 9.7927 13.2485C12.2459 8.42965 17.3714 5.66977 21.7522 7.11542L21.8398 7.15923C24.3806 7.99158 24.994 8.123 27.6224 7.33446C30.2509 6.50211 33.405 7.20304 36.0773 9.13058C39.4505 11.6276 41.5094 15.7017 41.5094 20.0825C41.5094 26.8289 39.9324 31.8229 36.822 34.8895C34.7193 36.9484 31.8718 38.1312 28.3233 38.3941Z" fill="#826489"/>
<path d="M34.325 10.4887C32.2661 8.86777 29.9005 8.38588 27.8853 9.17442C26.0016 9.91915 24.1178 9.6125 22.716 8.34208L21.5332 9.65631C23.4169 11.3648 26.0454 11.8029 28.5424 10.8391C29.9881 10.2696 31.6966 10.6639 33.2736 11.8905C35.9021 13.9495 38.6182 18.9435 37.6106 26.2594L39.3629 26.4784C40.4143 18.4178 37.4792 12.9419 34.325 10.4887Z" fill="#826489"/>
<path d="M11.326 34.7582C11.8955 34.9772 12.5088 35.0648 13.0783 35.0648C14.1735 35.0648 15.2687 34.7143 16.2763 34.0134C17.6343 33.0497 18.7733 31.4288 19.4304 29.5012C20.3066 26.9604 20.2628 24.3757 19.299 22.6234C18.6419 21.4406 17.6343 20.6083 16.3201 20.3016C13.0345 19.5131 9.4861 21.8349 8.30329 25.6023C6.90144 29.9393 8.12806 33.6192 11.326 34.7582ZM9.96798 26.128C10.8003 23.5872 12.9031 21.8787 15.0059 21.8787C15.3125 21.8787 15.6192 21.9225 15.9258 21.9663C16.1011 22.0101 16.2325 22.0539 16.4077 22.1415C16.7144 23.4558 16.4515 25.2081 15.5316 27.4423C14.743 29.3698 13.7792 30.7279 12.7717 31.4288L13.7792 32.8744C15.0935 31.9983 16.2325 30.3774 17.1524 28.1432C17.7219 26.829 18.0286 25.6023 18.2038 24.5072C18.5105 25.7776 18.3791 27.3547 17.8096 28.9317C17.2401 30.5526 16.3639 31.823 15.2687 32.6116C14.524 33.1373 13.385 33.663 11.9393 33.1373C9.13563 32.1297 9.13563 28.7127 9.96798 26.128Z" fill="#826489"/>
<path d="M9.96796 21.4843L10.8441 19.9511C9.74892 19.294 8.74135 18.155 8.39089 17.3664L6.81381 18.0673C7.3395 19.294 8.65373 20.7396 9.96796 21.4843Z" fill="#826489"/>
<path d="M8.78518 22.2729C7.51476 22.0977 6.11292 21.3967 5.54342 20.8272L4.3168 22.0977C5.28057 23.0176 7.03288 23.8062 8.52234 24.0252L8.78518 22.2729Z" fill="#826489"/>
<path d="M16.8456 34.8895L15.1809 35.5028C15.619 36.7294 16.8456 38.2627 18.116 39.0951L19.1236 37.6494C18.0722 36.9047 17.1523 35.6781 16.8456 34.8895Z" fill="#826489"/>
<path d="M25.4321 23.4995L24.5997 21.9663C23.4607 22.5796 21.9713 22.8424 21.1389 22.7548L20.9199 24.5071C21.0951 24.5071 21.3142 24.5509 21.4894 24.5509C22.7598 24.5509 24.2931 24.1566 25.4321 23.4995Z" fill="#826489"/>
</svg>
