<svg width="44" height="45" viewBox="0 0 44 45" fill="none" xmlns="http://www.w3.org/2000/svg">
<path d="M18.7143 30.573H17.1429C16.7857 30.573 16.4286 30.8587 16.4286 31.2873C16.4286 31.6444 16.7143 32.0016 17.1429 32.0016H18.7143C19.0714 32.0016 19.4286 31.7159 19.4286 31.2873C19.4286 30.8587 19.0714 30.573 18.7143 30.573Z" fill="#826489"/>
<path d="M21.2857 28.6443H18.8571C18.5 28.6443 18.1428 28.93 18.1428 29.3586C18.1428 29.7157 18.4285 30.0729 18.8571 30.0729H21.2857C21.6428 30.0729 22 29.7871 22 29.3586C21.9285 28.93 21.6428 28.6443 21.2857 28.6443Z" fill="#826489"/>
<path d="M31 33.1443C31 32.1443 30.7857 31.1443 30.4286 30.2157C29.1429 27.1443 25.9286 25.0015 22.2143 24.7872V23.1443C26.2857 21.5729 26.9286 16.2157 27.0714 14.3586C29.1429 14.0015 30.7143 12.2872 30.7143 10.0729C30.7143 7.93004 29.1429 6.14432 27.0714 5.85861C27.0714 2.50146 24.6429 0.00146484 21.5 0.00146484C18.2857 0.00146484 15.9286 2.50146 15.9286 5.85861C15.9286 5.85861 15.9286 5.85861 15.9286 5.93004C13.9286 6.28718 12.3571 8.07289 12.3571 10.1443C12.3571 12.2872 13.9286 14.0729 16 14.43C16.1429 16.2872 16.7857 21.6443 20.8571 23.2157V24.8586C17.5714 25.0729 14.7143 26.7157 13.1429 29.2157C13.0714 29.2872 13.0714 29.2872 13.0714 29.3586C12.3571 30.5729 12 31.93 12 33.2872C12 37.0015 14.7857 40.2872 18.7857 41.3586C20 41.7157 20.8571 42.5015 20.8571 43.43C20.8571 43.7872 21.1429 44.1443 21.5714 44.1443C21.9286 44.1443 22.2857 43.8586 22.2857 43.43C22.2857 42.5015 23.0714 41.6443 24.3571 41.3586C28.1429 40.1443 31 36.8586 31 33.1443ZM17.2143 13.7158V13.6443V13.5729V13.5015C17.2143 13.5015 17.2143 13.5015 17.2143 13.43C17.2143 13.43 17.2143 13.3586 17.1429 13.3586L17.0714 13.2872L17 13.2157L16.9286 13.1443C16.8571 13.1443 16.8571 13.1443 16.7857 13.0729C16.7143 13.0729 16.7143 13.0729 16.6429 13.0729C15 13.0729 13.7143 11.7872 13.7143 10.1443C13.7143 8.50146 15 7.21575 16.6429 7.21575H16.7143H16.7857H16.8571H16.9286H17C17 7.21575 17 7.21575 17.0714 7.21575C17.0714 7.21575 17.1429 7.21575 17.1429 7.14432C17.1429 7.14432 17.1429 7.14432 17.2143 7.07289C17.2143 7.07289 17.2143 7.00146 17.2857 7.00146C17.2857 7.00146 17.2857 7.00146 17.2857 6.93004C17.2857 6.93004 17.2857 6.85861 17.3571 6.85861C17.3571 6.85861 17.3571 6.85861 17.3571 6.78718V6.71575C17.3571 6.71575 17.3571 6.71575 17.3571 6.64432V6.57289C17.3571 6.57289 17.3571 6.57289 17.3571 6.50146C17.3571 6.28718 17.3571 6.14432 17.3571 5.93004C17.3571 3.35861 19.1429 1.50147 21.5714 1.50147C24 1.50147 25.7857 3.35861 25.7857 5.93004C25.7857 6.07289 25.7857 6.14432 25.7857 6.28718C25.7857 6.35861 25.7857 6.43004 25.7857 6.57289C25.7143 6.93004 26 7.28718 26.4286 7.35861H26.5C28.1429 7.35861 29.4286 8.64432 29.4286 10.2872C29.4286 11.93 28.1429 13.2157 26.5 13.2157H26.4286H26.3571H26.2857H26.2143H26.1429H26.0714C26.0714 13.2157 26.0714 13.2157 26 13.2872C26 13.2872 25.9286 13.2872 25.9286 13.3586C25.9286 13.3586 25.9286 13.3586 25.8571 13.43C25.8571 13.43 25.8571 13.43 25.7857 13.5015V13.5729V13.6443V13.7158V13.7872V13.8586V13.93C25.7857 14.0015 25.7857 20.0015 22.2857 21.8586V13.2872L25.5 10.5015C25.7857 10.2872 25.7857 9.78718 25.5714 9.50146C25.3571 9.21575 24.8571 9.21575 24.5714 9.43004L22.1429 11.2157V7.50147C22.1429 7.14432 21.8571 6.78718 21.4286 6.78718C21.0714 6.78718 20.7143 7.07289 20.7143 7.50147V11.2157L18.3571 9.14432C18.0714 8.93004 17.6429 8.93004 17.3571 9.21575C17.1429 9.50146 17.1429 9.93004 17.4286 10.2158L20.7143 13.0015V21.5729C17.2857 19.7872 17.2143 13.7872 17.2143 13.7158ZM23.7857 39.8586C22.7857 40.1443 21.9286 40.6443 21.4286 41.3586C20.8571 40.6443 20.0714 40.1443 19.0714 39.8586C17.6429 39.5015 16.3571 38.7157 15.3571 37.7872H16.5714C16.9286 37.7872 17.2857 37.5015 17.2857 37.0729C17.2857 36.7157 17 36.3586 16.5714 36.3586H14.2857C13.6429 35.3586 13.2857 34.2157 13.2857 33.0729C13.2857 32.3586 13.4286 31.6443 13.6429 31.0015C13.6429 31.0015 13.6429 30.93 13.7143 30.93L14.1429 30.0015C15.5 27.6443 18.3571 26.0729 21.5 26.0729C24.5714 26.0729 27.3571 27.5729 28.7143 29.8586L29.2143 30.93C29.5 31.6443 29.6429 32.3586 29.6429 33.0729H27.3571C27 33.0729 26.6429 33.3586 26.6429 33.7872C26.6429 34.2157 26.9286 34.5015 27.3571 34.5015H29.5C29.4286 34.6443 29.4286 34.7872 29.3571 35.0015H27.7857C27.4286 35.0015 27.0714 35.2872 27.0714 35.7157C27.0714 36.0729 27.3571 36.43 27.7857 36.43H28.7143C27.7143 38.0015 26 39.2872 23.7857 39.8586Z" fill="#826489"/>
</svg>
