<svg width="44" height="45" viewBox="0 0 44 45" fill="none" xmlns="http://www.w3.org/2000/svg">
<path d="M7.21829 43.918C6.34623 43.918 5.46626 43.7297 4.58876 43.3525C2.94994 42.6109 1.804 41.4057 1.16577 39.7614C0.544356 38.1107 0.59132 36.4398 1.30271 34.7866C1.86678 33.569 2.67903 32.6233 3.73005 31.9514C3.57135 31.6677 3.43194 31.3676 3.3133 31.0532C2.69534 29.4119 2.7339 27.7508 3.42651 26.1154C4.19129 24.4672 5.40397 23.3242 7.04427 22.6875C7.16243 22.6465 7.27811 22.6084 7.39181 22.5733C7.0947 21.2272 7.23312 19.884 7.80559 18.5675C8.54467 16.9143 9.75389 15.7659 11.4041 15.145C11.8411 14.9833 12.2826 14.8662 12.7265 14.794C12.4922 13.5116 12.6484 12.2327 13.1942 10.9795C13.9337 9.34458 15.1395 8.19865 16.7833 7.56042C18.4518 6.92071 20.1286 6.96866 21.7714 7.70329C22.6375 8.09681 23.3702 8.62083 23.96 9.26647C24.9927 9.18144 26.021 9.30503 27.0413 9.63675C28.0993 7.22623 27.7503 4.76429 25.9854 2.13723C25.6809 1.6839 25.8015 1.0694 26.2548 0.765368C26.7081 0.460344 27.3226 0.581958 27.6267 1.0348C29.7762 4.23433 30.1885 7.38591 28.8586 10.4183C29.5987 10.8499 30.2468 11.3735 30.798 11.984C31.3043 11.5811 31.8708 11.2523 32.4917 11.0012C34.1933 10.3753 35.8608 10.4149 37.4784 11.108C39.139 11.85 40.2884 13.0785 40.9088 14.7653C41.5411 16.3745 41.5035 18.041 40.7901 19.6996C40.0956 21.2356 38.9857 22.3385 37.4819 22.996C37.4912 23.0177 37.5001 23.04 37.5095 23.0617C38.1369 24.7278 38.0988 26.3883 37.4062 28.0242C37.3988 28.041 37.3914 28.0578 37.383 28.0746C36.8327 29.1938 36.068 30.1015 35.1099 30.7719C35.0946 30.7822 35.0792 30.7926 35.0634 30.8025C34.6709 31.0457 34.2363 31.2633 33.7731 31.4487C33.1304 31.7018 32.4888 31.8491 31.8609 31.8881C31.1579 31.9267 30.4777 31.8575 29.8335 31.682C29.4712 31.5866 29.1147 31.4575 28.783 31.3013C28.5966 31.2207 28.4147 31.1318 28.2377 31.0344C28.1349 31.3374 28.0138 31.6385 27.8758 31.9361C26.9731 34.0367 25.4203 35.5222 23.2718 36.3256C22.0018 36.8367 20.6947 37.0137 19.3851 36.8521C19.2942 37.1719 19.1755 37.4928 19.0297 37.8126C18.298 39.4495 17.0888 40.5979 15.4386 41.2193C14.3722 41.6326 13.2901 41.7685 12.2193 41.6247C11.5188 42.4503 10.6146 43.0702 9.52351 43.4711C8.76516 43.7692 7.99444 43.918 7.21829 43.918ZM5.46477 33.262C4.38854 33.7316 3.61684 34.4954 3.10764 35.5934C2.60981 36.7522 2.57471 37.8932 3.01223 39.0559C3.45913 40.2068 4.23726 41.0235 5.38666 41.5436C6.54892 42.0439 7.67755 42.0721 8.81954 41.6232C9.76328 41.2756 10.4613 40.7477 10.9725 40.0017C11.102 39.7916 11.2217 39.5503 11.3284 39.2838C11.846 38.1077 11.8727 36.9885 11.4234 35.8317C11.2286 35.3166 10.9745 34.8603 10.664 34.4667C10.2517 33.9783 9.72769 33.6021 9.06326 33.3173C8.80421 33.2022 8.54714 33.1117 8.28711 33.0435C7.42098 32.82 6.56325 32.8655 5.6729 33.1834C5.60715 33.2165 5.53745 33.2432 5.46477 33.262ZM12.8615 34.2255C13.0157 34.5112 13.1522 34.8113 13.2703 35.1238C13.8611 36.6449 13.87 38.1829 13.2965 39.6961C13.7696 39.6685 14.2452 39.5607 14.7321 39.3718C15.8954 38.9338 16.7086 38.1582 17.2272 36.9979C17.3256 36.7824 17.4062 36.5693 17.4685 36.3597C17.2846 36.2895 17.0992 36.2128 16.9128 36.1298C15.576 35.545 14.4914 34.7055 13.6762 33.6263C13.4216 33.8468 13.1502 34.0465 12.8615 34.2255ZM18.8576 34.7416C20.1054 35.0654 21.3156 34.9814 22.556 34.4821C24.2254 33.8577 25.3674 32.7632 26.0704 31.1283C26.2958 30.6438 26.458 30.1668 26.5608 29.6932C26.0625 29.1286 25.667 28.4637 25.3857 27.7132C25.1474 27.1239 25.0026 26.5223 24.9531 25.9192C23.6886 25.9567 22.4383 25.7036 21.2108 25.1539C20.1094 24.6768 19.1478 23.9971 18.3638 23.1384C18.3479 23.1211 18.3326 23.1028 18.3178 23.0845C18.2021 22.9382 18.0879 22.7859 17.9752 22.6287C16.4634 23.2363 15.3516 24.2522 14.6076 25.7204L14.525 25.9276C14.392 26.282 14.266 26.6533 14.1567 27.0112C13.9214 27.8146 13.8808 28.6189 14.0351 29.4618C14.0984 29.9275 14.2131 30.3704 14.3836 30.8258C14.4726 31.0769 14.5779 31.3152 14.703 31.551C14.7055 31.5559 14.7079 31.5604 14.7104 31.5653C15.3506 32.8161 16.3324 33.7178 17.7107 34.3209C18.1111 34.4989 18.4958 34.6398 18.8576 34.7416ZM7.21483 30.9291C7.74034 30.9291 8.26486 30.9963 8.78543 31.1303C9.15274 31.2267 9.51066 31.3522 9.85474 31.5055C10.5345 31.7967 11.1371 32.1798 11.6493 32.6465C12.0314 32.4324 12.3686 32.1729 12.6642 31.8639C12.6138 31.7433 12.5673 31.6232 12.5248 31.503C12.3083 30.9261 12.157 30.3373 12.0819 29.7718C11.8806 28.6822 11.9385 27.5471 12.2613 26.4462C12.3552 26.1377 12.4581 25.8277 12.5698 25.5163C12.2045 25.1529 11.7669 24.8657 11.2434 24.6442C10.4109 24.2838 9.60805 24.1607 8.78296 24.2665C8.44876 24.3234 8.09282 24.4168 7.72501 24.5443C6.59539 24.9838 5.76881 25.7644 5.23292 26.9183C4.7514 28.0563 4.72422 29.1909 5.16222 30.3556C5.26999 30.6404 5.40051 30.9068 5.55178 31.152C6.10646 31.0032 6.66163 30.9291 7.21483 30.9291ZM28.3148 28.6639C28.6762 29.0085 29.1048 29.2868 29.5962 29.4994C29.8484 29.6175 30.0911 29.705 30.3457 29.7718C30.7921 29.8934 31.2598 29.9398 31.7447 29.9136C32.159 29.8879 32.5985 29.7856 33.0439 29.6101C33.3865 29.4732 33.7094 29.3125 33.9991 29.1355C34.6724 28.6585 35.1949 28.0336 35.5963 27.2268C36.0808 26.067 36.105 24.9408 35.6695 23.7845C35.6364 23.7034 35.6003 23.6228 35.5622 23.5428C34.441 23.6748 33.3129 23.4953 32.1946 23.0074C31.4911 22.6667 30.8984 22.2579 30.3971 21.7754C30.1929 21.591 30.0001 21.3888 29.8226 21.1728C28.6421 21.6177 27.8284 22.3904 27.3128 23.5428C27.2292 23.7608 27.1397 24.0287 27.0661 24.2942C27.0166 24.4934 26.9741 24.7198 26.9464 24.9423C26.9459 24.9473 26.9449 24.9527 26.9445 24.9576C26.8525 25.6295 26.9454 26.2964 27.2282 26.9964C27.4808 27.6692 27.8259 28.2002 28.2916 28.6416C28.2995 28.6486 28.3074 28.656 28.3148 28.6639ZM19.8473 21.8313C20.4371 22.47 21.1643 22.9792 22.0077 23.345C23.0553 23.8142 24.0766 24.0075 25.1198 23.9323C25.1306 23.8849 25.142 23.8374 25.1539 23.7899C25.2522 23.4365 25.3625 23.1057 25.4885 22.7814C26.192 21.2049 27.3004 20.099 28.8003 19.4534C28.7963 19.4445 28.7924 19.4356 28.7889 19.4267C28.1537 17.7226 28.2021 16.0516 28.9145 14.4153C29.0707 14.0692 29.2497 13.7454 29.4499 13.4449C28.8932 12.7844 28.1987 12.2599 27.3449 11.853C27.2658 11.8387 27.1877 11.8144 27.1115 11.7798C25.9557 11.2677 24.8449 11.105 23.7202 11.2845C23.7118 11.286 23.7039 11.2874 23.696 11.2889C23.2634 11.3735 22.7859 11.5025 22.3068 11.6671C20.713 12.2885 19.5547 13.3776 18.8023 14.9828C18.5185 15.6601 18.345 16.3552 18.3015 17.0127C18.3 17.0438 18.2965 17.0755 18.2921 17.1066C18.2268 17.6148 18.2486 18.1393 18.3568 18.6658C18.3603 18.6836 18.3638 18.7014 18.3662 18.7197C18.4206 19.0885 18.5259 19.4726 18.6792 19.8627C18.822 20.2473 18.9931 20.5914 19.1938 20.9024C19.2042 20.9172 19.2141 20.933 19.2235 20.9488C19.4276 21.2667 19.6358 21.5608 19.8473 21.8313ZM9.34702 22.2525C10.2473 22.253 11.1435 22.4448 12.022 22.8254C12.5723 23.0583 13.0716 23.3544 13.514 23.7108C14.3851 22.4784 15.5424 21.5396 16.9687 20.9093C16.9207 20.7966 16.8752 20.6824 16.8322 20.5667C16.635 20.0644 16.4921 19.5438 16.4145 19.0356C16.3072 18.5017 16.2632 17.9668 16.283 17.4388C16.0674 17.3019 15.839 17.1788 15.5998 17.0715C15.0807 16.8451 14.5408 16.7146 14.0059 16.6879C13.3702 16.6587 12.7255 16.7655 12.0957 16.9984C10.9473 17.4309 10.1341 18.2056 9.61497 19.3664C9.19723 20.3239 9.10775 21.2756 9.34702 22.2525ZM31.0625 19.5122C31.242 19.8073 31.4719 20.0822 31.7457 20.3299C32.1195 20.6888 32.5417 20.979 33.0222 21.2118C33.9491 21.6157 34.8711 21.7146 35.804 21.4956L36.5045 21.2623C37.6381 20.8262 38.4617 20.0486 38.9813 18.9007C39.4811 17.7384 39.5092 16.6103 39.0609 15.4673C38.6179 14.2635 37.8432 13.4364 36.6854 12.9188C35.5454 12.4304 34.4025 12.4042 33.2031 12.8452C32.5145 13.124 31.9252 13.5383 31.4313 14.1009C31.151 14.4217 30.9127 14.7969 30.7229 15.2162C30.2201 16.3715 30.1865 17.5125 30.625 18.6916C30.7343 18.9432 30.8841 19.2289 31.0526 19.4954C31.0536 19.4974 31.0546 19.4989 31.0561 19.5008L31.0566 19.5018C31.0581 19.5058 31.0605 19.5087 31.0625 19.5122ZM14.7465 14.7782C15.3041 14.8647 15.8578 15.0268 16.3991 15.2626C16.4634 15.2913 16.5272 15.321 16.59 15.3511C16.6958 14.963 16.8307 14.572 16.9958 14.1795C17.9678 12.1031 19.5018 10.6527 21.5717 9.83153C21.3814 9.71338 21.1772 9.60511 20.9592 9.50575C19.8029 8.98914 18.6683 8.95552 17.4956 9.4049C16.3388 9.85427 15.5216 10.6319 15.0021 11.7813C14.5695 12.7735 14.4835 13.7612 14.7465 14.7782ZM35.2478 9.48053C33.5259 9.48053 32.0893 8.72861 31.0106 7.87138C30.7155 7.63705 30.5795 7.2554 30.6596 6.88709C31.1866 4.46174 32.8739 1.55635 37.9149 1.48615C39.1123 1.45204 40.4149 1.58354 41.7729 1.87967C41.7962 1.88461 41.8194 1.89054 41.8422 1.89746L42.9298 2.2188C43.2239 2.30581 43.4607 2.52383 43.5714 2.80957C43.6822 3.09531 43.654 3.41665 43.4953 3.67866L42.9268 4.61796C42.9036 4.65652 42.8778 4.6931 42.8497 4.7282C41.9722 5.81185 41.0611 6.74818 40.142 7.51148C38.3381 8.95107 36.6924 9.48053 35.2478 9.48053ZM32.7542 6.69577C34.7099 7.9831 36.6755 7.74828 38.8943 5.97796C39.6234 5.37236 40.3645 4.6229 41.0887 3.75628C39.9838 3.53332 38.9328 3.43445 37.9574 3.46312C35.1094 3.50316 33.4429 4.53441 32.7542 6.69577Z" fill="#826489"/>
<path d="M13.9501 44.0016C13.3751 44.0016 12.7997 43.9309 12.2272 43.7895C11.9622 43.7242 11.8001 43.4563 11.8658 43.1913C11.9311 42.9259 12.1986 42.7637 12.464 42.8299C13.7553 43.1488 15.0674 43.048 16.3641 42.5299C17.5535 42.0973 18.5106 41.419 19.224 40.5089C19.3926 40.2934 19.703 40.2568 19.9181 40.4249C20.1331 40.5929 20.1707 40.9039 20.0021 41.1189C19.1731 42.1774 18.0677 42.9624 16.7166 43.4538C15.8045 43.8177 14.8775 44.0016 13.9501 44.0016ZM22.776 39.1815C22.5496 39.1815 22.3449 39.0248 22.294 38.7944C22.2347 38.528 22.4027 38.2635 22.6692 38.2047C23.086 38.1117 23.5081 37.9787 23.9249 37.8092C26.2336 36.9396 27.8319 35.4011 28.8236 33.1028C28.8577 33.0168 28.9046 32.9214 28.9605 32.8245C29.0426 32.6604 29.2131 32.5323 29.4504 32.5323C29.534 32.5323 29.6165 32.5536 29.6902 32.5941C29.8153 32.6633 29.9581 32.7276 30.1144 32.7844C30.2201 32.8195 30.3309 32.8685 30.4347 32.9273C31.9821 33.5468 33.5106 33.5492 35.1069 32.9357C36.7962 32.3 37.9921 31.1862 38.7667 29.5295C39.488 27.8709 39.5266 26.2474 38.8775 24.5785L38.6817 24.0886C38.5809 23.8364 38.7025 23.5507 38.9536 23.4479C40.5761 22.7834 41.7102 21.679 42.4211 20.0718C43.1636 18.4014 43.2091 16.7789 42.561 15.1114C42.3593 14.5691 42.0963 14.0663 41.7764 13.609C41.6202 13.385 41.6741 13.0771 41.898 12.9203C42.1225 12.7641 42.4305 12.818 42.5867 13.042C42.955 13.568 43.2571 14.1459 43.4855 14.7599C44.2211 16.6518 44.1682 18.5759 43.3253 20.4723C42.5847 22.1467 41.3923 23.3866 39.7772 24.1632L39.7965 24.2161C40.5366 26.1184 40.4921 28.041 39.6675 29.9364C38.7855 31.8244 37.3706 33.1404 35.4579 33.8602C33.6347 34.5617 31.808 34.5523 30.0308 33.831C30.0071 33.8211 29.9843 33.8102 29.9626 33.7969C29.9112 33.7658 29.8523 33.7396 29.7891 33.7183C29.7431 33.7015 29.6981 33.6847 29.6546 33.6669C28.5527 36.1021 26.7492 37.8013 24.2858 38.7292C23.8305 38.9146 23.3544 39.0644 22.8843 39.1692C22.8477 39.1781 22.8116 39.1815 22.776 39.1815ZM0.703074 30.234C0.485059 30.234 0.284841 30.0882 0.226011 29.8677C-0.164537 28.4133 -0.0483613 26.941 0.57009 25.4916C1.39024 23.7791 2.65384 22.5975 4.33518 21.9603C4.63575 21.8422 4.94226 21.7428 5.24876 21.6627C4.76626 20.0852 4.85475 18.4988 5.51374 16.9405C6.26221 15.318 7.42051 14.1701 8.96441 13.5141C9.21506 13.4068 9.50574 13.5245 9.61302 13.7756C9.7198 14.0267 9.60264 14.3169 9.3515 14.4242C8.02265 14.9893 7.06308 15.9429 6.41843 17.34C5.79751 18.8097 5.76488 20.2602 6.32599 21.7591C6.36949 21.853 6.38976 21.9391 6.38976 22.0271C6.38976 22.2663 6.21821 22.4715 5.9824 22.5135C5.55478 22.5896 5.12072 22.7137 4.69211 22.8823C3.23076 23.436 2.17925 24.4222 1.47181 25.8989C0.94383 27.1378 0.845946 28.3584 1.18211 29.6111C1.25281 29.8751 1.09659 30.146 0.832598 30.2167C0.788599 30.2286 0.745095 30.234 0.703074 30.234ZM17.3137 27.0449H16.5228C16.2499 27.0449 16.0284 26.8234 16.0284 26.5505C16.0284 26.2776 16.2499 26.0561 16.5228 26.0561H17.3137C17.5866 26.0561 17.8081 26.2776 17.8081 26.5505C17.8081 26.8234 17.5871 27.0449 17.3137 27.0449ZM29.6976 24.0045H28.9313C28.6584 24.0045 28.437 23.783 28.437 23.5101C28.437 23.2373 28.6584 23.0158 28.9313 23.0158H29.6976C29.9705 23.0158 30.192 23.2373 30.192 23.5101C30.192 23.783 29.971 24.0045 29.6976 24.0045ZM21.5658 15.6003H20.7995C20.5266 15.6003 20.3052 15.3788 20.3052 15.1059C20.3052 14.833 20.5266 14.6116 20.7995 14.6116H21.5658C21.8387 14.6116 22.0602 14.833 22.0602 15.1059C22.0602 15.3788 21.8387 15.6003 21.5658 15.6003ZM10.8376 9.98925C10.5647 9.98925 10.3432 9.76778 10.3432 9.49489V7.49271C10.3432 7.21982 10.5647 6.99834 10.8376 6.99834C11.1105 6.99834 11.3319 7.21982 11.3319 7.49271V9.49489C11.3319 9.76778 11.1109 9.98925 10.8376 9.98925ZM14.7925 6.00961H12.815C12.5421 6.00961 12.3207 5.78813 12.3207 5.51524C12.3207 5.24235 12.5421 5.02088 12.815 5.02088H14.7925C15.0654 5.02088 15.2869 5.24235 15.2869 5.51524C15.2869 5.78813 15.0659 6.00961 14.7925 6.00961ZM8.8601 6.00961H6.88264C6.60975 6.00961 6.38828 5.78813 6.38828 5.51524C6.38828 5.24235 6.60975 5.02088 6.88264 5.02088H8.8601C9.13299 5.02088 9.35447 5.24235 9.35447 5.51524C9.35447 5.78813 9.13349 6.00961 8.8601 6.00961ZM10.8376 4.05687C10.5647 4.05687 10.3432 3.83539 10.3432 3.5625V1.58504C10.3432 1.31215 10.5647 1.09067 10.8376 1.09067C11.1105 1.09067 11.3319 1.31215 11.3319 1.58504V3.5625C11.3319 3.83539 11.1109 4.05687 10.8376 4.05687Z" fill="#826489"/>
</svg>
