<svg width="44" height="45" viewBox="0 0 44 45" fill="none" xmlns="http://www.w3.org/2000/svg">
<path d="M43.9818 20.5958C43.8856 19.5353 43.2855 18.4848 42.3357 17.7135C41.4922 17.0283 40.0183 16.2796 37.6687 16.3753C37.4386 15.4139 36.7231 14.5353 35.7401 14.0979C35.3051 13.904 34.4861 13.66 33.4424 13.9068C33.733 13.3082 33.8331 12.6928 33.7965 12.1495C33.7277 11.1213 33.1922 10.2412 32.3694 9.72919C33.0007 7.8107 33.1267 4.70465 30.1809 2.91945C28.9832 2.1943 27.8005 1.97488 26.6591 2.25253C25.9383 0.981233 24.68 0.165142 23.2153 0.078529C21.3589 -0.0331061 19.655 0.999518 18.7739 2.76787C18.7672 2.78039 18.3996 3.61428 18.1864 4.40679C17.1134 4.41209 16.1818 4.913 15.5572 5.84409C14.6906 7.13656 14.615 8.96266 15.2849 10.6131C14.5563 10.7801 13.9327 11.1545 13.4867 11.7093C12.6364 12.7674 12.5127 14.3635 13.1383 16.2035C13.2427 16.511 13.3664 16.8493 13.4987 17.2121C14.4072 19.6984 15.7795 23.4564 13.7614 25.4741L13.7595 25.4765L0.23963 38.9963C0.0861321 39.1498 0 39.3577 0 39.5747C0 39.6435 0.0149167 41.2675 1.2915 42.5446C2.53296 43.787 4.26475 43.9886 4.33789 43.9968C4.36772 44.0002 4.39755 44.0016 4.42691 44.0016C4.64248 44.0016 4.85083 43.916 5.00529 43.762L18.5266 30.2402C20.5442 28.2231 24.3028 29.594 26.7895 30.5029C27.1519 30.6353 27.4906 30.7589 27.7976 30.8633C29.6372 31.4889 31.2338 31.3647 32.2919 30.5154C32.8467 30.0694 33.2215 29.4453 33.3885 28.7168C35.0395 29.3871 36.866 29.311 38.1575 28.4444C39.0901 27.8189 39.5905 26.8863 39.5948 25.8119C40.3662 25.5919 41.1876 25.2094 41.318 25.1377C43.1532 24.1287 44.1493 22.431 43.9818 20.5958ZM14.6867 15.6771C14.2479 14.3856 14.2744 13.341 14.7618 12.7342C15.1241 12.2833 15.7482 12.0827 16.5181 12.1683C16.8372 12.2068 17.1466 12.0504 17.3107 11.7752C17.4752 11.5004 17.4637 11.1549 17.2823 10.8912C16.2376 9.37503 16.3069 7.66298 16.9156 6.75546C17.1932 6.34116 17.723 5.88981 18.6671 6.09527C19.1069 6.19103 19.5434 5.91194 19.6396 5.47118C19.654 5.40573 19.6598 5.34077 19.6584 5.27678C19.745 4.90578 20.1477 3.69801 20.2372 3.49831C20.9359 2.09662 22.1894 1.65682 23.1181 1.71215C23.9794 1.76316 24.7055 2.21066 25.1622 2.93292C24.0237 3.71966 23.2745 4.89664 22.916 5.56164C21.726 5.60928 20.8416 6.02791 20.2825 6.80983C19.4279 8.00462 19.6511 9.6801 19.9134 10.7089C16.8502 11.6092 16.5191 13.9011 16.97 18.354C17.1076 19.7114 16.8198 20.9187 16.4176 21.8916C16.2655 20.0343 15.5803 18.1451 15.0346 16.6515C14.9071 16.3007 14.7878 15.9735 14.6867 15.6771ZM40.5293 23.7028C39.8999 24.0488 38.9929 24.2918 38.7239 24.3423C38.6584 24.3389 38.5954 24.3466 38.5309 24.3611C38.0897 24.4573 37.8096 24.8928 37.9059 25.334C38.1109 26.2781 37.6605 26.8074 37.2462 27.0851C36.3391 27.6938 34.6271 27.7635 33.1099 26.7184C32.8462 26.537 32.5007 26.5255 32.226 26.69C31.9512 26.8546 31.7972 27.164 31.8328 27.482C31.9185 28.2529 31.7173 28.8765 31.2665 29.2389C30.6607 29.7263 29.6155 29.7523 28.3235 29.3134C28.0267 29.2124 27.6999 29.0931 27.3501 28.9651C24.4731 27.9142 20.1256 26.3267 17.3694 29.0825L4.15552 42.2973C3.72486 42.189 2.9973 41.9369 2.44875 41.3878C1.92763 40.8662 1.74045 40.2397 1.67356 39.8764L16.0167 25.5332C16.1399 25.4101 19.0319 22.4638 18.5988 18.1879C18.0858 13.1215 18.8346 12.5239 21.1062 12.1067C21.3468 12.0625 21.5557 11.9128 21.674 11.6987C21.7924 11.4846 21.8093 11.2286 21.7188 11.001C21.495 10.4356 20.9946 8.62679 21.6139 7.76066C21.9113 7.34491 22.5041 7.15388 23.3837 7.19815C23.7229 7.20681 24.04 7.01626 24.1752 6.70301C24.1849 6.68039 25.1708 4.42893 26.8718 3.88471C27.6403 3.6393 28.4458 3.78077 29.3336 4.31825C32.2962 6.11404 30.6534 9.65268 30.5827 9.8004C30.4764 10.0203 30.4735 10.2753 30.575 10.4972C30.6765 10.719 30.8714 10.884 31.1067 10.9471C31.7159 11.1102 32.1206 11.613 32.1639 12.2588C32.2125 12.9796 31.7775 13.9526 30.4129 14.5223C30.0005 14.6945 29.8061 15.1738 29.9716 15.5891C29.9735 15.5934 30.1164 15.9591 30.1087 16.486C30.1054 16.5197 30.1044 16.5534 30.1054 16.587C30.1001 16.6881 30.089 16.7944 30.0707 16.9046C29.9018 17.9079 29.1935 18.7726 27.9655 19.4746C27.0431 20.002 26.074 20.5159 25.0486 21.0597C23.4496 21.9075 21.7958 22.7838 20.3614 23.699C20.3132 23.7264 19.17 24.3847 18.2504 25.5871C17.9761 25.9461 18.0445 26.4595 18.4034 26.7338C18.7629 27.0081 19.2758 26.9393 19.5501 26.5808C20.2603 25.6516 21.1635 25.1247 21.2054 25.0992C22.6196 24.198 24.2436 23.3371 25.8146 22.5042C26.4051 22.1914 27.0061 21.8714 27.5965 21.5505L27.1461 22.546C26.5085 22.7688 25.8541 23.0147 25.1857 23.288C24.8537 23.4237 24.6944 23.8029 24.8301 24.1349C24.9326 24.3866 25.1756 24.5391 25.4316 24.5391C25.5134 24.5391 25.5967 24.5232 25.677 24.4905C26.2968 24.2374 26.904 24.0093 27.4978 23.8005L28.8625 25.8301C28.9876 26.0168 29.193 26.1174 29.4024 26.1174C29.527 26.1174 29.6531 26.0818 29.7642 26.0067C30.0621 25.8066 30.141 25.4028 29.9408 25.105L28.7783 23.3766C30.1655 22.9445 31.4565 22.6288 32.6162 22.3983L33.7475 23.993C33.874 24.1715 34.0747 24.2668 34.2777 24.2668C34.4081 24.2668 34.539 24.2278 34.6531 24.1469C34.9456 23.9391 35.0144 23.5339 34.807 23.2414L34.0304 22.1471C36.7457 21.7218 38.4515 21.7872 38.4819 21.7896C38.8423 21.806 39.144 21.5293 39.1608 21.1708C39.1776 20.8123 38.901 20.5087 38.543 20.4914C38.4135 20.4851 36.6779 20.4154 33.9298 20.8383L34.2272 20.0848C34.3586 19.7513 34.195 19.3736 33.861 19.2422C33.5276 19.1109 33.1498 19.2745 33.0185 19.6084L32.4295 21.1025C31.3324 21.319 30.1193 21.6116 28.8168 22.0033L29.3456 20.834C29.3947 20.7252 29.4086 20.6107 29.3971 20.5C30.9927 19.3866 31.5273 18.1018 31.6827 17.1751C31.6986 17.0807 31.7111 16.9879 31.7207 16.8974C32.8929 15.6357 34.105 15.1603 35.0731 15.592C35.7983 15.9143 36.1659 16.64 36.1029 17.1548C36.0726 17.4041 36.1577 17.6534 36.3348 17.8309C36.5114 18.0089 36.7607 18.096 37.0099 18.0667C39.2965 17.7991 40.6077 18.4175 41.3035 18.9829C41.904 19.4703 42.2957 20.1286 42.3515 20.7435C42.4608 21.9292 41.7963 23.0075 40.5293 23.7028ZM21.3338 20.7036C21.0504 20.4832 20.9994 20.0752 21.2198 19.7917C21.8583 18.9704 22.4281 18.1653 22.9372 17.3844L21.4339 15.2243C21.2289 14.9298 21.3016 14.5252 21.5961 14.3202C21.8901 14.1152 22.2953 14.1879 22.5002 14.4823L23.684 16.1838C24.5231 14.7701 25.1588 13.4584 25.6409 12.3035L24.4644 10.6795C24.2537 10.3889 24.3186 9.98277 24.6093 9.77249C24.8999 9.56221 25.306 9.62669 25.5163 9.91733L26.1977 10.858C26.9228 8.79905 27.085 7.50948 27.0879 7.48253C27.1292 7.12645 27.4492 6.87094 27.8072 6.91136C28.1633 6.95178 28.4188 7.27273 28.3789 7.62929C28.3654 7.74959 28.1845 9.22827 27.3491 11.5336L28.2177 11.499C28.5853 11.4879 28.8784 11.7636 28.8928 12.1221C28.9072 12.4806 28.6281 12.7828 28.2697 12.7972L26.8314 12.855C26.3733 13.9449 25.7829 15.1642 25.0245 16.474L26.0225 16.293C26.3762 16.2276 26.714 16.4634 26.7775 16.8161C26.8415 17.1693 26.6072 17.5076 26.2544 17.5711L24.1146 17.9594C23.5637 18.8106 22.9444 19.6897 22.2447 20.5895C22.1167 20.7541 21.9247 20.8402 21.7313 20.8402C21.5927 20.8402 21.4522 20.7955 21.3338 20.7036ZM15.9061 28.1215C16.0942 28.3097 16.0942 28.6138 15.9061 28.8019L4.21952 40.489C4.12568 40.5828 4.0025 40.63 3.87932 40.63C3.75613 40.63 3.63295 40.5828 3.53912 40.489C3.35098 40.3008 3.35098 39.9967 3.53912 39.8086L15.2262 28.122C15.4138 27.9339 15.7184 27.9339 15.9061 28.1215Z" fill="#826489"/>
</svg>
