<svg width="44" height="45" viewBox="0 0 44 45" fill="none" xmlns="http://www.w3.org/2000/svg">
<path d="M40.0513 14.5955C37.0486 11.5928 32.8756 10.2061 28.7119 10.771C28.741 10.4949 28.7538 10.221 28.7318 9.95201C28.5848 8.17566 27.3393 7.26726 27.2868 7.22965L26.1705 6.43337L26.1648 7.80591C26.1627 8.26863 26.0214 9.6071 25.3969 10.2316C25.0612 10.5673 24.5943 10.6603 24.0528 10.7682C23.3814 10.9016 22.6206 11.0527 21.9819 11.6929C21.8563 11.8185 21.7399 11.959 21.6327 12.1144L18.3405 8.82148C21.3666 6.84074 23.4346 4.38947 23.4346 2.13053C23.4346 0.956706 22.4794 0.00146484 21.3056 0.00146484C20.7385 0.00146484 20.2048 0.222178 19.8024 0.622443C19.3986 1.02342 19.1765 1.55497 19.1772 2.11847C19.1772 3.51088 12.4777 8.52128 5.67822 8.52128C4.5044 8.52128 3.54915 9.47652 3.54915 10.6503C3.54915 11.8242 4.5044 12.7794 5.67822 12.7794C7.5369 12.7794 9.47364 12.475 11.3557 11.9512V15.6948C11.113 15.6395 10.876 15.6111 10.646 15.6111C9.72061 15.6111 9.0606 16.0525 8.47723 16.4414C8.00174 16.7586 7.59083 17.0333 7.09689 17.0333C6.18139 17.0333 5.09911 16.1582 4.75917 15.8211L3.78406 14.8531L3.55838 16.2072C3.54702 16.2725 3.30431 17.8303 4.48381 19.2227C4.69033 19.4668 4.9366 19.6818 5.2006 19.8827C1.92752 22.4319 0 26.3295 0 30.5174C0 37.9528 6.04868 44.0015 13.4841 44.0015C18.5612 44.0015 23.1969 41.1329 25.4913 36.6434C27.0682 37.2772 28.7658 37.6143 30.5166 37.6143C34.1183 37.6143 37.5042 36.2112 40.0513 33.6648C42.5984 31.1185 44.0007 27.7318 44.0007 24.1302C44.0007 20.5285 42.5977 17.1426 40.0513 14.5955ZM22.1175 14.6062L22.4922 13.5452C22.6227 13.1783 22.7874 12.893 22.984 12.6971C23.3197 12.3607 23.7873 12.2684 24.3296 12.1599C24.9995 12.0264 25.7603 11.8753 26.3997 11.2351C26.822 10.8136 27.0938 10.2714 27.2684 9.74194C27.2925 9.85336 27.3102 9.97188 27.3188 10.0975C27.4124 11.387 26.5786 12.9512 24.9087 14.6211L25.9122 15.6246C26.0207 15.516 26.1137 15.4088 26.2166 15.3009C27.5075 14.8098 28.5387 14.7772 29.2782 15.2122C29.8062 15.5224 30.1185 16.0326 30.298 16.4627C29.5635 16.5237 28.6963 16.6862 28.2825 17.1C27.113 18.2689 25.6432 18.2547 24.4495 17.0595L23.446 18.063C24.6404 19.2575 24.6553 20.7265 23.4864 21.8961C23.0727 22.3098 22.9095 23.1771 22.8491 23.9116C22.4191 23.732 21.9088 23.4205 21.5987 22.8918C21.165 22.1544 21.1977 21.1232 21.6867 19.8316C21.7945 19.7294 21.9024 19.6343 22.011 19.5257L21.0075 18.5222C19.3369 20.1928 17.7749 21.0253 16.4839 20.9323C16.3583 20.9231 16.2398 20.9061 16.1284 20.8819C16.6578 20.7073 17.2007 20.4355 17.6216 20.0133C18.261 19.3738 18.4122 18.6131 18.5463 17.9431C18.6542 17.4009 18.7471 16.9332 19.0842 16.5975C19.2794 16.4017 19.5654 16.2363 19.9316 16.1064L20.9926 15.7317L15.6139 10.353C16.122 10.1089 16.6152 9.85053 17.0921 9.58014L22.1175 14.6062ZM17.0354 24.1366C17.0155 24.1359 16.9942 24.1302 16.9743 24.1302C15.3541 24.1302 14.2946 23.0983 14.2101 21.4923C14.6615 21.8556 15.3648 22.2644 16.3385 22.3446C16.4541 22.3545 16.5705 22.3595 16.6883 22.3595C16.843 22.3595 16.9999 22.3425 17.1574 22.3261C17.0758 22.9308 17.0361 23.5355 17.0354 24.1366ZM15.6124 12.3586L18.5002 15.2456C18.3447 15.352 18.2042 15.4684 18.0793 15.594C17.9516 15.7218 17.848 15.8545 17.7557 15.99C17.3561 15.7814 16.8828 15.6111 16.3221 15.6111C16.0915 15.6111 15.8544 15.6395 15.611 15.6955L15.6124 12.3586ZM4.96782 10.6503C4.96782 10.2586 5.28576 9.94066 5.67751 9.94066C12.6935 9.94066 20.5959 4.83799 20.5959 2.11776C20.5959 1.93466 20.6697 1.76149 20.8024 1.62949C20.9379 1.49394 21.1161 1.42013 21.3056 1.42013C21.6973 1.42013 22.0153 1.73807 22.0153 2.12982C22.0153 5.77478 13.252 11.36 5.67751 11.36C5.28576 11.36 4.96782 11.0421 4.96782 10.6503ZM7.09689 18.4527C8.02232 18.4527 8.68233 18.0112 9.2657 17.6223C9.74048 17.3051 10.1514 17.0304 10.6453 17.0304C10.9647 17.0304 11.3323 17.1369 11.739 17.347L12.7744 17.8821V11.5119C13.2541 11.348 13.7282 11.1713 14.1938 10.9811L14.1924 17.8828L15.2285 17.3463C15.6344 17.1362 16.0028 17.0297 16.3228 17.0297C16.6422 17.0297 16.9183 17.1419 17.2263 17.3207C17.2007 17.4371 17.1766 17.5528 17.1546 17.6649C17.0467 18.2064 16.9538 18.6734 16.6181 19.0091C15.9935 19.6336 14.6551 19.7748 14.1938 19.7769H12.8148L13.6168 20.899C13.6296 20.9174 13.7545 21.0821 13.9752 21.2907H12.7744C12.7744 23.0153 11.6829 24.1295 9.99384 24.1295C9.38918 24.1295 8.63407 24.6518 8.05568 25.1457C7.8669 24.6965 7.7129 24.0826 7.87542 23.4553C8.09897 22.5958 8.87821 21.8641 10.1833 21.2765C10.338 21.2815 10.4857 21.2914 10.6453 21.2914V19.872C8.20826 19.872 6.45888 19.3376 5.58454 18.3263C5.48093 18.2064 5.39434 18.0858 5.32125 17.9658C5.84642 18.239 6.4603 18.4527 7.09689 18.4527ZM13.4841 42.5821C6.83146 42.5821 1.41938 37.17 1.41938 30.5174C1.41938 26.5644 3.3398 22.901 6.56746 20.6378C6.97056 20.7961 7.40631 20.9288 7.88393 21.0288C7.16715 21.6292 6.69875 22.324 6.4972 23.1139C6.01461 25.0066 7.26579 26.646 7.31902 26.7142L7.81651 27.3536L8.38568 26.7766C8.98253 26.1705 9.7568 25.585 9.99384 25.5496C11.5168 25.5496 12.7552 24.8832 13.4834 23.7867C14.2094 24.8824 15.4435 25.5488 16.9559 25.5488H16.958C16.958 25.5488 17.0105 25.5609 17.112 25.6099C17.4406 28.6147 18.7741 31.4563 20.9819 33.6648C21.9464 34.6293 23.0308 35.4277 24.2018 36.0494C22.1402 40.0379 18.0084 42.5821 13.4841 42.5821ZM39.0478 32.6613C36.769 34.9394 33.7393 36.1949 30.5166 36.1949C27.2939 36.1949 24.2643 34.9394 21.9854 32.6613C19.1588 29.8347 17.9338 25.8498 18.6584 21.933C19.0651 21.7634 19.4774 21.5441 19.8961 21.273C19.8252 22.1629 19.982 22.9521 20.3816 23.6256C21.3552 25.2664 23.3509 25.5339 23.4353 25.5446L24.2401 25.6461L24.2337 24.8349C24.2266 24.0173 24.3551 23.0884 24.4892 22.9003C25.5325 21.8563 25.9285 20.5533 25.6865 19.3022C25.9242 19.3483 26.1641 19.3746 26.404 19.3746C27.4224 19.3746 28.4337 18.9544 29.2725 18.1163C29.4727 17.9701 30.4364 17.8459 31.2206 17.848L32.0318 17.8537L31.9303 17.0496C31.9197 16.9652 31.6514 14.9695 30.0113 13.9958C29.3371 13.5963 28.5465 13.4394 27.6552 13.5111C27.9263 13.0924 28.1399 12.6808 28.3095 12.2748C32.2305 11.546 36.219 12.7716 39.0471 15.5997C41.3259 17.8778 42.5813 20.9075 42.5813 24.1302C42.5813 27.3529 41.3259 30.3825 39.0478 32.6613Z" fill="#826489"/>
<path d="M40.2046 19.7067L38.9129 20.2944C39.096 20.696 39.2507 21.1112 39.3721 21.5292L40.7347 21.1297C40.5935 20.6485 40.4153 20.1694 40.2046 19.7067Z" fill="#826489"/>
<path d="M41.0563 22.6157L39.6511 22.8151C39.7114 23.2466 39.7426 23.6887 39.7426 24.1302H41.162C41.162 23.622 41.1258 23.1125 41.0563 22.6157Z" fill="#826489"/>
<path d="M38.5624 17.1575L37.4893 18.0879C37.7782 18.4215 38.045 18.7756 38.2814 19.1411L39.4736 18.3718C39.2011 17.9495 38.8952 17.5407 38.5624 17.1575Z" fill="#826489"/>
<path d="M30.5165 33.3561C28.0518 33.3561 25.7354 32.3959 23.9938 30.6544C23.8029 30.4627 23.6212 30.2647 23.448 30.0596L22.3629 30.9744C22.5602 31.2086 22.7689 31.4357 22.9896 31.6572C25.0001 33.6677 27.6728 34.7755 30.5165 34.7755C33.3603 34.7755 36.033 33.6677 38.0428 31.6572L37.0393 30.6537C35.297 32.3959 32.9813 33.3561 30.5165 33.3561Z" fill="#826489"/>
<path d="M21.8938 27.4252L20.5689 27.9327C20.769 28.455 21.0131 28.9674 21.2949 29.4542L22.5226 28.7431C22.2792 28.3202 22.067 27.8773 21.8938 27.4252Z" fill="#826489"/>
<path d="M4.63997 33.1539L3.2802 33.5584C4.61229 38.0358 8.80797 41.1627 13.4841 41.1627V39.7434C9.43108 39.7434 5.79463 37.0338 4.63997 33.1539Z" fill="#826489"/>
<path d="M4.25813 30.5173H2.83875C2.83875 31.0226 2.87494 31.5343 2.94591 32.0368L4.3511 31.8374C4.28935 31.4002 4.25813 30.9559 4.25813 30.5173Z" fill="#826489"/>
</svg>
