<svg width="44" height="45" viewBox="0 0 44 45" fill="none" xmlns="http://www.w3.org/2000/svg">
<path d="M43.1727 29.7436C42.6516 28.2278 42.5569 26.712 42.9358 25.2909C43.0779 24.7225 43.1253 24.1541 43.1253 23.5857C43.1253 21.9278 42.5569 20.3646 41.5621 19.133C42.6042 18.1383 43.5043 16.9067 43.5516 15.4383C43.599 14.2067 42.9832 13.0225 41.7516 11.8857C41.5148 11.6488 41.2779 11.4594 40.9937 11.2699C41.1832 10.9383 41.42 10.6067 41.5621 10.2278C41.9411 9.37514 42.0358 8.61725 42.0832 8.14356L40.1885 8.00146C40.1885 8.28568 40.0937 8.8541 39.8095 9.46989C39.6674 9.84884 39.4779 10.133 39.2885 10.3699C37.6779 9.80146 36.02 10.0383 34.4095 11.033C34.22 10.7488 34.0306 10.512 33.7937 10.2751C32.2779 8.80672 29.8621 8.04883 26.9727 8.19094C22.4253 8.38041 19.4411 10.8909 19.299 14.7278C19.299 15.1541 19.3937 17.0962 19.5358 18.8488C19.4411 18.8015 19.3937 18.7541 19.299 18.7067C18.2569 18.1857 16.9779 18.1383 15.7464 18.5646C14.5621 18.9909 13.6148 19.8436 13.1885 20.7909C12.8095 21.6436 12.4779 21.6909 10.3937 21.1699L10.1095 21.0752C10.0148 21.0278 9.92004 21.0278 9.77794 21.0278C8.83057 19.3225 7.45689 18.233 5.89373 17.9488C4.99373 17.8067 4.04635 17.9488 3.19372 18.3751C3.09898 18.1857 2.95688 17.9962 2.86214 17.7594C2.6253 17.2383 2.53057 16.7646 2.53057 16.4804L0.635829 16.6699C0.683198 17.2857 0.872674 17.9015 1.15688 18.5172C1.29899 18.8488 1.48846 19.1804 1.67793 19.4173C1.63056 19.4646 1.63057 19.4646 1.5832 19.512C-1.16417 22.1646 0.162145 24.5804 1.82004 26.8541C1.77267 27.5172 1.82004 28.2278 1.96215 28.8909C2.29373 30.1699 2.15162 31.4962 1.5832 32.633C0.967408 33.8173 0.730566 35.0962 0.872672 36.4225C1.01478 37.9383 1.63056 39.312 2.6253 40.4015C2.4832 40.5909 2.34109 40.7804 2.15162 40.9699C1.7253 41.3962 1.34636 41.633 1.10951 41.7278L1.96215 43.433C2.4832 43.1488 3.05162 42.7699 3.52531 42.2962C3.76215 42.0594 3.95162 41.8699 4.09373 41.633C4.99373 42.2488 6.03583 42.6278 7.1253 42.8173C7.45688 42.8646 7.83583 42.912 8.16741 42.912C9.92004 42.912 11.6727 42.2962 12.999 41.1594C13.9464 40.3541 15.2253 40.1173 16.3148 40.4962C16.599 40.5909 16.9779 40.7804 17.4042 40.9699C18.6358 41.5383 20.1042 42.1541 21.1937 42.1541C23.3253 42.1541 24.9832 41.3015 26.2148 39.6909C27.2569 38.2699 29.5306 38.9804 31.2358 39.833C31.1885 40.1172 31.0937 40.4015 30.9042 40.7804C30.6674 41.3015 30.3832 41.6804 30.1937 41.8699L31.6148 43.1488C32.0411 42.7225 32.3727 42.1541 32.6569 41.5383C32.8464 41.1594 32.9411 40.7804 33.0358 40.4962C33.0832 40.4962 33.1306 40.4962 33.1779 40.5436C33.2253 40.8278 33.32 41.3488 33.2727 42.012C33.2253 42.5804 33.0832 43.0541 32.9885 43.2909L34.7411 44.0015C34.9779 43.433 35.12 42.8173 35.1674 42.1541C35.2148 41.633 35.1674 41.1594 35.12 40.7804C35.4516 40.7804 35.7832 40.7804 36.1621 40.733C40.1885 40.3067 43.3621 37.133 43.7411 33.2015C43.6937 32.0172 43.5516 30.833 43.1727 29.7436ZM40.4253 13.3541C41.2306 14.112 41.6569 14.7751 41.6095 15.4383C41.6095 16.1488 41.0885 16.9067 40.1411 17.8541C38.9095 16.9067 37.3464 16.3857 35.6411 16.3857C35.6411 16.3857 35.3095 16.1488 35.3569 14.9173C35.4043 14.2067 35.3095 13.5436 35.12 12.8804C36.9674 11.6015 38.6727 11.7436 40.4253 13.3541ZM5.51478 19.9383C6.17794 20.033 6.84109 20.4594 7.36214 21.0752H7.31478C5.13583 21.4067 3.33583 22.733 2.38846 24.5804C1.39372 22.8751 1.67793 22.0699 2.76741 21.0278C3.66741 20.1278 4.61478 19.7962 5.51478 19.9383ZM41.6569 33.012C41.6095 33.5804 41.4674 34.1488 41.2779 34.6699C40.899 32.633 39.8569 30.9752 39.1464 29.8383C38.8148 29.2699 38.4358 28.7015 38.3885 28.4173C38.1516 27.4225 38.3411 26.333 38.9095 25.1488L37.2042 24.3436C36.4937 25.9067 36.2569 27.3751 36.5885 28.7962C36.7306 29.412 37.1095 30.0278 37.6306 30.833C38.4832 32.1594 39.62 34.0067 39.6674 36.1857C39.6674 36.4699 39.6674 37.3225 38.199 38.1278C37.4885 38.4594 36.7306 38.6962 35.9253 38.7909C34.599 38.933 33.2727 38.6962 32.0885 38.1278C31.4253 37.7962 30.8095 37.5594 30.2411 37.3699C30.0043 36.8015 29.8621 36.2804 29.7674 35.712C29.6727 34.7646 29.8148 34.1015 30.0042 33.3909C30.1937 32.6804 30.3832 31.9225 30.2885 30.9751C30.1937 29.5067 29.4832 28.0857 28.2042 26.712L26.8306 27.9909C27.7779 29.033 28.3464 30.0751 28.3937 31.0699C28.4411 31.733 28.299 32.2541 28.1569 32.8699C27.9674 33.6751 27.7306 34.6225 27.8727 35.8541C27.92 36.1857 27.9674 36.5646 28.0621 36.8962C26.3095 36.8488 25.22 37.6067 24.6043 38.4594C23.7516 39.5962 22.6148 40.1646 21.099 40.1646C20.3885 40.1646 19.0621 39.5488 18.0674 39.1225C17.6411 38.933 17.2148 38.7436 16.8832 38.6015C15.7464 38.1752 14.4674 38.1752 13.3306 38.6015C13.3779 37.9383 13.3306 37.2278 13.0937 36.4699C12.8095 35.5225 12.2411 34.6699 11.5306 33.9594L10.2042 35.333C10.5358 35.6646 11.0095 36.233 11.2937 37.0857C11.72 38.412 11.2937 39.6436 11.0569 40.0699C9.96741 40.7804 8.64109 41.0646 7.26741 40.8751C4.85162 40.5436 2.90952 38.5541 2.67267 36.1857C2.57794 35.2383 2.76741 34.2909 3.19372 33.4383C3.62004 32.5857 3.90425 31.6383 3.95162 30.6436C4.4253 30.4541 4.99373 30.2646 5.65689 30.2173C6.65162 30.1699 7.45688 30.4541 7.93056 30.7383L8.7832 29.033C8.07267 28.7015 6.98319 28.2751 5.56214 28.3225C4.89898 28.3699 4.33056 28.4646 3.80951 28.6541C3.80951 28.5594 3.76215 28.4646 3.76215 28.3699C3.62004 27.7541 3.57267 27.0436 3.71478 26.3804C4.09372 24.533 5.70425 23.0172 7.64636 22.7804C7.8832 22.733 8.12004 22.733 8.40425 22.733C8.83056 22.733 9.20951 22.7804 9.63583 22.8751L9.92004 22.9699C11.6727 23.4436 13.899 24.012 14.9411 21.5015C15.1306 21.0278 15.699 20.5541 16.4095 20.3173C17.12 20.033 17.8779 20.0804 18.4464 20.3646C19.2043 20.7436 19.4885 21.1699 19.6306 21.4541C19.7727 21.9751 19.9621 22.5909 20.2464 23.2067C21.0516 24.8646 22.1411 25.9067 22.9464 26.5225L24.0832 25.0067C23.4674 24.533 22.5674 23.6804 21.9516 22.3541C21.8095 22.0699 21.7148 21.7857 21.62 21.5488C21.4306 19.133 21.1464 15.2962 21.1937 14.7751C21.1937 14.3962 21.2885 14.0173 21.3832 13.6857C21.62 13.8278 21.9043 13.9699 22.1885 14.0646C22.8516 14.3015 23.4674 14.3488 23.8937 14.3488C23.9411 14.3488 24.0358 14.3488 24.0832 14.3488L23.9885 12.4541C23.7516 12.4541 23.3253 12.4541 22.8043 12.2646C22.5674 12.1699 22.3779 12.0751 22.1885 11.9804C23.5148 10.4173 25.8358 10.0857 27.02 10.0383C29.3411 9.94356 31.3306 10.512 32.42 11.6015C33.1779 12.3594 33.5569 13.4015 33.5095 14.6804C33.4621 15.9594 33.7464 16.9541 34.2674 17.5225C34.7885 18.0436 35.3569 18.1383 35.6411 18.1383C38.6727 18.1383 41.1832 20.5541 41.1832 23.4909C41.1832 23.9172 41.1358 24.3436 41.0411 24.7699C40.6148 26.5225 40.7095 28.4173 41.3253 30.2646C41.6569 31.212 41.7516 32.112 41.6569 33.012Z" fill="#826489"/>
<path d="M13.3306 24.012L11.5306 24.5804C11.72 25.1488 11.8621 26.0962 11.5779 27.1857C11.3411 28.1331 10.82 28.7962 10.4411 29.2225L11.8148 30.5488C12.3358 29.9804 13.0937 29.0331 13.4253 27.7067C13.8516 26.1436 13.6148 24.8646 13.3306 24.012Z" fill="#826489"/>
<path d="M23.9885 34.7172C22.9464 35.0488 22.1411 35.4277 21.6674 35.7593L22.6622 37.3698C23.0411 37.133 23.7043 36.8014 24.5569 36.5646C25.3148 36.3277 25.8832 36.2804 26.2622 36.2804L26.2148 34.3856C25.6938 34.3383 24.9359 34.433 23.9885 34.7172Z" fill="#826489"/>
<path d="M24.0358 33.2015C24.7937 32.9646 25.3621 32.9173 25.741 32.9173L25.6937 31.0225C25.22 31.0225 24.4621 31.1173 23.5147 31.4015C22.4726 31.7331 21.6674 32.112 21.1937 32.4436L22.1884 34.0541C22.52 33.7699 23.1831 33.4383 24.0358 33.2015Z" fill="#826489"/>
<path d="M33.7464 24.5805C34.7411 24.1068 35.4043 23.5384 35.8306 23.1594L34.5516 21.7384C34.2674 21.9752 33.699 22.4489 32.8937 22.8752C32.1832 23.2068 31.6148 23.3962 31.2832 23.491L31.6622 25.3384C32.3727 25.1962 33.0832 24.9594 33.7464 24.5805Z" fill="#826489"/>
<path d="M30.1464 18.754C31.7095 18.6119 32.8938 17.9488 33.6043 17.4277L32.4674 15.9119C31.9464 16.2909 31.0938 16.7646 29.9569 16.9067C28.9148 17.0014 28.0622 16.7646 27.5411 16.5751L26.8306 18.3277C27.4464 18.5646 28.3464 18.8488 29.4359 18.8488C29.6727 18.8014 29.9095 18.8014 30.1464 18.754Z" fill="#826489"/>
<path d="M15.5569 35.5225C15.2727 34.7646 15.4622 34.0541 15.5569 33.7698L13.8043 33.1067C13.5674 33.7225 13.2832 34.9067 13.8043 36.233C14.0411 36.8962 14.5148 37.4646 15.0358 37.9383L16.2674 36.4699C16.0306 36.3277 15.7464 35.9962 15.5569 35.5225Z" fill="#826489"/>
<path d="M35.3568 19.3225L33.8411 18.1857C33.32 18.8962 32.0884 20.1278 29.9095 20.6962C26.5463 21.5488 23.7042 19.8909 23.3726 19.7015L22.3779 21.312C22.8516 21.5962 25.0305 22.8278 27.92 22.8278C28.6779 22.8278 29.5305 22.733 30.3832 22.5436C33.0832 21.833 34.6463 20.2225 35.3568 19.3225Z" fill="#826489"/>
<path d="M35.9726 35.1909C35.9726 35.333 35.9253 35.4751 35.8305 35.5698C35.5937 35.8541 35.1674 36.0435 34.6937 36.0909C33.9358 36.1856 33.2726 35.8067 33.2726 35.4751L31.3779 35.712C31.52 37.0856 32.8463 38.033 34.4568 38.033C34.5989 38.033 34.7411 38.033 34.8832 37.9856C35.8779 37.8909 36.7305 37.4172 37.2989 36.754C37.7253 36.233 37.9147 35.6172 37.82 35.0014C37.7253 34.2435 37.2516 33.533 36.4463 33.1067L35.5463 34.7646C35.6884 34.812 35.9253 34.9541 35.9726 35.1909Z" fill="#826489"/>
<path d="M4.47269 34.5751C3.71479 34.8593 3.19373 35.4751 2.95689 36.3277L4.80426 36.8014C4.85163 36.6593 4.94637 36.4225 5.18321 36.3277C5.56216 36.1856 6.17795 36.5646 6.46216 37.2751C6.60426 37.7014 6.65163 38.1277 6.50952 38.4119C6.41479 38.554 6.32005 38.6962 6.22532 38.7435L6.88847 40.4962C7.50426 40.2593 7.97795 39.7856 8.26216 39.1698C8.59374 38.4119 8.59374 37.4172 8.26216 36.5646C7.50427 34.9067 5.89374 34.0541 4.47269 34.5751Z" fill="#826489"/>
</svg>
