<svg width="40" height="40" viewBox="0 0 40 40" fill="none" xmlns="http://www.w3.org/2000/svg">
<rect width="40" height="40" fill="#C4C4C4" fill-opacity="0.01"/>
<path d="M3.57632 15.4452L8.56868 17.5264C8.85699 18.3949 9.24126 19.2143 9.69158 19.9873C8.51199 22.0148 7.88405 24.3124 7.88405 26.676C7.88405 34.0231 13.8614 40 21.208 40C23.9563 40 26.5833 39.1668 28.8362 37.585L35.255 38.795C35.5964 38.8606 35.945 38.7303 36.161 38.4585C36.377 38.1876 36.4265 37.8185 36.2882 37.5007L33.6514 31.4421C34.2365 29.9198 34.532 28.3189 34.532 26.676C34.532 24.2464 33.8679 21.9733 32.7262 20.0091C33.9045 17.9829 34.532 15.6858 34.532 13.324C34.532 5.9769 28.5546 0 21.208 0C15.0093 0 9.59071 4.34343 8.22413 10.3645C7.63411 10.8764 5.40795 12.4505 3.41163 13.8042C3.126 13.997 2.97068 14.3308 3.0046 14.6736C3.03897 15.0163 3.25855 15.3127 3.57632 15.4452ZM33.8634 36.6259L29.1187 35.7315C28.8019 35.5553 28.4015 35.5749 28.0989 35.8034C26.0897 37.3231 23.7069 38.126 21.2085 38.126C14.895 38.126 9.75897 32.9899 9.75897 26.6765C9.75897 24.9462 10.1513 23.2578 10.8921 21.718C13.3758 24.7529 17.1417 26.6488 21.2085 26.6488C24.487 26.6488 27.6384 25.4469 30.0819 23.2645C30.4679 22.9199 30.5014 22.3268 30.1564 21.9408C29.8119 21.5547 29.2192 21.5212 28.8331 21.8662C27.1474 23.3721 25.0668 24.3231 22.8544 24.644C24.8574 23.958 26.3039 22.0604 26.3039 19.8275C26.3039 18.0673 25.4059 16.5137 24.0443 15.5979C28.9875 16.8645 32.6579 21.3445 32.6579 26.6769C32.6579 28.206 32.3603 29.6922 31.7725 31.0953C31.6734 31.331 31.6752 31.5965 31.7778 31.8313L33.8634 36.6259ZM21.2076 23.0476C19.4317 23.0476 17.987 21.6029 17.987 19.8271C17.987 18.0512 19.4317 16.607 21.2076 16.607C22.9834 16.607 24.4281 18.0517 24.4281 19.8271C24.4281 21.6025 22.9838 23.0476 21.2076 23.0476ZM10.0053 10.9956C11.0974 5.71046 15.8091 1.87448 21.208 1.87448C27.5214 1.87448 32.657 7.01099 32.657 13.324C32.657 15.0485 32.267 16.7319 31.5315 18.2677C29.0862 15.2712 25.368 13.3525 21.208 13.3525C17.9009 13.3525 14.729 14.5727 12.277 16.7882C11.8932 17.1354 11.8633 17.7285 12.2105 18.1119C12.5573 18.4962 13.15 18.5261 13.5347 18.1793C14.9276 16.9203 16.5941 16.0446 18.3838 15.5898C17.0163 16.5043 16.113 18.0619 16.113 19.8266C16.113 22.0635 17.5635 23.9634 19.5714 24.6467C15.2168 24.0071 11.4996 20.8665 10.2312 16.5641C10.1513 16.2932 9.95356 16.0727 9.69292 15.9643L5.89264 14.3799C9.87188 11.6423 9.92678 11.3772 10.0053 10.9956Z" fill="#444444"/>
<path d="M17.0503 30.753H18.6395C19.1573 30.753 19.5768 30.334 19.5768 29.8158C19.5768 29.2977 19.1577 28.8786 18.6395 28.8786H17.0503C16.5325 28.8786 16.113 29.2977 16.113 29.8158C16.113 30.334 16.5325 30.753 17.0503 30.753Z" fill="#444444"/>
<path d="M27.4366 28.879H21.3749C20.8572 28.879 20.4372 29.2981 20.4372 29.8162C20.4372 30.3344 20.8568 30.7535 21.3749 30.7535H27.4366C27.9539 30.7535 28.3739 30.3344 28.3739 29.8162C28.3739 29.2981 27.9539 28.879 27.4366 28.879Z" fill="#444444"/>
<path d="M24.3687 32.4101H17.0503C16.5325 32.4101 16.113 32.8292 16.113 33.3473C16.113 33.8655 16.5321 34.285 17.0503 34.285H24.3687C24.8865 34.285 25.3064 33.8655 25.3064 33.3473C25.3064 32.8292 24.8865 32.4101 24.3687 32.4101Z" fill="#444444"/>
<path d="M16.3062 9.60665C16.8239 9.60665 17.2439 9.18713 17.2439 8.66942C17.2439 8.1517 16.8244 7.73218 16.3062 7.73218H16.2451C15.7274 7.73218 15.3386 8.1517 15.3386 8.66942C15.3386 9.18713 15.7889 9.60665 16.3062 9.60665Z" fill="#444444"/>
<path d="M21.3129 9.60665H21.4374C21.9552 9.60665 22.3751 9.18713 22.3751 8.66942C22.3751 8.1517 21.9556 7.73218 21.4374 7.73218H21.3129C20.7952 7.73218 20.3752 8.1517 20.3752 8.66942C20.3752 9.18713 20.7948 9.60665 21.3129 9.60665Z" fill="#444444"/>
<path d="M26.5047 9.60665C27.0224 9.60665 27.4423 9.18713 27.4423 8.66942C27.4423 8.1517 27.0228 7.73218 26.5047 7.73218H26.4431C25.9258 7.73218 25.5366 8.1517 25.5366 8.66942C25.5366 9.18713 25.9869 9.60665 26.5047 9.60665Z" fill="#444444"/>
</svg>
