<svg width="40" height="41" viewBox="0 0 40 41" fill="none" xmlns="http://www.w3.org/2000/svg">
<rect width="40" height="40" fill="#C4C4C4" fill-opacity="0.01"/>
<path d="M30.7627 39.2328V37.2901H32.7057C33.2016 37.2901 33.603 36.8887 33.603 36.3928C33.603 35.8969 33.2016 35.4955 32.7057 35.4955H30.7627V33.5532C30.7627 33.0573 30.3612 32.6555 29.8657 32.6555C29.3698 32.6555 28.9684 33.0573 28.9684 33.5532V35.4955H27.0268C26.5309 35.4955 26.1292 35.8969 26.1292 36.3928C26.1292 36.8887 26.5309 37.2901 27.0268 37.2901H28.9684V39.2328C28.9684 39.7287 29.3698 40.1305 29.8657 40.1305C30.3612 40.1305 30.7627 39.7287 30.7627 39.2328Z" fill="#444444"/>
<path d="M8.05012 33.7925C8.38945 33.7925 8.71573 33.6055 8.8767 33.2817C9.7457 31.5408 11.1378 30.0791 12.8215 29.1086C13.5549 29.5135 14.3474 29.8333 15.187 30.0523C15.2646 30.0722 15.3429 30.082 15.4197 30.082C15.8305 30.082 16.205 29.8061 16.3134 29.3899C16.4414 28.8969 16.1448 28.3922 15.651 28.2639C11.9815 27.31 9.41796 23.9928 9.41796 20.1953C9.41796 15.5998 13.1568 11.8609 17.753 11.8609C22.3493 11.8609 26.0881 15.5998 26.0881 20.1953C26.0881 23.0691 24.6068 25.7134 22.2289 27.2281C22.2162 27.2346 22.2046 27.2426 22.1934 27.2506C21.8584 27.4619 21.506 27.6512 21.1377 27.815C20.6714 28.0217 20.4619 28.5684 20.6693 29.0339C20.8763 29.5001 21.4219 29.7111 21.8881 29.5023C22.1593 29.3823 22.421 29.2467 22.6777 29.1049C24.4864 30.144 25.9434 31.7344 26.8008 33.6424C26.9545 33.985 27.2917 34.1881 27.6437 34.1881C27.7703 34.1881 27.8986 34.162 28.0222 34.1061C28.4866 33.8973 28.6944 33.3506 28.4855 32.8855C27.5875 30.8886 26.1352 29.1862 24.332 27.9648C26.5786 26.0593 27.9352 23.2326 27.9352 20.1953C27.9352 14.581 23.3669 10.0138 17.7527 10.0138C12.1384 10.0138 7.57084 14.581 7.57084 20.1953C7.57084 23.2656 8.94848 26.0738 11.177 27.963C9.50715 29.0955 8.12625 30.6479 7.22462 32.4566C6.99695 32.9138 7.18184 33.4677 7.63828 33.6961C7.7706 33.7621 7.91126 33.7925 8.05012 33.7925Z" fill="#444444"/>
<path d="M14.7988 22.9284C15.376 23.3816 16.4814 23.9142 17.7883 23.9142C18.691 23.9142 19.6891 23.6607 20.6755 22.9524C21.0906 22.6554 21.1856 22.0783 20.8876 21.6635C20.5907 21.2488 20.0135 21.1542 19.5992 21.4522C17.7564 22.7747 16.1199 21.6131 15.9357 21.4721C15.5344 21.1621 14.9565 21.2325 14.6429 21.6316C14.3279 22.0326 14.3975 22.613 14.7988 22.9284Z" fill="#444444"/>
<path d="M16.2929 18.1926C16.2929 17.5937 15.8053 17.1068 15.2064 17.1068C14.6075 17.1068 14.1206 17.5937 14.1206 18.1926C14.1206 18.7915 14.6075 19.2784 15.2064 19.2784C15.8053 19.2784 16.2929 18.7915 16.2929 18.1926Z" fill="#444444"/>
<path d="M21.3865 18.1926C21.3865 17.5937 20.8992 17.1068 20.3007 17.1068C19.7014 17.1068 19.2138 17.5937 19.2138 18.1926C19.2138 18.7915 19.7014 19.2784 20.3007 19.2784C20.8992 19.2784 21.3865 18.7915 21.3865 18.1926Z" fill="#444444"/>
<path d="M27.3571 11.0391C27.7247 10.6849 27.7356 10.1005 27.3814 9.73285C26.7075 9.03316 26.3507 8.2189 26.3507 7.37818C26.3507 5.06375 28.9983 3.18038 32.2517 3.18038C35.5062 3.18038 38.1531 5.06339 38.1531 7.37818C38.1531 9.69261 35.5058 11.5753 32.2517 11.5753C31.5644 11.5753 30.8897 11.4908 30.248 11.324L29.8282 11.2156L27.6936 12.7481C27.2781 13.0453 27.1835 13.6229 27.4811 14.0369C27.6613 14.2881 27.9448 14.4223 28.2316 14.4223C28.4183 14.4223 28.6061 14.3661 28.7696 14.249L30.2125 13.2136C30.8748 13.3528 31.5586 13.4231 32.2514 13.4231C36.5238 13.4231 40.0002 10.7117 40.0002 7.37891C40.0002 4.04575 36.5238 1.33398 32.2514 1.33398C27.9789 1.33398 24.5036 4.04503 24.5036 7.37818C24.5036 8.70651 25.0391 9.96415 26.0513 11.0148C26.4058 11.3824 26.9906 11.3929 27.3571 11.0391Z" fill="#444444"/>
<path d="M30.1736 7.37818C30.1736 6.86809 29.7596 6.4548 29.2499 6.4548H29.2212C28.7115 6.4548 28.312 6.86809 28.312 7.37818C28.312 7.88863 28.7398 8.30192 29.2499 8.30192C29.76 8.30192 30.1736 7.88863 30.1736 7.37818Z" fill="#444444"/>
<path d="M33.2674 7.37818C33.2674 6.86809 32.8534 6.4548 32.3433 6.4548H32.2827C31.773 6.4548 31.3898 6.86809 31.3898 7.37818C31.3898 7.88863 31.8336 8.30192 32.3433 8.30192C32.8537 8.30192 33.2674 7.88863 33.2674 7.37818Z" fill="#444444"/>
<path d="M36.3282 7.37818C36.3282 6.86809 35.9149 6.4548 35.4052 6.4548H35.3762C34.8661 6.4548 34.4669 6.86809 34.4669 7.37818C34.4669 7.88863 34.8951 8.30192 35.4052 8.30192C35.9149 8.30192 36.3282 7.88863 36.3282 7.37818Z" fill="#444444"/>
</svg>
