<svg width="40" height="40" viewBox="0 0 40 40" fill="none" xmlns="http://www.w3.org/2000/svg">
<path d="M34.2299 10.2929C34.2299 10.7942 34.6363 11.201 35.1377 11.201H36.1313C36.6324 11.201 37.0387 10.7946 37.0387 10.2929C37.0387 9.79111 36.6324 9.38476 36.1313 9.38476H35.1377C34.6363 9.38476 34.2299 9.79111 34.2299 10.2929Z" fill="#444444"/>
<path d="M22.3743 5.75203C22.5516 5.92971 22.785 6.01856 23.0173 6.01856C23.2496 6.01856 23.4823 5.92971 23.6596 5.75275C24.0146 5.39847 24.0146 4.82354 23.6603 4.46889L22.8535 3.66202C22.4985 3.30701 21.9235 3.30737 21.5689 3.66166C21.2142 4.0163 21.2142 4.59087 21.5681 4.94588L22.3743 5.75203Z" fill="#444444"/>
<path d="M33.3558 6.02839C33.5888 6.02839 33.8197 5.93992 33.9974 5.76296L34.805 4.95645C35.1607 4.60217 35.1607 4.02723 34.8064 3.67222C34.4518 3.31685 33.8769 3.31721 33.5222 3.67149L32.7146 4.47764C32.36 4.83229 32.36 5.40722 32.7135 5.76223C32.8908 5.93955 33.1239 6.02839 33.3558 6.02839Z" fill="#444444"/>
<path d="M28.19 4.23696C28.691 4.23696 29.0984 3.83025 29.0984 3.32886V1.9081C29.0984 1.40671 28.691 1 28.19 1C27.6886 1 27.2819 1.40635 27.2819 1.9081V3.32886C27.2819 3.83025 27.6886 4.23696 28.19 4.23696Z" fill="#444444"/>
<path d="M25.0239 15.0132V17.7182C25.0239 18.2203 25.4309 18.6267 25.9316 18.6267H30.2809C30.7816 18.6267 31.1886 18.2203 31.1886 17.7182V15.0129C32.6269 14.0087 33.5062 12.3654 33.5062 10.5918C33.5062 7.61448 31.0838 5.19167 28.1075 5.19167C25.1305 5.19167 22.7085 7.61411 22.7085 10.5918C22.7088 12.3902 23.6202 14.025 25.0239 15.0132ZM28.1079 7.00787C30.0832 7.00787 31.6904 8.61579 31.6904 10.5918C31.6904 11.8924 30.9815 13.0936 29.8407 13.7268C29.5421 13.8925 29.3775 14.202 29.3775 14.521C29.3768 14.5344 29.3728 14.5468 29.3728 14.5603V16.8098H26.84V15.8387C26.9864 15.874 27.1343 15.905 27.2857 15.9283C27.3323 15.9355 27.3789 15.9388 27.4241 15.9388C27.8654 15.9388 28.2513 15.6173 28.3205 15.1676C28.3959 14.6721 28.0558 14.2086 27.5603 14.1328C25.83 13.8688 24.5247 12.3461 24.5247 10.5918C24.5247 8.61579 26.1322 7.00787 28.1079 7.00787Z" fill="#444444"/>
<path d="M29.459 20.1909C29.459 19.6895 29.0519 19.2832 28.5512 19.2832C28.0498 19.2832 27.6428 19.6895 27.6428 20.1909C27.6428 23.0168 26.1863 25.6162 23.8494 27.1058C23.8363 27.1127 23.8247 27.1214 23.8116 27.1287C23.4831 27.3352 23.1376 27.522 22.776 27.6822C22.318 27.8864 22.1112 28.4235 22.3147 28.8816C22.4658 29.2195 22.7975 29.4201 23.1456 29.4201C23.2683 29.4201 23.3939 29.3953 23.5134 29.3418C23.7803 29.2238 24.0373 29.0906 24.2893 28.9518C26.0683 29.9739 27.4997 31.5378 28.343 33.4122C28.4944 33.7486 28.8254 33.9482 29.172 33.9482C29.2962 33.9482 29.4233 33.9223 29.5438 33.8677C30.0011 33.6624 30.205 33.1242 29.9997 32.6676C29.1167 30.7047 27.6879 29.0319 25.9165 27.83C28.1252 25.9563 29.459 23.1777 29.459 20.1909Z" fill="#444444"/>
<path d="M9.50266 33.4643C9.63265 33.5298 9.77101 33.56 9.90756 33.56C10.2411 33.56 10.5622 33.3758 10.7206 33.0576C11.5748 31.3455 12.9435 29.908 14.5988 28.954C15.3201 29.3527 16.0989 29.6669 16.9244 29.8818C17.0005 29.9022 17.0777 29.9116 17.1534 29.9116C17.5568 29.9116 17.9257 29.6404 18.032 29.2307C18.1576 28.7457 17.8663 28.2505 17.381 28.1238C13.7726 27.1862 11.2526 23.9245 11.2526 20.1913C11.2526 15.673 14.9283 11.9969 19.4309 11.9966L21.1331 12.0279C21.1386 12.0282 21.1444 12.0282 21.1503 12.0282C21.644 12.0282 22.0493 11.6328 22.058 11.1373C22.0667 10.6355 21.6677 10.2215 21.1666 10.2124L19.4477 10.1811C13.9274 10.1811 9.43603 14.6717 9.43603 20.1916C9.43603 23.2101 10.7905 25.9701 12.9814 27.8282C11.3396 28.942 9.98256 30.4687 9.09595 32.2467C8.87166 32.6949 9.05408 33.2396 9.50266 33.4643Z" fill="#444444"/>
<path d="M17.1474 21.0629C17.7158 21.5086 18.8019 22.0315 20.0873 22.0315C20.975 22.0315 21.9562 21.7824 22.9273 21.0863C23.3344 20.7935 23.428 20.2269 23.1356 19.8191C22.8429 19.4113 22.2763 19.3189 21.8689 19.6109C20.0567 20.9104 18.4484 19.7703 18.2656 19.6309C17.8709 19.3258 17.3025 19.3946 16.9945 19.7875C16.6839 20.1822 16.7527 20.752 17.1474 21.0629Z" fill="#444444"/>
<path d="M18.6165 16.4056C18.6165 15.8168 18.1384 15.338 17.55 15.338C16.9605 15.338 16.4806 15.8168 16.4806 16.4056C16.4806 16.9947 16.9605 17.4735 17.55 17.4735C18.1384 17.4735 18.6165 16.9947 18.6165 16.4056Z" fill="#444444"/>
<path d="M22.5577 15.338C21.9689 15.338 21.4897 15.8168 21.4897 16.4056C21.4897 16.9947 21.9686 17.4735 22.5577 17.4735C23.1461 17.4735 23.6249 16.9947 23.6249 16.4056C23.6245 15.8168 23.1461 15.338 22.5577 15.338Z" fill="#444444"/>
<path d="M32.7032 39.0072V37.059H34.6518C35.1491 37.059 35.5516 36.6564 35.5516 36.1591C35.5516 35.6618 35.1491 35.2593 34.6518 35.2593H32.7032V33.3114C32.7032 32.8141 32.3006 32.4111 31.8037 32.4111C31.3063 32.4111 30.9038 32.8141 30.9038 33.3114V35.2593H28.9566C28.4593 35.2593 28.0564 35.6618 28.0564 36.1591C28.0564 36.6564 28.4593 37.059 28.9566 37.059H30.9038V39.0072C30.9038 39.5046 31.3063 39.9075 31.8037 39.9075C32.3006 39.9075 32.7032 39.5046 32.7032 39.0072Z" fill="#444444"/>
<rect width="40" height="40" fill="#C4C4C4" fill-opacity="0.01"/>
</svg>
