<svg width="40" height="40" viewBox="0 0 40 40" fill="none" xmlns="http://www.w3.org/2000/svg">
<rect width="40" height="40" fill="#C4C4C4" fill-opacity="0.01"/>
<path d="M37.8459 27.511C37.8392 27.5075 37.8335 27.5075 37.8277 27.5035C37.6219 27.3685 37.385 27.2848 37.1332 27.2693C30.0278 26.839 19.2063 20.3287 17.108 19.0268C16.8845 18.8887 16.6286 18.8147 16.3679 18.8147C15.6043 18.8147 14.977 19.4256 14.9385 20.2034C14.8123 22.7204 14.8168 29.8705 18.3573 34.9767C14.4104 36.7279 10.197 36.6969 7.00317 34.8673C6.72828 34.7093 6.39406 34.6938 6.10278 34.8244C5.25241 35.2108 4.33165 35.0878 3.75618 34.5119C3.18159 33.9359 3.05809 33.0156 3.44365 32.1653C3.57424 31.8753 3.55831 31.5406 3.40072 31.2649C0.643316 26.453 2.09306 19.5097 6.84824 14.7568C11.6025 10.0011 18.5454 8.55096 23.3554 11.3097C23.6339 11.4686 23.9672 11.4859 24.2563 11.3526C25.1075 10.9679 26.0292 11.0897 26.6033 11.6651C27.1784 12.2406 27.301 13.1627 26.9163 14.0118C26.7848 14.3017 26.8008 14.6372 26.9584 14.913C28.0832 16.8758 28.5453 19.2393 28.293 21.747C28.2386 22.291 28.6356 22.7766 29.1797 22.832C29.7096 22.8776 30.2084 22.4902 30.2629 21.9449C30.5382 19.1981 30.069 16.5823 28.9061 14.3486C29.2434 13.307 29.1695 12.2269 28.7312 11.3106C28.8255 11.2455 28.9123 11.1751 29.0004 11.1056C30.3249 17.0857 34.567 19.2915 38.3762 19.2915C38.7662 19.2915 38.9946 19.2645 38.9946 19.2645C39.5063 19.2052 39.8928 18.7616 39.8759 18.2463C39.5749 9.58991 33.7671 8.15388 31.0624 7.95778C31.293 7.20479 31.3408 6.64039 31.3457 6.58107C31.3846 6.03791 30.9787 5.56647 30.4351 5.52353C29.9083 5.48413 29.4156 5.88785 29.3714 6.431C29.3621 6.53282 29.1527 8.7506 27.4187 9.79885C26.4196 9.13528 25.1443 8.96751 23.9212 9.3637C18.3006 6.42569 10.7761 8.02949 5.44896 13.357C0.119636 18.6841 -1.48283 26.2073 1.4534 31.8302C0.976205 33.3042 1.30732 34.8625 2.35645 35.9125C3.40603 36.9612 4.96334 37.2901 6.43921 36.8142C8.2732 37.769 10.3546 38.2462 12.522 38.2462C14.8597 38.2462 17.2948 37.6911 19.6206 36.5805C19.6313 36.5747 19.637 36.5659 19.6467 36.5605C20.413 37.3675 21.3254 38.0453 22.3227 38.6902C23.3271 39.3392 25.3373 40.0001 27.9163 40.0001C33.1451 40.0001 37.1956 37.1041 38.8658 35.6836C39.5714 35.0833 39.984 34.1865 39.9986 33.2232C40.061 29.1033 38.0721 27.6624 37.8459 27.511ZM37.8277 17.2928C35.6568 17.1459 31.7494 16.0104 30.772 9.92102C33.0256 10.0352 37.2053 11.0976 37.8277 17.2928ZM19.9495 22.9785C21.0398 23.5805 22.2634 24.2277 23.5746 24.8727L20.2948 26.7868C20.0443 25.33 19.9655 23.971 19.9495 22.9785ZM24.4621 26.6478L23.158 33.2874C21.9841 32.0794 21.232 30.4645 20.7556 28.8107L24.4621 26.6478ZM26.3377 27.3654L29.8844 32.7722C28.3138 34.2294 26.5228 35.248 24.9207 34.5747L26.3377 27.3654ZM31.2886 31.3038L28.5099 27.0688C30.1164 27.6991 31.7414 28.245 33.3156 28.6354C32.826 29.3609 32.1199 30.3401 31.2886 31.3038ZM16.8858 21.2118C17.2045 21.4044 17.5777 21.6253 17.9726 21.855C17.8947 24.2866 18.0279 32.9306 23.6171 36.1387C24.3966 36.5871 25.1846 36.7814 25.9619 36.7814C30.2208 36.7801 34.2155 30.9669 35.412 29.059C35.6803 29.0998 35.9508 29.1462 36.2133 29.1763C34.7051 31.8567 30.83 37.8239 26.2479 37.8239C25.2669 37.8239 24.2828 37.5402 23.3192 36.9793C17.3528 33.5035 16.8194 24.9187 16.8858 21.2118ZM37.5838 34.1759C36.6325 34.9842 34.8109 36.3273 32.4245 37.1936C34.7259 35.2387 36.5285 32.58 37.6599 30.6345C37.8746 31.2476 38.0366 32.0816 38.0198 33.1931C38.0141 33.5814 37.8498 33.9483 37.5838 34.1759Z" fill="#444444"/>
<path d="M8.43585 16.3454C8.05028 16.7319 8.05028 17.3587 8.43673 17.7451C8.63018 17.9372 8.8825 18.0342 9.13571 18.0342C9.38981 18.0342 9.64301 17.9372 9.83646 17.7442C12.2866 15.2936 15.5575 13.8297 18.5863 13.8297C19.133 13.8297 19.5761 13.387 19.5761 12.8399C19.5761 12.2941 19.1334 11.851 18.5863 11.851C14.9923 11.8514 11.2915 13.4888 8.43585 16.3454Z" fill="#444444"/>
<path d="M5.9177 19.1649C5.58835 19.4588 5.30769 19.8333 5.12753 20.2211C4.89822 20.7169 5.11513 21.3057 5.6096 21.5358C5.74461 21.5974 5.88627 21.627 6.02482 21.627C6.39888 21.627 6.75656 21.4141 6.92433 21.0524C6.99117 20.9081 7.10405 20.759 7.23376 20.643C7.64279 20.2795 7.67864 19.6541 7.31432 19.2459C6.95133 18.836 6.32495 18.8024 5.9177 19.1649Z" fill="#444444"/>
</svg>
