<svg width="40" height="40" viewBox="0 0 40 40" fill="none" xmlns="http://www.w3.org/2000/svg">
<rect width="40" height="40" fill="#C4C4C4" fill-opacity="0.01"/>
<path d="M0 24.4684C0 28.3892 1.7621 31.9737 4.60965 34.3832C3.04834 35.3161 1.54961 36.4983 0.397531 38.2681C0.0598772 38.7862 0.206644 39.4809 0.72573 39.8186C0.914366 39.9406 1.12596 40 1.33576 40C1.70222 40 2.06059 39.8204 2.27579 39.4899C3.34952 37.8413 4.81179 36.7936 6.65223 35.8086C7.60081 36.3376 8.62728 36.7563 9.71587 37.039C9.81087 37.0633 9.90451 37.075 9.9986 37.075C10.4965 37.075 10.9517 36.7405 11.0831 36.2354C11.2385 35.6371 10.8788 35.0252 10.2795 34.869C5.54697 33.6409 2.24202 29.3639 2.24202 24.4684C2.24202 18.5423 7.06326 13.7211 12.9902 13.7211C18.9172 13.7211 23.7384 18.5423 23.7384 24.4684C23.7384 28.1695 21.8309 31.5771 18.7677 33.5337C18.7429 33.5459 18.7204 33.563 18.6966 33.5778C18.2707 33.8453 17.8236 34.0857 17.3559 34.2946C16.7904 34.5462 16.5369 35.2085 16.7886 35.7739C17.0416 36.3403 17.7034 36.5929 18.268 36.3421C18.6223 36.1845 18.9613 36.0085 19.294 35.8226C20.9093 36.7459 22.332 38.0033 23.4116 39.525C23.6304 39.8334 23.9752 39.9977 24.3264 39.9977C24.5506 39.9977 24.777 39.9302 24.9738 39.7907C25.4789 39.4332 25.5973 38.7322 25.2403 38.228C24.7635 37.5563 24.2287 36.9301 23.6502 36.3466C24.3291 35.0946 25.3461 34.0366 26.5679 33.3127C27.1519 33.626 27.7722 33.8799 28.425 34.0487C28.5038 34.0699 28.5826 34.0785 28.66 34.0785C29.0751 34.0785 29.4538 33.7993 29.5632 33.3793C29.6924 32.88 29.3934 32.3704 28.8937 32.2407C27.2757 31.8211 25.8895 30.796 25.0017 29.3905C25.632 27.8544 25.9804 26.19 25.9804 24.4688C25.9804 23.4635 25.8539 22.4893 25.6374 21.5506C26.8759 20.1514 28.6663 19.3275 30.5509 19.3275C34.1674 19.3275 37.1104 22.2705 37.1104 25.8897C37.1104 28.4811 35.5815 30.8356 33.2139 31.8887C32.7425 32.0971 32.53 32.65 32.7398 33.1204C32.8942 33.4689 33.2364 33.676 33.5938 33.676C33.7199 33.676 33.8496 33.649 33.9725 33.5945C34.1656 33.5089 34.3533 33.4158 34.5384 33.3172C35.9246 34.1392 37.0411 35.3755 37.7051 36.8526C37.86 37.1997 38.2008 37.405 38.5573 37.405C38.6848 37.405 38.8153 37.3785 38.9396 37.3217C39.4105 37.1101 39.6198 36.5573 39.4082 36.0868C38.6996 34.5107 37.5732 33.156 36.1776 32.1588C37.9271 30.5858 38.9787 28.3199 38.9787 25.8892C38.9787 21.2404 35.1984 17.4587 30.5509 17.4587C28.4975 17.4587 26.527 18.2204 25.0062 19.5476C23.0617 14.8191 18.4111 11.4791 12.9902 11.4791C5.827 11.4795 0 17.307 0 24.4684ZM24.9251 32.1556C23.8384 32.9313 22.9109 33.9281 22.2217 35.0734C21.9308 34.847 21.635 34.6282 21.3285 34.4233C22.4071 33.518 23.3238 32.4465 24.0535 31.2584C24.3205 31.5807 24.615 31.8765 24.9251 32.1556Z" fill="#444444"/>
<path d="M25.3113 16.5317C25.4937 16.7861 25.78 16.9211 26.0713 16.9211C26.2599 16.9211 26.4513 16.864 26.6151 16.746L28.3408 15.5066C29.1151 15.6754 29.9205 15.761 30.7408 15.761C35.626 15.761 39.5999 12.6735 39.5999 8.88003C39.5999 5.0866 35.626 2 30.7408 2C25.8561 2 21.8817 5.0866 21.8817 8.88003C21.8817 10.3887 22.4899 11.8163 23.6393 13.0075C23.9972 13.3776 24.5874 13.3897 24.9606 13.0309C25.3316 12.6735 25.342 12.0814 24.9845 11.7105C24.1768 10.874 23.75 9.89524 23.75 8.88003C23.75 6.11667 26.8862 3.8679 30.7408 3.8679C34.5959 3.8679 37.7316 6.11667 37.7316 8.88003C37.7316 11.6438 34.5959 13.8931 30.7408 13.8931C29.9259 13.8931 29.1313 13.7927 28.3799 13.5955L27.9545 13.4843L25.5252 15.2284C25.1061 15.5291 25.0106 16.113 25.3113 16.5317Z" fill="#444444"/>
<path d="M28.3763 8.87956C28.3763 8.26053 27.8739 7.75855 27.2553 7.75855H27.222C26.6034 7.75855 26.1181 8.26008 26.1181 8.87956C26.1181 9.49905 26.6372 10.0006 27.2553 10.0006C27.8739 10.001 28.3763 9.49905 28.3763 8.87956Z" fill="#444444"/>
<path d="M31.9682 8.87956C31.9682 8.26053 31.4662 7.75855 30.8472 7.75855H30.7769C30.1575 7.75855 29.6906 8.26008 29.6906 8.87956C29.6906 9.49905 30.2286 10.0006 30.8472 10.0006C31.4662 10.001 31.9682 9.49905 31.9682 8.87956Z" fill="#444444"/>
<path d="M35.5223 8.87956C35.5223 8.26053 35.0212 7.75855 34.4017 7.75855H34.368C33.7494 7.75855 33.2645 8.26008 33.2645 8.87956C33.2645 9.49905 33.7831 10.0006 34.4017 10.0006C35.0212 10.001 35.5223 9.49905 35.5223 8.87956Z" fill="#444444"/>
<path d="M30.5806 29.0861C31.3441 29.0861 32.1887 28.8714 33.0234 28.2717C33.4425 27.9701 33.538 27.3866 33.2372 26.9679C32.9352 26.5479 32.3512 26.4524 31.9335 26.754C30.5608 27.7418 29.3326 26.881 29.1908 26.7743C28.7861 26.4605 28.2017 26.5316 27.8848 26.9346C27.5656 27.3407 27.6353 27.9277 28.0419 28.246C28.5317 28.6328 29.4713 29.0861 30.5806 29.0861Z" fill="#444444"/>
<path d="M29.5519 24.2676C29.5519 23.6791 29.0738 23.2006 28.4867 23.2006C27.9001 23.2006 27.4234 23.6791 27.4234 24.2676C27.4234 24.8551 27.9006 25.3318 28.4867 25.3318C29.0743 25.3318 29.5519 24.8551 29.5519 24.2676Z" fill="#444444"/>
<path d="M33.6781 24.2676C33.6781 23.6791 33.2 23.2006 32.6134 23.2006C32.0236 23.2006 31.5442 23.6791 31.5442 24.2676C31.5442 24.8551 32.0236 25.3318 32.6134 25.3318C33.2005 25.3318 33.6781 24.8551 33.6781 24.2676Z" fill="#444444"/>
</svg>
