<svg width="40" height="40" viewBox="0 0 40 40" fill="none" xmlns="http://www.w3.org/2000/svg">
<path d="M7.61941 38.6831C7.77996 38.7631 7.95007 38.801 8.11888 38.801C8.53002 38.801 8.92637 38.5739 9.12171 38.181C10.175 36.0696 11.8635 34.2967 13.9053 33.1202C14.795 33.6114 15.7557 33.9995 16.7742 34.2641C16.869 34.2884 16.9639 34.3002 17.0565 34.3002C17.5543 34.3002 18.0089 33.9647 18.1403 33.4609C18.2952 32.8618 17.9362 32.251 17.3367 32.0952C12.8868 30.9392 9.77736 26.9161 9.77736 22.3109C9.77736 17.9911 12.4565 14.2291 16.4862 12.7972C17.3128 13.492 18.2216 14.1956 19.2458 14.9286C19.5356 15.1344 19.8171 15.1775 20.0007 15.1775C20.4231 15.1766 20.7063 14.963 20.7942 14.896C21.7614 14.2086 22.6402 13.5308 23.449 12.8542C27.3868 14.3313 29.9942 18.052 29.9942 22.3114C29.9942 25.7971 28.1961 29.0036 25.3124 30.8405C25.2989 30.8492 25.2868 30.8579 25.272 30.8666C24.8643 31.1237 24.4366 31.353 23.9898 31.5518C23.4242 31.8037 23.1701 32.465 23.4203 33.0306C23.6061 33.4474 24.0155 33.6954 24.4449 33.6954C24.5976 33.6954 24.7512 33.6645 24.9 33.5988C25.2285 33.4526 25.5448 33.2886 25.8567 33.1168C28.0512 34.3772 29.8176 36.3063 30.8574 38.6195C31.0445 39.035 31.4526 39.2813 31.8803 39.2813C32.0343 39.2813 32.1905 39.2495 32.3397 39.1816C32.9035 38.9284 33.1546 38.265 32.9014 37.7011C31.8133 35.2799 30.0499 33.2151 27.865 31.7337C30.5894 29.4226 32.2348 25.996 32.2348 22.3114C32.2348 17.4903 29.5013 13.2323 25.2737 11.1979C25.4173 11.0587 25.5683 10.9199 25.7062 10.7798C26.4384 10.0341 27.3629 9.01952 28.022 7.77522C28.3201 7.21441 28.6612 6.45521 28.639 5.56027C28.5981 3.73646 27.8728 2.23111 26.4845 1.08427C25.6418 0.387719 24.5624 0.00398674 23.4447 0.00398674C22.1543 0.00398674 20.9043 0.51911 20.0146 1.41797C20.0102 1.42232 20.0054 1.4271 20.0011 1.43058C18.9073 0.321153 17.3102 -0.209198 15.7344 0.0762084C14.2734 0.342472 13.0782 1.1765 12.2786 2.48954C11.1426 4.35382 11.0569 6.16241 12.0197 7.86136C12.5013 8.71453 13.1244 9.54117 13.9232 10.3891C14.1572 10.638 14.4017 10.8842 14.651 11.1305C10.3369 13.1349 7.53849 17.4316 7.53849 22.3114C7.53849 26.0351 9.20873 29.4404 11.9101 31.7311C9.88657 33.1046 8.21198 34.988 7.11821 37.1799C6.84194 37.7337 7.06644 38.4059 7.61941 38.6831ZM13.9701 6.75933C13.4132 5.77781 13.4811 4.82065 14.1916 3.65466C14.6619 2.88154 15.2975 2.43212 16.1333 2.27984C16.2899 2.25156 16.4487 2.23764 16.6045 2.23764C17.5677 2.23764 18.4227 2.77365 18.8886 3.66424L19.0122 3.90004C19.2062 4.26724 19.5878 4.49609 20.0015 4.49609C20.008 4.49609 20.0133 4.49609 20.0189 4.49609C20.4405 4.48956 20.8212 4.2481 21.007 3.87002C21.1867 3.50543 21.3781 3.22655 21.6078 2.99336C22.4845 2.10886 24.1003 2.01967 25.0579 2.81193C25.9359 3.53545 26.374 4.45171 26.4001 5.61292C26.4075 5.91007 26.3013 6.24203 26.0451 6.72409C25.5239 7.70865 24.7738 8.53354 24.1099 9.20964C23.6574 9.67082 20.8321 12.0972 20.0015 12.708C18.1829 11.3711 16.7602 10.1355 15.5551 8.85332C14.879 8.13763 14.3613 7.45413 13.9701 6.75933Z" fill="#444444"/>
<path d="M17.7957 28.6125C18.4966 29.1638 19.8371 29.8085 21.4229 29.8085C22.5167 29.8085 23.7279 29.5005 24.9257 28.6417C25.4286 28.2806 25.5426 27.581 25.1823 27.078C24.8225 26.576 24.1216 26.4607 23.6196 26.8213C21.3824 28.4254 19.3994 27.0171 19.174 26.847C18.6894 26.4685 17.9885 26.5551 17.6069 27.0393C17.2253 27.5262 17.3102 28.231 17.7957 28.6125Z" fill="#444444"/>
<path d="M19.6082 22.8691C19.6082 22.1421 19.0178 21.5521 18.2908 21.5521C17.5651 21.5521 16.9747 22.1421 16.9747 22.8691C16.9747 23.5952 17.5651 24.1861 18.2908 24.1861C19.0178 24.1865 19.6082 23.5952 19.6082 22.8691Z" fill="#444444"/>
<path d="M25.7845 22.8691C25.7845 22.1421 25.195 21.5521 24.4693 21.5521C23.7427 21.5521 23.1523 22.1421 23.1523 22.8691C23.1523 23.5952 23.7427 24.1861 24.4693 24.1861C25.195 24.1865 25.7845 23.5952 25.7845 22.8691Z" fill="#444444"/>
<rect width="40" height="40" fill="#C4C4C4" fill-opacity="0.01"/>
</svg>
