<svg width="40" height="40" viewBox="0 0 40 40" fill="none" xmlns="http://www.w3.org/2000/svg">
<rect width="40" height="40" fill="#C4C4C4" fill-opacity="0.01"/>
<path d="M27.1426 26.127C28.0172 26.127 28.9868 25.8805 29.945 25.1935C30.3583 24.8968 30.4521 24.3211 30.1559 23.9087C29.8588 23.495 29.2835 23.4003 28.8706 23.6974C27.1087 24.962 25.5493 23.8532 25.3724 23.7181C24.9709 23.4078 24.3961 23.4791 24.0832 23.8766C23.7685 24.2767 23.8376 24.855 24.2381 25.1697C24.7997 25.6103 25.8724 26.127 27.1426 26.127Z" fill="#444444"/>
<path d="M25.7284 20.5785C25.7284 19.9839 25.2447 19.4997 24.6505 19.4997C24.0563 19.4997 23.5739 19.9839 23.5739 20.5785C23.5739 21.1718 24.0567 21.6551 24.6505 21.6551C25.2447 21.6547 25.7284 21.1718 25.7284 20.5785Z" fill="#444444"/>
<path d="M30.6426 20.5785C30.6426 19.9839 30.1597 19.4997 29.566 19.4997C28.9704 19.4997 28.4872 19.9839 28.4872 20.5785C28.4872 21.1718 28.9709 21.6551 29.566 21.6551C30.1597 21.6547 30.6426 21.1718 30.6426 20.5785Z" fill="#444444"/>
<path d="M0.920786 29.7037H11.4715C11.9803 29.7037 12.3923 29.2917 12.3923 28.7829C12.3923 28.2741 11.9803 27.8616 11.4715 27.8616H1.84201V5.84201H31.051V13.2545C30.5158 13.1643 29.97 13.1071 29.4088 13.1071C23.9765 13.1071 19.5561 17.5266 19.5561 22.9597C19.5561 24.6812 20.006 26.3181 20.8 27.7468H18.6376C18.1296 27.7468 17.7168 28.1592 17.7168 28.668C17.7168 29.1772 18.1296 29.5892 18.6376 29.5892H22.1173C22.3933 29.892 22.6922 30.172 23.0034 30.44C21.8136 31.2208 20.8981 32.0501 20.5526 32.3793C19.9818 32.0725 19.3308 31.8969 18.638 31.8969C18.1485 31.8969 17.6802 31.9893 17.2449 32.1496L13.6846 24.506C13.4698 24.0456 12.9205 23.8466 12.4614 24.0597C12.0001 24.2745 11.8008 24.822 12.0156 25.2837L15.6912 33.1764C15.0085 33.9022 14.5869 34.8754 14.5869 35.9476C14.5869 38.1826 16.4047 40 18.6376 40C20.8717 40 22.6904 38.1826 22.6904 35.9476C22.6904 35.0756 22.4096 34.2675 21.9378 33.606C22.3779 33.1967 23.4123 32.2988 24.6495 31.5901C25.3555 31.9801 26.117 32.2873 26.9255 32.4973C27.003 32.5166 27.0813 32.5263 27.1575 32.5263C27.5668 32.5263 27.9409 32.2512 28.0488 31.837C28.1764 31.3454 27.8885 30.8053 27.3881 30.7138C25.4902 30.3665 21.3167 27.2049 21.3977 22.9602C21.4831 18.5433 24.9915 14.9495 29.4084 14.9495C33.8252 14.9495 37.4181 18.5424 37.4181 22.9602C37.4181 26.1235 35.5515 28.9977 32.6602 30.2829C32.1963 30.4889 31.9867 31.0342 32.1923 31.4981C32.3996 31.9625 32.9427 32.1729 33.4084 31.966C33.6668 31.8516 33.9146 31.7239 34.1584 31.5901C35.8908 32.5897 37.2865 34.1157 38.1096 35.9458C38.2623 36.2869 38.5977 36.489 38.9499 36.489C39.0757 36.489 39.2038 36.463 39.3262 36.4071C39.7905 36.1985 39.997 35.6536 39.7888 35.1892C38.9252 33.271 37.5321 31.6333 35.805 30.4528C37.96 28.6095 39.2597 25.8858 39.2597 22.9606C39.2597 18.755 36.6074 15.1674 32.8921 13.7554V4.92079C32.8921 4.41198 32.4802 4 31.9709 4H0.920786C0.412857 4 0 4.41198 0 4.92079V28.7829C0 29.2921 0.412857 29.7037 0.920786 29.7037ZM18.6376 38.158C17.4197 38.158 16.4289 37.1672 16.4289 35.9476C16.4289 34.7297 17.4197 33.7389 18.6376 33.7389C19.8572 33.7389 20.8484 34.7297 20.8484 35.9476C20.8484 37.1672 19.8572 38.158 18.6376 38.158Z" fill="#444444"/>
<path d="M6.01432 23.2089C5.50507 23.2089 5.09353 23.6209 5.09353 24.1297C5.09353 24.6376 5.50551 25.0505 6.01432 25.0505H9.99852C10.5078 25.0505 10.9197 24.6376 10.9197 24.1297C10.9197 23.6204 10.5078 23.2089 9.99852 23.2089H6.01432Z" fill="#444444"/>
<path d="M14.5791 21.3136C14.5791 20.8057 14.1663 20.3928 13.6583 20.3928H6.01432C5.50507 20.3928 5.09353 20.8057 5.09353 21.3136C5.09353 21.8228 5.50551 22.2348 6.01432 22.2348H13.6579C14.1663 22.2348 14.5791 21.8228 14.5791 21.3136Z" fill="#444444"/>
</svg>
