<svg width="40" height="40" viewBox="0 0 40 40" fill="none" xmlns="http://www.w3.org/2000/svg">
<rect width="40" height="40" fill="#C4C4C4" fill-opacity="0.01"/>
<path fill-rule="evenodd" clip-rule="evenodd" d="M2.52315 33.7272C3.01303 24.7586 10.2859 17.5799 19.2923 17.2408V15.9219C18.4255 15.9219 17.0501 16.148 17.0501 14.9609C17.0501 14.4334 17.4835 14 18.011 14H22.3823C23.6447 14 23.6447 15.9219 22.3823 15.9219H21.2141V17.2785C29.9567 17.8814 36.9281 24.947 37.3991 33.7272C38.605 33.7272 40.037 33.3693 39.9993 35.5549C39.9804 37.4579 38.3789 39.5305 36.0425 39.6812H4.10585C1.84485 39.6812 -0.679936 37.7028 0.16794 34.4809C0.431723 33.52 1.41149 33.7272 2.52315 33.7272ZM4.445 33.7272C4.68994 29.827 6.36686 26.3036 8.96701 23.7035C18.4444 14.2261 34.6859 20.4439 35.4961 33.7272H4.445ZM36.0614 37.7594H4.10585C3.12608 37.7594 1.84485 36.9869 1.88253 35.6491H38.0963C38.0021 36.5723 37.0223 37.7594 36.0614 37.7594Z" fill="#444444"/>
<path d="M9.66407 27.3776C9.00461 28.4328 7.38423 27.4153 8.04368 26.3602C8.49589 25.6442 9.30608 24.5137 10.1728 25.2862C10.9453 26.0022 10.154 26.737 9.66407 27.3776Z" fill="#444444"/>
<path d="M12.0006 25.0789C11.0396 25.8891 9.81493 24.4195 10.7759 23.6093C13.376 21.4425 16.2211 20.3685 19.5938 20.3685C20.8562 20.3685 20.8562 22.2904 19.5938 22.2904C16.6733 22.2904 14.2616 23.1948 12.0006 25.0789Z" fill="#444444"/>
</svg>
