<svg width="40" height="40" viewBox="0 0 40 40" fill="none" xmlns="http://www.w3.org/2000/svg">
<rect width="40" height="40" fill="#C4C4C4" fill-opacity="0.01"/>
<path d="M7.61584 39.408C7.77496 39.4878 7.94422 39.5244 8.11083 39.5244C8.51987 39.5244 8.91216 39.2996 9.10654 38.9091C10.1499 36.8158 11.8248 35.0567 13.8528 33.8877C14.7344 34.3757 15.6882 34.7605 16.6985 35.0227C16.7915 35.0479 16.8858 35.0593 16.9788 35.0593C17.4729 35.0593 17.9234 34.7274 18.0534 34.2263C18.2081 33.6321 17.8507 33.0251 17.2574 32.8713C12.8408 31.7235 9.75625 27.7314 9.75625 23.1628C9.75625 17.6319 14.2553 13.132 19.7861 13.132C25.3179 13.132 29.8191 17.6315 29.8191 23.1628C29.8191 26.6211 28.0353 29.8022 25.1737 31.6257C25.1583 31.6341 25.1438 31.6446 25.1279 31.6535C24.7259 31.9069 24.3032 32.1348 23.8602 32.3314C23.2996 32.5804 23.0465 33.238 23.2965 33.7987C23.5451 34.3589 24.2018 34.6128 24.7634 34.3625C25.09 34.2174 25.4047 34.0552 25.7128 33.8847C27.8898 35.1351 29.6432 37.049 30.6746 39.3432C30.8602 39.7562 31.2648 40 31.6893 40C31.8414 40 31.9961 39.9683 32.1442 39.9017C32.7031 39.65 32.9539 38.9924 32.7022 38.4326C31.6227 36.0299 29.8742 33.9821 27.7051 32.5116C30.4088 30.2183 32.0415 26.8168 32.0415 23.1619C32.0415 16.4052 26.5445 10.9087 19.7861 10.9087C13.0303 10.9087 7.53297 16.4052 7.53297 23.1619C7.53297 26.8565 9.19117 30.235 11.8729 32.5086C9.86203 33.8728 8.20163 35.7412 7.11688 37.9169C6.84316 38.4661 7.06663 39.1339 7.61584 39.408Z" fill="#444444"/>
<path d="M14.7114 26.3267C15.407 26.8723 16.7364 27.5124 18.3095 27.5124C19.3951 27.5124 20.5962 27.2078 21.7846 26.3558C22.2831 25.9974 22.3977 25.3027 22.0398 24.8042C21.6814 24.3057 20.9877 24.1915 20.4878 24.5495C18.2681 26.1424 16.3009 24.7412 16.0792 24.5737C15.5961 24.1995 14.9014 24.285 14.5246 24.7654C14.1455 25.249 14.2283 25.9476 14.7114 26.3267Z" fill="#444444"/>
<path d="M16.5093 20.6274C16.5093 19.9068 15.9231 19.3196 15.2024 19.3196C14.4818 19.3196 13.8955 19.9068 13.8955 20.6274C13.8955 21.3485 14.4818 21.9348 15.2024 21.9348C15.9235 21.9348 16.5093 21.3485 16.5093 20.6274Z" fill="#444444"/>
<path d="M22.6397 20.6274C22.6397 19.9068 22.0539 19.3196 21.3328 19.3196C20.6112 19.3196 20.0241 19.9068 20.0241 20.6274C20.0241 21.3485 20.6112 21.9348 21.3328 21.9348C22.0539 21.9348 22.6397 21.3485 22.6397 20.6274Z" fill="#444444"/>
<path d="M12.9792 7.03608C13.1674 7.44072 13.5689 7.67918 13.9881 7.67918C14.1455 7.67918 14.3046 7.64568 14.4558 7.57515C15.0129 7.31686 15.2536 6.65569 14.9957 6.09899L13.5566 3.0043C13.2978 2.4476 12.634 2.20649 12.0804 2.46479C11.5233 2.72352 11.2826 3.38425 11.5405 3.94139L12.9792 7.03608Z" fill="#444444"/>
<path d="M14.0856 9.25628C14.0856 9.54542 14.2041 9.83413 14.4122 10.0417C14.6194 10.2493 14.9085 10.3679 15.1972 10.3679C15.4859 10.3679 15.7755 10.2489 15.9831 10.0417C16.1894 9.83413 16.3088 9.54542 16.3088 9.25628C16.3088 8.96007 16.1894 8.67842 15.9831 8.47081C15.567 8.05604 14.8261 8.05604 14.4122 8.47081C14.2041 8.67886 14.0856 8.96007 14.0856 9.25628Z" fill="#444444"/>
<path d="M19.4058 8.14508C19.1986 8.35224 19.08 8.64139 19.08 8.93054C19.08 9.21969 19.1986 9.5084 19.4058 9.71601C19.6129 9.92361 19.8941 10.0417 20.1912 10.0417C20.4804 10.0417 20.77 9.92317 20.9763 9.71601C21.1843 9.5084 21.3024 9.21969 21.3024 8.93054C21.3024 8.64139 21.1839 8.35224 20.9763 8.14508C20.5619 7.72987 19.8135 7.72987 19.4058 8.14508Z" fill="#444444"/>
<path d="M19.4996 4.14238C20.1083 4.06393 20.5381 3.50678 20.4592 2.89807C20.4213 2.59878 20.4702 2.40176 20.606 2.31228C20.788 2.19107 21.1627 2.17564 21.4677 2.35724C21.7339 2.51416 21.8498 2.76143 21.8216 3.11185C21.7886 3.52177 21.5801 3.69588 20.9471 4.12784C20.3856 4.51087 19.6865 4.98735 19.3374 5.88125C19.1139 6.45293 19.396 7.09779 19.9677 7.32082C20.1004 7.37328 20.2384 7.39752 20.3719 7.39752C20.8167 7.39752 21.2367 7.12909 21.4077 6.69051C21.5016 6.44897 21.7701 6.25723 22.1989 5.96411C22.883 5.49821 23.9166 4.79385 24.0374 3.28992C24.1331 2.0963 23.5958 1.03226 22.6009 0.443828C21.592 -0.152102 20.2996 -0.147694 19.3833 0.455729C18.5167 1.02653 18.1059 2.02004 18.2553 3.18193C18.3329 3.79064 18.894 4.21996 19.4996 4.14238Z" fill="#444444"/>
<path d="M25.8666 8.29671C26.0645 8.44216 26.2946 8.51225 26.5229 8.51225C26.865 8.51225 27.2022 8.35533 27.4195 8.05869L29.5903 5.10196C29.9539 4.60696 29.8473 3.91142 29.3527 3.54822C28.8586 3.1859 28.1626 3.29125 27.7999 3.78624L25.6286 6.74297C25.265 7.2384 25.3721 7.93351 25.8666 8.29671Z" fill="#444444"/>
</svg>
