<svg width="40" height="40" viewBox="0 0 40 40" fill="none" xmlns="http://www.w3.org/2000/svg">
<rect width="40" height="40" fill="#C4C4C4" fill-opacity="0.01"/>
<path d="M19.9559 40C20.2911 40 20.6087 39.8532 20.8263 39.5984C21.4012 38.9209 34.9131 22.9146 34.9131 14.9572C34.9131 6.70971 28.2034 0 19.9563 0C11.7093 0 5 6.70971 5 14.9572C5 22.9146 18.5114 38.9209 19.0868 39.5984C19.3035 39.8532 19.6211 40 19.9559 40ZM19.9559 2.28036C26.9464 2.28036 32.6327 7.9671 32.6327 14.9572C32.6327 20.4582 24.1685 31.9329 19.9559 37.0783C15.7432 31.9338 7.27991 20.4617 7.27991 14.9572C7.27991 7.9671 12.9662 2.28036 19.9559 2.28036Z" fill="#444444"/>
<path d="M30.1799 14.8161C30.1799 9.17803 25.5962 4.59034 19.9617 4.59034C14.3227 4.59034 9.73413 9.17803 9.73413 14.8161C9.73413 20.4533 14.3227 25.0384 19.9617 25.0384C25.5962 25.0384 30.1799 20.4533 30.1799 14.8161ZM12.0149 14.8161C12.0149 10.4354 15.5805 6.87114 19.9617 6.87114C24.3384 6.87114 27.8991 10.4354 27.8991 14.8161C27.8991 19.1951 24.3384 22.758 19.9617 22.758C15.5801 22.758 12.0149 19.1951 12.0149 14.8161Z" fill="#444444"/>
<path d="M23.1278 18.0951C23.64 17.7285 23.7576 17.016 23.3905 16.5043C23.0234 15.9917 22.3114 15.8749 21.7988 16.2425C19.9651 17.5573 18.3331 16.4079 18.1469 16.2668C17.6503 15.8842 16.9404 15.9713 16.5517 16.464C16.1629 16.9598 16.2492 17.6759 16.7441 18.0659C17.3721 18.5586 18.5746 19.1385 19.9956 19.1385C20.9753 19.138 22.058 18.8634 23.1278 18.0951Z" fill="#444444"/>
<path d="M17.2784 14.2624C18.0027 14.2624 18.5898 13.6753 18.5898 12.9511C18.5898 12.2268 18.0027 11.6397 17.2784 11.6397C16.5542 11.6397 15.9671 12.2268 15.9671 12.9511C15.9671 13.6753 16.5542 14.2624 17.2784 14.2624Z" fill="#444444"/>
<path d="M22.6343 14.2624C23.3585 14.2624 23.9456 13.6753 23.9456 12.9511C23.9456 12.2268 23.3585 11.6397 22.6343 11.6397C21.91 11.6397 21.3229 12.2268 21.3229 12.9511C21.3229 13.6753 21.91 14.2624 22.6343 14.2624Z" fill="#444444"/>
</svg>
