<svg width="40" height="40" viewBox="0 0 40 40" fill="none" xmlns="http://www.w3.org/2000/svg">
<rect width="40" height="40" fill="#C4C4C4" fill-opacity="0.01"/>
<path d="M19.3064 29.9555C20.4956 29.9555 21.8123 29.6207 23.1145 28.6859C23.558 28.3678 23.6588 27.7501 23.3407 27.3066C23.023 26.8645 22.4054 26.762 21.9623 27.0796C19.2088 29.0567 16.7033 27.187 16.5924 27.1025C16.1644 26.7708 15.5463 26.8451 15.2093 27.2732C14.8718 27.7021 14.9471 28.3238 15.3756 28.6595C16.1353 29.2565 17.5871 29.9555 19.3064 29.9555Z" fill="#444444"/>
<path d="M16.9747 22.374C16.9747 21.7066 16.4323 21.1642 15.7645 21.1642C15.0966 21.1642 14.5542 21.7066 14.5542 22.374C14.5542 23.0427 15.0971 23.5856 15.7645 23.5856C16.4319 23.5856 16.9747 23.0427 16.9747 22.374Z" fill="#444444"/>
<path d="M23.9742 22.374C23.9742 21.7066 23.4309 21.1642 22.7622 21.1642C22.0934 21.1642 21.5506 21.7066 21.5506 22.374C21.5506 23.0427 22.0934 23.5856 22.7622 23.5856C23.4309 23.5856 23.9742 23.0427 23.9742 22.374Z" fill="#444444"/>
<path d="M33 24.4255C33 20.1585 30.9811 16.1608 27.5777 13.6153V12.2673C29.7497 11.5814 31.301 9.53878 31.301 7.19918C31.301 4.26918 28.9165 1.88558 25.986 1.88558C25.3701 1.88558 24.7626 2.00129 24.1876 2.20762C23.0706 0.860083 21.3843 0 19.5004 0C17.6171 0 15.9303 0.860083 14.8124 2.20762C14.2374 2.00129 13.6299 1.88558 13.014 1.88558C10.0835 1.88558 7.69993 4.26874 7.69993 7.19918C7.69993 9.65273 9.3739 11.7178 11.6378 12.3267V13.4586C8.10335 15.9953 6 20.0701 6 24.4255C6 28.5891 7.90714 32.3919 10.981 34.8969C9.64666 35.6492 7.80287 36.8309 6.49141 38.2405C6.1201 38.6395 6.14254 39.2651 6.54157 39.6368C6.73294 39.8146 6.97403 39.9017 7.21555 39.9017C7.47996 39.9017 7.74436 39.7961 7.93882 39.5871C9.16889 38.2642 11.1799 36.9928 12.8147 36.1534C13.8287 36.731 14.9268 37.1886 16.0979 37.4926C16.1807 37.5137 16.2638 37.5242 16.3461 37.5242C16.7856 37.5242 17.1859 37.2299 17.3021 36.7843C17.4393 36.2555 17.1217 35.7165 16.5933 35.5797C15.4235 35.2766 14.3399 34.7918 13.3571 34.1719C13.3562 34.1719 13.3549 34.171 13.3536 34.1701C10.0774 32.1024 7.97577 28.4632 7.97577 24.4255C7.97577 21.1391 9.37962 18.038 11.7883 15.8669C11.871 16.0015 11.9832 16.1181 12.124 16.2008C12.314 16.3117 15.3694 18.0657 19.6703 18.0648C21.8757 18.0648 24.4075 17.6038 27.0476 16.2237C27.1624 16.1638 27.2553 16.078 27.3358 15.9826C29.6675 18.148 31.0242 21.1959 31.0242 24.425C31.0242 28.9731 28.338 33.1086 24.1805 34.9607C23.6825 35.1833 23.4586 35.7684 23.6799 36.2665C23.8448 36.6338 24.2052 36.8525 24.5835 36.8525C24.7181 36.8525 24.855 36.8247 24.9852 36.7667C25.3952 36.5837 25.7881 36.3764 26.173 36.1565C27.8791 37.0623 28.9658 37.8661 30.1127 39.4851C30.3054 39.7565 30.6098 39.9012 30.9195 39.9012C31.1171 39.9012 31.3172 39.8423 31.4906 39.7191C31.9358 39.4032 32.0405 38.786 31.7251 38.3408C30.5777 36.7227 29.4704 35.7816 27.9944 34.9092C31.1074 32.3805 33 28.5517 33 24.4255ZM25.602 14.7371C20.0499 17.3666 15.1472 15.4815 13.6136 14.749V12.4714C14.4143 12.3808 15.1859 12.1186 15.8701 11.683C16.3302 11.3896 16.4657 10.7785 16.1727 10.3179C15.8789 9.85686 15.2673 9.7218 14.8076 10.0157C14.2726 10.3566 13.6519 10.5374 13.0135 10.5374C11.1724 10.5374 9.67482 9.03989 9.67482 7.19918C9.67482 5.35891 11.1724 3.86179 13.0135 3.86179C13.281 3.86179 13.5454 3.89743 13.8019 3.95946C13.5525 4.62421 13.4095 5.34043 13.4095 6.09097C13.4095 6.63694 13.8516 7.07952 14.3976 7.07952C14.9435 7.07952 15.3857 6.63694 15.3857 6.09097C15.3857 5.29688 15.6158 4.55734 16.0069 3.92822C16.0078 3.9269 16.0091 3.92602 16.01 3.92471C16.0108 3.92383 16.0108 3.92251 16.0108 3.92163C16.7381 2.75578 18.0288 1.97665 19.5009 1.97665C21.7692 1.97665 23.6152 3.8222 23.6152 6.09097C23.6152 7.32984 23.064 8.49084 22.1044 9.2757C21.6817 9.62105 21.6196 10.244 21.9654 10.6663C22.1603 10.9052 22.4445 11.0289 22.7309 11.0289C22.9509 11.0289 23.1722 10.9554 23.3556 10.8058C24.7771 9.64349 25.591 7.92464 25.591 6.09097C25.591 5.34043 25.4484 4.62377 25.1985 3.95946C25.4555 3.89611 25.7194 3.86179 25.9865 3.86179C27.8281 3.86179 29.3252 5.35935 29.3252 7.19918C29.3252 8.51768 28.5355 9.67692 27.3899 10.2145C27.2121 9.95584 26.9288 9.77459 26.591 9.77459C26.0454 9.77459 25.6028 10.2176 25.6028 10.7627V14.7371H25.602Z" fill="#444444"/>
</svg>
