<svg width="40" height="40" viewBox="0 0 40 40" fill="none" xmlns="http://www.w3.org/2000/svg">
<rect width="40" height="40" fill="#C4C4C4" fill-opacity="0.01"/>
<path d="M15.983 19.8698C15.983 20.5696 16.551 21.1385 17.2508 21.1385C17.9515 21.1385 18.5217 20.5696 18.5217 19.8698C18.5217 19.1692 17.9515 18.5994 17.2508 18.5994C16.551 18.599 15.983 19.1692 15.983 19.8698Z" fill="#444444"/>
<path d="M23.9021 19.8698C23.9021 19.1692 23.3328 18.5994 22.6339 18.5994C21.9328 18.5994 21.3617 19.1692 21.3617 19.8698C21.3617 20.5696 21.9328 21.1385 22.6339 21.1385C23.3328 21.1385 23.9021 20.5692 23.9021 19.8698Z" fill="#444444"/>
<path d="M2.12679 30.7798C4.50858 32.6455 9.77778 33.626 12.0563 33.6514C12.0708 33.6514 12.084 33.6514 12.0985 33.6514C14.2453 33.6514 16.3776 31.7498 16.5006 29.715C16.5392 29.086 16.4004 27.2326 13.7634 26.3822L10.362 20.9118C10.6678 20.8534 10.9537 20.8178 11.2151 20.8055C13.1778 23.667 16.4681 25.5497 20.1919 25.5497C20.7981 25.5497 21.2905 25.0586 21.2905 24.452C21.2905 23.8449 20.7981 23.3529 20.1919 23.3529C15.9453 23.3529 12.4086 20.2871 11.6606 16.2528C14.3995 17.0461 18.0846 17.6036 19.8057 17.6036C23.8507 17.6036 26.7741 16.9253 28.7306 16.2181C28.189 19.1674 26.1345 21.7065 23.2721 22.7919C22.705 23.0072 22.4204 23.6424 22.6347 24.2091C22.8021 24.6475 23.2194 24.9176 23.6613 24.9176C23.7914 24.9176 23.9231 24.8943 24.0514 24.8456C26.1639 24.0443 27.9272 22.6101 29.1585 20.8121C31.2829 20.9729 34.9562 22.6057 36.4625 24.1032C37.1763 24.8122 37.866 26.0453 37.7979 27.201C37.7544 27.9346 37.4157 28.5399 36.7616 29.0513C34.9065 30.5053 30.1381 31.4344 28.1587 31.4559C27.057 31.4669 25.9816 30.3946 25.9337 29.5837C25.8718 28.5698 27.842 28.2746 28.4464 28.2074C30.1311 28.022 31.2622 27.4264 32.5673 26.666C33.091 26.3602 33.2684 25.6877 32.9623 25.1632C32.6556 24.6391 31.9853 24.463 31.4608 24.7683C30.1473 25.5339 29.3659 25.8968 28.2061 26.0237C23.8845 26.4995 23.6969 28.9704 23.7417 29.7155C23.8652 31.7502 25.997 33.6519 28.142 33.6519C28.1561 33.6519 28.1697 33.6519 28.1842 33.6519C28.84 33.6444 29.7476 33.5552 30.7571 33.3914L32.9425 37.5773H7.54315C6.9365 37.5773 6.44494 38.0689 6.44494 38.676C6.44494 39.2826 6.9365 39.7742 7.54315 39.7742H34.7537C35.1376 39.7742 35.4934 39.573 35.6937 39.2448C35.8923 38.9167 35.9041 38.5077 35.7276 38.1681L32.9965 32.9332C34.9351 32.4513 36.9022 31.7327 38.1159 30.7803C39.2616 29.8846 39.9108 28.6906 39.9912 27.3302C40.1076 25.3679 39.0446 23.5717 38.0118 22.5446C36.3368 20.8815 32.8911 19.2478 30.2677 18.754C30.7285 17.6255 30.9969 16.4127 31.0558 15.162C31.5535 14.8743 31.8118 14.67 31.85 14.6397C32.1026 14.4359 32.2515 14.1301 32.2581 13.806C32.2809 12.4815 30.9512 9.38106 30.5431 8.46251C30.2993 7.91385 29.6611 7.66258 29.1084 7.89803C29.0109 7.93977 28.9112 7.98106 28.8093 8.02279C26.753 5.35942 23.5809 3.7881 20.1923 3.7881C16.8046 3.7881 13.6663 5.3436 11.6109 7.98721C11.4225 7.92439 11.2292 7.86157 11.0658 7.79876C10.5083 7.58351 9.88233 7.85323 9.65654 8.40541C8.94886 10.123 7.83703 13.2037 8.3343 14.5396C8.44236 14.8317 8.80872 15.1203 9.35036 15.3966C9.42811 16.5682 9.68641 17.6888 10.1072 18.7303C9.7936 18.7852 9.47116 18.8533 9.13687 18.9399L6.37905 14.5049C6.05837 13.9891 5.381 13.8323 4.86704 14.1517C4.3522 14.4719 4.19494 15.1488 4.51473 15.6641L6.99712 19.6581C5.13588 20.4097 3.31329 21.4706 2.23222 22.5446C1.19903 23.5717 0.1364 25.3679 0.251931 27.3302C0.33232 28.6902 0.980262 29.8841 2.12679 30.7798ZM20.1919 5.98408C22.6136 5.98408 24.8869 6.9997 26.5171 8.73619C25.0956 9.0573 23.2216 9.28485 20.5749 9.28485L20.1444 9.28265C17.919 9.26245 15.7617 8.98526 13.987 8.61407C15.604 6.95138 17.8167 5.98408 20.1919 5.98408ZM11.2959 10.2482C11.3201 10.2666 16.7896 11.5533 20.1233 11.4782L20.5749 11.4804C24.7442 11.4804 27.198 10.9418 28.9477 10.3189C29.3975 11.4171 29.8065 12.5553 29.9769 13.2463C28.8181 13.9167 25.5898 15.4739 19.8066 15.4067C15.4753 15.3566 10.4402 13.5411 10.3967 13.5217C10.4459 12.8918 10.8035 11.5955 11.2959 10.2482ZM3.77937 24.1027C4.70978 23.1781 6.46735 22.2042 8.17616 21.5531L10.7855 25.7523C10.178 25.5458 9.57747 25.2317 8.78193 24.7678C8.2583 24.463 7.5862 24.6404 7.27958 25.1627C6.97472 25.6872 7.15087 26.3598 7.67537 26.6655C8.98004 27.4255 10.1112 28.0225 11.7958 28.207C12.4007 28.2737 14.3692 28.5694 14.3081 29.5824C14.2598 30.3942 13.126 31.4528 12.0809 31.4555C10.1033 31.4339 5.33575 30.5049 3.48022 29.0508C2.82613 28.5395 2.48744 27.9342 2.44351 27.2006C2.37543 26.0448 3.06554 24.8117 3.77937 24.1027Z" fill="#444444"/>
<path d="M30.7013 6.92414C30.8362 6.97905 30.9759 7.00453 31.1125 7.00453C31.5469 7.00453 31.9577 6.74492 32.1312 6.31793L32.8621 4.50984C33.0893 3.94756 32.8169 3.30753 32.2555 3.08086C31.6901 2.85199 31.0536 3.1261 30.8252 3.68707L30.0951 5.49516C29.8667 6.05656 30.139 6.69703 30.7013 6.92414Z" fill="#444444"/>
<path d="M32.4874 8.81921C32.7039 9.10343 33.0308 9.25323 33.362 9.25323C33.5939 9.25323 33.8267 9.17987 34.0262 9.02963L36.1334 7.42932C36.6162 7.06252 36.7102 6.37417 36.343 5.89051C35.9775 5.4073 35.2891 5.31374 34.8059 5.6801L32.6978 7.27997C32.215 7.64677 32.121 8.33556 32.4874 8.81921Z" fill="#444444"/>
<path d="M33.1683 10.9054C33.1503 11.5111 33.6278 12.0167 34.2349 12.0343L36.6422 12.1042C36.6527 12.1042 36.6637 12.1042 36.6738 12.1042C37.2655 12.1042 37.7536 11.6328 37.7703 11.0376C37.7883 10.4318 37.3112 9.92576 36.7041 9.90819L34.2969 9.83878C33.6757 9.81901 33.1864 10.2991 33.1683 10.9054Z" fill="#444444"/>
</svg>
