<svg width="40" height="40" viewBox="0 0 40 40" fill="none" xmlns="http://www.w3.org/2000/svg">
<path d="M14.5591 26.784C15.1432 27.2435 16.2623 27.7834 17.5851 27.7834C18.4957 27.7834 19.5026 27.5271 20.4976 26.8136C20.9902 26.4606 21.1033 25.7758 20.7498 25.2845C20.3977 24.7927 19.7129 24.6796 19.2207 25.0331C17.5555 26.2273 16.0767 25.1846 15.9066 25.056C15.4304 24.6884 14.7473 24.7724 14.3744 25.246C14.0007 25.7214 14.0833 26.4102 14.5591 26.784Z" fill="#444444"/>
<path d="M15.0784 23.2865C15.7707 23.2865 16.3318 22.7254 16.3318 22.0331C16.3318 21.3409 15.7707 20.7797 15.0784 20.7797C14.3862 20.7797 13.825 21.3409 13.825 22.0331C13.825 22.7254 14.3862 23.2865 15.0784 23.2865Z" fill="#444444"/>
<path d="M21.2715 22.0331C21.2715 21.3425 20.7086 20.7805 20.0185 20.7805C19.3275 20.7805 18.7646 21.3425 18.7646 22.0331C18.7646 22.7245 19.3275 23.287 20.0185 23.287C20.7086 23.287 21.2715 22.725 21.2715 22.0331Z" fill="#444444"/>
<path d="M28.7365 25.2438C29.3215 25.7033 30.4406 26.2428 31.7639 26.2428C32.6744 26.2428 33.6822 25.9865 34.6776 25.2726C35.1698 24.9204 35.282 24.2352 34.929 23.7439C34.5756 23.2517 33.8916 23.139 33.4003 23.492C31.736 24.685 30.2546 23.644 30.0841 23.5159C29.6091 23.1483 28.9247 23.2323 28.5519 23.7059C28.1781 24.1817 28.2607 24.8701 28.7365 25.2438Z" fill="#444444"/>
<path d="M30.509 20.4929C30.509 19.8014 29.9466 19.239 29.2551 19.239C28.5637 19.239 28.0022 19.8014 28.0022 20.4929C28.0022 21.1839 28.5637 21.7463 29.2551 21.7463C29.9466 21.7463 30.509 21.1843 30.509 20.4929Z" fill="#444444"/>
<path d="M35.4491 20.4929C35.4491 19.8014 34.8867 19.239 34.1953 19.239C33.5047 19.239 32.9418 19.8014 32.9418 20.4929C32.9418 21.1839 33.5047 21.7463 34.1953 21.7463C34.8863 21.7468 35.4491 21.1843 35.4491 20.4929Z" fill="#444444"/>
<path d="M4.47305 34.9518C4.54551 35.6278 4.96523 36.1619 5.59615 36.3806C5.81485 36.4571 6.05563 36.4902 6.30968 36.4902C6.41218 36.4902 6.51733 36.4845 6.62337 36.4739C6.36667 36.9515 6.125 37.4313 5.89305 37.8974L5.85505 37.9725C5.58554 38.5146 5.80513 39.172 6.34723 39.4424C6.50408 39.5206 6.67064 39.5577 6.835 39.5577C7.23838 39.5577 7.62541 39.3351 7.81716 38.9511L7.85427 38.876C8.69725 37.1843 9.57028 35.4493 10.9381 34.499C11.6287 34.8683 12.367 35.1648 13.1499 35.3684C13.2418 35.3927 13.3346 35.4042 13.426 35.4042C13.9133 35.4042 14.3582 35.0768 14.4864 34.5838C14.6379 33.9979 14.2867 33.3993 13.7008 33.2477C10.2308 32.3455 7.80655 29.2073 7.80655 25.6162C7.80655 21.2696 11.3437 17.7333 15.6899 17.7333C20.0378 17.7333 23.5741 21.2696 23.5741 25.6162C23.5741 28.3321 22.1749 30.831 19.9273 32.2647C19.9203 32.2687 19.9132 32.2744 19.9061 32.2793C19.5849 32.4825 19.2461 32.6654 18.8913 32.8227C18.3386 33.0688 18.0898 33.716 18.3359 34.2696C18.5802 34.8219 19.2288 35.0711 19.7815 34.825C20.0126 34.723 20.2375 34.6121 20.4566 34.4936C21.931 35.4374 23.3333 37.1825 24.2819 39.2935C24.4648 39.7 24.8642 39.9408 25.2826 39.9408C25.4328 39.9408 25.5852 39.9099 25.7315 39.8445C26.2824 39.5962 26.5298 38.9476 26.2815 38.3953C25.3148 36.2432 23.9059 34.3903 22.3573 33.1651C22.7899 32.7829 23.1862 32.3637 23.5454 31.9161C24.6548 32.813 25.9427 33.4669 27.3291 33.8278C27.421 33.8521 27.5138 33.8636 27.6048 33.8636C28.0925 33.8636 28.5366 33.5362 28.6651 33.0432C28.8176 32.4573 28.4663 31.8587 27.8796 31.7067C26.7136 31.4031 25.6462 30.8244 24.7365 30.0397C25.3983 28.6869 25.7668 27.1811 25.7668 25.6162C25.7668 23.2494 24.9397 21.0748 23.5688 19.3535C25.0537 17.3662 27.3507 16.1927 29.8673 16.1927C34.2152 16.1927 37.7515 19.729 37.7515 24.0761C37.7515 26.7915 36.3523 29.2908 34.1048 30.7241C34.0973 30.7285 34.0915 30.7342 34.084 30.7382C33.7619 30.9423 33.4231 31.1244 33.0683 31.2821C32.5151 31.5282 32.2664 32.1754 32.5125 32.7295C32.6936 33.1368 33.0948 33.3798 33.5141 33.3798C33.6621 33.3798 33.8141 33.3493 33.9585 33.2848C34.1803 33.1859 34.3973 33.0798 34.6098 32.9667C35.9706 33.9772 36.9099 36.0745 37.6773 37.8024L37.904 38.3087C38.086 38.7152 38.4854 38.956 38.9042 38.956C39.054 38.956 39.2064 38.9251 39.3527 38.8597C39.9049 38.6114 40.1519 37.9628 39.9032 37.4105L39.6809 36.9122C38.8994 35.1546 37.9605 33.0701 36.4756 31.6788C38.6409 29.7945 39.9443 27.0362 39.9443 24.0752C39.9443 18.5193 35.4245 14 29.8678 14C26.7596 14 23.9028 15.39 22.0034 17.774C20.2742 16.3796 18.0801 15.5402 15.6908 15.5402C10.1354 15.5402 5.61514 20.06 5.61514 25.6153C5.61514 27.1993 5.99157 28.7098 6.65783 30.0627C5.7066 31.1297 4.33034 33.6321 4.47305 34.9518ZM7.90817 32.0067C8.24086 32.4123 8.60403 32.7913 8.99725 33.1412C8.60933 33.4748 7.47696 34.0474 6.7568 34.2405C6.97373 33.6021 7.48403 32.6376 7.90817 32.0067Z" fill="#444444"/>
<path d="M3.53099 28.8825C3.74174 29.0769 4.00815 29.1732 4.27413 29.1732C4.56926 29.1732 4.86351 29.0543 5.07956 28.8202C5.49001 28.3753 5.46217 27.6821 5.01815 27.2721L3.54204 25.9104C3.09713 25.5004 2.4048 25.5273 1.99391 25.9727C1.58347 26.4171 1.6113 27.1108 2.05533 27.5212L3.53099 28.8825Z" fill="#444444"/>
<path d="M0.97692 31.3218C1.38427 31.3673 2.56525 31.5118 3.11752 31.6403C3.20102 31.6598 3.28497 31.6695 3.36715 31.6695C3.86463 31.6695 4.31617 31.3271 4.43413 30.8212C4.57065 30.2318 4.20395 29.6424 3.61456 29.5055C2.82415 29.3212 1.28177 29.1511 1.21594 29.1436C0.615956 29.0751 0.0742895 29.5112 0.00669163 30.1121C-0.0595808 30.7143 0.373841 31.2559 0.97692 31.3218Z" fill="#444444"/>
<path d="M2.99604 34.7915C3.24213 34.647 3.47496 34.5105 3.69852 34.4115C4.25124 34.1654 4.49954 33.5181 4.25344 32.965C4.00824 32.4118 3.36009 32.164 2.80694 32.4087C2.4716 32.5581 2.17558 32.7317 1.88752 32.9005C1.62066 33.0569 1.36839 33.2045 1.1276 33.3056C0.56914 33.5389 0.306259 34.1809 0.538654 34.7393C0.714497 35.1591 1.12185 35.4122 1.55086 35.4122C1.69091 35.4122 1.8345 35.3848 1.97191 35.3278C2.35054 35.1701 2.67881 34.9775 2.99604 34.7915Z" fill="#444444"/>
<rect width="40" height="40" fill="#C4C4C4" fill-opacity="0.01"/>
</svg>
